#N canvas 0 50 1366 725 10;
#X obj 135 28 inlet;
#X obj 225 26 nbx 5 14 -1e+037 1e+037 0 0 empty empty empty 0 -8 0
10 -262144 -1 -1 39.9838 256;
#X obj 276 580 nbx 5 14 -1e+037 1e+037 0 0 empty empty empty 0 -8 0
10 -262144 -1 -1 0 256;
#X obj 232 48 int;
#X obj 304 617 outlet;
#X obj 145 322 nn_note;
#X obj 161 297 r note1;
#X obj 243 72 t f f f f f f f f;
#X obj 245 291 nn_note;
#X obj 261 266 r note2;
#X obj 321 272 nn_note;
#X obj 421 241 nn_note;
#X obj 509 217 nn_note;
#X obj 609 186 nn_note;
#X obj 685 167 nn_note;
#X obj 785 136 nn_note;
#X obj 337 247 r note3;
#X obj 437 216 r note4;
#X obj 525 192 r note5;
#X obj 625 161 r note6;
#X obj 702 142 r note7;
#X obj 801 112 r note8;
#X connect 0 0 1 0;
#X connect 1 0 3 0;
#X connect 2 0 4 0;
#X connect 3 0 7 0;
#X connect 5 0 2 0;
#X connect 6 0 5 1;
#X connect 7 0 5 0;
#X connect 7 1 8 0;
#X connect 7 2 10 0;
#X connect 7 3 11 0;
#X connect 7 4 12 0;
#X connect 7 5 13 0;
#X connect 7 6 14 0;
#X connect 7 7 15 0;
#X connect 8 0 5 2;
#X connect 9 0 8 1;
#X connect 10 0 8 2;
#X connect 11 0 10 2;
#X connect 12 0 11 2;
#X connect 13 0 12 2;
#X connect 14 0 13 2;
#X connect 15 0 14 2;
#X connect 16 0 10 1;
#X connect 17 0 11 1;
#X connect 18 0 12 1;
#X connect 19 0 13 1;
#X connect 20 0 14 1;
#X connect 21 0 15 1;
