#N canvas 11 50 1356 518 10;
#X declare -path ./util/;
#X declare -path patchmenu;
#X obj 390 457 throw~ outL;
#X obj 491 461 throw~ outR;
#X obj 453 120 r notes;
#X obj 82 100 declare -path ./util/;
#X obj 81 121 declare -path patchmenu;
#X obj 81 302 patchmenu;
#X obj 113 215 s enableSubMenu;
#X obj 81 143 loadbang;
#X msg 81 215 0;
#X obj 81 192 t b b;
#X obj 47 122 bng 15 250 50 0 empty empty empty 17 7 0 10 -262144 -1
-1;
#X msg 39 273 1;
#X obj 39 241 delay 3000;
#X obj 81 167 versioncheck 2;
#X msg 81 331 \; screenLine1 Basic \; screenLine2 Tweaks \; screenLine3
Arp \; screenLine4 Effects \; screenLine5 <-- Home \;;
#X obj 772 118 r aux;
#X obj 235 213 s screenLine5;
#X obj 767 146 s seq2-1-aux;
#X obj 338 134 r seq2-1-notes-out;
#X obj 354 210 bng 15 250 50 0 empty empty empty 17 7 0 10 -262144
-1 -1;
#X obj 942 199 s screenLine5;
#X obj 745 186 ./Sequencer2/Sequencer2 1;
#X obj 933 159 r seq2-1-aux-label;
#X obj 512 173 spigot 0;
#X msg 574 126 \$1;
#X obj 593 145 nbx 5 14 -1e+037 1e+037 0 0 empty empty empty 0 -8 0
10 -262144 -1 -1 73 256;
#X obj 597 165 < 72;
#X obj 502 143 t a a;
#X obj 599 246 s seq2-1-notes-in;
#X obj 534 246 bng 15 250 50 0 empty empty empty 17 7 0 10 -262144
-1 -1;
#X obj 402 226 samp/samp_array 1 2;
#X obj 578 313 lop~ 22000;
#X obj 416 306 lop~ 22000;
#X obj 498 409 hip~ 0;
#X obj 705 307 r p3k1;
#X obj 760 310 r p3k2;
#X obj 805 432 screensave 3;
#X obj 695 418 screensave 3;
#X msg 689 386 1: LoCut \$1;
#X msg 791 379 2: HiCut \$1;
#X obj 700 456 s p3s1;
#X obj 802 468 s p3s2;
#X obj 414 370 hip~ 0;
#X obj 790 345 * 8000;
#X obj 780 230 t f f;
#X obj 802 261 *;
#X obj 710 352 * 24000;
#X connect 2 0 27 0;
#X connect 2 0 30 0;
#X connect 5 0 14 0;
#X connect 7 0 13 0;
#X connect 8 0 5 0;
#X connect 9 0 8 0;
#X connect 9 0 12 0;
#X connect 9 1 6 0;
#X connect 10 0 9 0;
#X connect 11 0 5 0;
#X connect 13 0 9 0;
#X connect 15 0 17 0;
#X connect 18 0 19 0;
#X connect 18 0 30 1;
#X connect 22 0 20 0;
#X connect 23 0 28 0;
#X connect 23 0 29 0;
#X connect 24 0 25 0;
#X connect 25 0 26 0;
#X connect 26 0 23 1;
#X connect 27 0 23 0;
#X connect 27 1 24 0;
#X connect 30 0 32 0;
#X connect 30 1 31 0;
#X connect 31 0 33 0;
#X connect 32 0 42 0;
#X connect 33 0 1 0;
#X connect 34 0 38 0;
#X connect 34 0 44 0;
#X connect 35 0 39 0;
#X connect 35 0 43 0;
#X connect 36 0 41 0;
#X connect 37 0 40 0;
#X connect 38 0 37 0;
#X connect 39 0 36 0;
#X connect 42 0 0 0;
#X connect 43 0 33 1;
#X connect 43 0 42 1;
#X connect 44 0 45 0;
#X connect 44 1 45 1;
#X connect 45 0 46 0;
#X connect 46 0 32 1;
#X connect 46 0 31 1;
