#N canvas 777 142 450 300 10;
#X obj 61 25 key;
#X obj 116 25 keyup;
#X obj 70 136 change;
#X msg 65 97 1;
#X msg 120 96 0;
#X obj 74 188 outlet;
#X obj 61 62 sel \$1;
#X obj 127 63 sel \$1;
#X connect 0 0 6 0;
#X connect 1 0 7 0;
#X connect 2 0 5 0;
#X connect 3 0 2 0;
#X connect 4 0 2 0;
#X connect 6 0 3 0;
#X connect 7 0 4 0;
