#N canvas 0 50 1360 725 10;
#X obj 832 681 i;
#X obj 42 532 loadbang;
#X obj 861 193 r aux;
#X obj 838 263 i 0, f 5;
#X obj 908 263 + 1;
#X floatatom 838 333 5 0 0 0 - - -, f 5;
#X obj 860 224 sel 1;
#X obj 838 354 s led;
#X text 607 545 smooth knobs 1-3 \, send param updates to screen;
#X text 40 510 screen lines;
#X obj 832 704 change -1;
#X obj 885 311 s waveform;
#X obj 838 289 % 4;
#X obj 838 311 + 2;
#X obj 814 166 loadbang;
#X text 939 260 the aux button changes waveform;
#X obj 898 336 sel 0 1 2 3, f 60;
#X msg 1002 372 Aux: Square Wave;
#X obj 1002 398 s screenLine5;
#X obj 898 454 s screenLine5;
#X msg 898 428 Aux: Sine Wave;
#X obj 1106 460 s screenLine5;
#X obj 1210 392 s screenLine5;
#X msg 1106 434 Aux: Sawtooth Wave;
#X msg 1210 366 Aux: Triangle Wave;
#X text 24 19 basic polyphonic patch with 8 voices;
#X obj 933 188 r fs;
#X obj 494 794 send~ f;
#X obj 493 738 sig~;
#X obj 430 820 change -1;
#X obj 486 627 / 100;
#X obj 493 689 mtof;
#X obj 493 711 / 8.1785;
#X msg 430 846 1: Tune \$1 cents;
#X obj 430 801 i;
#X obj 224 505 *~ 0.3;
#X obj 169 240 nbx 5 14 -1e+037 1e+037 0 0 empty empty empty 0 -8 0
10 -262144 -1 -1 0 256;
#X obj 72 235 nbx 5 14 -1e+037 1e+037 0 0 empty empty empty 0 -8 0
10 -262144 -1 -1 73 256;
#X obj 72 264 t f f f;
#X obj 249 423 +;
#X obj 52 406 +;
#X obj 98 409 +;
#X obj 155 416 +;
#X obj 488 657 i;
#X obj 459 714 * 100;
#X obj 492 769 lop~ 0.8;
#X msg 300 387 0;
#X msg 348 386 1;
#X obj 313 342 r sevenon;
#X obj 290 364 r sevenoff;
#X obj 334 416 sig~ 0;
#X obj 285 488 *~;
#X obj 333 440 lop~ 5;
#N canvas 0 50 1360 725 chordlogic 0;
#X obj 205 172 % 12;
#X obj 208 196 nbx 5 14 -1e+037 1e+037 0 0 empty empty empty 0 -8 0
10 -262144 -1 -1 1 256;
#X obj 462 662 outlet;
#X obj 511 670 outlet;
#X obj 598 665 outlet;
#X obj 554 674 outlet;
#N canvas 0 50 450 250 (subpatch) 0;
#X array voicing 32 float 3;
#A 0 0 0 0 0 0 -12 0 0 0 0 -12 0 12 0 0 -12 -12 0 0 0 12 -12 -12 0
-12 0 -12 0 0 -12 0 -12;
#X coords 0 -13 32 13 200 140 1 0 0;
#X restore 1070 20 graph;
#X obj 612 551 tabread voicing;
#X obj 626 573 tabread voicing;
#X obj 647 597 tabread voicing;
#X obj 671 625 tabread voicing;
#X obj 540 425 r voicing;
#X obj 564 470 * 4;
#X obj 608 477 + 1;
#X obj 569 493 + 2;
#X obj 845 474 + 3;
#X obj 468 602 i;
#X obj 557 447 t b f;
#X obj 466 625 + 0;
#X obj 517 600 i;
#X obj 515 623 + 0;
#X obj 567 605 i;
#X obj 565 628 + 0;
#X obj 617 608 i;
#X obj 615 631 + 0;
#X obj 241 35 i;
#X obj 233 6 inlet;
#X obj 348 -6 r recalc;
#X obj 104 57 nbx 5 14 -1e+037 1e+037 0 0 empty empty empty 0 -8 0
10 -262144 -1 -1 73 256;
#N canvas 0 50 450 250 (subpatch) 0;
#X array harm 672 float 3;
#A 0 0 4 7 11 0 4 7 11 0 3 7 10 0 4 7 11 0 3 7 10 0 4 7 11 0 3 6 10
0 4 7 10 0 4 7 11 0 3 7 10 0 4 7 11 0 3 6 10 0 4 7 11 0 4 7 11 0 3
7 10 0 4 7 11 0 3 7 10 0 4 7 11 0 3 6 10 0 4 7 10 0 4 7 11 0 3 7 10
0 4 7 11 0 3 6 10 0 4 7 11 0 4 7 11 0 4 7 11 0 4 7 11 0 4 7 11 0 4
7 11 0 4 7 11 0 4 7 11 0 4 7 11 0 4 7 11 0 4 7 11 0 4 7 11 0 3 7 10
0 3 7 10 0 3 7 10 0 3 7 10 0 3 7 10 0 3 7 10 0 3 7 10 0 3 7 10 0 3
7 10 0 3 7 10 0 3 7 10 0 3 7 10 0 3 6 10 0 3 6 10 0 3 6 10 0 3 6 10
0 3 6 10 0 3 6 10 0 3 6 10 0 3 6 10 0 3 6 10 0 3 6 10 0 3 6 10 0 3
6 10 0 4 7 11 0 4 7 11 0 4 7 11 0 4 7 11 0 4 7 11 0 4 7 11 0 4 7 11
0 4 7 11 0 4 7 11 0 4 7 11 0 4 7 11 0 4 7 11 0 3 7 10 0 3 7 10 0 3
7 10 0 3 7 10 0 3 7 10 0 3 7 10 0 3 7 10 0 3 7 10 0 3 7 10 0 3 7 10
0 3 7 10 0 3 7 10 0 4 7 10 0 4 7 10 0 4 7 10 0 4 7 10 0 4 7 10 0 4
7 10 0 4 7 10 0 4 7 10 0 4 7 10 0 4 7 10 0 4 7 10 0 4 7 10 0 3 6 10
0 3 6 10 0 3 6 10 0 3 6 10 0 3 6 10 0 3 6 10 0 3 6 10 0 3 6 10 0 3
6 10 0 3 6 10 0 3 6 10 0 3 6 10 0 4 11 14 0 4 10 18 0 3 10 14 0 4 9
11 0 3 7 10 0 3 10 14 0 4 10 18 0 4 10 13 0 4 8 10 0 4 10 15 0 4 11
18 0 4 8 10 0 4 7 11 0 4 8 11 0 3 7 10 0 4 7 11 0 4 7 10 0 4 7 11 0
3 6 10 0 4 7 10 0 3 6 9 0 3 7 11 0 4 7 11 0 3 6 10 0 4 7 11 0 4 8 11
0 3 7 10 0 4 7 11 0 4 7 10 0 4 7 11 0 3 6 10 0 4 7 10 0 3 6 9 0 3 7
11 0 4 7 11 0 3 6 10 0 15 22 26 0 18 23 28 0 15 22 26 0 21 23 28 0
19 22 27 0 15 22 26 0 20 22 28 0 16 22 27 0 14 16 23 0 15 20 22 0 10
15 21 0 9 15 20 0 2 4 7 0 2 4 7 0 2 3 7 0 2 4 7 0 2 3 7 0 2 4 7 0 2
3 7 0 2 4 7 0 2 4 7 0 2 3 7 0 2 4 7 0 2 3 7;
#X coords 0 24 672 0 200 140 1 0 0;
#X restore 705 30 graph;
#X obj 935 366 i;
#X obj 941 392 change -1;
#X obj 915 320 t b f;
#X obj 858 376 s recalc;
#X obj 916 273 r p\$1k4;
#X obj 1059 638 s p\$1s4;
#X obj 1056 613 screensave \$1;
#X obj 959 433 nbx 5 14 -1e+037 1e+037 0 0 empty empty empty 0 -8 0
10 -262144 -1 -1 0 256;
#X obj 1007 493 t b f;
#X obj 1012 536 list split 0;
#X obj 1054 568 list split 1;
#X msg 1060 592 4: \$1;
#X obj 875 567 list split 0;
#X obj 907 590 list split 1;
#X obj 915 613 nbx 5 14 -1e+037 1e+037 0 0 empty empty empty 0 -8 0
10 -262144 -1 -1 0 256;
#X obj 404 200 * 48;
#X obj 888 636 sel 1 0;
#X obj 809 660 s sevenon;
#X obj 896 659 s sevenoff;
#X floatatom 347 262 5 0 0 0 - - -, f 5;
#X obj 73 421 nbx 5 14 -1e+037 1e+037 0 0 empty empty empty 0 -8 0
10 -262144 -1 -1 0 256;
#X obj 313 459 nbx 5 14 -1e+037 1e+037 0 0 empty empty empty 0 -8 0
10 -262144 -1 -1 11 256;
#X obj 235 256 +;
#X obj 56 382 tabread harm;
#X obj 167 379 tabread harm;
#X obj 263 377 tabread harm;
#X obj 381 381 tabread harm;
#X obj 233 280 + 1;
#X obj 283 306 + 2;
#X obj 246 226 * 4;
#X obj 338 337 + 3;
#X msg 1067 303 harm harm7 maj min dim maj7 min7 dom7 dim7 jazz7 baroque
baroque7 jfunk mu;
#X obj 943 340 * 13.5;
#X msg 879 421 0 1 0 0 0 1 1 1 1 1 0 1 1 1;
#X connect 0 0 1 0;
#X connect 1 0 59 0;
#X connect 7 0 18 1;
#X connect 8 0 20 1;
#X connect 9 0 22 1;
#X connect 10 0 24 1;
#X connect 11 0 17 0;
#X connect 12 0 7 0;
#X connect 12 0 13 0;
#X connect 12 0 14 0;
#X connect 12 0 15 0;
#X connect 13 0 8 0;
#X connect 14 0 9 0;
#X connect 15 0 10 0;
#X connect 16 0 18 0;
#X connect 17 0 16 0;
#X connect 17 0 19 0;
#X connect 17 0 21 0;
#X connect 17 0 23 0;
#X connect 17 1 12 0;
#X connect 18 0 2 0;
#X connect 19 0 20 0;
#X connect 20 0 3 0;
#X connect 21 0 22 0;
#X connect 22 0 5 0;
#X connect 23 0 24 0;
#X connect 24 0 4 0;
#X connect 25 0 0 0;
#X connect 26 0 25 0;
#X connect 26 0 28 0;
#X connect 27 0 25 0;
#X connect 30 0 31 0;
#X connect 30 0 45 0;
#X connect 31 0 37 0;
#X connect 32 0 33 0;
#X connect 32 1 62 0;
#X connect 34 0 32 0;
#X connect 36 0 35 0;
#X connect 37 0 38 0;
#X connect 38 0 61 0;
#X connect 38 0 63 0;
#X connect 38 1 39 1;
#X connect 38 1 42 1;
#X connect 39 1 40 0;
#X connect 40 0 41 0;
#X connect 41 0 36 0;
#X connect 42 1 43 0;
#X connect 43 0 44 0;
#X connect 44 0 46 0;
#X connect 45 0 49 0;
#X connect 45 0 52 1;
#X connect 46 0 47 0;
#X connect 46 1 48 0;
#X connect 52 0 53 0;
#X connect 52 0 57 0;
#X connect 52 0 58 0;
#X connect 52 0 60 0;
#X connect 53 0 16 0;
#X connect 53 0 50 0;
#X connect 54 0 19 0;
#X connect 55 0 21 0;
#X connect 56 0 23 0;
#X connect 56 0 51 0;
#X connect 57 0 54 0;
#X connect 58 0 55 0;
#X connect 59 0 52 0;
#X connect 60 0 56 0;
#X connect 61 0 39 0;
#X connect 62 0 30 0;
#X connect 63 0 42 0;
#X restore 43 327 pd chordlogic;
#X obj 832 656 * 8;
#X msg 823 786 3: Voicing \$1;
#X obj 867 753 s voicing;
#X msg 42 555 \; screenLine1 1: Tune \; screenLine2 2: Vibrato Rate
\; screenLine3 3: Voicing \; screenLine4 4: Chord \; screenLine5 Aux:
Wave \;;
#X obj 129 150 notein_mono;
#X obj 682 618 sig~;
#X obj 682 640 lop~ 5;
#X obj 633 753 i;
#X obj 633 728 * 100;
#X obj 633 776 change -1;
#X msg 633 803 2: Vibrato Depth \$1 %;
#X obj 554 629 loadbang;
#X msg 539 655 12;
#X obj 657 299 s pitch_lop;
#X obj 293 139 nbx 5 14 -1e+037 1e+037 0 0 empty empty empty 0 -8 0
10 -262144 -1 -1 73 256;
#X obj 382 204 nbx 5 14 -1e+037 1e+037 0 0 empty empty empty 0 -8 0
10 -262144 -1 -1 84 256;
#X obj 296 187 nbx 5 14 -1e+037 1e+037 0 0 empty empty empty 0 -8 0
10 -262144 -1 -1 77 256;
#X obj 366 144 nbx 5 14 -1e+037 1e+037 0 0 empty empty empty 0 -8 0
10 -262144 -1 -1 80 256;
#X obj 230 211 bng 15 250 50 0 empty empty empty 17 7 0 10 -262144
-1 -1;
#X msg 203 70 0;
#X msg 164 71 0.1;
#X obj 85 107 inlet;
#X obj 437 366 outlet;
#X obj 260 583 outlet~;
#X obj 480 577 r p\$1k1;
#X obj 483 602 * 2405;
#X obj 431 878 s p\$1s1;
#X obj 680 586 r p\$1k2;
#X obj 613 872 s p\$1s2;
#X obj 798 876 s p\$1s3;
#X obj 873 579 r p\$1k3;
#X obj 498 252 tgl 15 0 empty empty empty 17 7 0 10 -262144 -1 -1 0
1;
#X obj 298 166 midify;
#X obj 376 179 midify;
#X obj 302 206 midify;
#X obj 384 233 midify;
#X obj 413 254 unpack 0 0;
#X obj 415 300 pack 0 0;
#X obj 464 278 * 1;
#X text 518 294 mute 7th;
#X obj 394 856 screensave \$1;
#X obj 583 826 screensave \$1;
#X obj 801 839 screensave \$1;
#X obj 555 35 r p\$2k1;
#X obj 548 111 screensave \$2, f 15;
#X text 539 7 page 2 lfo speed glide attack decay;
#X obj 548 133 s p\$2s1;
#X obj 678 115 screensave \$2;
#X obj 815 117 screensave \$2;
#X obj 958 122 screensave \$2;
#X obj 670 41 r p\$2k2;
#X obj 819 40 r p\$2k3;
#X obj 962 45 r p\$2k4;
#X obj 678 139 s p\$2s2;
#X obj 815 140 s p\$2s3;
#X obj 960 150 s p\$2s4;
#X msg 550 82 1: LFOspd \$1;
#X msg 681 85 2: Glide \$1;
#X msg 818 87 3: Attack \$1;
#X msg 957 103 4: Decay \$1;
#X obj 833 63 s zchordattack;
#X obj 983 69 s zchorddecay;
#X obj 259 453 voice;
#X obj 682 662 s~ zchordvibrato;
#X obj 189 453 voice;
#X obj 118 453 voice;
#X obj 48 452 voice;
#X obj 498 195 s zchordvibspeed;
#X obj 442 5 loadbang;
#X obj 447 48 del 15;
#X obj 565 60 * 20;
#X obj 1118 25 loadbang;
#X obj 1123 52 del 15;
#X obj 660 179 - 1;
#X obj 661 200 abs;
#X obj 662 269 nbx 5 14 -1e+037 1e+037 0 0 empty empty empty 0 -8 0
10 -262144 -1 -1 0 256;
#X obj 663 219 * 20;
#X obj 673 245 + 0.3;
#X msg 1120 77 0.2;
#X obj 1115 141 nbx 5 14 -1e+037 1e+037 0 0 empty empty empty 0 -8
0 10 -262144 -1 -1 0 256;
#X obj 1168 84 bng 15 250 50 0 empty empty empty 17 7 0 10 -262144
-1 -1;
#X text 1170 116 init value;
#X msg 449 80 0.375;
#X obj 1089 192 nbx 5 14 -1e+037 1e+037 0 0 empty empty empty 0 -8
0 10 -262144 -1 -1 0 256;
#X obj 1118 103 v p\$2k4;
#X obj 447 103 v p\$2k1;
#X obj 449 124 v p\$2k2;
#X connect 0 0 10 0;
#X connect 1 0 57 0;
#X connect 2 0 6 0;
#X connect 3 0 4 0;
#X connect 3 0 12 0;
#X connect 4 0 3 1;
#X connect 5 0 7 0;
#X connect 6 0 3 0;
#X connect 10 0 55 0;
#X connect 10 0 56 0;
#X connect 12 0 13 0;
#X connect 12 0 11 0;
#X connect 12 0 16 0;
#X connect 13 0 5 0;
#X connect 14 0 3 0;
#X connect 16 0 20 0;
#X connect 16 1 17 0;
#X connect 16 2 23 0;
#X connect 16 3 24 0;
#X connect 17 0 18 0;
#X connect 20 0 19 0;
#X connect 23 0 21 0;
#X connect 24 0 22 0;
#X connect 26 0 6 0;
#X connect 28 0 45 0;
#X connect 29 0 33 0;
#X connect 30 0 43 0;
#X connect 31 0 32 0;
#X connect 32 0 28 0;
#X connect 33 0 94 0;
#X connect 34 0 29 0;
#X connect 35 0 77 0;
#X connect 36 0 116 1;
#X connect 36 0 118 1;
#X connect 36 0 119 1;
#X connect 36 0 120 1;
#X connect 37 0 38 0;
#X connect 38 1 53 0;
#X connect 38 2 39 1;
#X connect 38 2 42 1;
#X connect 38 2 41 1;
#X connect 38 2 40 1;
#X connect 39 0 69 0;
#X connect 39 0 116 0;
#X connect 40 0 68 0;
#X connect 40 0 120 0;
#X connect 41 0 70 0;
#X connect 41 0 119 0;
#X connect 42 0 71 0;
#X connect 42 0 118 0;
#X connect 43 0 31 0;
#X connect 43 0 44 0;
#X connect 44 0 34 0;
#X connect 45 0 27 0;
#X connect 46 0 50 0;
#X connect 46 0 85 0;
#X connect 47 0 50 0;
#X connect 47 0 85 0;
#X connect 48 0 47 0;
#X connect 49 0 46 0;
#X connect 50 0 52 0;
#X connect 51 0 35 0;
#X connect 52 0 51 1;
#X connect 53 0 40 0;
#X connect 53 1 41 0;
#X connect 53 2 42 0;
#X connect 53 3 39 0;
#X connect 54 0 0 0;
#X connect 55 0 96 0;
#X connect 58 0 37 0;
#X connect 58 1 36 0;
#X connect 58 1 72 0;
#X connect 58 1 86 1;
#X connect 58 1 87 1;
#X connect 58 1 88 1;
#X connect 58 1 89 1;
#X connect 59 0 60 0;
#X connect 60 0 117 0;
#X connect 61 0 63 0;
#X connect 62 0 61 0;
#X connect 63 0 64 0;
#X connect 64 0 95 0;
#X connect 65 0 66 0;
#X connect 66 0 31 0;
#X connect 68 0 86 0;
#X connect 69 0 89 0;
#X connect 70 0 88 0;
#X connect 71 0 87 0;
#X connect 73 0 35 1;
#X connect 74 0 35 1;
#X connect 75 0 58 0;
#X connect 78 0 79 0;
#X connect 79 0 30 0;
#X connect 81 0 59 0;
#X connect 81 0 62 0;
#X connect 84 0 54 0;
#X connect 85 0 92 1;
#X connect 86 0 76 0;
#X connect 87 0 76 0;
#X connect 88 0 76 0;
#X connect 89 0 90 0;
#X connect 90 0 91 0;
#X connect 90 1 92 0;
#X connect 91 0 76 0;
#X connect 92 0 91 1;
#X connect 94 0 80 0;
#X connect 95 0 82 0;
#X connect 96 0 83 0;
#X connect 97 0 124 0;
#X connect 98 0 100 0;
#X connect 101 0 107 0;
#X connect 102 0 108 0;
#X connect 103 0 109 0;
#X connect 104 0 111 0;
#X connect 104 0 127 0;
#X connect 105 0 112 0;
#X connect 105 0 114 0;
#X connect 106 0 113 0;
#X connect 106 0 115 0;
#X connect 106 0 137 0;
#X connect 110 0 98 0;
#X connect 111 0 101 0;
#X connect 112 0 102 0;
#X connect 113 0 103 0;
#X connect 116 0 51 0;
#X connect 118 0 35 0;
#X connect 119 0 35 0;
#X connect 120 0 35 0;
#X connect 122 0 123 0;
#X connect 123 0 136 0;
#X connect 124 0 110 0;
#X connect 124 0 121 0;
#X connect 125 0 126 0;
#X connect 126 0 132 0;
#X connect 127 0 128 0;
#X connect 128 0 130 0;
#X connect 129 0 67 0;
#X connect 130 0 131 0;
#X connect 131 0 129 0;
#X connect 132 0 115 0;
#X connect 132 0 113 0;
#X connect 132 0 138 0;
#X connect 134 0 138 0;
#X connect 136 0 124 0;
#X connect 136 0 139 0;
#X connect 136 0 140 0;
#X connect 136 0 127 0;
#X connect 136 0 111 0;
#X connect 138 0 133 0;
