#N canvas 0 50 1366 725 10;
#X obj 206 202 sig~ 1;
#X obj 70 285 *~;
#X msg 293 170 0;
#X msg 159 164 1;
#X obj 64 124 inlet~;
#X obj 72 346 outlet~;
#X obj 216 240 lop~ 10;
#X obj 208 149 del 250;
#X obj 125 286 *~;
#X obj 119 125 inlet~;
#X obj 127 347 outlet~;
#X obj 244 61 r quickmute;
#X obj 227 127 t b f b;
#X connect 0 0 6 0;
#X connect 1 0 5 0;
#X connect 2 0 0 0;
#X connect 3 0 0 0;
#X connect 4 0 1 0;
#X connect 6 0 1 1;
#X connect 6 0 8 1;
#X connect 7 0 3 0;
#X connect 8 0 10 0;
#X connect 9 0 8 0;
#X connect 11 0 12 0;
#X connect 12 0 7 0;
#X connect 12 1 7 1;
#X connect 12 2 2 0;
