#N canvas -8 -8 1366 725 10;
#X obj 162 194 r notes;
#X obj 162 273 unpack 0 0;
#X obj 162 333 pack 0 0 0;
#N canvas 0 50 450 278 (subpatch) 0;
#X array notes-from-poly 8 float 2;
#X coords 0 127 8 0 200 140 1 0 0;
#X restore 886 85 graph;
#X obj 162 414 unpack;
#N canvas 0 50 450 278 (subpatch) 0;
#X array notes-squashed 8 float 3;
#A 0 0 0 0 0 0 0 0 0;
#X coords 0 127 8 0 200 140 1 0 0;
#X restore 885 267 graph;
#N canvas 0 50 450 278 (subpatch) 0;
#X array notes-latched 8 float 3;
#A 0 73 75 76 77 85 87 0 0;
#X coords 0 127 8 0 200 140 1 0 0;
#X restore 583 140 graph;
#X obj 116 544 s reorder;
#N canvas 133 50 826 891 array-sort 0;
#X obj 263 111 until;
#X obj 263 153 f;
#X obj 296 154 + 1, f 4;
#X msg 321 91 0, f 2;
#X obj 296 21 bng 15 250 50 0 empty empty empty 17 7 0 10 -262144 -1
-1;
#X obj 312 267 f;
#X obj 264 232 t f b;
#X obj 262 182 t f f;
#X obj 249 452 f;
#X floatatom 240 515 5 0 0 0 - - -, f 5;
#X obj 306 399 sel 1;
#X obj 214 485 f;
#X obj 173 537 f;
#X obj 213 553 t b b;
#X obj 323 560 t b f;
#X obj 250 580 f;
#X obj 343 -90 until;
#X obj 344 -46 f;
#X obj 376 -47 + 1, f 4;
#X msg 401 -110 0, f 2;
#X obj 345 -139 t b b;
#X obj 329 -11 t b f;
#X obj 214 -206 r reorder;
#X obj 252 48 t b b b b;
#X msg 314 585 0, f 2;
#X msg 357 89 0;
#X obj 217 333 expr if ($f1 > $f2 \, $f1 \, $f2) \; if ($f1 > $f2 \,
1 \, 0);
#X msg 344 -115 8, f 2;
#X msg 263 83 8, f 2;
#X obj 170 -206 bng 15 250 50 0 empty empty empty 17 7 0 10 -262144
-1 -1;
#X obj 264 210 tabread notes-squashed;
#X obj 314 621 tabwrite notes-squashed;
#X obj 139 648 tabwrite notes-decreasing;
#X text 419 137 sort array a into b. a gets clobbered in the process
probably a much better way to do this ...;
#X obj 204 -173 t b b b;
#X connect 0 0 1 0;
#X connect 1 0 2 0;
#X connect 1 0 7 0;
#X connect 2 0 1 1;
#X connect 3 0 1 1;
#X connect 4 0 23 0;
#X connect 5 0 26 1;
#X connect 6 0 26 0;
#X connect 6 1 5 0;
#X connect 7 0 30 0;
#X connect 7 1 8 1;
#X connect 8 0 11 1;
#X connect 9 0 14 0;
#X connect 10 0 8 0;
#X connect 11 0 9 0;
#X connect 11 0 13 0;
#X connect 12 0 32 0;
#X connect 13 0 12 0;
#X connect 13 1 15 0;
#X connect 14 0 24 0;
#X connect 14 1 31 1;
#X connect 15 0 32 1;
#X connect 16 0 17 0;
#X connect 17 0 18 0;
#X connect 17 0 21 0;
#X connect 18 0 17 1;
#X connect 19 0 17 1;
#X connect 20 0 27 0;
#X connect 20 1 19 0;
#X connect 21 0 4 0;
#X connect 21 1 15 1;
#X connect 22 0 34 0;
#X connect 23 0 11 0;
#X connect 23 1 28 0;
#X connect 23 2 3 0;
#X connect 23 3 25 0;
#X connect 24 0 31 0;
#X connect 25 0 5 1;
#X connect 26 0 5 1;
#X connect 26 0 12 1;
#X connect 26 1 10 0;
#X connect 27 0 16 0;
#X connect 28 0 0 0;
#X connect 29 0 34 0;
#X connect 30 0 6 0;
#X connect 34 2 20 0;
#X restore 767 501 pd array-sort;
#X text 1127 148 array1 is raw data from poly (notes with 0 velocity
are given 0 pitch);
#X text 1102 522 here are the notes sorted...;
#X floatatom 728 590 5 0 0 0 - - -, f 5;
#N canvas 0 50 450 278 (subpatch) 0;
#X array notes-decreasing 8 float 2;
#X coords 0 127 8 0 200 140 1 0 0;
#X restore 886 460 graph;
#N canvas 167 50 726 731 increasing 0;
#X obj 156 260 until;
#X obj 157 304 f;
#X obj 189 303 + 1, f 4;
#X msg 214 240 0, f 2;
#X obj 155 236 f 0;
#X obj 156 357 - 0;
#X obj 157 408 abs;
#X obj 157 326 t f f;
#X obj 266 471 f;
#X obj 156 469 t f b;
#X obj 320 197 r num-down;
#X obj 156 379 + 1;
#X obj 416 331 until;
#X obj 416 373 f;
#X obj 449 374 + 1, f 4;
#X msg 474 311 0, f 2;
#X obj 416 276 t b b;
#X obj 424 398 t b f;
#X msg 415 423 0, f 2;
#X msg 416 303 8, f 2;
#X obj 155 197 t b b b;
#X obj 156 437 tabread notes-decreasing;
#X obj 152 508 tabwrite notes-increasing;
#X obj 413 448 tabwrite notes-increasing;
#X obj 153 67 inlet;
#X connect 0 0 1 0;
#X connect 1 0 2 0;
#X connect 1 0 7 0;
#X connect 2 0 1 1;
#X connect 3 0 1 1;
#X connect 4 0 0 0;
#X connect 5 0 11 0;
#X connect 6 0 21 0;
#X connect 7 0 5 0;
#X connect 7 1 8 1;
#X connect 8 0 22 1;
#X connect 9 0 22 0;
#X connect 9 1 8 0;
#X connect 10 0 4 1;
#X connect 10 0 5 1;
#X connect 11 0 6 0;
#X connect 12 0 13 0;
#X connect 13 0 14 0;
#X connect 13 0 17 0;
#X connect 14 0 13 1;
#X connect 15 0 13 1;
#X connect 16 0 19 0;
#X connect 16 1 15 0;
#X connect 17 0 18 0;
#X connect 17 1 23 1;
#X connect 18 0 23 0;
#X connect 19 0 12 0;
#X connect 20 0 4 0;
#X connect 20 1 3 0;
#X connect 20 2 16 0;
#X connect 21 0 9 0;
#X connect 24 0 20 0;
#X restore 771 707 pd increasing;
#X obj 728 616 s num-down;
#X obj 162 298 poly 8 1, f 10;
#X obj 49 544 s others;
#N canvas 9 50 588 574 format_for_array 0;
#X obj 111 44 inlet;
#X obj 102 128 f;
#X obj 144 151 sel 0;
#X msg 121 188 0;
#X obj 167 181 t b b;
#X obj 137 126 f;
#X obj 79 268 t f b;
#X obj 75 336 pack 0 0;
#X obj 85 75 unpack 0 0 0;
#X obj 41 132 t b f;
#X obj 117 304 f;
#X obj 78 389 outlet;
#X obj 133 274 - 1;
#X text 169 280 array index starts at 0 \, poly index starts at 1;
#X text 223 150 if the velocity is > 0 \, outputs note number. If =
0 \, it outputs 0 for note number;
#X connect 0 0 8 0;
#X connect 1 0 6 0;
#X connect 2 0 3 0;
#X connect 2 1 4 0;
#X connect 3 0 6 0;
#X connect 4 0 1 0;
#X connect 5 0 2 0;
#X connect 6 0 7 0;
#X connect 6 1 10 0;
#X connect 7 0 11 0;
#X connect 8 0 9 0;
#X connect 8 1 1 1;
#X connect 8 2 5 1;
#X connect 9 0 5 0;
#X connect 9 1 12 0;
#X connect 10 0 7 1;
#X connect 12 0 10 1;
#X restore 162 362 pd format_for_array;
#N canvas 7 50 1000 647 array-copy 0;
#X obj 228 194 until;
#X obj 228 236 f;
#X obj 261 237 + 1, f 4;
#X msg 286 174 0, f 2;
#X obj 227 98 bng 15 250 50 0 empty empty empty 17 7 0 10 -262144 -1
-1;
#X obj 406 272 until;
#X obj 406 314 f;
#X obj 439 315 + 1, f 4;
#X msg 464 252 0, f 2;
#X obj 406 217 t b b;
#X obj 414 339 t b f;
#X msg 405 364 0, f 2;
#X obj 227 121 t b b b;
#X msg 228 166 8, f 2;
#X msg 406 244 8, f 2;
#X text 324 97 this removes 0 elements (or actually just moves the
following elements over 1 place);
#X text 508 296 first zero out the destination array;
#X obj 228 258 t f f;
#X obj 227 75 r copy;
#X obj 408 385 tabwrite notes-squashed;
#X obj 229 297 tabread notes-from-poly;
#X obj 247 410 tabwrite notes-squashed;
#X connect 0 0 1 0;
#X connect 1 0 2 0;
#X connect 1 0 17 0;
#X connect 2 0 1 1;
#X connect 3 0 1 1;
#X connect 4 0 12 0;
#X connect 5 0 6 0;
#X connect 6 0 7 0;
#X connect 6 0 10 0;
#X connect 7 0 6 1;
#X connect 8 0 6 1;
#X connect 9 0 14 0;
#X connect 9 1 8 0;
#X connect 10 0 11 0;
#X connect 10 1 19 1;
#X connect 11 0 19 0;
#X connect 12 0 13 0;
#X connect 12 1 3 0;
#X connect 12 2 9 0;
#X connect 13 0 0 0;
#X connect 14 0 5 0;
#X connect 17 0 20 0;
#X connect 17 1 21 1;
#X connect 18 0 4 0;
#X connect 20 0 21 0;
#X restore 764 325 pd array-copy;
#X obj 191 544 s copy;
#X obj 123 614 loadbang;
#X text 1099 685 then increasing;
#X obj 221 521 tabwrite notes-from-poly;
#X text 1112 322 array squash pulls out 0 notes. this array gets clobbered
by the sorting function so it always looks blank;
#X obj 88 463 t b b b b f, f 34;
#N canvas 1383 80 533 527 countnotes 0;
#X obj 104 289 > 0;
#X obj 104 316 sel 1;
#X obj 158 352 + 1, f 4;
#X obj 110 353 f 0;
#X obj 141 130 until;
#X obj 142 174 f;
#X obj 174 173 + 1, f 4;
#X msg 319 198 0, f 2;
#X msg 142 105 8, f 2;
#X obj 143 35 r countem;
#X obj 89 395 f 0;
#X obj 89 458 outlet;
#X obj 83 200 t f f;
#X obj 36 244 sel 7;
#X obj 30 313 bng 15 250 50 0 empty empty empty 17 7 0 10 -262144 -1
-1;
#X obj 201 422 print;
#X obj 106 234 tabread notes-from-poly;
#X obj 143 81 t b b;
#X connect 0 0 1 0;
#X connect 1 0 3 0;
#X connect 2 0 3 1;
#X connect 2 0 10 1;
#X connect 3 0 2 0;
#X connect 4 0 5 0;
#X connect 5 0 6 0;
#X connect 5 0 12 0;
#X connect 6 0 5 1;
#X connect 7 0 5 1;
#X connect 7 0 3 1;
#X connect 7 0 10 1;
#X connect 8 0 4 0;
#X connect 9 0 17 0;
#X connect 10 0 11 0;
#X connect 12 0 13 0;
#X connect 12 1 16 0;
#X connect 13 0 10 0;
#X connect 14 0 10 0;
#X connect 16 0 0 0;
#X connect 17 0 8 0;
#X connect 17 1 7 0;
#X restore 728 564 pd countnotes;
#X obj 769 677 r others;
#X obj 245 544 s countem;
#X obj 265 202 sel 1;
#X obj 265 158 r fs;
#X obj 314 172 r aux;
#X text 105 39 notes are put into an array and then sorted in increasing
/ decreasing order. the 'arp' subpatch then counts through the arrays
in various patterns;
#N canvas 288 50 886 699 latch 0;
#X obj 43 371 latch-notes;
#X obj 263 200 bng 15 250 50 0 empty empty empty 17 7 0 10 -262144
-1 -1;
#X obj 263 232 tgl 15 0 empty empty empty 17 7 0 10 -262144 -1 -1 0
1;
#X obj 173 298 spigot 1;
#X obj 43 298 spigot 0;
#X obj 263 258 == 0;
#X obj 309 312 bng 15 250 50 0 empty empty empty 17 7 0 10 -262144
-1 -1;
#X obj 263 160 t b b, f 7;
#X obj 263 368 sel 0 1;
#X obj 263 134 inlet;
#X obj 43 626 outlet;
#X obj 43 106 inlet;
#X text 311 135 bang enable / disables latch;
#X text 44 53 incoming notes get sent through latch if enabled \, or
directly to output if disabled;
#X msg 286 458 \; screenLine5 Aux / FS: Latch OFF \;;
#X msg 263 579 \; screenLine5 Aux / FS: Latch ON \;;
#X text 323 367 Update Screen & LED;
#X msg 273 545 \; led 2;
#X msg 299 418 \; led 0;
#X connect 0 0 10 0;
#X connect 1 0 2 0;
#X connect 2 0 5 0;
#X connect 2 0 4 1;
#X connect 3 0 10 0;
#X connect 4 0 0 0;
#X connect 5 0 3 1;
#X connect 5 0 8 0;
#X connect 6 0 0 1;
#X connect 7 0 1 0;
#X connect 7 1 6 0;
#X connect 8 0 15 0;
#X connect 8 0 17 0;
#X connect 8 1 14 0;
#X connect 8 1 18 0;
#X connect 9 0 7 0;
#X connect 11 0 4 0;
#X connect 11 0 3 0;
#X restore 162 239 pd latch;
#X msg 123 645 \; screenLine1 1: Tempo \; screenLine2 2: Pattern \;
screenLine3 3: Tone \; screenLine4 4: Decay \; screenLine5 Aux / FS:
Latch OFF \;;
#X text 108 99 the arp notes are sent out ch 2 (because Organelle sends
key presses on ch 1 by default);
#X obj 476 256 bng 15 250 50 0 empty empty empty 17 7 0 10 -262144
-1 -1;
#N canvas 0 50 1366 725 notes-latch 0;
#X obj 228 194 until;
#X obj 228 236 f;
#X obj 261 237 + 1, f 4;
#X msg 286 174 0, f 2;
#X obj 227 98 bng 15 250 50 0 empty empty empty 17 7 0 10 -262144 -1
-1;
#X obj 406 272 until;
#X obj 406 314 f;
#X obj 439 315 + 1, f 4;
#X msg 464 252 0, f 2;
#X obj 406 217 t b b;
#X obj 414 339 t b f;
#X msg 405 364 0, f 2;
#X obj 227 121 t b b b;
#X msg 228 166 8, f 2;
#X msg 406 244 8, f 2;
#X text 324 97 this removes 0 elements (or actually just moves the
following elements over 1 place);
#X text 508 296 first zero out the destination array;
#X obj 228 258 t f f;
#X obj 227 75 inlet;
#X obj 228 297 tabread notes-increasing;
#X obj 408 385 tabwrite notes-latched;
#X obj 247 410 tabwrite notes-latched;
#X connect 0 0 1 0;
#X connect 1 0 2 0;
#X connect 1 0 17 0;
#X connect 2 0 1 1;
#X connect 3 0 1 1;
#X connect 4 0 12 0;
#X connect 5 0 6 0;
#X connect 6 0 7 0;
#X connect 6 0 10 0;
#X connect 7 0 6 1;
#X connect 8 0 6 1;
#X connect 9 0 14 0;
#X connect 9 1 8 0;
#X connect 10 0 11 0;
#X connect 10 1 20 1;
#X connect 11 0 20 0;
#X connect 12 0 13 0;
#X connect 12 1 3 0;
#X connect 12 2 9 0;
#X connect 13 0 0 0;
#X connect 14 0 5 0;
#X connect 17 0 19 0;
#X connect 17 1 21 1;
#X connect 18 0 4 0;
#X connect 19 0 21 0;
#X restore 504 394 pd notes-latch;
#N canvas 0 50 450 278 (subpatch) 0;
#X array notes-increasing 8 float 3;
#A 0 73 75 76 77 85 87 0 0;
#X coords 0 127 8 0 200 140 1 0 0;
#X restore 879 637 graph;
#X obj 491 286 del 1000;
#X obj 476 330 t b b;
#X msg 420 428 0;
#X msg 487 428 1;
#X msg 540 427 2;
#X msg 607 427 3;
#X obj 461 727 throw~ outL;
#X obj 555 725 throw~ outR;
#X obj 494 664 +~;
#X obj 522 690 *~ 0.1;
#X obj 694 418 vsl 15 64 0.001 10 1 0 empty empty empty 0 -9 0 10 -262144
-1 -1 4900 1;
#X obj 684 490 nbx 5 14 -1e+037 1e+037 0 0 empty empty empty 0 -8 0
10 -262144 -1 -1 1.29155 256;
#X obj 672 348 sel;
#X obj 686 510 s pitchfilter;
#X obj 414 461 steelvoice;
#X obj 642 544 vsl 15 64 0 1 0 0 empty empty empty 0 -9 0 10 -262144
-1 -1 3600 1;
#X obj 632 616 nbx 5 14 -1e+037 1e+037 0 0 empty empty empty 0 -8 0
10 -262144 -1 -1 0.571429 256;
#X obj 633 637 s tone;
#X obj 522 510 steelvoice;
#X obj 468 494 steelvoice;
#X obj 565 529 steelvoice;
#X obj 333 363 spigot 0;
#X obj 285 304 bng 15 250 50 0 empty empty empty 17 7 0 10 -262144
-1 -1;
#X obj 343 391 del 100;
#X obj 550 611 rev3~ 100 90 3000 20;
#X connect 0 0 32 0;
#X connect 0 0 60 0;
#X connect 1 0 15 0;
#X connect 1 1 15 1;
#X connect 2 0 17 0;
#X connect 4 0 24 0;
#X connect 4 1 22 1;
#X connect 11 0 14 0;
#X connect 15 0 2 0;
#X connect 15 1 2 1;
#X connect 15 2 2 2;
#X connect 17 0 4 0;
#X connect 20 0 33 0;
#X connect 24 0 16 0;
#X connect 24 1 7 0;
#X connect 24 2 19 0;
#X connect 24 3 27 0;
#X connect 24 4 22 0;
#X connect 25 0 11 0;
#X connect 26 0 13 0;
#X connect 28 0 39 0;
#X connect 29 0 28 0;
#X connect 29 0 59 1;
#X connect 30 0 28 0;
#X connect 30 0 59 1;
#X connect 32 0 1 0;
#X connect 35 0 38 0;
#X connect 38 0 39 0;
#X connect 39 0 40 0;
#X connect 39 0 41 0;
#X connect 39 0 42 0;
#X connect 39 0 43 0;
#X connect 39 1 36 0;
#X connect 40 0 52 0;
#X connect 41 0 57 0;
#X connect 42 0 56 0;
#X connect 43 0 58 0;
#X connect 46 0 47 0;
#X connect 46 0 62 0;
#X connect 47 0 45 0;
#X connect 47 0 44 0;
#X connect 48 0 49 0;
#X connect 49 0 51 0;
#X connect 52 0 46 0;
#X connect 53 0 54 0;
#X connect 54 0 55 0;
#X connect 56 0 46 0;
#X connect 57 0 46 0;
#X connect 58 0 46 0;
#X connect 59 0 61 0;
#X connect 60 0 59 0;
#X connect 61 0 39 0;
#X connect 62 0 47 0;
