#N canvas 0 50 1366 725 10;
#X obj 174 213 mtof;
#X obj 171 78 tabread notes-latched;
#X obj 164 175 nbx 5 14 -1e+037 1e+037 0 0 empty empty empty 0 -8 0
10 -262144 -1 -1 64 256;
#X obj 177 239 sig~;
#X obj 169 68 inlet;
#X obj 449 624 outlet~;
#X obj 259 230 r pitchfilter;
#X obj 460 527 s_buzz;
#X obj 499 335 -~ 1;
#X obj 499 357 abs~;
#X obj 498 401 *~;
#X obj 497 489 *~;
#X obj 499 280 /~ 5000;
#X obj 498 305 clip~ 0 5000;
#X text 562 268 sorta arbitrary scale of harmonic content amount to
avoid aliasing... assumes 44.1k sampling rate .....;
#X obj 458 241 *~ 1;
#X obj 579 396 r tone;
#X obj 888 338 *;
#X obj 464 589 expr~ tanh(3*$v1);
#X obj 201 106 sel 0;
#X msg 353 150 1;
#X msg 290 152 0;
#X obj 364 217 sig~;
#X obj 481 551 *~;
#X obj 399 374 lop~ 1;
#X obj 458 174 nbx 5 14 -1e+037 1e+037 0 0 empty empty empty 0 -8 0
10 -262144 -1 -1 1 256;
#X obj 182 144 - 12;
#X obj 166 277 lop~ 1;
#X connect 0 0 3 0;
#X connect 1 0 19 0;
#X connect 2 0 0 0;
#X connect 3 0 27 0;
#X connect 4 0 1 0;
#X connect 6 0 27 1;
#X connect 7 0 23 0;
#X connect 8 0 9 0;
#X connect 9 0 10 1;
#X connect 9 0 10 0;
#X connect 10 0 11 0;
#X connect 11 0 7 1;
#X connect 12 0 13 0;
#X connect 13 0 8 0;
#X connect 15 0 7 0;
#X connect 15 0 12 0;
#X connect 16 0 11 1;
#X connect 18 0 5 0;
#X connect 19 0 21 0;
#X connect 19 1 20 0;
#X connect 19 1 26 0;
#X connect 20 0 22 0;
#X connect 20 0 25 0;
#X connect 21 0 22 0;
#X connect 21 0 25 0;
#X connect 22 0 24 0;
#X connect 23 0 18 0;
#X connect 24 0 23 1;
#X connect 26 0 2 0;
#X connect 27 0 15 0;
