#N canvas 0 50 1356 691 10;
#X obj 304 155 mtof;
#X obj 304 191 sig~;
#X obj 303 325 *~;
#X text 352 43 note messages;
#X obj 304 545 +~;
#X text 426 225 knob 1 controls overall pitch;
#X text 369 326 knobs 2 and 3 control pitch modulation (speed and depth)
;
#X obj 726 596 bng 15 250 50 0 empty empty empty 17 7 0 10 -262144
-1 -1;
#X obj 726 703 line~;
#X obj 888 597 bng 15 250 50 0 empty empty empty 17 7 0 10 -262144
-1 -1;
#X obj 420 105 sel 0;
#X text 437 99 selects note off messages so we can set decay time later
;
#X text 348 162 convert it to signal so frequency will be constantly
updated;
#X obj 304 44 inlet;
#X obj 317 864 outlet~;
#X obj 514 413 *~ 100;
#X obj 746 595 + 10;
#X obj 356 474 *~;
#X obj 746 569 * 2000;
#X text 764 641 decay time;
#X obj 513 382 *~;
#X text 25 10 synth voice with waveform change;
#X obj 661 770 *~;
#X obj 322 223 r~ f;
#X obj 133 685 osc~ 440;
#X obj 315 834 *~;
#X obj 360 579 /~ 4;
#X obj 391 683 blsaw;
#X obj 266 684 s_blsquare;
#X obj 181 490 r waveform;
#X msg 336 627 0;
#X msg 293 711 1;
#X msg 411 710 1;
#X msg 154 715 1;
#N canvas 7 50 727 452 triangle 0;
#X obj 130 207 outlet~;
#X obj 131 65 inlet~;
#N canvas 699 258 779 606 triangle 0;
#X obj 80 290 -~ 0.5;
#X obj 228 290 -~ 0.5;
#X obj 134 340 -~;
#X obj 220 480 outlet~;
#X obj 80 91 phasor~ 0;
#X text 131 55 frequency;
#X obj 228 236 wrap~;
#N canvas 0 50 540 420 4*$v1*(1-$v1) 0;
#X obj 182 177 *~ 4;
#X obj 132 177 sig~ 1;
#X obj 132 200 -~;
#X obj 132 228 *~;
#X obj 182 76 inlet~;
#X obj 132 253 outlet~;
#X connect 0 0 3 1;
#X connect 1 0 2 0;
#X connect 2 0 3 0;
#X connect 3 0 5 0;
#X connect 4 0 2 1;
#X connect 4 0 0 0;
#X restore 228 262 pd 4*$v1*(1-$v1);
#N canvas 0 50 540 420 4*$v1*(1-$v1) 0;
#X obj 182 177 *~ 4;
#X obj 132 177 sig~ 1;
#X obj 132 200 -~;
#X obj 132 228 *~;
#X obj 182 76 inlet~;
#X obj 132 253 outlet~;
#X connect 0 0 3 1;
#X connect 1 0 2 0;
#X connect 2 0 3 0;
#X connect 3 0 5 0;
#X connect 4 0 2 1;
#X connect 4 0 0 0;
#X restore 79 261 pd 4*$v1*(1-$v1);
#X text 489 64 tri-saw factor (0-1);
#X obj 80 54 inlet~;
#X obj 430 66 inlet;
#X obj 430 89 clip 0.01 0.99;
#X obj 294 372 line~;
#X obj 294 350 pack 0 10;
#N canvas 0 50 540 420 4*$f1*(1-$f1) 0;
#X obj 185 177 * 4;
#X obj 137 72 inlet;
#X msg 137 171 1 \$1;
#X obj 137 200 -;
#X obj 137 228 *;
#X obj 137 107 t a a;
#X obj 137 253 outlet;
#X connect 0 0 4 1;
#X connect 1 0 5 0;
#X connect 2 0 3 0;
#X connect 3 0 4 0;
#X connect 4 0 6 0;
#X connect 5 0 2 0;
#X connect 5 1 0 0;
#X restore 430 290 pd 4*$f1*(1-$f1);
#X obj 245 151 line~;
#X obj 245 129 pack 0 10;
#X obj 227 177 +~;
#X obj 245 77 loadbang;
#X msg 245 98 0.5;
#X obj 220 414 /~;
#X obj 294 297 loadbang;
#X msg 294 318 1;
#X obj 241 45 inlet;
#X connect 0 0 2 0;
#X connect 1 0 2 1;
#X connect 2 0 21 0;
#X connect 4 0 8 0;
#X connect 4 0 18 0;
#X connect 6 0 7 0;
#X connect 7 0 1 0;
#X connect 8 0 0 0;
#X connect 10 0 4 0;
#X connect 11 0 12 0;
#X connect 12 0 15 0;
#X connect 12 0 17 0;
#X connect 13 0 21 1;
#X connect 14 0 13 0;
#X connect 15 0 14 0;
#X connect 16 0 18 1;
#X connect 17 0 16 0;
#X connect 18 0 6 0;
#X connect 19 0 20 0;
#X connect 20 0 17 0;
#X connect 21 0 3 0;
#X connect 22 0 23 0;
#X connect 23 0 14 0;
#X connect 24 0 4 1;
#X restore 130 162 pd triangle;
#X text 202 48 slope;
#X obj 189 96 loadbang;
#X msg 194 123 0.5;
#X connect 1 0 2 0;
#X connect 2 0 0 0;
#X connect 4 0 5 0;
#X connect 5 0 2 2;
#X restore 502 685 pd triangle;
#X obj 154 613 sel 0 1 2 3;
#X msg 528 717 1;
#X text 170 470 change waveform;
#X obj 122 548 delay 2;
#X obj 182 550 f;
#X obj 183 514 t b a b;
#X obj 132 743 smoothswitch;
#X obj 266 749 smoothswitch;
#X obj 390 742 smoothswitch;
#X obj 501 746 smoothswitch;
#X obj 489 38 inlet;
#X obj 359 444 osc~ 5;
#X obj 195 222 r pitch_lop;
#X obj 237 307 lop~ 32;
#X msg 726 674 0 \$1;
#X obj 750 527 r zchorddecay;
#X obj 998 567 * 2000;
#X text 1016 639 decay time;
#X msg 978 672 1 \$1;
#X obj 726 638 f 80;
#X obj 978 636 f 5;
#X obj 998 593 + 5;
#X obj 1002 525 r zchordattack;
#X obj 520 343 r~ zchordvibrato;
#X obj 357 382 r zchordvibspeed;
#X connect 0 0 1 0;
#X connect 1 0 48 0;
#X connect 2 0 4 0;
#X connect 4 0 26 0;
#X connect 7 0 54 0;
#X connect 8 0 22 1;
#X connect 8 0 22 0;
#X connect 9 0 55 0;
#X connect 10 0 7 0;
#X connect 10 1 9 0;
#X connect 13 0 0 0;
#X connect 15 0 17 1;
#X connect 16 0 54 1;
#X connect 17 0 4 1;
#X connect 18 0 16 0;
#X connect 20 0 15 0;
#X connect 22 0 25 1;
#X connect 23 0 2 1;
#X connect 24 0 41 0;
#X connect 25 0 14 0;
#X connect 26 0 24 0;
#X connect 26 0 27 0;
#X connect 26 0 28 0;
#X connect 26 0 34 0;
#X connect 27 0 43 0;
#X connect 28 0 42 0;
#X connect 29 0 40 0;
#X connect 30 0 41 1;
#X connect 30 0 42 1;
#X connect 30 0 43 1;
#X connect 30 0 44 1;
#X connect 31 0 42 1;
#X connect 32 0 43 1;
#X connect 33 0 41 1;
#X connect 34 0 44 0;
#X connect 35 0 33 0;
#X connect 35 1 31 0;
#X connect 35 2 32 0;
#X connect 35 3 36 0;
#X connect 36 0 44 1;
#X connect 38 0 39 0;
#X connect 39 0 35 0;
#X connect 40 0 38 0;
#X connect 40 1 39 1;
#X connect 40 2 30 0;
#X connect 41 0 25 0;
#X connect 42 0 25 0;
#X connect 43 0 25 0;
#X connect 44 0 25 0;
#X connect 45 0 10 0;
#X connect 46 0 17 0;
#X connect 47 0 48 1;
#X connect 48 0 2 0;
#X connect 49 0 8 0;
#X connect 50 0 18 0;
#X connect 51 0 56 0;
#X connect 53 0 8 0;
#X connect 54 0 49 0;
#X connect 55 0 53 0;
#X connect 56 0 55 1;
#X connect 57 0 51 0;
#X connect 58 0 20 1;
#X connect 58 0 20 0;
#X connect 59 0 46 0;
