#N canvas 99 50 1318 716 10;
#N canvas 0 50 450 250 (subpatch) 0;
#X array wave 600 float 2;
#X coords 0 1 600 -1 200 140 1;
#X restore 326 191 graph;
#X obj 1188 154 soundfiler;
#X obj 269 162 * 337;
#X obj 207 353 dac~ 1;
#X obj 712 300 sel 1;
#X obj 782 293 sel 0;
#X obj 759 427 nbx 4 14 5 1000 1 0 empty empty attack 0 -8 0 10 -262144
-1 -1 1000 256;
#X obj 777 521 f;
#X obj 835 453 nbx 4 14 10 10000 1 1 empty empty decay 0 -8 0 10 -262144
-1 -1 10000 256;
#X msg 815 529 0 \$1;
#X msg 755 489 1 \$1;
#X obj 732 553 line~;
#X obj 730 462 float;
#X obj 972 453 nbx 4 14 0.01 1 1 1 empty empty sustain 0 -8 0 10 -262144
-1 -1 1 256;
#X obj 867 384 delay 100;
#X msg 868 567 \$1 \$2;
#X obj 867 520 list;
#X obj 873 492 float;
#X obj 741 348 r attack;
#X obj 838 339 r decay;
#X obj 966 408 r sustain;
#X msg 901 307 stop;
#X obj 747 369 * 1500;
#X obj 839 420 * 3000;
#X obj 628 116 metro 1000;
#X obj 686 34 bng 15 250 50 0 empty empty empty 17 7 0 10 -262144 -1
-1;
#X msg 761 211 0;
#X obj 220 247 *~;
#X msg 683 197 12;
#X obj 735 258 > 0;
#X obj 278 49 bng 15 250 50 0 empty empty empty 17 7 0 10 -262144 -1
-1;
#N canvas 0 50 450 250 (subpatch) 0;
#X array wave_2x 1200 float 2;
#X coords 0 1 1200 -1 200 140 1 0 0;
#X restore 321 16 graph;
#X obj 1086 398 t f f;
#X obj 1116 494 % 674;
#X obj 1055 431 % 337;
#X obj 182 132 *~ 337;
#X obj 207 92 +~ 0.5;
#X obj 214 305 *~ 0.4;
#X msg 539 36 0;
#X obj 725 177 delay 400;
#X obj 194 56 phasor~ 88;
#X obj 1037 279 until;
#X obj 1054 203 t b b;
#X msg 1101 240 0;
#X obj 1039 315 float;
#X obj 1053 354 nbx 5 14 -1e+037 1e+037 0 0 empty empty empty 0 -8
0 10 -262144 -1 -1 1199 256;
#X obj 1103 316 + 1;
#X obj 1126 224 bng 15 250 50 0 empty empty empty 17 7 0 10 -262144
-1 -1;
#X obj 1007 91;
#X obj 1145 35 nbx 5 14 -1e+037 1e+037 0 0 empty empty empty 0 -8 0
10 -262144 -1 -1 0 256;
#X obj 1049 474 tabread wave;
#X obj 1047 520 tabwrite wave_2x;
#X obj 170 181 tabread4~ wave_2x;
#X obj 1073 58 openpanel;
#X obj 1073 42 bng 15 250 50 0 empty empty empty 17 7 0 10 -262144
-1 -1;
#X obj 1190 226 nbx 5 14 -1e+037 1e+037 0 0 empty empty empty 0 -8
0 10 -262144 -1 -1 600 256;
#X obj 1190 285 resize;
#X obj 1183 341 s wave_2x;
#X msg 1201 309 resize \$1;
#X obj 1224 260 * 2;
#X obj 1030 244 float;
#X obj 1127 202 t b f;
#X obj 964 305 nbx 5 14 -1e+037 1e+037 0 0 empty empty empty 0 -8 0
10 -262144 -1 -1 1200 256;
#X obj 1219 431 s tablesize;
#X obj 1219 187 sel 0;
#X obj 135 551 textfile;
#X obj 223 424 bng 15 250 50 0 empty empty empty 17 7 0 10 -262144
-1 -1;
#X msg 86 494 bang;
#X msg 139 479 rewind;
#X obj 214 575 list split;
#X msg 124 620 \$1;
#X obj 112 432 t b b f b;
#X msg 112 394 0;
#X obj 291 607 list;
#X msg 206 493 read samples/samples.txt;
#X msg 927 115 read -resize samples/\$1 wave;
#X obj 424 633 s screenLine1;
#X msg 411 589 1: Wave \$1;
#X msg 1166 92 read -resize \$1 wave;
#X obj 96 271 change -1;
#X obj 60 261 int;
#X obj 54 188 r knob1;
#X obj 62 304 delay 50;
#X obj 50 335 float;
#X obj 63 227 * 64;
#X obj 136 586 list length;
#X obj 158 367 nbx 5 14 -1e+037 1e+037 0 0 empty empty empty 0 -8 0
10 -262144 -1 -1 0 256;
#X obj 345 428 nbx 5 14 -1e+037 1e+037 0 0 empty empty empty 0 -8 0
10 -262144 -1 -1 62 256;
#X obj 122 173 - 1;
#X obj 12 100 loadbang;
#X msg 17 128 0;
#X connect 1 0 55 0;
#X connect 1 0 64 0;
#X connect 4 0 12 0;
#X connect 4 0 14 0;
#X connect 5 0 7 0;
#X connect 5 0 21 0;
#X connect 6 0 12 1;
#X connect 6 0 14 1;
#X connect 7 0 9 0;
#X connect 8 0 7 1;
#X connect 8 0 16 1;
#X connect 9 0 11 0;
#X connect 10 0 11 0;
#X connect 11 0 27 1;
#X connect 12 0 10 0;
#X connect 13 0 17 1;
#X connect 14 0 17 0;
#X connect 15 0 11 0;
#X connect 16 0 15 0;
#X connect 17 0 16 0;
#X connect 18 0 22 0;
#X connect 19 0 23 0;
#X connect 20 0 13 0;
#X connect 21 0 14 0;
#X connect 22 0 6 0;
#X connect 23 0 8 0;
#X connect 24 0 28 0;
#X connect 24 0 39 0;
#X connect 25 0 24 0;
#X connect 26 0 29 0;
#X connect 27 0 37 0;
#X connect 28 0 29 0;
#X connect 29 0 4 0;
#X connect 29 0 5 0;
#X connect 32 0 34 0;
#X connect 32 1 33 0;
#X connect 33 0 51 1;
#X connect 34 0 50 0;
#X connect 35 0 52 0;
#X connect 36 0 35 0;
#X connect 37 0 3 0;
#X connect 38 0 24 0;
#X connect 39 0 26 0;
#X connect 40 0 36 0;
#X connect 41 0 44 0;
#X connect 42 0 60 0;
#X connect 42 1 43 0;
#X connect 43 0 44 1;
#X connect 44 0 45 0;
#X connect 45 0 46 0;
#X connect 45 0 32 0;
#X connect 46 0 44 1;
#X connect 47 0 42 0;
#X connect 50 0 51 0;
#X connect 52 0 27 0;
#X connect 53 0 78 0;
#X connect 54 0 53 0;
#X connect 55 0 59 0;
#X connect 55 0 34 1;
#X connect 55 0 63 0;
#X connect 58 0 57 0;
#X connect 59 0 58 0;
#X connect 59 0 33 1;
#X connect 59 0 60 1;
#X connect 60 0 41 0;
#X connect 60 0 62 0;
#X connect 61 0 47 0;
#X connect 61 1 55 0;
#X connect 64 1 61 0;
#X connect 65 0 69 0;
#X connect 65 0 85 0;
#X connect 66 0 65 0;
#X connect 67 0 65 0;
#X connect 68 0 65 0;
#X connect 69 1 70 0;
#X connect 70 0 73 0;
#X connect 71 0 67 0;
#X connect 71 1 68 0;
#X connect 71 2 69 1;
#X connect 71 3 74 0;
#X connect 72 0 71 0;
#X connect 73 0 75 0;
#X connect 73 0 77 0;
#X connect 74 0 65 0;
#X connect 75 0 1 0;
#X connect 77 0 76 0;
#X connect 78 0 1 0;
#X connect 79 0 83 1;
#X connect 79 0 82 0;
#X connect 80 0 79 0;
#X connect 81 0 84 0;
#X connect 82 0 83 0;
#X connect 83 0 71 0;
#X connect 84 0 80 0;
#X connect 85 0 88 0;
#X connect 88 0 87 0;
#X connect 88 0 84 1;
#X connect 89 0 90 0;
#X connect 90 0 84 0;
