#N canvas 0 50 1356 691 10;
#X text 352 43 note messages;
#X obj 306 59 inlet;
#X obj 374 571 outlet~;
#X text 25 10 synth voice with waveform change;
#X obj 310 84 unpack 0 0;
#X obj 378 162 mtof;
#X obj 450 440 *~;
#X obj 718 33 > 1;
#X obj 687 156 sel 1;
#X obj 739 60 sel 0;
#X obj 760 296 f;
#X msg 760 319 0 \$1;
#X msg 738 264 1 \$1;
#X obj 760 350 line~;
#X obj 713 237 float;
#X obj 850 159 delay 100;
#X msg 851 342 \$1 \$2;
#X obj 850 295 list;
#X obj 856 267 float;
#X obj 752 114 r attack;
#X obj 810 117 r decay;
#X obj 872 115 r sustain;
#X msg 884 82 stop;
#X obj 680 443 lop~ 25;
#X obj 409 338 *~ 337;
#X obj 434 298 +~ 0.5;
#X obj 421 262 phasor~ 88;
#X obj 397 386 tabread4~ wave_2x;
#X obj 339 189 / 2;
#X obj 562 154 osc~ 5;
#X obj 412 211 sig~;
#X obj 540 227 *~ 0.1;
#X obj 476 159 * 0.001;
#X obj 524 74 r mod_speed;
#X obj 509 21 r vibrato_depth;
#X obj 585 180 r tremolo_depth;
#X obj 585 379 +~ 1;
#X obj 438 526 *~;
#X obj 550 338 *~ 0.1;
#X floatatom 765 174 5 0 0 0 - - -, f 5;
#X floatatom 815 209 5 0 0 0 - - -, f 5;
#X floatatom 998 276 5 0 0 0 - - -, f 5;
#X obj 567 47 nbx 5 14 -1e+037 1e+037 0 0 empty empty empty 0 -8 0
10 -262144 -1 -1 0 256;
#X obj 488 300 r tablesize;
#X obj 280 315 *~;
#X obj 216 172 r filt_q;
#X obj 175 207 r filt_cutoff;
#X obj 331 458 vcf~ 3;
#X obj 292 264 * 12;
#X obj 357 491 *~ 0;
#X obj 452 478 *~ 1;
#X obj 537 473 r envfilt;
#X obj 536 505 * -1;
#X obj 535 530 + 1;
#X obj 356 139 + 0;
#X obj 393 128 r tranpose;
#X obj 989 101 r release;
#X floatatom 994 139 5 0 0 0 - - -, f 5;
#X connect 1 0 4 0;
#X connect 4 0 54 0;
#X connect 4 1 7 0;
#X connect 5 0 28 0;
#X connect 5 0 32 0;
#X connect 6 0 50 0;
#X connect 7 0 8 0;
#X connect 7 0 9 0;
#X connect 8 0 14 0;
#X connect 8 0 15 0;
#X connect 9 0 10 0;
#X connect 9 0 22 0;
#X connect 10 0 11 0;
#X connect 11 0 13 0;
#X connect 12 0 13 0;
#X connect 13 0 23 0;
#X connect 14 0 12 0;
#X connect 15 0 18 0;
#X connect 16 0 13 0;
#X connect 17 0 16 0;
#X connect 18 0 17 0;
#X connect 19 0 39 0;
#X connect 20 0 40 0;
#X connect 21 0 41 0;
#X connect 22 0 15 0;
#X connect 23 0 6 1;
#X connect 23 0 44 0;
#X connect 24 0 27 0;
#X connect 25 0 24 0;
#X connect 26 0 25 0;
#X connect 27 0 6 0;
#X connect 27 0 47 0;
#X connect 28 0 30 0;
#X connect 28 0 48 0;
#X connect 29 0 31 0;
#X connect 29 0 38 0;
#X connect 30 0 26 0;
#X connect 31 0 26 0;
#X connect 32 0 31 1;
#X connect 33 0 29 0;
#X connect 34 0 32 1;
#X connect 34 0 42 0;
#X connect 35 0 38 1;
#X connect 36 0 37 1;
#X connect 37 0 2 0;
#X connect 38 0 36 0;
#X connect 39 0 14 1;
#X connect 40 0 17 1;
#X connect 41 0 18 1;
#X connect 43 0 24 1;
#X connect 44 0 47 1;
#X connect 45 0 47 2;
#X connect 46 0 48 1;
#X connect 47 0 49 0;
#X connect 48 0 44 1;
#X connect 49 0 37 0;
#X connect 50 0 37 0;
#X connect 51 0 50 1;
#X connect 51 0 52 0;
#X connect 52 0 53 0;
#X connect 53 0 49 1;
#X connect 54 0 5 0;
#X connect 55 0 54 1;
#X connect 56 0 57 0;
#X connect 57 0 10 1;
