#N canvas 0 136 1356 508 10;
#X declare -path ./util/;
#X declare -path patchmenu;
#X obj 363 469 throw~ outL;
#X obj 488 475 throw~ outR;
#X obj 453 120 r notes;
#X obj 82 100 declare -path ./util/;
#X obj 81 121 declare -path patchmenu;
#X obj 81 302 patchmenu;
#X obj 113 215 s enableSubMenu;
#X obj 81 143 loadbang;
#X msg 81 215 0;
#X obj 81 192 t b b;
#X obj 47 122 bng 15 250 50 0 empty empty empty 17 7 0 10 -262144 -1
-1;
#X msg 39 273 1;
#X obj 39 241 delay 3000;
#X obj 81 167 versioncheck 2;
#X obj 852 100 s seq2-1-aux;
#X obj 338 127 r seq2-1-notes-out;
#X obj 354 210 bng 15 250 50 0 empty empty empty 17 7 0 10 -262144
-1 -1;
#X obj 1027 153 s screenLine5;
#X obj 830 140 ./Sequencer2/Sequencer2 1;
#X obj 1020 73 r seq2-1-aux-label;
#X obj 512 173 spigot 0;
#X msg 574 126 \$1;
#X obj 593 145 nbx 5 14 -1e+037 1e+037 0 0 empty empty empty 0 -8 0
10 -262144 -1 -1 0 256;
#X obj 597 165 < 72;
#X obj 502 143 t a a;
#X obj 522 204 s seq2-1-notes-in;
#X obj 534 246 bng 15 250 50 0 empty empty empty 17 7 0 10 -262144
-1 -1;
#X obj 402 226 samp/samp_array 1 2;
#X obj 578 313 lop~ 22000;
#X obj 416 306 lop~ 22000;
#X obj 568 338 hip~ 0;
#X obj 692 281 r p3k1;
#X obj 773 305 r p3k2;
#X obj 797 429 screensave 3;
#X obj 695 418 screensave 3;
#X msg 689 386 1: LoCut \$1;
#X msg 791 379 2: HiCut \$1;
#X obj 700 456 s p3s1;
#X obj 802 468 s p3s2;
#X obj 415 328 hip~ 0;
#X obj 790 345 * 8000;
#X obj 701 306 t f f;
#X obj 710 327 *;
#X obj 710 352 * 24000;
#X obj 1149 276 screensave 3;
#X obj 953 286 screensave 3;
#X obj 950 237 r p3k3;
#X obj 1114 225 r p3k4;
#X obj 959 308 s p3s3;
#X obj 1149 299 s p3s4;
#X msg 952 265 3: Input Mix \$1;
#X msg 1149 254 4: Record Vol \$1;
#X obj 885 252 t f f;
#X obj 894 273 *;
#X obj 1100 249 t f f;
#X obj 1109 270 *;
#X obj 636 119 *~ 0;
#X obj 692 121 *~ 0;
#X obj 953 449 +~;
#X obj 994 398 *~ 0;
#X obj 423 405 +~;
#X obj 506 401 +~;
#X msg 81 332 \; screenLine1 sample \; screenLine2 loop \; screenLine3
Mix \; screenLine4 fx \; screenLine5 <-- Home \;;
#X obj 1123 377;
#X obj 602 466 v p3k1;
#X obj 637 401 loadbang;
#X msg 636 433 1;
#N canvas 0 50 1356 691 fx 0;
#X obj 81 28 inlet~;
#X obj 54 299 outlet~;
#X obj 248 23 inlet~;
#X obj 336 307 outlet~;
#X obj 116 314 delwrite~ \$0-left 1500;
#X obj 400 274 delwrite~ \$0-right 1500;
#X obj 319 152 +~;
#X obj 78 160 +~;
#X obj 359 129 *~;
#X obj 129 151 *~;
#X obj 173 183 rev2~ 100 90 3000 20;
#X obj 203 215 *~;
#X obj 95 256 +~;
#X obj 303 258 +~;
#X obj 1072 270 screensave 3;
#X obj 876 280 screensave 3;
#X obj 873 231 r p4k3;
#X obj 1011 245 r p4k4;
#X obj 864 135 screensave 3;
#X obj 668 145 screensave 3;
#X obj 665 95 r p4k1;
#X msg 667 124 1: Del Fdbk \$1;
#X obj 294 48 sig~;
#X obj 295 67 lop~ 5;
#X obj 810 80 sig~;
#X obj 811 99 lop~ 5;
#X obj 815 42 r p4k2;
#X obj 864 158 s p4s2;
#X msg 863 115 2: Del len \$1;
#X obj 815 62 * 1500;
#X obj 905 81 int;
#X msg 875 259 3: Rev Mix \$1;
#X obj 787 265 sig~;
#X obj 788 284 lop~ 5;
#X msg 1072 248 4: Rev Size \$1;
#X obj 882 303 s p4s3;
#X obj 1072 293 s p4s4;
#X obj 675 167 s p4s1;
#X obj 927 395 * 25;
#X obj 917 424 + 70;
#X obj 123 103 vd~ \$0-left 500;
#X obj 372 90 vd~ \$0-right 500;
#X connect 0 0 7 0;
#X connect 2 0 6 0;
#X connect 6 0 13 0;
#X connect 6 0 10 0;
#X connect 6 0 5 0;
#X connect 7 0 4 0;
#X connect 7 0 12 0;
#X connect 7 0 10 0;
#X connect 8 0 6 1;
#X connect 9 0 7 1;
#X connect 10 0 11 0;
#X connect 11 0 12 1;
#X connect 11 0 13 0;
#X connect 12 0 1 0;
#X connect 13 0 3 0;
#X connect 14 0 36 0;
#X connect 15 0 35 0;
#X connect 16 0 31 0;
#X connect 16 0 32 0;
#X connect 17 0 34 0;
#X connect 17 0 38 0;
#X connect 18 0 27 0;
#X connect 19 0 37 0;
#X connect 20 0 21 0;
#X connect 20 0 22 0;
#X connect 21 0 19 0;
#X connect 22 0 23 0;
#X connect 23 0 8 1;
#X connect 23 0 9 1;
#X connect 24 0 25 0;
#X connect 25 0 40 0;
#X connect 25 0 41 0;
#X connect 26 0 29 0;
#X connect 28 0 18 0;
#X connect 29 0 30 0;
#X connect 29 0 24 0;
#X connect 30 0 28 0;
#X connect 31 0 15 0;
#X connect 32 0 33 0;
#X connect 33 0 11 1;
#X connect 34 0 14 0;
#X connect 38 0 39 0;
#X connect 39 0 10 2;
#X connect 40 0 9 0;
#X connect 41 0 8 0;
#X restore 448 422 pd fx;
#N canvas 506 107 552 397 recorder 0;
#X obj 118 58 inlet~;
#X obj 258 68 r p3a;
#X obj 182 264 list;
#X obj 249 287 list;
#X obj 233 210 t b a;
#X obj 193 352 s screenLine5;
#X obj 634 172 bng 15 250 50 0 empty empty empty 17 7 0 10 -262144
-1 -1;
#X obj 632 117 r seq2-1-loop;
#X msg 506 200 1;
#X obj 356 266 bng 15 250 50 0 empty empty empty 17 7 0 10 -262144
-1 -1;
#X obj 351 234 route Idle;
#X obj 358 298 s soundshare_refresh;
#X obj 158 309 screensave 3;
#X obj 115 177 soundshare/soundshare_recsync~ sn;
#X connect 0 0 13 0;
#X connect 1 0 13 1;
#X connect 2 0 3 0;
#X connect 3 0 12 0;
#X connect 4 0 2 0;
#X connect 4 1 3 1;
#X connect 6 0 8 0;
#X connect 7 0 6 0;
#X connect 8 0 13 2;
#X connect 9 0 11 0;
#X connect 10 0 9 0;
#X connect 12 0 5 0;
#X connect 13 0 4 0;
#X connect 13 1 2 0;
#X connect 13 1 10 0;
#X restore 923 487 pd recorder;
#X obj 872 41 r p1a;
#X obj 927 45 r p2a;
#X obj 915 55 r p4a;
#X obj 369 443 *~ 1.6;
#X obj 476 450 *~ 1.6;
#X obj 644 455 v p3k4;
#X obj 609 49 r~ inL;
#X obj 693 48 r~ inR;
#X obj 1086 127 screensave 1;
#X obj 1187 124 screensave 2;
#X obj 1204 108 screensave 4;
#N canvas -205 464 1366 496 latch_msg 0;
#N canvas 0 50 450 250 (subpatch) 0;
#X array latch_array 12 float 2;
#X coords 0 1 12 -1 200 140 1 0 0;
#X restore 100 20 graph;
#X obj 464 57 metro 10000;
#X obj 466 28 bng 15 250 50 0 empty empty empty 17 7 0 10 -262144 -1
-1;
#X obj 462 5 loadbang;
#X obj 548 186 tabread latch_array;
#X obj 584 435 print;
#X obj 593 241 list;
#X obj 463 81 t b b;
#X obj 646 252 +;
#X obj 653 220 int;
#X msg 529 102 0;
#X obj 445 121 until;
#X msg 442 154 12;
#X obj 482 186 int;
#X obj 484 210 + 1;
#X obj 528 310 int;
#X obj 388 109 t b b;
#X obj 596 374 list;
#X floatatom 530 331 5 0 0 0 - - -, f 5;
#X obj 530 350 sel 0;
#X obj 561 368 bng 15 250 50 0 empty empty empty 17 7 0 10 -262144
-1 -1;
#X obj 570 268 list prepend;
#X obj 474 462 s screenLine5;
#X obj 668 1 r latchbang;
#X obj 865 166 tabread latch_array;
#X obj 910 221 list;
#X obj 773 20 t b b;
#X obj 963 232 +;
#X obj 970 200 int;
#X msg 846 82 0;
#X obj 762 101 until;
#X msg 759 134 12;
#X obj 799 166 int;
#X obj 801 190 + 1;
#X obj 669 29 t b b;
#X obj 913 354 list;
#X obj 887 248 list prepend;
#X msg 561 412 Latch:\$1\$2\$3\$4\$5\$6\$7\$8\$9\$10\$11\$12;
#X connect 1 0 7 0;
#X connect 2 0 1 0;
#X connect 3 0 2 0;
#X connect 4 0 8 0;
#X connect 4 0 21 0;
#X connect 6 0 21 1;
#X connect 7 0 16 0;
#X connect 7 1 10 0;
#X connect 7 1 21 1;
#X connect 8 0 9 0;
#X connect 8 0 15 1;
#X connect 9 0 8 1;
#X connect 10 0 8 1;
#X connect 10 0 13 1;
#X connect 11 0 13 0;
#X connect 12 0 11 0;
#X connect 13 0 14 0;
#X connect 13 0 4 0;
#X connect 14 0 13 1;
#X connect 15 0 18 0;
#X connect 16 0 15 0;
#X connect 16 1 12 0;
#X connect 17 0 37 0;
#X connect 18 0 19 0;
#X connect 19 1 20 0;
#X connect 20 0 17 0;
#X connect 21 0 6 0;
#X connect 21 0 17 1;
#X connect 23 0 26 0;
#X connect 24 0 27 0;
#X connect 24 0 36 0;
#X connect 25 0 36 1;
#X connect 26 0 34 0;
#X connect 26 1 29 0;
#X connect 26 1 36 1;
#X connect 27 0 28 0;
#X connect 28 0 27 1;
#X connect 29 0 27 1;
#X connect 29 0 32 1;
#X connect 30 0 32 0;
#X connect 31 0 30 0;
#X connect 32 0 33 0;
#X connect 32 0 24 0;
#X connect 33 0 32 1;
#X connect 34 0 35 0;
#X connect 34 1 31 0;
#X connect 35 0 37 0;
#X connect 36 0 25 0;
#X connect 36 0 35 1;
#X connect 37 0 5 0;
#X connect 37 0 22 0;
#X restore 1077 424 pd latch_msg;
#X connect 2 0 24 0;
#X connect 2 0 27 0;
#X connect 5 0 62 0;
#X connect 7 0 13 0;
#X connect 8 0 5 0;
#X connect 9 0 8 0;
#X connect 9 0 12 0;
#X connect 9 1 6 0;
#X connect 10 0 9 0;
#X connect 11 0 5 0;
#X connect 13 0 9 0;
#X connect 15 0 16 0;
#X connect 15 0 27 1;
#X connect 19 0 17 0;
#X connect 19 0 77 0;
#X connect 19 0 78 0;
#X connect 19 0 79 0;
#X connect 20 0 25 0;
#X connect 20 0 26 0;
#X connect 21 0 22 0;
#X connect 22 0 23 0;
#X connect 23 0 20 1;
#X connect 24 0 20 0;
#X connect 24 1 21 0;
#X connect 27 0 29 0;
#X connect 27 1 28 0;
#X connect 28 0 30 0;
#X connect 29 0 39 0;
#X connect 30 0 59 0;
#X connect 30 0 61 0;
#X connect 31 0 35 0;
#X connect 31 0 41 0;
#X connect 32 0 36 0;
#X connect 32 0 40 0;
#X connect 33 0 38 0;
#X connect 34 0 37 0;
#X connect 35 0 34 0;
#X connect 36 0 33 0;
#X connect 39 0 59 0;
#X connect 39 0 60 0;
#X connect 40 0 30 1;
#X connect 40 0 39 1;
#X connect 41 0 42 0;
#X connect 41 1 42 1;
#X connect 42 0 43 0;
#X connect 43 0 29 1;
#X connect 43 0 28 1;
#X connect 44 0 49 0;
#X connect 45 0 48 0;
#X connect 46 0 50 0;
#X connect 46 0 52 0;
#X connect 47 0 51 0;
#X connect 47 0 54 0;
#X connect 50 0 45 0;
#X connect 51 0 44 0;
#X connect 52 0 53 0;
#X connect 52 1 53 1;
#X connect 53 0 56 1;
#X connect 53 0 57 1;
#X connect 54 0 55 0;
#X connect 54 1 55 1;
#X connect 55 0 59 1;
#X connect 56 0 58 0;
#X connect 56 0 60 0;
#X connect 57 0 58 0;
#X connect 57 0 61 0;
#X connect 58 0 68 0;
#X connect 59 0 58 0;
#X connect 60 0 67 0;
#X connect 61 0 67 1;
#X connect 65 0 66 0;
#X connect 66 0 64 0;
#X connect 66 0 74 0;
#X connect 67 0 72 0;
#X connect 67 1 73 0;
#X connect 69 0 14 0;
#X connect 70 0 14 0;
#X connect 71 0 14 0;
#X connect 72 0 0 0;
#X connect 73 0 1 0;
#X connect 75 0 56 0;
#X connect 76 0 57 0;
#X connect 77 0 17 0;
#X connect 78 0 17 0;
#X connect 79 0 17 0;
