#N canvas -7 50 1356 659 10;
#N canvas 0 50 450 250 (subpatch) 0;
#X array \$0-sample 1.11052e+006 float 2;
#X coords 0 1 1.11052e+006 -1 200 140 1;
#X restore 20 246 graph;
#X obj 661 630 outlet~;
#X obj 620 463 tabread4~ \$0-sample;
#X obj 608 416 *~ 44100;
#X obj 597 336 phasor~ 1;
#X obj 82 186 soundfiler;
#X obj 637 137 max 100;
#X obj 648 169 / 44100;
#X obj 596 312 nbx 5 14 -1e+037 1e+037 0 0 empty empty freq 0 -8 0
10 -262144 -1 -1 1.21457 256;
#X obj 595 214 expr 1/$f1;
#X obj 82 118 list;
#X obj 176 100 f \$0;
#X msg 77 150 read -resize \$1 \$2-sample;
#X obj 84 222 s \$0-samplesize;
#X obj 776 470 vline~;
#X obj 730 498 *~;
#X obj 763 172 bng 15 250 50 0 empty empty empty 17 7 0 10 -262144
-1 -1;
#X obj 770 314 f 1000;
#X obj 714 216 * 1000;
#X obj 202 205 print;
#X obj 977 259 hsl 128 15 -1 1 0 0 empty empty pitch -2 -8 0 10 -262144
-1 -1 0 1;
#X obj 768 336 / 1;
#X obj 600 276 * 1;
#X obj 594 252 f 1;
#X obj 612 233 t b f;
#X obj 871 314 abs;
#X floatatom 972 362 5 0 0 0 - - -, f 5;
#X obj 946 300 * 3;
#X obj 189 50 loadbang;
#X msg 729 8 \$2 \$1;
#X obj 742 24 route 0;
#X msg 775 47 \$2, f 4;
#X obj 765 99 bng 15 250 50 0 empty empty empty 17 7 0 10 -262144 -1
-1;
#X obj 766 376 - 25;
#X msg 710 285 0;
#X obj 710 265 del 3;
#X msg 766 430 0 2 \, 1 2 2 \, 0 25 \$1;
#X obj 672 603 *~;
#X obj 758 624 outlet~;
#X obj 753 600 *~;
#X obj 799 101 bng 15 250 50 0 empty empty empty 17 7 0 10 -262144
-1 -1;
#X obj 759 70 sel \$1 \$2;
#X msg 801 120 1;
#X msg 837 124 0;
#X obj 839 103 bng 15 250 50 0 empty empty empty 17 7 0 10 -262144
-1 -1;
#X obj 981 139 s \$1-sel;
#X msg 991 289 2: Pitch \$1;
#X msg 778 491 4: Vol \$1;
#X obj 775 533 siglop~ 1;
#X obj 697 554 *~;
#X obj 953 19 change -1;
#X obj 1088 39 r knob-page-sel;
#X obj 1069 64 f 1;
#X obj 1053 115 s disable-all-in;
#X obj 1070 85 s knob-page-sel;
#X msg 996 105 1;
#X obj 965 46 sel 1;
#X text 1016 0 if page selected disable val updates update vals then
re-enable;
#X obj 969 69 t b b b b;
#X msg 1177 165 0;
#X obj 1124 64 nbx 5 14 -1e+037 1e+037 0 0 empty empty empty 0 -8 0
10 -262144 -1 -1 0 256;
#X obj 1176 188 s sampparam_off;
#X obj 707 -26 inlet;
#X obj 615 -9 inlet;
#X obj 624 25 route \$1 \$2;
#X obj 637 61 sel 0;
#X obj 435 20 f \$1;
#X obj 435 40 - 60;
#X obj 396 44 list;
#X obj 380 197 wavselect;
#X obj 381 7 t a b;
#X msg 398 75 1: S\$2 - \$1;
#X msg 293 102 None;
#X obj 265 28 loadbang;
#X obj 399 122 t b f;
#X obj 410 177 f 0;
#X obj 394 149 del 50;
#X obj 398 95 samp_param \$1 \$3 1 0;
#X obj 779 513 samp_param \$1 \$3 4 0.8;
#X obj 990 308 samp_param \$1 \$3 2 0.33333;
#X obj 631 112 r \$0-slen;
#X obj 614 437 +~ 0;
#X obj 659 435 r \$0-offset;
#X obj 676 342 r \$0-dir;
#X obj 677 363 == -1;
#X obj 619 373 *~ 1;
#X obj 621 392 +~ 0;
#N canvas 0 143 1360 512 sample_bounds 0;
#X floatatom 221 206 10 0 0 2 sample_size #0-samplesize -, f 10;
#X msg 71 78 1: Start \$1;
#X obj 72 100 samp_param \$1 \$4 1 0;
#X obj 213 120 samp_param \$1 \$4 2 1;
#X msg 225 95 2: End \$1;
#X obj 89 138 nbx 5 14 -1e+037 1e+037 0 0 empty empty empty 0 -8 0
10 -262144 -1 -1 1 256;
#X obj 228 144 nbx 5 14 -1e+037 1e+037 0 0 empty empty empty 0 -8 0
10 -262144 -1 -1 0.01002 256;
#X obj 114 199 -;
#X obj 157 118 t b f;
#X obj 120 263 nbx 5 14 -1e+037 1e+037 0 0 empty empty empty 0 -8 0
10 -262144 -1 -1 0.98998 256;
#X obj 121 281 * 44100;
#X obj 123 314 nbx 5 14 -1e+037 1e+037 0 0 empty empty samplen 0 -8
0 10 -262144 -1 -1 43658.1 256;
#X obj 223 230 t b f;
#X obj 97 354 s \$0-slen;
#X obj 139 245 f 1;
#X obj 173 186 min 0;
#X obj 214 267 f 0;
#X obj 200 327 nbx 5 14 -1e+037 1e+037 0 0 empty empty offset 0 -8
0 10 -262144 -1 -1 441.884 256;
#X obj 222 292 * 44100;
#X obj 299 343 nbx 5 14 -1e+037 1e+037 0 0 empty empty dir 0 -8 0 10
-262144 -1 -1 -1 256;
#X obj 119 218 abs;
#X obj 306 276 * 2;
#X obj 302 298 - 1;
#X obj 313 237 <;
#X obj 348 306 nbx 5 14 -1e+037 1e+037 0 0 empty empty empty 0 -8 0
10 -262144 -1 -1 0 256;
#X obj 174 343 s \$0-offset;
#X obj 271 356 s \$0-dir;
#X connect 0 0 12 0;
#X connect 1 0 2 0;
#X connect 2 0 1 0;
#X connect 2 0 5 0;
#X connect 3 0 4 0;
#X connect 3 0 6 0;
#X connect 4 0 3 0;
#X connect 5 0 7 0;
#X connect 5 0 15 0;
#X connect 5 0 23 0;
#X connect 6 0 8 0;
#X connect 7 0 20 0;
#X connect 8 0 5 0;
#X connect 8 1 7 1;
#X connect 8 1 15 1;
#X connect 8 1 23 1;
#X connect 9 0 10 0;
#X connect 10 0 11 0;
#X connect 11 0 13 0;
#X connect 12 0 14 0;
#X connect 12 0 16 0;
#X connect 12 1 10 1;
#X connect 12 1 18 1;
#X connect 14 0 9 0;
#X connect 15 0 16 0;
#X connect 16 0 18 0;
#X connect 17 0 25 0;
#X connect 18 0 17 0;
#X connect 19 0 26 0;
#X connect 20 0 14 0;
#X connect 21 0 22 0;
#X connect 22 0 19 0;
#X connect 23 0 21 0;
#X connect 23 0 24 0;
#X restore 32 403 pd sample_bounds;
#X obj 829 269 spigot 1;
#X obj 874 226 r \$0-gate;
#X obj 774 401 spigot 1;
#X obj 855 400 spigot 0;
#X obj 863 362 r \$0-loop;
#X obj 821 376 != 1;
#X msg 841 337 100000;
#X obj 482 329 / 2;
#X obj 473 350 phasor~ 0.5;
#X obj 484 377 *~ 2;
#X obj 493 395 -~ 1;
#X obj 499 420 abs~;
#X obj 507 444 -~ 1;
#X obj 481 469 abs~;
#X obj 504 254 r \$0-pp;
#X obj 620 354 *~ 1;
#X obj 476 500 *~ 0;
#X obj 528 289 != 1;
#N canvas -6 1 1356 714 loopstyle 1;
#X obj 116 118 samp_param \$1 \$4 3 1;
#X obj 127 165 int;
#X obj 128 145 * 4;
#X obj 127 188 sel 0 1 2 3;
#X msg 92 236 gate;
#X msg 123 91 3: \$1;
#X msg 132 228 trigger;
#X msg 164 238 loop;
#X msg 254 214 pingpong;
#X msg 129 285 0;
#X msg 87 287 1;
#X obj 77 323 s \$0-gate;
#X msg 230 279 0;
#X msg 184 286 1;
#X obj 174 308 s \$0-loop;
#X obj 300 248 list;
#X msg 329 269 0;
#X msg 287 271 1;
#X obj 294 301 s \$0-pp;
#X obj 66 184 loadbang;
#X connect 0 0 2 0;
#X connect 1 0 3 0;
#X connect 2 0 1 0;
#X connect 3 0 4 0;
#X connect 3 1 6 0;
#X connect 3 2 7 0;
#X connect 3 3 8 0;
#X connect 4 0 10 0;
#X connect 4 0 12 0;
#X connect 4 0 15 0;
#X connect 4 0 16 0;
#X connect 5 0 0 0;
#X connect 6 0 9 0;
#X connect 6 0 12 0;
#X connect 6 0 15 0;
#X connect 6 0 16 0;
#X connect 7 0 10 0;
#X connect 7 0 13 0;
#X connect 7 0 15 0;
#X connect 7 0 16 0;
#X connect 8 0 10 0;
#X connect 8 0 13 0;
#X connect 8 0 15 0;
#X connect 8 0 17 0;
#X connect 9 0 11 0;
#X connect 10 0 11 0;
#X connect 12 0 14 0;
#X connect 13 0 14 0;
#X connect 15 0 5 0;
#X connect 16 0 18 0;
#X connect 17 0 18 0;
#X connect 19 0 4 0;
#X restore 41 440 pd loopstyle;
#X msg 255 431 4: Env \$1;
#X obj 317 574;
#X obj 256 455 samp_param \$1 \$4 4 0.02;
#X obj 252 506 t f f;
#X obj 254 391 hsl 128 15 0 1 0 0 empty empty empty -2 -8 0 10 -262144
-1 -1 0 1;
#X obj 259 535 *;
#X obj 262 566 nbx 5 14 -1e+037 1e+037 0 0 empty empty empty 0 -8 0
10 -262144 -1 -1 0.000787145 256;
#X obj 248 482 * 1.4;
#X obj 266 592 * 1000;
#X obj 228 619 s \$0-env;
#X obj 376 618 nbx 5 14 -1e+037 1e+037 0 0 empty empty empty 0 -8 0
10 -262144 -1 -1 0.787145 256;
#N canvas 0 50 1366 725 panning 0;
#X msg 371 61 3: Pan \$1;
#X obj 375 107 hsl 128 15 0 1 0 0 empty empty empty -2 -8 0 10 -262144
-1 -1 5090 1;
#X obj 323 155 nbx 5 14 -1e+037 1e+037 0 0 empty empty empty 0 -8 0
10 -262144 -1 -1 0.599198 256;
#X obj 392 158 nbx 5 14 -1e+037 1e+037 0 0 empty empty empty 0 -8 0
10 -262144 -1 -1 0.400802 256;
#X obj 331 109 - 1;
#X obj 330 130 abs;
#X obj 403 221 siglop~ 0.5;
#X obj 316 230 siglop~ 0.5;
#X obj 370 81 samp_param \$1 \$3 3 0.5;
#X obj 282 286 outlet~;
#X obj 354 276 outlet~;
#X connect 0 0 8 0;
#X connect 1 0 4 0;
#X connect 1 0 3 0;
#X connect 2 0 7 0;
#X connect 3 0 6 0;
#X connect 4 0 5 0;
#X connect 5 0 2 0;
#X connect 6 0 10 0;
#X connect 7 0 9 0;
#X connect 8 0 1 0;
#X connect 8 0 0 0;
#X restore 762 557 pd panning;
#X obj 184 587 v \$0-env;
#X obj 823 222 v \$0-env;
#X msg 825 246 0 \$1;
#X obj 812 202 bng 15 250 50 0 empty empty empty 17 7 0 10 -262144
-1 -1;
#X obj 964 447 t b f;
#X obj 779 354 r \$0-env;
#X obj 963 469 v \$0-env;
#X obj 965 503 list;
#X msg 934 576 0 2 \, 1 \$1 2 \, 0 \$1 \$2;
#X msg 980 416 1100;
#X connect 2 0 15 0;
#X connect 3 0 81 0;
#X connect 4 0 103 0;
#X connect 5 0 13 0;
#X connect 6 0 3 1;
#X connect 6 0 7 0;
#X connect 7 0 9 0;
#X connect 7 0 18 0;
#X connect 8 0 4 0;
#X connect 8 0 95 0;
#X connect 9 0 23 0;
#X connect 10 0 12 0;
#X connect 11 0 10 1;
#X connect 12 0 5 0;
#X connect 12 0 19 0;
#X connect 14 0 15 1;
#X connect 15 0 49 0;
#X connect 16 0 17 0;
#X connect 16 0 35 0;
#X connect 16 0 94 0;
#X connect 17 0 21 0;
#X connect 18 0 17 1;
#X connect 20 0 27 0;
#X connect 21 0 33 0;
#X connect 22 0 8 0;
#X connect 23 0 22 0;
#X connect 24 0 23 0;
#X connect 24 1 22 1;
#X connect 25 0 21 1;
#X connect 27 0 24 0;
#X connect 27 0 25 0;
#X connect 27 0 26 0;
#X connect 27 0 46 0;
#X connect 28 0 11 0;
#X connect 29 0 30 0;
#X connect 30 1 31 0;
#X connect 31 0 41 0;
#X connect 32 0 42 0;
#X connect 33 0 90 0;
#X connect 34 0 4 1;
#X connect 34 0 96 1;
#X connect 35 0 34 0;
#X connect 37 0 1 0;
#X connect 39 0 38 0;
#X connect 40 0 42 0;
#X connect 41 0 32 0;
#X connect 41 1 40 0;
#X connect 41 2 44 0;
#X connect 42 0 50 0;
#X connect 43 0 50 0;
#X connect 43 0 45 0;
#X connect 44 0 43 0;
#X connect 46 0 79 0;
#X connect 47 0 78 0;
#X connect 48 0 49 1;
#X connect 49 0 37 0;
#X connect 49 0 39 0;
#X connect 50 0 56 0;
#X connect 51 0 52 1;
#X connect 51 0 60 0;
#X connect 52 0 54 0;
#X connect 55 0 45 0;
#X connect 56 0 58 0;
#X connect 58 0 52 0;
#X connect 58 1 55 0;
#X connect 58 2 53 0;
#X connect 58 3 59 0;
#X connect 59 0 61 0;
#X connect 62 0 29 0;
#X connect 62 0 64 0;
#X connect 63 0 64 0;
#X connect 64 0 65 0;
#X connect 65 0 122 0;
#X connect 65 1 16 0;
#X connect 66 0 67 0;
#X connect 67 0 68 1;
#X connect 68 0 71 0;
#X connect 69 0 10 0;
#X connect 69 1 70 0;
#X connect 70 0 68 0;
#X connect 70 1 66 0;
#X connect 71 0 77 0;
#X connect 72 0 70 0;
#X connect 73 0 72 0;
#X connect 74 0 76 0;
#X connect 74 1 75 1;
#X connect 75 0 69 0;
#X connect 76 0 75 0;
#X connect 77 0 74 0;
#X connect 78 0 47 0;
#X connect 78 0 48 0;
#X connect 79 0 27 0;
#X connect 80 0 6 0;
#X connect 81 0 2 0;
#X connect 82 0 81 1;
#X connect 83 0 84 0;
#X connect 83 0 85 1;
#X connect 84 0 86 1;
#X connect 85 0 86 0;
#X connect 86 0 3 0;
#X connect 88 0 14 0;
#X connect 89 0 88 1;
#X connect 90 0 36 0;
#X connect 90 0 123 0;
#X connect 91 0 36 0;
#X connect 91 0 123 0;
#X connect 92 0 91 1;
#X connect 92 0 93 0;
#X connect 93 0 90 1;
#X connect 94 0 91 0;
#X connect 95 0 96 0;
#X connect 96 0 97 0;
#X connect 97 0 98 0;
#X connect 98 0 99 0;
#X connect 99 0 100 0;
#X connect 100 0 101 0;
#X connect 101 0 104 0;
#X connect 102 0 105 0;
#X connect 102 0 104 1;
#X connect 103 0 85 0;
#X connect 104 0 85 0;
#X connect 105 0 103 1;
#X connect 107 0 109 0;
#X connect 109 0 107 0;
#X connect 109 0 114 0;
#X connect 110 0 112 0;
#X connect 110 1 112 1;
#X connect 111 0 114 0;
#X connect 112 0 113 0;
#X connect 113 0 115 0;
#X connect 114 0 110 0;
#X connect 115 0 116 0;
#X connect 115 0 117 0;
#X connect 115 0 119 0;
#X connect 118 0 37 1;
#X connect 118 1 39 1;
#X connect 120 0 121 0;
#X connect 121 0 88 0;
#X connect 122 0 120 0;
#X connect 123 0 125 0;
#X connect 123 1 126 1;
#X connect 124 0 33 1;
#X connect 125 0 126 0;
#X connect 126 0 127 0;
#X connect 127 0 14 0;
#X connect 128 0 123 0;
