#N canvas 547 208 598 417 10;
#X obj 45 222 outlet~;
#X obj 15 44 samp_voice 60 72 \$1;
#X obj 148 200 outlet~;
#X obj 51 12 inlet;
#X obj 41 65 samp_voice 61 73 \$1;
#X obj 67 87 samp_voice 62 74 \$1;
#X obj 78 105 samp_voice 63 75 \$1;
#X obj 126 19 inlet;
#X connect 1 0 0 0;
#X connect 1 1 2 0;
#X connect 3 0 1 0;
#X connect 3 0 4 0;
#X connect 3 0 5 0;
#X connect 3 0 6 0;
#X connect 4 0 0 0;
#X connect 4 1 2 0;
#X connect 5 0 0 0;
#X connect 5 1 2 0;
#X connect 6 0 0 0;
#X connect 6 1 2 0;
#X connect 7 0 1 1;
#X connect 7 0 4 1;
#X connect 7 0 5 1;
#X connect 7 0 6 1;
