#N canvas 219 151 1360 725 10;
#X obj 274 333 outlet;
#X obj 80 24 inlet;
#X text 207 8 \$1-sample \, \$2-page \, \$3-knob;
#X text 356 195 0-1 val;
#X obj 290 198 nbx 5 14 -1e+037 1e+037 0 0 empty empty empty 0 -8 0
10 -262144 -1 -1 0 256;
#X obj 173 19 r \$1-sel;
#X obj 288 125 r p\$2k\$3;
#X obj 103 272 s p\$2s\$3;
#X obj 116 152 list;
#X obj 123 175 list trim;
#X obj 110 98 t b a;
#X obj 208 117 bng 15 250 50 0 empty empty empty 17 7 0 10 -262144
-1 -1;
#X obj 294 241 spigot;
#X obj 172 101 bng 15 250 50 0 empty empty empty 17 7 0 10 -262144
-1 -1;
#X obj 233 86 sel 1;
#X obj 366 215 r sampparam_off;
#X obj 219 258 nbx 5 14 -1e+037 1e+037 0 0 empty empty empty 0 -8 0
10 -262144 -1 -1 0 256;
#X obj 358 303 nbx 5 14 -1e+037 1e+037 0 0 empty empty empty 0 -8 0
10 -262144 -1 -1 0 256;
#X obj 182 45 t f f;
#X obj 187 290 v p\$2k\$3;
#X obj 224 210 f \$4;
#X obj 407 262 bng 15 250 50 0 empty empty empty 17 7 0 10 -262144
-1 -1;
#X obj 121 238 spigot;
#X obj 168 75 sel 1;
#X obj 297 285 / 0.998;
#X obj 296 309 min 1;
#X obj 67 205 screensave \$2;
#X connect 1 0 10 0;
#X connect 4 0 12 0;
#X connect 4 0 21 0;
#X connect 5 0 18 0;
#X connect 6 0 4 0;
#X connect 8 0 9 0;
#X connect 9 0 26 0;
#X connect 10 0 8 0;
#X connect 10 1 8 1;
#X connect 11 0 20 0;
#X connect 12 0 17 0;
#X connect 12 0 20 1;
#X connect 12 0 24 0;
#X connect 13 0 8 0;
#X connect 14 0 11 0;
#X connect 15 0 12 1;
#X connect 18 0 12 1;
#X connect 18 0 23 0;
#X connect 18 1 14 0;
#X connect 18 1 22 1;
#X connect 20 0 16 0;
#X connect 20 0 19 0;
#X connect 22 0 7 0;
#X connect 23 0 13 0;
#X connect 24 0 25 0;
#X connect 25 0 0 0;
#X connect 26 0 22 0;
