#N canvas 0 52 1360 725 10;
#N canvas 0 50 450 250 (subpatch) 0;
#X array \$0-sample 220500 float 2;
#X coords 0 1 220500 -1 200 140 1;
#X restore 20 246 graph;
#X obj 661 630 outlet~;
#X obj 618 436 tabread4~ \$0-sample;
#X obj 599 373 *~ 44100;
#X obj 598 343 phasor~ 1;
#X obj 82 186 soundfiler;
#X floatatom 679 144 10 0 0 0 sample_size #0-samplesize -, f 10;
#X obj 679 163 max 100;
#X obj 678 184 / 44100;
#X obj 598 321 nbx 5 14 -1e+037 1e+037 0 0 empty empty freq 0 -8 0
10 -262144 -1 -1 0.797971 256;
#X obj 595 214 expr 1/$f1;
#X obj 88 79 openpanel;
#X obj 124 28 bng 15 250 50 0 empty empty empty 17 7 0 10 -262144 -1
-1;
#X obj 105 57 t b b;
#X obj 82 118 list;
#X obj 167 87 f \$0;
#X msg 80 148 read -resize \$1 \$2-sample;
#X obj 84 222 s \$0-samplesize;
#X obj 783 445 vline~;
#X obj 755 481 *~;
#X obj 763 172 bng 15 250 50 0 empty empty empty 17 7 0 10 -262144
-1 -1;
#X obj 770 314 f 1000;
#X obj 689 254 * 1000;
#X obj 202 205 print;
#X msg 266 123 ../../Samples/\$1.wav;
#X obj 260 52 hsl 128 15 0 99 0 0 empty empty sample_sel -2 -8 0 10
-262144 -1 -1 0 1;
#X obj 257 73 int;
#X obj 264 95 change;
#X obj 977 259 hsl 128 15 -1 1 0 0 empty empty pitch -2 -8 0 10 -262144
-1 -1 0 1;
#X obj 768 349 / 1;
#X obj 600 291 * 1;
#X obj 857 361 nbx 5 14 -1e+037 1e+037 0 0 empty empty empty 0 -8 0
10 -262144 -1 -1 1253.18 256;
#X obj 594 252 f 1;
#X obj 612 233 t b f;
#X obj 871 314 abs;
#X floatatom 972 362 5 0 0 0 - - -, f 5;
#X obj 946 300 * 3;
#X obj 189 50 loadbang;
#X msg 733 8 \$2 \$1;
#X obj 742 24 route 0;
#X msg 775 47 \$2, f 4;
#X obj 765 99 bng 15 250 50 0 empty empty empty 17 7 0 10 -262144 -1
-1;
#X obj 789 391 - 25;
#X msg 706 353 0;
#X obj 706 333 del 3;
#X msg 769 411 0 2 \, 1 2 2 \, 0 25 \$1;
#X obj 657 568 *~;
#X obj 810 628 outlet~;
#X obj 870 569 *~;
#X obj 799 101 bng 15 250 50 0 empty empty empty 17 7 0 10 -262144
-1 -1;
#X obj 759 70 sel \$1 \$2;
#X msg 801 120 1;
#X msg 837 124 0;
#X obj 839 103 bng 15 250 50 0 empty empty empty 17 7 0 10 -262144
-1 -1;
#X obj 981 139 s \$1-sel;
#X msg 460 51 1: Samp Slot \$1;
#X msg 991 289 2: Pitch \$1;
#X msg 1076 367 3: Pan \$1;
#X msg 391 390 4: Vol \$1;
#X obj 1080 413 hsl 128 15 0 1 0 0 empty empty empty -2 -8 0 10 -262144
-1 -1 4211 1;
#X obj 1028 461 nbx 5 14 -1e+037 1e+037 0 0 empty empty empty 0 -8
0 10 -262144 -1 -1 0.668421 256;
#X obj 1097 464 nbx 5 14 -1e+037 1e+037 0 0 empty empty empty 0 -8
0 10 -262144 -1 -1 0.331579 256;
#X obj 1036 415 - 1;
#X obj 1035 436 abs;
#X obj 1108 527 siglop~ 0.5;
#X obj 746 565 siglop~ 0.5;
#X obj 482 464 siglop~ 1;
#X obj 760 527 *~;
#X obj 953 19 change -1;
#X obj 1088 39 r knob-page-sel;
#X obj 1069 64 f 1;
#X obj 1053 115 s disable-all-in;
#X obj 1070 85 s knob-page-sel;
#X msg 996 105 1;
#X obj 965 46 sel 1;
#X text 1016 0 if page selected disable val updates update vals then
re-enable;
#X obj 969 69 t b b b b;
#X msg 1177 165 0;
#X obj 1124 64 nbx 5 14 -1e+037 1e+037 0 0 empty empty empty 0 -8 0
10 -262144 -1 -1 1 256;
#X obj 1176 188 s sampparam_off;
#X obj 392 412 samp_param \$1 \$3 4 0.8;
#X obj 1075 387 samp_param \$1 \$3 3 0.5;
#X obj 990 308 samp_param \$1 \$3 2 0.33333;
#X obj 489 129 + 1;
#X obj 459 96 * 99.5;
#X obj 509 162 nbx 5 14 -1e+037 1e+037 0 0 empty empty empty 0 -8 0
10 -262144 -1 -1 21.4237 256;
#X obj 459 71 samp_param \$1 \$3 1 0;
#X obj 723 -10 inlet;
#X obj 829 -11 inlet;
#X msg 618 24 \$2 \$1;
#X obj 627 40 route 0;
#X msg 660 63 \$2, f 4;
#X obj 644 86 sel \$1 \$2;
#X obj 285 212 readsf~;
#X connect 2 0 19 0;
#X connect 3 0 2 0;
#X connect 4 0 3 0;
#X connect 5 0 17 0;
#X connect 6 0 7 0;
#X connect 7 0 3 1;
#X connect 7 0 8 0;
#X connect 8 0 10 0;
#X connect 8 0 22 0;
#X connect 9 0 4 0;
#X connect 10 0 32 0;
#X connect 11 0 14 0;
#X connect 12 0 13 0;
#X connect 13 0 11 0;
#X connect 13 1 15 0;
#X connect 14 0 16 0;
#X connect 15 0 14 1;
#X connect 16 0 5 0;
#X connect 16 0 23 0;
#X connect 18 0 19 1;
#X connect 19 0 67 0;
#X connect 20 0 21 0;
#X connect 20 0 44 0;
#X connect 21 0 29 0;
#X connect 22 0 21 1;
#X connect 24 0 14 0;
#X connect 25 0 26 0;
#X connect 26 0 27 0;
#X connect 26 0 55 0;
#X connect 27 0 24 0;
#X connect 28 0 36 0;
#X connect 29 0 31 0;
#X connect 29 0 42 0;
#X connect 30 0 9 0;
#X connect 32 0 30 0;
#X connect 33 0 32 0;
#X connect 33 1 30 1;
#X connect 34 0 29 1;
#X connect 36 0 33 0;
#X connect 36 0 34 0;
#X connect 36 0 35 0;
#X connect 36 0 56 0;
#X connect 37 0 15 0;
#X connect 38 0 39 0;
#X connect 39 1 40 0;
#X connect 40 0 50 0;
#X connect 41 0 20 0;
#X connect 41 0 51 0;
#X connect 42 0 45 0;
#X connect 43 0 4 1;
#X connect 44 0 43 0;
#X connect 45 0 18 0;
#X connect 46 0 1 0;
#X connect 48 0 47 0;
#X connect 49 0 51 0;
#X connect 50 0 41 0;
#X connect 50 1 49 0;
#X connect 50 2 53 0;
#X connect 51 0 68 0;
#X connect 52 0 68 0;
#X connect 52 0 54 0;
#X connect 53 0 52 0;
#X connect 55 0 86 0;
#X connect 56 0 82 0;
#X connect 57 0 81 0;
#X connect 58 0 80 0;
#X connect 59 0 62 0;
#X connect 59 0 61 0;
#X connect 60 0 65 0;
#X connect 61 0 64 0;
#X connect 62 0 63 0;
#X connect 63 0 60 0;
#X connect 64 0 48 1;
#X connect 65 0 46 1;
#X connect 66 0 67 1;
#X connect 67 0 46 0;
#X connect 67 0 48 0;
#X connect 68 0 74 0;
#X connect 69 0 70 1;
#X connect 69 0 78 0;
#X connect 70 0 72 0;
#X connect 73 0 54 0;
#X connect 74 0 76 0;
#X connect 76 0 70 0;
#X connect 76 1 73 0;
#X connect 76 2 71 0;
#X connect 76 3 77 0;
#X connect 77 0 79 0;
#X connect 80 0 58 0;
#X connect 80 0 66 0;
#X connect 81 0 59 0;
#X connect 81 0 57 0;
#X connect 82 0 36 0;
#X connect 83 0 26 0;
#X connect 83 0 85 0;
#X connect 84 0 83 0;
#X connect 86 0 84 0;
#X connect 87 0 38 0;
#X connect 88 0 89 0;
#X connect 89 0 90 0;
#X connect 90 1 91 0;
#X connect 91 0 92 0;
#X connect 92 0 20 0;
