#N canvas -8 -8 1366 725 10;
#X obj 158 200 sig~ 1;
#X obj 142 226 *~;
#X obj 179 125 t b b;
#X obj 162 147 del 100;
#X msg 245 168 0;
#X msg 159 164 1;
#X obj 114 118 inlet~;
#X obj 149 287 outlet~;
#X obj 202 89 inlet;
#X connect 0 0 1 1;
#X connect 1 0 7 0;
#X connect 2 0 3 0;
#X connect 2 1 4 0;
#X connect 3 0 5 0;
#X connect 4 0 0 0;
#X connect 5 0 0 0;
#X connect 6 0 1 0;
#X connect 8 0 2 0;
