#N canvas 0 55 1356 691 10;
#X obj 862 408 bng 15 250 50 0 empty empty empty 17 7 0 10 -262144
-1 -1;
#X obj 862 508 qlist;
#X obj 921 413 bng 15 250 50 0 empty empty empty 17 7 0 10 -262144
-1 -1;
#X msg 921 452 rewind;
#X obj 931 514 bng 15 250 50 0 empty empty empty 17 7 0 10 -262144
-1 -1;
#X obj 1068 461 timer;
#X floatatom 1181 584 10 0 0 0 - - -, f 10;
#X obj 1108 335 unpack;
#X msg 1030 511 add;
#X obj 1045 623 route list;
#X obj 1068 379 t b b b b f;
#X obj 1132 252 spigot 0;
#X obj 1215 166 r 1115-recenable_smp;
#X obj 1215 222 tgl 15 0 empty empty empty 17 7 0 10 -262144 -1 -1
0 1;
#X msg 980 466 clear;
#X obj 1265 329 f;
#X obj 1363 333 + 1;
#X obj 1222 302 bng 15 250 50 0 empty empty empty 17 7 0 10 -262144
-1 -1;
#X floatatom 1265 373 5 0 0 0 - - -, f 5;
#X obj 1283 264 sel 1;
#X msg 1283 289 0;
#X obj 1265 408 sel 0;
#X obj 1168 379 t f b;
#X obj 1047 223 bng 15 250 50 0 empty empty empty 17 7 0 10 -262144
-1 -1;
#X msg 1047 248 0 0;
#X floatatom 123 387 5 0 0 0 - - -, f 5;
#X obj 123 418 sel 1;
#X obj 123 477 v state;
#X obj 123 444 bng 15 250 50 0 empty empty empty 17 7 0 10 -262144
-1 -1;
#X obj 98 584 sel 0 1 2 3, f 54;
#X obj 123 775 s 1115-start_smp;
#X obj 123 666 t b b;
#X msg 155 701 1;
#X obj 155 723 v state;
#X obj 201 680 t b b;
#X obj 248 699 v state;
#X obj 216 743 s 1115-stop_smp;
#X obj 842 306 r 1115-start_smp;
#X obj 921 375 r 1115-stop_smp;
#X msg 248 677 0;
#X msg 299 507 2;
#X obj 216 561 s 1115-recenable_smp;
#X obj 299 672 t b b;
#X obj 342 700 v state;
#X obj 310 745 s 1115-stop_smp;
#X msg 342 678 0;
#X obj 463 695 v state;
#X obj 399 665 t b b b;
#X msg 463 673 1;
#X obj 427 720 s 1115-end_seq_smp;
#X obj 1027 158 r 1115-end_seq_smp;
#X obj 1322 492 v state;
#X msg 1322 470 3;
#X obj 1304 556 s 1115-record_smp;
#X msg 1215 193 1;
#X obj 1278 199 r 1115-start_smp;
#X obj 1348 221 r 1115-stop_smp;
#X msg 1300 233 0;
#X obj 216 469 t b b b;
#X obj 239 534 s 1115-stop_smp;
#X obj 404 748 s 1115-start_smp;
#X obj 332 87 r 1115-start_smp;
#X obj 480 90 r 1115-stop_smp;
#X obj 635 88 r 1115-recenable_smp;
#X obj 789 87 r 1115-record_smp;
#X obj 577 237 send screenLineSeq;
#X obj 585 674 r 1115-notes_seq_smp;
#X obj 585 741 bag;
#X msg 599 713 flush;
#X obj 585 765 pack 0 0;
#X obj 583 793 s 1115-zero_notes_smp;
#X obj 679 691 r 1115-stop_smp;
#X obj 524 149 s 1115-led_smp;
#X msg 524 124 0;
#X obj 385 142 s 1115-led_smp;
#X obj 864 148 s 1115-led_smp;
#X obj 694 147 s 1115-led_smp;
#X msg 694 122 6;
#X msg 332 173 Sequencer: Playing;
#X msg 480 173 Sequencer: Stopped;
#X msg 635 173 Sequencer: Enabled;
#X msg 784 172 Sequencer: Recording;
#X msg 385 118 3;
#X msg 864 123 1;
#X text 317 66 Controls LED & Screen Infomation:;
#X text 96 250 Controls State With Aux Button;
#X text 1016 138 Record Notes To List. First note starts recording.
;
#X text 534 653 Kills notes left on by sequence.;
#N canvas 7 50 1006 691 midi-control 0;
#X obj 95 121 midirealtimein;
#X obj 95 177 sel 248 250 251 252, f 22;
#X obj 260 272 v state;
#X obj 260 239 bng 15 250 50 0 empty empty empty 17 7 0 10 -262144
-1 -1;
#X obj 260 355 t b b;
#X obj 292 412 v state;
#X obj 260 456 s 1115-stop_smp;
#X msg 292 390 0;
#X obj 369 364 t b b;
#X obj 401 421 v state;
#X obj 369 466 s 1115-stop_smp;
#X msg 401 399 0;
#X obj 541 417 v state;
#X obj 482 368 t b b b;
#X msg 541 395 1;
#X obj 505 442 s 1115-end_seq_smp;
#X obj 482 470 s 1115-start_smp;
#X obj 260 309 sel 1 2 3, f 37;
#X obj 69 276 v state;
#X obj 69 243 bng 15 250 50 0 empty empty empty 17 7 0 10 -262144 -1
-1;
#X obj 69 313 sel 0 1 2 3, f 12;
#X text 78 509 states are: 0 = stopped \, 1 = playing \, 2 = rec enabled
\, 3 = recording, f 70;
#X obj 69 460 s 1115-start_smp;
#X obj 69 351 t b b;
#X msg 101 386 1;
#X obj 101 408 v state;
#X text 262 143 MIDI 248 = clock \; 250 = start_smp \; 251 = continue
\; 252 = stop_smp, f 18;
#X text 23 15 This subpatch handles MIDI commands for starting/stopping
sequencer., f 69;
#X connect 0 0 1 0;
#X connect 1 1 19 0;
#X connect 1 2 19 0;
#X connect 1 3 3 0;
#X connect 2 0 17 0;
#X connect 3 0 2 0;
#X connect 4 0 6 0;
#X connect 4 1 7 0;
#X connect 7 0 5 0;
#X connect 8 0 10 0;
#X connect 8 1 11 0;
#X connect 11 0 9 0;
#X connect 13 0 16 0;
#X connect 13 1 15 0;
#X connect 13 2 14 0;
#X connect 14 0 12 0;
#X connect 17 0 4 0;
#X connect 17 1 8 0;
#X connect 17 2 13 0;
#X connect 18 0 20 0;
#X connect 19 0 18 0;
#X connect 20 0 23 0;
#X connect 23 0 22 0;
#X connect 23 1 24 0;
#X connect 24 0 25 0;
#X restore 113 164 pd midi-control;
#X text 893 795 Flashes LED at loop & sets color after sequence stop_smp
;
#X obj 1266 446 t b b b;
#X msg 1266 569 1;
#X obj 860 348 spigot 0;
#X obj 1267 602 s 1115-something-recorded_smp;
#X obj 921 304 r 1115-something-recorded_smp;
#X text 865 278 avoid playing 0 len seq;
#X obj 716 403 r 1115-tempo_smp;
#X msg 715 434 tempo_smp \$1;
#X obj 1012 192 t b b;
#X obj 525 378 loadbang;
#X obj 523 415 t b b;
#X msg 509 472 1;
#X obj 509 494 s 1115-something-recorded_smp;
#X msg 702 305 write ./sequence.txt;
#X msg 553 440 read ./sequence.txt;
#N canvas 4 50 450 300 midi-out 0;
#X obj 99 100 r 1115-notes_seq_smp;
#X obj 114 172 noteout 1;
#X obj 114 132 unpack;
#X obj 195 104 r 1115-zero_notes_smp;
#X text 120 22 send the sequence out ch 1;
#X connect 0 0 2 0;
#X connect 2 0 1 0;
#X connect 2 1 1 1;
#X connect 3 0 2 0;
#X restore 112 128 pd midi-out;
#X obj 742 704 r 1115-quitting;
#X obj 433 265 keyfilter 8;
#X obj 424 346 s 1115-backspace;
#X obj 646 531 r 1115-notes_seq_smp;
#X obj 707 546 r 1115-zero_notes_smp;
#X obj 773 636 r 1115-led_smp;
#X obj 187 378 r 1115-mseq_play;
#X obj 351 393 r 1115-mseq_rec;
#X obj 299 529 v state;
#X obj 330 455 bng 15 250 50 0 empty empty empty 17 7 0 10 -262144
-1 -1;
#X obj 476 310 spigot 1;
#X obj 540 285 r 1115-edit_mode;
#X obj 836 216 bng 15 250 50 0 empty empty empty 17 7 0 10 -262144
-1 -1;
#X obj 461 122 bng 15 250 50 0 empty empty empty 17 7 0 10 -262144
-1 -1;
#X obj 871 217 bng 15 250 50 0 empty empty empty 17 7 0 10 -262144
-1 -1;
#X msg 290 207 60;
#X obj 291 184 t b n;
#X obj 293 226 /;
#X obj 283 249 nbx 5 14 -1e+037 1e+037 0 0 empty empty empty 0 -8 0
10 -262144 -1 -1 0.75 256;
#X obj 284 265 * 4000;
#X obj 326 330 * 1;
#X obj 285 314 int;
#X obj 300 367 delay 1000;
#X obj 163 549 bng 15 250 50 0 empty empty empty 17 7 0 10 -262144
-1 -1;
#X obj 1311 524 bng 15 250 50 0 empty empty empty 17 7 0 10 -262144
-1 -1;
#X obj 372 261 + 1;
#X obj 358 348 nbx 5 14 -1e+037 1e+037 0 0 empty empty empty 0 -8 0
10 -262144 -1 -1 3000 256;
#X obj 396 246 bng 15 250 50 0 empty empty empty 17 7 0 10 -262144
-1 -1;
#X obj 258 343 nbx 5 14 -1e+037 1e+037 0 0 empty empty empty 0 -8 0
10 -262144 -1 -1 3000 256;
#X obj 325 286 t b f;
#X obj 307 290 bng 15 250 50 0 empty empty empty 17 7 0 10 -262144
-1 -1;
#X obj 302 42 inlet;
#X obj 366 44 inlet;
#X obj 243 45 inlet;
#X obj 645 606 outlet;
#X obj 415 39 inlet;
#X text 249 15 notes start/stop rec tempo # bars;
#X obj 481 44 inlet;
#X obj 1045 584 pack s 0 s 0 0;
#X msg 1113 494 symbol 1115-notes_seq_smp;
#X obj 793 49 r \$0-poop;
#X connect 0 0 1 0;
#X connect 1 1 4 0;
#X connect 2 0 3 0;
#X connect 3 0 1 0;
#X connect 4 0 0 0;
#X connect 5 0 6 0;
#X connect 5 0 144 1;
#X connect 7 0 10 0;
#X connect 7 1 22 0;
#X connect 8 0 144 0;
#X connect 9 0 1 0;
#X connect 10 0 5 0;
#X connect 10 1 8 0;
#X connect 10 2 5 1;
#X connect 10 3 145 0;
#X connect 10 4 144 3;
#X connect 11 0 7 0;
#X connect 12 0 54 0;
#X connect 13 0 11 1;
#X connect 13 0 19 0;
#X connect 14 0 1 0;
#X connect 15 0 16 0;
#X connect 15 0 18 0;
#X connect 16 0 15 1;
#X connect 17 0 15 0;
#X connect 18 0 21 0;
#X connect 19 0 20 0;
#X connect 20 0 15 1;
#X connect 21 0 5 0;
#X connect 21 0 14 0;
#X connect 21 0 90 0;
#X connect 22 0 144 4;
#X connect 22 1 17 0;
#X connect 23 0 24 0;
#X connect 24 0 7 0;
#X connect 25 0 26 0;
#X connect 26 0 28 0;
#X connect 27 0 29 0;
#X connect 28 0 27 0;
#X connect 29 0 31 0;
#X connect 29 1 34 0;
#X connect 29 2 42 0;
#X connect 29 3 47 0;
#X connect 31 0 30 0;
#X connect 31 1 32 0;
#X connect 32 0 33 0;
#X connect 34 0 36 0;
#X connect 34 1 39 0;
#X connect 37 0 92 0;
#X connect 38 0 2 0;
#X connect 39 0 35 0;
#X connect 40 0 114 0;
#X connect 42 0 44 0;
#X connect 42 1 45 0;
#X connect 45 0 43 0;
#X connect 47 0 60 0;
#X connect 47 1 49 0;
#X connect 47 2 48 0;
#X connect 48 0 46 0;
#X connect 50 0 98 0;
#X connect 52 0 51 0;
#X connect 54 0 13 0;
#X connect 55 0 57 0;
#X connect 56 0 57 0;
#X connect 57 0 13 0;
#X connect 58 0 41 0;
#X connect 58 1 59 0;
#X connect 58 2 40 0;
#X connect 61 0 78 0;
#X connect 61 0 82 0;
#X connect 62 0 79 0;
#X connect 62 0 73 0;
#X connect 62 0 119 0;
#X connect 63 0 80 0;
#X connect 63 0 77 0;
#X connect 64 0 81 0;
#X connect 64 0 83 0;
#X connect 66 0 67 0;
#X connect 67 0 69 0;
#X connect 68 0 67 0;
#X connect 69 0 70 0;
#X connect 71 0 68 0;
#X connect 73 0 72 0;
#X connect 77 0 76 0;
#X connect 78 0 65 0;
#X connect 79 0 65 0;
#X connect 80 0 65 0;
#X connect 81 0 65 0;
#X connect 81 0 120 0;
#X connect 82 0 74 0;
#X connect 83 0 75 0;
#X connect 90 0 91 0;
#X connect 90 1 53 0;
#X connect 90 1 130 0;
#X connect 90 2 52 0;
#X connect 91 0 93 0;
#X connect 92 0 0 0;
#X connect 94 0 92 1;
#X connect 96 0 97 0;
#X connect 97 0 1 0;
#X connect 98 0 103 0;
#X connect 98 1 23 0;
#X connect 99 0 100 0;
#X connect 100 0 101 0;
#X connect 100 1 104 0;
#X connect 101 0 102 0;
#X connect 103 0 1 0;
#X connect 104 0 1 0;
#X connect 106 0 68 0;
#X connect 107 0 116 0;
#X connect 109 0 140 0;
#X connect 110 0 140 0;
#X connect 112 0 28 0;
#X connect 113 0 115 0;
#X connect 115 0 58 0;
#X connect 116 0 108 0;
#X connect 117 0 116 1;
#X connect 120 0 128 0;
#X connect 121 0 123 0;
#X connect 122 0 121 0;
#X connect 122 1 123 1;
#X connect 123 0 124 0;
#X connect 124 0 125 0;
#X connect 125 0 127 0;
#X connect 125 0 127 1;
#X connect 126 0 128 1;
#X connect 126 0 132 0;
#X connect 127 0 126 0;
#X connect 127 0 134 0;
#X connect 128 0 28 0;
#X connect 131 0 135 0;
#X connect 135 0 136 0;
#X connect 135 1 126 1;
#X connect 136 0 127 0;
#X connect 137 0 28 0;
#X connect 138 0 115 0;
#X connect 139 0 11 0;
#X connect 141 0 122 0;
#X connect 143 0 131 0;
#X connect 143 0 133 0;
#X connect 144 0 9 0;
#X connect 145 0 144 2;
