#N canvas 437 278 1139 689 10;
#X obj 31 353 spigot;
#X obj 287 291 spigot;
#X obj 320 208 - 1;
#X obj 320 232 abs;
#X obj 40 271 t f f;
#X text 392 191 if the knob is locked \, route to check for unlock
;
#X obj 24 128 inlet;
#X msg 275 592 0;
#X obj 101 509 outlet;
#X obj 249 35 inlet;
#X obj 334 126 r \$0-lock;
#X obj 275 617 s \$0-lock;
#X obj 249 62 bang;
#X obj 556 29 inlet;
#X text 614 30 pass thru val;
#X text 236 10 bang to lock;
#X text 112 93 val;
#N canvas 4 50 468 398 distance-check 0;
#X obj 147 191 -;
#X obj 147 219 abs;
#X obj 136 115 t f b;
#X obj 147 276 sel 1;
#X obj 179 164 f;
#X obj 147 243 < 0.05;
#X obj 127 83 inlet;
#X obj 146 309 outlet;
#X obj 256 81 inlet;
#X text 35 80 check val;
#X text 305 83 lock val;
#X text 94 31 bang if check comes within 0.05 of lock;
#X connect 0 0 1 0;
#X connect 1 0 5 0;
#X connect 2 0 0 0;
#X connect 2 1 4 0;
#X connect 3 0 7 0;
#X connect 4 0 0 1;
#X connect 5 0 3 0;
#X connect 6 0 2 0;
#X connect 8 0 4 1;
#X restore 266 375 pd distance-check;
#X text 445 342 check distance in case knob was all the way down or
up;
#X text 573 449 check cross over \, distance check might miss this
if knob is moving fast enough;
#N canvas 37 56 567 506 drop-first 0;
#X obj 113 37 inlet;
#X obj 322 26 inlet;
#X text 370 32 reset;
#X text 73 28 val;
#X obj 167 422 outlet;
#X obj 318 409 outlet;
#X text 373 413 last val;
#X text 78 416 current val;
#X obj 216 285 spigot 0;
#X obj 307 266 f;
#N canvas 694 164 450 300 once 0;
#X obj 115 104 sel 0;
#X msg 115 83 0;
#X obj 92 27 inlet;
#X msg 186 50 0;
#X obj 186 28 inlet;
#X obj 113 142 t b b;
#X msg 184 121 1;
#X obj 107 180 outlet;
#X connect 0 0 5 0;
#X connect 1 0 0 0;
#X connect 2 0 1 0;
#X connect 3 0 0 1;
#X connect 4 0 3 0;
#X connect 5 0 7 0;
#X connect 5 1 6 0;
#X connect 6 0 0 1;
#X restore 230 185 pd once;
#X obj 319 107 t b b;
#X msg 332 160 0;
#X obj 311 367 f;
#X obj 213 311 t f f b;
#X obj 113 82 t b f f;
#X obj 217 221 t b b;
#X msg 239 248 1;
#X connect 0 0 15 0;
#X connect 1 0 11 0;
#X connect 8 0 14 0;
#X connect 9 0 13 1;
#X connect 10 0 16 0;
#X connect 11 0 10 1;
#X connect 11 1 12 0;
#X connect 12 0 8 1;
#X connect 13 0 5 0;
#X connect 14 0 4 0;
#X connect 14 1 13 1;
#X connect 14 2 13 0;
#X connect 15 0 10 0;
#X connect 15 1 8 0;
#X connect 15 2 9 1;
#X connect 16 0 17 0;
#X connect 16 1 9 0;
#X connect 17 0 8 1;
#X restore 302 462 pd drop-first;
#X obj 350 509 expr if (($f1 > $f2 && $f2 > $f3) || ($f1 < $f2 && $f2
< $f3) \, 1 \, 0);
#X obj 356 556 sel 1;
#X obj 317 170 t f f, f 8;
#X obj 552 119 t f b f;
#X obj 159 159 spigot 0;
#X msg 195 129 0;
#X msg 238 87 1;
#X floatatom 178 264 5 0 0 0 - - -, f 5;
#X obj 99 175 t f b;
#X floatatom 97 247 5 0 0 0 - - -, f 5;
#X obj 143 303 -;
#X obj 149 356 nbx 5 14 -1e+037 1e+037 0 0 empty empty empty 0 -8 0
10 -262144 -1 -1 0.442105 256;
#X obj 174 325 abs;
#X obj 147 421 sel 1;
#X obj 165 464 bng 15 250 50 0 empty empty empty 17 7 0 10 -262144
-1 -1;
#X obj 147 388 > 0.1;
#X text 86 438 if knob moves > 0.1 unlock;
#X obj 154 231 f 0;
#X connect 0 0 8 0;
#X connect 1 0 17 0;
#X connect 1 0 20 0;
#X connect 2 0 3 0;
#X connect 3 0 0 1;
#X connect 4 0 0 0;
#X connect 4 1 1 0;
#X connect 6 0 4 0;
#X connect 6 0 25 0;
#X connect 6 0 29 0;
#X connect 7 0 11 0;
#X connect 9 0 12 0;
#X connect 10 0 23 0;
#X connect 10 0 25 1;
#X connect 12 0 27 0;
#X connect 13 0 24 0;
#X connect 17 0 7 0;
#X connect 20 0 21 0;
#X connect 20 1 21 2;
#X connect 21 0 22 0;
#X connect 22 0 7 0;
#X connect 23 0 2 0;
#X connect 23 1 1 1;
#X connect 24 0 17 1;
#X connect 24 1 20 1;
#X connect 24 2 21 1;
#X connect 25 0 26 0;
#X connect 25 0 38 1;
#X connect 26 0 25 1;
#X connect 27 0 23 0;
#X connect 27 0 25 1;
#X connect 28 0 31 1;
#X connect 29 0 30 0;
#X connect 29 1 38 0;
#X connect 30 0 31 0;
#X connect 31 0 33 0;
#X connect 32 0 36 0;
#X connect 33 0 32 0;
#X connect 34 0 35 0;
#X connect 35 0 7 0;
#X connect 36 0 34 0;
#X connect 38 0 28 0;
