#N canvas 0 50 1366 725 10;
#X declare -path patchmenu;
#X obj 75 49 declare -path patchmenu;
#X obj 75 230 patchmenu;
#X obj 107 143 s enableSubMenu;
#X obj 75 71 loadbang;
#X msg 75 143 0;
#X obj 75 120 t b b;
#X obj 41 50 bng 15 250 50 0 empty empty empty 17 7 0 10 -262144 -1
-1;
#N canvas 0 200 1366 725 mapping 0;
#X obj 356 500 throw~ outL;
#X obj 471 499 throw~ outR;
#X text 362 70 MIDI (keys) Routing;
#X text 373 42 control routing;
#X obj 413 422 s~ fx13-1-in;
#X obj 817 159 r aux;
#X obj 818 128 s led;
#X obj 357 469 r~ fx13-1-outL;
#X obj 472 468 r~ fx13-1-outR;
#X obj 362 147 s pb-1-notes-in;
#X obj 379 223 r pb-1-notes-out;
#X obj 818 100 r pb-1-led;
#X obj 817 187 s pb-1-aux;
#X obj 483 377 r~ hr-1-outR;
#X obj 361 253 s hr-1-notes-in;
#X obj 47 121 map-knob 1 1 hr-1-samp-speed;
#X obj 47 144 map-knob 1 2 hr-1-monopoly;
#X obj 47 166 map-knob 1 3 hr-1-decay;
#X obj 47 190 map-knob 1 4;
#X obj 350 377 r~ hr-1-outL;
#X obj 48 405 map-knob 3 1 fx13-1-knob1;
#X obj 48 428 map-knob 3 2 fx13-1-knob2;
#X obj 48 453 map-knob 3 3 fx13-1-knob3;
#X obj 48 479 map-knob 3 4 fx13-1-knob4;
#X obj 48 260 map-knob 2 1 pb-1-div;
#X obj 48 283 map-knob 2 2 mm-bpmDial;
#X obj 48 307 map-knob 2 3 pb-1-note-len;
#X text 47 238 Page 2 - Polybeats Sequencer;
#X text 46 382 Page 3 - FX13 Multi Effects;
#X obj 657 107 r pb-1-aux-label;
#X obj 690 138 s p1s5;
#X obj 677 160 s p2s5;
#X obj 660 184 s p3s5;
#X text 392 350 Audio Routing;
#X text 47 98 Page 1 - H Rando Sampler;
#X obj 48 331 map-knob 2 4 pb-1-mode;
#X obj 316 107 r notes;
#X obj 1048 369 r xx;
#X obj 1087 434 s xx-label;
#X msg 1089 409 --;
#X text 829 414 Page 4 - midi control;
#X obj 831 436 map-knob 4 1 midi_offset;
#X obj 831 461 map-knob 4 2 xx;
#X obj 830 484 map-knob 4 3 xx;
#X obj 830 510 map-knob 4 4 xx;
#X connect 5 0 12 0;
#X connect 7 0 0 0;
#X connect 8 0 1 0;
#X connect 10 0 14 0;
#X connect 11 0 6 0;
#X connect 13 0 4 0;
#X connect 19 0 4 0;
#X connect 29 0 30 0;
#X connect 29 0 31 0;
#X connect 29 0 32 0;
#X connect 36 0 9 0;
#X connect 37 0 39 0;
#X connect 39 0 38 0;
#X restore 356 279 pd mapping;
#X text 357 251 routing;
#X obj 75 95 versioncheck 2;
#X obj 357 147 FX-13 1;
#X obj 355 119 HRando 1;
#X obj 355 176 MasterMetro;
#X msg 73 257 \; screenLine1 HRando Sampler \; screenLine2 Polybeats
\; screenLine3 FX-13 \; screenLine4 <-- HOME \; screenLine5 \;;
#X obj 777 478 noteout 1;
#X obj 33 169 delay 5000;
#X msg 32 201 2;
#X obj 353 93 Polybeats 1;
#X obj 602 151 s midiOutGate;
#X obj 602 71 loadbang;
#X obj 602 97 delay 20;
#X msg 602 123 0;
#X obj 729 396 makenote 100 200;
#X obj 784 327 f 100;
#X obj 820 290 r pb-1-vel-local;
#X obj 845 359 r pb-1-note-len-local;
#X obj 722 277 t f b;
#X obj 709 223 + 0;
#X obj 1077 260 r midi_offset;
#X obj 1096 488 s midi_offset-label;
#X obj 1146 331 - 0.5;
#X obj 1101 395 int;
#X obj 1168 369 * 48;
#X msg 1089 439 Midi Offset \$1;
#X obj 722 170 r pb-1-notes-raw;
#X connect 1 0 13 0;
#X connect 3 0 9 0;
#X connect 4 0 1 0;
#X connect 5 0 4 0;
#X connect 5 0 15 0;
#X connect 5 1 2 0;
#X connect 6 0 5 0;
#X connect 9 0 5 0;
#X connect 15 0 16 0;
#X connect 19 0 20 0;
#X connect 20 0 21 0;
#X connect 21 0 18 0;
#X connect 22 0 14 0;
#X connect 22 1 14 1;
#X connect 23 0 22 1;
#X connect 24 0 23 1;
#X connect 25 0 22 2;
#X connect 26 0 22 0;
#X connect 26 1 23 0;
#X connect 27 0 26 0;
#X connect 28 0 30 0;
#X connect 30 0 32 0;
#X connect 31 0 33 0;
#X connect 31 0 27 1;
#X connect 32 0 31 0;
#X connect 33 0 29 0;
