#N canvas 0 0 1370 699 10;
#X declare -path CG-Pd-Library-Local/sequencer;
#X declare -path CG-Pd-Library-Local/externals;
#X declare -path CG-Pd-Library-Local/metronome;
#X obj 214 416 throw~ outL;
#X obj 225 393 throw~ outR;
#X obj 57 238 pack 0 0 0, f 11;
#X obj 393 572 sig~;
#X obj 393 594 lop~ 5;
#X obj 557 648 sig~;
#X obj 557 670 lop~ 5;
#X obj 867 480 r knob4;
#X obj 394 616 s~ smoothKnob2;
#X obj 557 692 s~ smoothKnob3;
#X obj 667 685 * 100;
#X obj 320 896 s screenLine2;
#X obj 667 896 s screenLine3;
#X obj 867 895 s screenLine4;
#X msg 320 870 2: Vibrato Rate \$1 Hz;
#X msg 867 868 4: Decay Time \$1 ms;
#X obj 320 666 * 50;
#X obj 867 561 + 5;
#X obj 867 539 * 2000;
#X text 449 446 smooth knobs 1-3 \, send param updates to screen;
#X text 24 19 basic polyphonic patch with 8 voices;
#X text 406 242 aircraft carrier;
#X obj 320 600 t f f;
#X obj 320 622 *;
#X obj 167 728 send~ f;
#X obj 166 672 sig~;
#X obj 165 703 lop~ 5;
#X obj 166 601 / 100;
#X obj 166 623 mtof;
#X obj 166 645 / 8.1785;
#X obj 166 556 * 2400;
#X obj 166 501 r knob1;
#X msg 75 896 1: Tune \$1 cents;
#X obj 75 920 s screenLine1;
#X obj 75 777 i;
#X obj 215 359 *~ 0.95;
#X obj 170 750 r \$0-muter;
#X msg 170 801 0;
#X obj 202 801 t b b;
#X msg 234 827 1;
#X obj 170 773 sel 1;
#X obj 75 868 spigot 1, f 14;
#X obj 320 774 i;
#X obj 415 677 r \$0-muter;
#X msg 415 758 0;
#X obj 447 728 t b b;
#X msg 479 758 1;
#X obj 415 700 sel 1;
#X obj 320 835 spigot 1, f 14;
#X obj 667 777 i;
#X obj 762 660 r \$0-muter;
#X msg 762 781 0;
#X obj 794 711 t b b;
#X msg 800 781 1;
#X obj 762 683 sel 1;
#X obj 667 838 spigot 1, f 14;
#X obj 867 777 i;
#X obj 962 650 r \$0-muter;
#X msg 962 801 0;
#X obj 994 711 t b b;
#X msg 1000 801 1;
#X obj 962 673 sel 1;
#X obj 867 838 spigot 1, f 14;
#X obj 878 503 r seq3-1-k4;
#X obj 570 545 r seq3-1-k3;
#X obj 414 505 r seq3-1-k2;
#X obj 188 527 r seq3-1-k1;
#X obj 393 478 r knob2;
#X obj 393 548 f;
#X obj 557 523 r knob3;
#X obj 557 591 f;
#X msg 667 870 3: Vibrato Dpth \$1%;
#X obj 57 58 r aux;
#N canvas 562 132 906 682 seq-control 0;
#X obj 139 278 outlet;
#X obj 65 121 t b;
#X msg 65 143 2;
#X obj 298 126 t b;
#X msg 298 148 3;
#X text 437 5 when aux is pressed after recording starts immediatley
end the rec and play the loop;
#X obj 170 70 sel 0;
#X obj 202 94 t b;
#X msg 202 116 1;
#X obj 33 66 r cgSc-1-2;
#X obj 171 48 r cgSc-1-1;
#X obj 266 72 r cgSc-1-3;
#X obj 33 88 sel 0;
#X obj 266 99 sel 0;
#X obj 317 272 r seq3-1-actions;
#X obj 317 294 sel 1, f 12;
#X obj 398 327 t b, f 4;
#X obj 317 445 s cgSc-1-1label;
#X obj 507 308 r seq3-1-actions;
#X obj 588 353 t b, f 4;
#X obj 507 329 sel 2 3, f 12;
#X obj 733 319 r seq3-1-actions;
#X obj 814 364 t b, f 4;
#X obj 733 340 sel 4, f 12;
#X msg 814 409 Latch:Off;
#X msg 733 409 Latch:On;
#X obj 507 441 s cgSc-1-2label;
#X obj 733 452 s cgSc-1-3label;
#X text 521 279 print to the shortcut menu;
#X obj 406 128 loadbang;
#X obj 406 150 f 0;
#X obj 130 0 r midi-start;
#X msg 130 22 4;
#X obj 373 105 r midi-stop;
#X obj 70 303 t b;
#X obj 38 276 sel 0;
#X msg 70 325 5;
#X obj 38 249 r cgSc-1-4;
#X obj 302 487 r seq3-1-actions;
#X obj 383 532 t b, f 4;
#X obj 302 508 sel 5, f 12;
#X obj 302 650 s cgSc-1-4label;
#X obj 489 71 sel 1;
#X msg 542 147 1;
#X obj 489 175 spigot 0;
#X obj 489 197 t b b;
#X msg 591 193 0;
#X text 587 53 aux press;
#X obj 542 93 r seq3-1-actions;
#X msg 489 219 1;
#X obj 542 115 sel 3 5;
#X obj 489 49 r cgSc-1-aux;
#X obj 317 373 f;
#X msg 317 403 \$1Seq:Stop;
#X obj 398 372 f;
#X msg 398 402 \$1Seq:Play;
#X msg 507 399 \$1Rec:Armd;
#X msg 588 397 \$1Rec:On;
#X msg 659 398 \$1Rec:Off;
#X obj 507 374 f;
#X obj 582 373 f;
#X obj 649 370 f;
#X obj 383 554 f;
#X obj 302 560 f;
#X msg 383 607 \$1Dub:off;
#X msg 302 607 \$1Dub:On;
#X obj 201 287 r cgSc-1-slots;
#X obj 201 329 t b f f;
#X obj 123 409 s seq3-1-actions;
#X obj 123 385 v seq3-1-state;
#X obj 201 309 + 1;
#X obj 668 299 + 1;
#X obj 670 251 r cgSc-1-slots;
#X obj 431 507 + 1;
#X obj 429 478 r cgSc-1-slots;
#X connect 1 0 2 0;
#X connect 2 0 0 0;
#X connect 3 0 4 0;
#X connect 4 0 0 0;
#X connect 6 1 7 0;
#X connect 7 0 8 0;
#X connect 8 0 0 0;
#X connect 9 0 12 0;
#X connect 10 0 6 0;
#X connect 11 0 13 0;
#X connect 12 1 1 0;
#X connect 13 1 3 0;
#X connect 14 0 15 0;
#X connect 15 0 52 0;
#X connect 15 1 16 0;
#X connect 16 0 54 0;
#X connect 18 0 20 0;
#X connect 19 0 61 0;
#X connect 20 0 59 0;
#X connect 20 1 60 0;
#X connect 20 2 19 0;
#X connect 21 0 23 0;
#X connect 22 0 24 0;
#X connect 23 0 25 0;
#X connect 23 1 22 0;
#X connect 24 0 27 0;
#X connect 25 0 27 0;
#X connect 29 0 30 0;
#X connect 30 0 0 0;
#X connect 31 0 32 0;
#X connect 33 0 30 0;
#X connect 34 0 36 0;
#X connect 35 1 34 0;
#X connect 36 0 0 0;
#X connect 37 0 35 0;
#X connect 38 0 40 0;
#X connect 39 0 62 0;
#X connect 40 0 63 0;
#X connect 40 1 39 0;
#X connect 42 0 44 0;
#X connect 43 0 44 1;
#X connect 44 0 45 0;
#X connect 45 0 49 0;
#X connect 45 1 46 0;
#X connect 46 0 44 1;
#X connect 48 0 50 0;
#X connect 49 0 0 0;
#X connect 50 0 43 0;
#X connect 50 1 43 0;
#X connect 51 0 42 0;
#X connect 52 0 53 0;
#X connect 53 0 17 0;
#X connect 54 0 55 0;
#X connect 55 0 17 0;
#X connect 56 0 26 0;
#X connect 57 0 26 0;
#X connect 58 0 26 0;
#X connect 59 0 56 0;
#X connect 60 0 57 0;
#X connect 61 0 58 0;
#X connect 62 0 64 0;
#X connect 63 0 65 0;
#X connect 64 0 41 0;
#X connect 65 0 41 0;
#X connect 66 0 70 0;
#X connect 67 0 69 0;
#X connect 67 1 52 1;
#X connect 67 2 54 1;
#X connect 69 0 68 0;
#X connect 70 0 67 0;
#X connect 71 0 61 1;
#X connect 71 0 60 1;
#X connect 71 0 59 1;
#X connect 72 0 71 0;
#X connect 73 0 62 1;
#X connect 73 0 63 1;
#X connect 74 0 73 0;
#X restore 279 122 pd seq-control;
#X obj 194 116 s \$0-muter;
#X obj 57 89 shortcut 1, f 20;
#N canvas 8 0 1068 699 wave 0;
#X obj 702 241 t b a;
#X obj 752 241 t b a;
#X obj 801 239 t b a;
#X obj 468 261 r saveState;
#X obj 344 184 loadbang;
#X obj 344 206 t b b, f 14;
#X obj 344 402 i;
#X obj 376 402 i;
#X obj 409 401 i;
#X obj 441 400 i;
#X obj 439 311 text define lol;
#X obj 702 376 text set lol;
#X obj 702 325 t a b;
#X msg 734 347 0;
#X obj 344 275 text get lol;
#X msg 344 250 0;
#X obj 344 228 del 10;
#X obj 702 299 pack 0 0 0 0 0;
#X obj 863 251 t b a;
#X obj 344 338 unpack 0 0 0 0 0, f 19;
#X obj 474 379 i;
#X obj 660 137 r local-sine;
#X obj 702 166 r local-sqr;
#X obj 752 185 r local-saw;
#X obj 801 208 r local-tri;
#X obj 863 229 r local-mswitch;
#X obj 344 490 s local-start-sine;
#X obj 376 467 s local-start-sqr;
#X obj 409 442 s local-start-saw;
#X obj 441 422 s local-start-tri;
#X obj 474 401 s local-start-switch;
#X msg 468 283 write /tmp/patch/waves.txt;
#X msg 439 235 read /tmp/patch/waves.txt;
#N canvas 278 74 863 725 sine 0;
#X obj 32 68 sel 0;
#X obj 145 344 r \$0-print!;
#X obj 145 366 t b;
#X obj 145 397 f 0;
#X obj 26 310 f;
#X obj 60 310 + 1;
#X obj 26 336 % 2;
#X obj 26 358 t f f;
#X obj 145 449 sel 1 0;
#X obj 26 380 i;
#X obj 149 119 ==;
#X obj 96 162 spigot 0;
#X obj 26 162 spigot 1;
#X obj 64 95 t b b;
#X obj 96 184 t b b, f 6;
#X msg 96 230 1;
#X msg 375 223 0;
#X obj 32 35 r cgSc-1-6;
#X msg 145 485 Sine:On;
#X msg 208 485 Sine:Off;
#X obj 145 527 s cgSc-1-6label;
#X obj 149 86 r local-mswitch;
#X obj 26 406 s local-sine;
#X obj 298 176 r local-start-sine;
#X obj 375 201 r waves-off;
#X obj 135 211 s waves-off;
#X connect 0 1 13 0;
#X connect 1 0 2 0;
#X connect 2 0 3 0;
#X connect 3 0 8 0;
#X connect 4 0 5 0;
#X connect 4 0 6 0;
#X connect 5 0 4 1;
#X connect 6 0 7 0;
#X connect 7 0 9 0;
#X connect 7 1 3 0;
#X connect 8 0 18 0;
#X connect 8 1 19 0;
#X connect 9 0 22 0;
#X connect 10 0 11 1;
#X connect 11 0 14 0;
#X connect 12 0 4 0;
#X connect 13 0 12 0;
#X connect 13 1 11 0;
#X connect 14 0 15 0;
#X connect 14 1 25 0;
#X connect 15 0 4 0;
#X connect 16 0 4 0;
#X connect 17 0 0 0;
#X connect 18 0 20 0;
#X connect 19 0 20 0;
#X connect 21 0 10 0;
#X connect 21 0 12 1;
#X connect 23 0 4 0;
#X connect 24 0 16 0;
#X restore 350 649 pd sine;
#N canvas 637 220 1021 634 switch 0;
#X obj 70 51 sel 0;
#X obj 221 327 r \$0-print!;
#X obj 221 349 t b;
#X obj 221 380 f 0;
#X obj 102 293 f;
#X obj 136 293 + 1;
#X obj 102 319 % 2;
#X obj 102 341 t f f;
#X obj 221 432 sel 1 0;
#X obj 102 363 i;
#X obj 137 173 r local-start-switch;
#X obj 102 77 t b;
#X obj 102 388 s local-mswitch;
#X msg 221 468 Uni:On;
#X msg 283 470 Uni:Off;
#X obj 221 510 s cgSc-1-10label;
#X obj 70 18 r cgSc-1-10;
#X connect 0 1 11 0;
#X connect 1 0 2 0;
#X connect 2 0 3 0;
#X connect 3 0 8 0;
#X connect 4 0 5 0;
#X connect 4 0 6 0;
#X connect 5 0 4 1;
#X connect 6 0 7 0;
#X connect 7 0 9 0;
#X connect 7 1 3 0;
#X connect 8 0 13 0;
#X connect 8 1 14 0;
#X connect 9 0 12 0;
#X connect 10 0 4 0;
#X connect 11 0 4 0;
#X connect 13 0 15 0;
#X connect 14 0 15 0;
#X connect 16 0 0 0;
#X restore 596 649 pd switch;
#N canvas 739 220 863 725 sqr 0;
#X obj 32 68 sel 0;
#X obj 145 344 r \$0-print!;
#X obj 145 366 t b;
#X obj 145 397 f 0;
#X obj 26 310 f;
#X obj 60 310 + 1;
#X obj 26 336 % 2;
#X obj 26 358 t f f;
#X obj 145 449 sel 1 0;
#X obj 26 380 i;
#X obj 149 119 ==;
#X obj 96 162 spigot 0;
#X obj 26 162 spigot 1;
#X obj 64 95 t b b;
#X obj 96 184 t b b, f 6;
#X msg 96 230 1;
#X msg 375 223 0;
#X obj 149 86 r local-mswitch;
#X obj 32 35 r cgSc-1-7;
#X obj 297 176 r local-start-sqr;
#X obj 27 406 s local-sqr;
#X msg 145 485 Sqr:On;
#X msg 207 487 Sqr:Off;
#X obj 145 527 s cgSc-1-7label;
#X obj 135 211 s waves-off;
#X obj 375 201 r waves-off;
#X connect 0 1 13 0;
#X connect 1 0 2 0;
#X connect 2 0 3 0;
#X connect 3 0 8 0;
#X connect 4 0 5 0;
#X connect 4 0 6 0;
#X connect 5 0 4 1;
#X connect 6 0 7 0;
#X connect 7 0 9 0;
#X connect 7 1 3 0;
#X connect 8 0 21 0;
#X connect 8 1 22 0;
#X connect 9 0 20 0;
#X connect 10 0 11 1;
#X connect 11 0 14 0;
#X connect 12 0 4 0;
#X connect 13 0 12 0;
#X connect 13 1 11 0;
#X connect 14 0 15 0;
#X connect 14 1 24 0;
#X connect 15 0 4 0;
#X connect 16 0 4 0;
#X connect 17 0 10 0;
#X connect 17 0 12 1;
#X connect 18 0 0 0;
#X connect 19 0 4 0;
#X connect 21 0 23 0;
#X connect 22 0 23 0;
#X connect 25 0 16 0;
#X restore 409 647 pd sqr;
#N canvas 582 235 863 730 saw 0;
#X obj 32 68 sel 0;
#X obj 145 344 r \$0-print!;
#X obj 145 366 t b;
#X obj 145 397 f 0;
#X obj 26 310 f;
#X obj 60 310 + 1;
#X obj 26 336 % 2;
#X obj 26 358 t f f;
#X obj 145 449 sel 1 0;
#X obj 26 380 i;
#X obj 149 119 ==;
#X obj 96 162 spigot 0;
#X obj 26 162 spigot 1;
#X obj 64 95 t b b;
#X obj 96 184 t b b, f 6;
#X msg 96 230 1;
#X msg 375 223 0;
#X obj 149 86 r local-mswitch;
#X obj 32 35 r cgSc-1-8;
#X obj 145 527 s cgSc-1-8label;
#X msg 145 485 Saw:On;
#X msg 208 485 Saw:Off;
#X obj 26 406 s local-saw;
#X obj 298 176 r local-start-saw;
#X obj 137 211 s waves-off;
#X obj 375 201 r waves-off;
#X connect 0 1 13 0;
#X connect 1 0 2 0;
#X connect 2 0 3 0;
#X connect 3 0 8 0;
#X connect 4 0 5 0;
#X connect 4 0 6 0;
#X connect 5 0 4 1;
#X connect 6 0 7 0;
#X connect 7 0 9 0;
#X connect 7 1 3 0;
#X connect 8 0 20 0;
#X connect 8 1 21 0;
#X connect 9 0 22 0;
#X connect 10 0 11 1;
#X connect 11 0 14 0;
#X connect 12 0 4 0;
#X connect 13 0 12 0;
#X connect 13 1 11 0;
#X connect 14 0 15 0;
#X connect 14 1 24 0;
#X connect 15 0 4 0;
#X connect 16 0 4 0;
#X connect 17 0 10 0;
#X connect 17 0 12 1;
#X connect 18 0 0 0;
#X connect 20 0 19 0;
#X connect 21 0 19 0;
#X connect 23 0 4 0;
#X connect 25 0 16 0;
#X restore 463 647 pd saw;
#N canvas 522 68 863 725 tri 0;
#X obj 32 68 sel 0;
#X obj 145 344 r \$0-print!;
#X obj 145 366 t b;
#X obj 145 397 f 0;
#X obj 26 310 f;
#X obj 60 310 + 1;
#X obj 26 336 % 2;
#X obj 26 358 t f f;
#X obj 145 449 sel 1 0;
#X obj 26 380 i;
#X obj 149 119 ==;
#X obj 96 162 spigot 0;
#X obj 26 162 spigot 1;
#X obj 64 95 t b b;
#X obj 96 184 t b b, f 6;
#X msg 96 230 1;
#X msg 375 223 0;
#X obj 149 86 r local-mswitch;
#X obj 145 527 s cgSc-1-9label;
#X obj 32 35 r cgSc-1-9;
#X obj 134 210 s waves-off;
#X obj 375 201 r waves-off;
#X obj 26 405 s local-tri;
#X msg 145 485 Tri:On;
#X msg 207 487 Tri:Off;
#X obj 297 176 r local-start-tri;
#X connect 0 1 13 0;
#X connect 1 0 2 0;
#X connect 2 0 3 0;
#X connect 3 0 8 0;
#X connect 4 0 5 0;
#X connect 4 0 6 0;
#X connect 5 0 4 1;
#X connect 6 0 7 0;
#X connect 7 0 9 0;
#X connect 7 1 3 0;
#X connect 8 0 23 0;
#X connect 8 1 24 0;
#X connect 9 0 22 0;
#X connect 10 0 11 1;
#X connect 11 0 14 0;
#X connect 12 0 4 0;
#X connect 13 0 12 0;
#X connect 13 1 11 0;
#X connect 14 0 15 0;
#X connect 14 1 20 0;
#X connect 15 0 4 0;
#X connect 16 0 4 0;
#X connect 17 0 10 0;
#X connect 17 0 12 1;
#X connect 19 0 0 0;
#X connect 21 0 16 0;
#X connect 23 0 18 0;
#X connect 24 0 18 0;
#X connect 25 0 4 0;
#X restore 522 646 pd tri;
#X connect 0 0 17 0;
#X connect 0 1 17 1;
#X connect 1 0 17 0;
#X connect 1 1 17 2;
#X connect 2 0 17 0;
#X connect 2 1 17 3;
#X connect 3 0 31 0;
#X connect 4 0 5 0;
#X connect 5 0 16 0;
#X connect 5 1 32 0;
#X connect 6 0 26 0;
#X connect 7 0 27 0;
#X connect 8 0 28 0;
#X connect 9 0 29 0;
#X connect 12 0 11 0;
#X connect 12 1 13 0;
#X connect 13 0 11 1;
#X connect 14 0 19 0;
#X connect 15 0 14 0;
#X connect 16 0 15 0;
#X connect 17 0 12 0;
#X connect 18 0 17 0;
#X connect 18 1 17 4;
#X connect 19 0 6 0;
#X connect 19 1 7 0;
#X connect 19 2 8 0;
#X connect 19 3 9 0;
#X connect 19 4 20 0;
#X connect 20 0 30 0;
#X connect 21 0 17 0;
#X connect 22 0 0 0;
#X connect 23 0 1 0;
#X connect 24 0 2 0;
#X connect 25 0 18 0;
#X connect 31 0 10 0;
#X connect 32 0 10 0;
#X restore 870 89 pd wave selection;
#X obj 870 126 r seq3-1-led;
#X obj 870 148 s led;
#N canvas 6 0 1057 699 metro-here 1;
#X obj 515 433 r seq3-1-actions;
#X obj 565 548 f;
#X obj 660 402 r \$0-muter;
#X msg 660 453 0;
#X obj 692 453 t b b;
#X msg 698 483 1;
#X obj 660 425 sel 1;
#X obj 565 495 del 1;
#X obj 307 506 s beat-clock;
#X obj 429 286 loadbang;
#X obj 517 376 r rec-state;
#X obj 517 398 sel 0;
#X msg 306 324 1;
#X obj 456 556 list, f 7;
#X obj 456 578 route 69;
#X obj 456 484 t b a;
#X msg 456 526 69;
#X msg 429 308 120;
#X obj 430 424 pack, f 10;
#X obj 465 392 t b a;
#X obj 307 354 metronome360 0, f 18;
#X obj 572 340 s seq3-1-quan;
#X obj 564 247 sel 1 2 3 4;
#X msg 564 299 0;
#X msg 598 297 1;
#X obj 653 541 f;
#X obj 456 600 spigot 1;
#X obj 565 570 spigot 1, f 14;
#X obj 565 653 r cgSc-1-slots;
#X obj 565 679 + 1;
#X obj 745 496 r init-slot;
#X obj 745 540 t b f;
#X obj 456 705 j-print-line5 1, f 16;
#X obj 745 518 pipe 1;
#X obj 339 225 tappy/tappy;
#X connect 0 0 1 0;
#X connect 1 0 27 0;
#X connect 2 0 6 0;
#X connect 3 0 25 0;
#X connect 4 0 7 0;
#X connect 4 1 5 0;
#X connect 5 0 25 0;
#X connect 6 0 3 0;
#X connect 6 1 4 0;
#X connect 7 0 1 0;
#X connect 7 0 16 0;
#X connect 9 0 17 0;
#X connect 9 0 12 0;
#X connect 10 0 11 0;
#X connect 11 0 1 0;
#X connect 11 0 16 0;
#X connect 12 0 20 0;
#X connect 13 0 14 0;
#X connect 14 0 26 0;
#X connect 15 0 16 0;
#X connect 15 1 13 1;
#X connect 16 0 13 0;
#X connect 17 0 20 1;
#X connect 18 0 15 0;
#X connect 19 0 18 0;
#X connect 19 1 18 1;
#X connect 20 0 8 0;
#X connect 20 1 19 0;
#X connect 20 2 18 0;
#X connect 20 2 22 0;
#X connect 22 0 23 0;
#X connect 22 1 24 0;
#X connect 22 2 24 0;
#X connect 22 3 23 0;
#X connect 23 0 21 0;
#X connect 24 0 21 0;
#X connect 25 0 26 1;
#X connect 25 0 27 1;
#X connect 26 0 32 0;
#X connect 27 0 32 1;
#X connect 28 0 29 0;
#X connect 29 0 32 2;
#X connect 30 0 33 0;
#X connect 31 0 1 0;
#X connect 31 1 29 0;
#X connect 33 0 31 0;
#X connect 34 0 20 1;
#X restore 869 285 pd metro-here;
#X obj 882 594 s decay-local;
#X obj 198 291 voice;
#X obj 550 292 voice;
#X obj 409 293 voice;
#X obj 480 291 voice;
#X obj 57 290 voice;
#X obj 268 291 voice;
#X obj 339 292 voice;
#X obj 127 291 voice;
#X obj 502 35 r cgSc-1-slots;
#N canvas 106 102 1143 502 print-slots 0;
#X obj 283 3 r cgSc-1-slots;
#X obj 116 450 s oscOut;
#X msg 29 301 /oled/gFlip 3;
#X obj 254 272 f;
#X obj 208 242 t b a a b b b;
#X msg 333 419 /oled/gClear 3 1;
#X obj 666 453 s oscOut;
#X msg 579 304 /oled/gFlip 3;
#X obj 804 275 f;
#X obj 758 245 t b a a b b b;
#X msg 883 422 /oled/gClear 3 1;
#X obj 284 196 moses 10;
#X obj 284 95 + 1;
#X text 349 191 center single digits;
#X msg 342 385 /oled/gBox 3 34 8 56 56 1;
#X msg 892 389 /oled/gBox 3 34 8 56 56 1;
#X msg 337 343 /oled/gFillArea 3 34 8 56 56 0;
#X msg 885 346 /oled/gFillArea 3 34 8 56 56 0;
#X msg 255 299 /oled/gPrintln 3 54 22 32 0 \$1;
#X msg 144 319 /oled/gPrintln 3 54 22 32 1 \$1;
#X msg 804 301 /oled/gPrintln 3 46 22 32 0 \$1;
#X msg 693 322 /oled/gPrintln 3 46 22 32 1 \$1;
#X obj 405 98 del 500;
#X msg 519 54 stop;
#X obj 405 150 s \$0-reprint-port;
#X obj 283 29 t f b b, f 35;
#X obj 283 51 pipe 5;
#X connect 0 0 25 0;
#X connect 2 0 1 0;
#X connect 3 0 18 0;
#X connect 4 0 2 0;
#X connect 4 1 19 0;
#X connect 4 2 3 1;
#X connect 4 3 3 0;
#X connect 4 4 14 0;
#X connect 4 5 16 0;
#X connect 5 0 1 0;
#X connect 7 0 6 0;
#X connect 8 0 20 0;
#X connect 9 0 7 0;
#X connect 9 1 21 0;
#X connect 9 2 8 1;
#X connect 9 3 8 0;
#X connect 9 4 15 0;
#X connect 9 5 17 0;
#X connect 10 0 6 0;
#X connect 11 0 4 0;
#X connect 11 1 9 0;
#X connect 12 0 11 0;
#X connect 14 0 1 0;
#X connect 15 0 6 0;
#X connect 16 0 1 0;
#X connect 17 0 6 0;
#X connect 18 0 1 0;
#X connect 19 0 1 0;
#X connect 20 0 6 0;
#X connect 21 0 6 0;
#X connect 22 0 24 0;
#X connect 23 0 22 0;
#X connect 25 0 26 0;
#X connect 25 1 22 0;
#X connect 25 2 23 0;
#X connect 26 0 12 0;
#X restore 863 314 pd print-slots;
#X obj 194 66 r \$0-reprint-port;
#N canvas 176 94 1042 663 saver 0;
#X obj 276 54 loadbang;
#X obj 588 226 text define slot;
#X obj 276 76 t b b;
#X obj 276 155 text get slot;
#X obj 431 313 text set slot;
#X obj 431 259 t a b;
#X msg 460 288 0;
#X msg 276 98 0;
#X obj 434 50 r cgSc-1-slots;
#X obj 184 225 outlet;
#X obj 276 232 s init-slot;
#X obj 434 76 t b f, f 6;
#X obj 276 120 pipe 5;
#X msg 434 106 write slot.txt;
#X msg 588 142 read slot.txt;
#X connect 0 0 2 0;
#X connect 2 0 7 0;
#X connect 2 1 14 0;
#X connect 3 0 9 0;
#X connect 3 0 10 0;
#X connect 5 0 4 0;
#X connect 5 1 6 0;
#X connect 6 0 4 1;
#X connect 7 0 12 0;
#X connect 8 0 11 0;
#X connect 11 0 13 0;
#X connect 11 1 5 0;
#X connect 12 0 3 0;
#X connect 13 0 1 0;
#X connect 14 0 1 0;
#X restore 527 98 pd saver;
#X obj 57 264 route 1 2 3 4 5 6 7 8, f 81;
#X obj 57 178 t a a;
#X obj 228 226 noteout;
#X obj 296 192 r midiCh;
#X obj 203 186 unpack;
#X obj 57 211 poly 8 1, f 11;
#N canvas 13 50 450 300 CG-PdLibrary-Local 0;
#X obj 502 35 r cgSc-1-slots;
#X obj 60 98 declare -path CG-Pd-Library-Local/sequencer;
#X obj 58 130 declare -path CG-Pd-Library-Local/externals;
#X obj 59 165 declare -path CG-Pd-Library-Local/metronome;
#X restore 852 230 pd CG-PdLibrary-Local;
#X obj 58 151 seq3-Overdub 1 0 ../../texts, f 64;
#X connect 2 0 93 0;
#X connect 3 0 4 0;
#X connect 4 0 8 0;
#X connect 5 0 6 0;
#X connect 6 0 9 0;
#X connect 7 0 18 0;
#X connect 10 0 49 0;
#X connect 14 0 11 0;
#X connect 15 0 13 0;
#X connect 16 0 42 0;
#X connect 17 0 56 0;
#X connect 17 0 80 0;
#X connect 18 0 17 0;
#X connect 22 0 23 0;
#X connect 22 1 23 1;
#X connect 23 0 16 0;
#X connect 25 0 26 0;
#X connect 26 0 24 0;
#X connect 27 0 28 0;
#X connect 28 0 29 0;
#X connect 29 0 25 0;
#X connect 30 0 27 0;
#X connect 30 0 34 0;
#X connect 31 0 30 0;
#X connect 32 0 33 0;
#X connect 34 0 41 0;
#X connect 35 0 0 0;
#X connect 35 0 1 0;
#X connect 36 0 40 0;
#X connect 37 0 41 1;
#X connect 38 0 34 0;
#X connect 38 1 39 0;
#X connect 39 0 41 1;
#X connect 40 0 37 0;
#X connect 40 1 38 0;
#X connect 41 0 32 0;
#X connect 42 0 48 0;
#X connect 43 0 47 0;
#X connect 44 0 48 1;
#X connect 45 0 42 0;
#X connect 45 1 46 0;
#X connect 46 0 48 1;
#X connect 47 0 44 0;
#X connect 47 1 45 0;
#X connect 48 0 14 0;
#X connect 49 0 55 0;
#X connect 50 0 54 0;
#X connect 51 0 55 1;
#X connect 52 0 49 0;
#X connect 52 1 53 0;
#X connect 53 0 55 1;
#X connect 54 0 51 0;
#X connect 54 1 52 0;
#X connect 55 0 71 0;
#X connect 56 0 62 0;
#X connect 57 0 61 0;
#X connect 58 0 62 1;
#X connect 59 0 56 0;
#X connect 59 1 60 0;
#X connect 60 0 62 1;
#X connect 61 0 58 0;
#X connect 61 1 59 0;
#X connect 62 0 15 0;
#X connect 63 0 18 0;
#X connect 64 0 70 0;
#X connect 65 0 68 0;
#X connect 66 0 30 0;
#X connect 67 0 68 0;
#X connect 68 0 3 0;
#X connect 68 0 22 0;
#X connect 69 0 70 0;
#X connect 70 0 5 0;
#X connect 70 0 10 0;
#X connect 71 0 12 0;
#X connect 72 0 75 0;
#X connect 73 0 100 1;
#X connect 75 0 100 0;
#X connect 75 1 74 0;
#X connect 77 0 78 0;
#X connect 81 0 35 0;
#X connect 82 0 35 0;
#X connect 83 0 35 0;
#X connect 84 0 35 0;
#X connect 85 0 35 0;
#X connect 86 0 35 0;
#X connect 87 0 35 0;
#X connect 88 0 35 0;
#X connect 89 0 100 2;
#X connect 91 0 75 1;
#X connect 92 0 100 2;
#X connect 93 0 85 0;
#X connect 93 1 88 0;
#X connect 93 2 81 0;
#X connect 93 3 86 0;
#X connect 93 4 87 0;
#X connect 93 5 83 0;
#X connect 93 6 84 0;
#X connect 93 7 82 0;
#X connect 94 0 98 0;
#X connect 94 1 97 0;
#X connect 96 0 95 2;
#X connect 97 0 95 0;
#X connect 97 1 95 1;
#X connect 98 0 2 0;
#X connect 98 1 2 1;
#X connect 98 2 2 2;
#X connect 100 0 94 0;
