#N canvas -8 -8 1360 725 10;
#X obj 237 171 int;
#X obj 230 147 bng 15 250 50 0 empty empty empty 17 7 0 10 -262144
-1 -1;
#X obj 227 87 sel 0;
#X msg 149 204 \$1 100;
#X msg 222 204 \$1 0;
#X obj 224 61 pipe 1;
#X obj 273 102 bng 15 250 50 0 empty empty empty 17 7 0 10 -262144
-1 -1;
#X obj 145 111 int;
#X obj 144 160 t f b;
#X obj 125 30 inlet;
#X obj 152 263 outlet;
#X obj 236 27 inlet;
#X obj 123 80 spigot 0;
#X connect 0 0 4 0;
#X connect 1 0 0 0;
#X connect 2 0 1 0;
#X connect 2 1 6 0;
#X connect 3 0 10 0;
#X connect 4 0 10 0;
#X connect 5 0 2 0;
#X connect 5 0 12 1;
#X connect 6 0 7 0;
#X connect 7 0 8 0;
#X connect 8 0 3 0;
#X connect 8 0 0 1;
#X connect 8 1 0 0;
#X connect 9 0 7 1;
#X connect 9 0 12 0;
#X connect 11 0 5 0;
#X connect 12 0 7 0;
