#N canvas 0 50 1356 586 10;
#X obj 832 681 i;
#X obj 1004 544 i;
#X obj 42 532 loadbang;
#X obj 861 193 r aux;
#X obj 838 263 i 0, f 5;
#X obj 908 263 + 1;
#X floatatom 838 333 5 0 0 0 - - -, f 5;
#X obj 860 224 sel 1;
#X obj 838 354 s led;
#X text 607 545 smooth knobs 1-3 \, send param updates to screen;
#X text 40 510 screen lines;
#X obj 832 704 change -1;
#X obj 1004 567 change -1;
#X obj 734 320 s waveform;
#X obj 838 289 % 4;
#X obj 838 311 + 2;
#X obj 814 166 loadbang;
#X text 939 260 the aux button changes waveform;
#X obj 898 336 sel 0 1 2 3, f 60;
#X msg 1002 372 Aux: Square Wave;
#X obj 1002 398 s screenLine5;
#X obj 898 454 s screenLine5;
#X msg 898 428 Aux: Sine Wave;
#X obj 1106 460 s screenLine5;
#X obj 1210 392 s screenLine5;
#X msg 1106 434 Aux: Sawtooth Wave;
#X msg 1210 366 Aux: Triangle Wave;
#X text 24 19 basic polyphonic patch with 8 voices;
#X obj 933 188 r fs;
#X obj 494 794 send~ f;
#X obj 493 738 sig~;
#X obj 430 820 change -1;
#X obj 486 627 / 100;
#X obj 493 689 mtof;
#X obj 493 711 / 8.1785;
#X msg 430 846 1: Tune \$1 cents;
#X obj 430 801 i;
#X obj 224 505 *~ 0.3;
#X obj 169 240 nbx 5 14 -1e+037 1e+037 0 0 empty empty empty 0 -8 0
10 -262144 -1 -1 0 256;
#X obj 72 235 nbx 5 14 -1e+037 1e+037 0 0 empty empty empty 0 -8 0
10 -262144 -1 -1 78 256;
#X obj 1005 523 * 9;
#X obj 72 264 t f f f;
#X obj 249 423 +;
#X obj 52 406 +;
#X obj 98 409 +;
#X obj 155 416 +;
#X obj 488 657 i;
#X obj 459 714 * 100;
#X obj 492 769 lop~ 0.8;
#X obj 1003 582 sel 0 1 2 3 4 5 6 7 8;
#X msg 968 634 4: Chord: harm;
#X msg 983 657 4: Chord: harm7;
#X msg 999 684 4: Chord: maj;
#X msg 1010 709 4: Chord: min;
#X msg 300 387 0;
#X msg 348 386 1;
#X obj 313 342 r sevenon;
#X obj 290 364 r sevenoff;
#X obj 1254 587 s sevenon;
#X obj 1257 606 s sevenoff;
#X obj 334 416 sig~ 0;
#X obj 285 488 *~;
#X obj 333 440 lop~ 5;
#N canvas 0 69 1362 557 chordlogic 0;
#N canvas 0 50 450 250 (subpatch) 0;
#X array chordnotes 16 float 3;
#A 0 0 4 7 11 0 3 7 10 0 4 7 10 0 3 6 10;
#X coords 0 0 16 12 200 140 1 0 0;
#X restore 783 31 graph;
#N canvas 0 50 450 250 (subpatch) 0;
#X array harmony 12 float 3;
#A 0 0 0 1 0 1 0 3 2 0 1 0 3;
#X coords 0 0 12 3 200 140 1 0 0;
#X restore 538 32 graph;
#X obj 222 246 nbx 5 14 -1e+037 1e+037 0 0 empty empty empty 0 -8 0
10 -262144 -1 -1 3 256;
#X obj 221 229 tabread harmony;
#X obj 218 303 + 2;
#X obj 261 299 + 3;
#X obj 200 332 tabread chordnotes;
#X obj 228 344 tabread chordnotes;
#X obj 249 366 tabread chordnotes;
#X obj 186 304 + 1;
#X obj 190 274 * 4;
#X obj 185 318 tabread chordnotes;
#X obj 205 172 % 12;
#X obj 208 196 nbx 5 14 -1e+037 1e+037 0 0 empty empty empty 0 -8 0
10 -262144 -1 -1 6 256;
#X obj 462 662 outlet;
#X obj 511 670 outlet;
#X obj 598 665 outlet;
#X obj 554 674 outlet;
#N canvas 0 50 450 250 (subpatch) 0;
#X array voicing 32 float 3;
#A 0 0 0 0 0 0 -12 0 0 0 0 -12 0 12 0 0 -12 -12 0 0 0 12 -12 -12 0
-12 0 -12 0 0 -12 0 -12;
#X coords 0 -13 32 13 200 140 1 0 0;
#X restore 1025 27 graph;
#X obj 700 490 tabread voicing;
#X obj 714 512 tabread voicing;
#X obj 735 536 tabread voicing;
#X obj 759 564 tabread voicing;
#X obj 720 375 r voicing;
#X obj 724 457 * 4;
#X obj 768 464 + 1;
#X obj 807 461 + 2;
#X obj 845 474 + 3;
#X obj 468 602 i;
#X obj 750 407 t b f;
#X obj 466 625 + 0;
#X obj 517 600 i;
#X obj 515 623 + 0;
#X obj 567 605 i;
#X obj 565 628 + 0;
#X obj 617 608 i;
#X obj 615 631 + 0;
#X obj 426 212 r chord_harm;
#X obj 735 246 r chord_dom7;
#X obj 539 243 r chord_maj7;
#X obj 639 244 r chord_min7;
#X obj 854 242 r chord_dim7;
#X obj 125 116 spigot 1;
#X obj 406 137 spigot 0;
#X obj 197 103 spigot 0;
#X obj 279 114 spigot 0;
#X obj 353 120 spigot 0;
#X msg 220 139 0;
#X msg 257 139 1;
#X msg 341 171 3;
#X msg 405 174 2;
#X obj 402 274 t b b;
#X msg 582 397 0;
#X obj 500 272 t b b;
#X obj 608 283 t b b;
#X msg 475 297 1;
#X msg 627 314 1;
#X msg 834 343 1;
#X obj 816 307 t b b;
#X msg 755 324 1;
#X obj 737 288 t b b;
#X obj 241 35 i;
#X obj 233 6 inlet;
#X obj 348 -6 r recalc;
#X msg 388 318 1;
#X obj 109 176 bng 15 250 50 0 empty empty empty 17 7 0 10 -262144
-1 -1;
#X obj 104 57 nbx 5 14 -1e+037 1e+037 0 0 empty empty empty 0 -8 0
10 -262144 -1 -1 78 256;
#X connect 2 0 10 0;
#X connect 3 0 2 0;
#X connect 4 0 7 0;
#X connect 5 0 8 0;
#X connect 6 0 31 0;
#X connect 7 0 33 0;
#X connect 8 0 35 0;
#X connect 9 0 6 0;
#X connect 10 0 9 0;
#X connect 10 0 4 0;
#X connect 10 0 5 0;
#X connect 10 0 11 0;
#X connect 11 0 28 0;
#X connect 12 0 13 0;
#X connect 13 0 3 0;
#X connect 19 0 30 1;
#X connect 20 0 32 1;
#X connect 21 0 34 1;
#X connect 22 0 36 1;
#X connect 23 0 29 0;
#X connect 24 0 19 0;
#X connect 24 0 25 0;
#X connect 24 0 26 0;
#X connect 24 0 27 0;
#X connect 25 0 20 0;
#X connect 26 0 21 0;
#X connect 27 0 22 0;
#X connect 28 0 30 0;
#X connect 29 0 28 0;
#X connect 29 0 31 0;
#X connect 29 0 33 0;
#X connect 29 0 35 0;
#X connect 29 1 24 0;
#X connect 30 0 14 0;
#X connect 31 0 32 0;
#X connect 32 0 15 0;
#X connect 33 0 34 0;
#X connect 34 0 17 0;
#X connect 35 0 36 0;
#X connect 36 0 16 0;
#X connect 37 0 51 0;
#X connect 38 0 60 0;
#X connect 39 0 53 0;
#X connect 40 0 54 0;
#X connect 41 0 58 0;
#X connect 42 0 12 0;
#X connect 42 0 65 0;
#X connect 43 0 50 0;
#X connect 44 0 47 0;
#X connect 45 0 48 0;
#X connect 46 0 49 0;
#X connect 47 0 10 0;
#X connect 48 0 10 0;
#X connect 49 0 10 0;
#X connect 50 0 10 0;
#X connect 51 0 64 0;
#X connect 51 1 52 0;
#X connect 52 0 43 1;
#X connect 52 0 46 1;
#X connect 52 0 45 1;
#X connect 52 0 44 1;
#X connect 52 0 42 1;
#X connect 53 0 55 0;
#X connect 53 1 52 0;
#X connect 54 0 56 0;
#X connect 54 1 52 0;
#X connect 55 0 44 1;
#X connect 56 0 45 1;
#X connect 57 0 43 1;
#X connect 58 0 57 0;
#X connect 58 1 52 0;
#X connect 59 0 46 1;
#X connect 60 0 59 0;
#X connect 60 1 52 0;
#X connect 61 0 42 0;
#X connect 61 0 44 0;
#X connect 61 0 45 0;
#X connect 61 0 46 0;
#X connect 61 0 43 0;
#X connect 62 0 61 0;
#X connect 62 0 66 0;
#X connect 63 0 61 0;
#X connect 64 0 42 1;
#X restore 43 327 pd chordlogic;
#X obj 832 656 * 8;
#X msg 823 786 3: Voicing \$1;
#X obj 867 753 s voicing;
#X msg 42 555 \; screenLine1 1: Tune \; screenLine2 2: Vibrato Rate
\; screenLine3 3: Voicing \; screenLine4 4: Chord \; screenLine5 Aux:
Wave \;;
#X obj 129 150 notein_mono;
#X msg 1020 729 4: Chord: dim;
#X msg 1111 658 4: Chord: min7;
#X msg 1096 617 4: Chord: maj7;
#X msg 1119 682 4: Chord: dom7;
#X msg 1136 707 4: Chord: dim7;
#X obj 1264 741 s chord_harm;
#X obj 1246 656 s chord_maj7;
#X obj 1258 679 s chord_min7;
#X obj 1246 629 s chord_dom7;
#X obj 1257 708 s chord_dim7;
#X obj 977 503 t b f;
#X obj 964 537 s recalc;
#X obj 682 618 sig~;
#X obj 682 640 lop~ 5;
#X obj 633 753 i;
#X obj 633 728 * 100;
#X obj 633 776 change -1;
#X msg 633 803 2: Vibrato Depth \$1 %;
#X obj 554 629 loadbang;
#X msg 539 655 12;
#X obj 651 300 s pitch_lop;
#X obj 605 244 hsl 128 15 0.1 50 1 0 empty empty empty -2 -8 0 10 -262144
-1 -1 0 1;
#X obj 607 284 nbx 5 14 -1e+037 1e+037 0 0 empty empty empty 0 -8 0
10 -262144 -1 -1 0 256;
#X obj 293 139 nbx 5 14 -1e+037 1e+037 0 0 empty empty empty 0 -8 0
10 -262144 -1 -1 78 256;
#X obj 382 204 nbx 5 14 -1e+037 1e+037 0 0 empty empty empty 0 -8 0
10 -262144 -1 -1 88 256;
#X obj 296 187 nbx 5 14 -1e+037 1e+037 0 0 empty empty empty 0 -8 0
10 -262144 -1 -1 81 256;
#X obj 366 144 nbx 5 14 -1e+037 1e+037 0 0 empty empty empty 0 -8 0
10 -262144 -1 -1 84 256;
#X obj 230 211 bng 15 250 50 0 empty empty empty 17 7 0 10 -262144
-1 -1;
#X msg 203 70 0;
#X msg 164 71 0.1;
#X obj 85 107 inlet;
#X obj 437 366 outlet;
#X obj 260 583 outlet~;
#X obj 480 577 r p\$1k1;
#X obj 483 602 * 2405;
#X obj 431 878 s p\$1s1;
#X obj 680 586 r p\$1k2;
#X obj 613 872 s p\$1s2;
#X obj 798 876 s p\$1s3;
#X obj 873 579 r p\$1k3;
#X obj 1025 480 r p\$1k4;
#X obj 498 252 tgl 15 0 empty empty empty 17 7 0 10 -262144 -1 -1 1
1;
#X obj 298 166 midify;
#X obj 376 179 midify;
#X obj 302 206 midify;
#X obj 384 233 midify;
#X obj 413 254 unpack 0 0;
#X obj 415 300 pack 0 0;
#X obj 464 278 * 1;
#X text 518 294 mute 7th;
#X obj 394 856 screensave \$1;
#X obj 583 826 screensave \$1;
#X obj 801 839 screensave \$1;
#X obj 991 812 s p\$1s4;
#X obj 989 770 screensave \$1;
#X obj 555 35 r p\$2k1;
#X obj 548 111 screensave \$2;
#X text 539 7 page 2 lfo speed glide attack decay;
#X obj 548 133 s p\$2s1;
#X obj 678 115 screensave \$2;
#X obj 815 117 screensave \$2;
#X obj 958 122 screensave \$2;
#X obj 682 38 r p\$2k2;
#X obj 819 40 r p\$2k3;
#X obj 962 45 r p\$2k4;
#X obj 678 139 s p\$2s2;
#X obj 815 140 s p\$2s3;
#X obj 958 144 s p\$2s4;
#X msg 550 82 1: LFOspd \$1;
#X msg 681 85 2: Glide \$1;
#X msg 818 87 3: Attack \$1;
#X msg 957 103 4: Decay \$1;
#X obj 833 63 s zchordattack;
#X obj 983 69 s zchorddecay;
#X obj 259 453 voice;
#X obj 682 662 s~ zchordvibrato;
#X obj 189 453 voice;
#X obj 118 453 voice;
#X obj 48 452 voice;
#X obj 464 170 s zchordvibspeed;
#X obj 442 5 loadbang;
#X obj 447 48 del 15;
#X msg 474 79 5;
#X obj 565 60 * 20;
#X obj 1118 25 loadbang;
#X obj 1123 52 del 15;
#X obj 660 179 - 1;
#X obj 705 178 abs;
#X obj 648 161 *;
#X obj 745 240 nbx 5 14 -1e+037 1e+037 0 0 empty empty empty 0 -8 0
10 -262144 -1 -1 0 256;
#X obj 746 190 * 50;
#X msg 1120 77 0.04;
#X obj 756 216 + 0.5;
#X connect 0 0 11 0;
#X connect 1 0 12 0;
#X connect 2 0 67 0;
#X connect 3 0 7 0;
#X connect 4 0 5 0;
#X connect 4 0 14 0;
#X connect 5 0 4 1;
#X connect 6 0 8 0;
#X connect 7 0 4 0;
#X connect 11 0 65 0;
#X connect 11 0 66 0;
#X connect 12 0 49 0;
#X connect 14 0 15 0;
#X connect 14 0 13 0;
#X connect 14 0 18 0;
#X connect 15 0 6 0;
#X connect 16 0 4 0;
#X connect 18 0 22 0;
#X connect 18 1 19 0;
#X connect 18 2 25 0;
#X connect 18 3 26 0;
#X connect 19 0 20 0;
#X connect 22 0 21 0;
#X connect 25 0 23 0;
#X connect 26 0 24 0;
#X connect 28 0 7 0;
#X connect 30 0 48 0;
#X connect 31 0 35 0;
#X connect 32 0 46 0;
#X connect 33 0 34 0;
#X connect 34 0 30 0;
#X connect 35 0 119 0;
#X connect 36 0 31 0;
#X connect 37 0 101 0;
#X connect 38 0 143 1;
#X connect 38 0 145 1;
#X connect 38 0 146 1;
#X connect 38 0 147 1;
#X connect 39 0 41 0;
#X connect 40 0 1 0;
#X connect 41 1 63 0;
#X connect 41 2 42 1;
#X connect 41 2 45 1;
#X connect 41 2 44 1;
#X connect 41 2 43 1;
#X connect 42 0 93 0;
#X connect 42 0 143 0;
#X connect 43 0 92 0;
#X connect 43 0 147 0;
#X connect 44 0 94 0;
#X connect 44 0 146 0;
#X connect 45 0 95 0;
#X connect 45 0 145 0;
#X connect 46 0 33 0;
#X connect 46 0 47 0;
#X connect 47 0 36 0;
#X connect 48 0 29 0;
#X connect 49 0 50 0;
#X connect 49 0 59 0;
#X connect 49 0 74 0;
#X connect 49 1 51 0;
#X connect 49 1 58 0;
#X connect 49 1 74 0;
#X connect 49 2 52 0;
#X connect 49 2 59 0;
#X connect 49 2 75 0;
#X connect 49 3 53 0;
#X connect 49 3 59 0;
#X connect 49 3 76 0;
#X connect 49 4 69 0;
#X connect 49 4 59 0;
#X connect 49 4 78 0;
#X connect 49 5 71 0;
#X connect 49 5 58 0;
#X connect 49 5 75 0;
#X connect 49 6 70 0;
#X connect 49 6 58 0;
#X connect 49 6 76 0;
#X connect 49 7 72 0;
#X connect 49 7 58 0;
#X connect 49 7 77 0;
#X connect 49 8 73 0;
#X connect 49 8 58 0;
#X connect 49 8 78 0;
#X connect 50 0 123 0;
#X connect 51 0 123 0;
#X connect 52 0 123 0;
#X connect 53 0 123 0;
#X connect 54 0 60 0;
#X connect 54 0 110 0;
#X connect 55 0 60 0;
#X connect 55 0 110 0;
#X connect 56 0 55 0;
#X connect 57 0 54 0;
#X connect 60 0 62 0;
#X connect 61 0 37 0;
#X connect 62 0 61 1;
#X connect 63 0 43 0;
#X connect 63 1 44 0;
#X connect 63 2 45 0;
#X connect 63 3 42 0;
#X connect 64 0 0 0;
#X connect 65 0 121 0;
#X connect 68 0 39 0;
#X connect 68 1 38 0;
#X connect 68 1 96 0;
#X connect 68 1 111 1;
#X connect 68 1 112 1;
#X connect 68 1 113 1;
#X connect 68 1 114 1;
#X connect 69 0 123 0;
#X connect 70 0 123 0;
#X connect 71 0 123 0;
#X connect 72 0 123 0;
#X connect 73 0 123 0;
#X connect 79 0 80 0;
#X connect 79 1 40 0;
#X connect 81 0 82 0;
#X connect 82 0 144 0;
#X connect 83 0 85 0;
#X connect 84 0 83 0;
#X connect 85 0 86 0;
#X connect 86 0 120 0;
#X connect 87 0 88 0;
#X connect 88 0 33 0;
#X connect 90 0 89 0;
#X connect 90 0 91 0;
#X connect 92 0 111 0;
#X connect 93 0 114 0;
#X connect 94 0 113 0;
#X connect 95 0 112 0;
#X connect 97 0 37 1;
#X connect 98 0 37 1;
#X connect 99 0 68 0;
#X connect 102 0 103 0;
#X connect 103 0 32 0;
#X connect 105 0 81 0;
#X connect 105 0 84 0;
#X connect 108 0 64 0;
#X connect 109 0 79 0;
#X connect 110 0 117 1;
#X connect 111 0 100 0;
#X connect 112 0 100 0;
#X connect 113 0 100 0;
#X connect 114 0 115 0;
#X connect 115 0 116 0;
#X connect 115 1 117 0;
#X connect 116 0 100 0;
#X connect 117 0 116 1;
#X connect 119 0 104 0;
#X connect 120 0 106 0;
#X connect 121 0 107 0;
#X connect 123 0 122 0;
#X connect 124 0 152 0;
#X connect 125 0 127 0;
#X connect 128 0 134 0;
#X connect 129 0 135 0;
#X connect 130 0 136 0;
#X connect 131 0 138 0;
#X connect 131 0 157 0;
#X connect 131 0 157 1;
#X connect 132 0 139 0;
#X connect 132 0 141 0;
#X connect 133 0 140 0;
#X connect 133 0 142 0;
#X connect 137 0 125 0;
#X connect 138 0 128 0;
#X connect 139 0 129 0;
#X connect 140 0 130 0;
#X connect 143 0 61 0;
#X connect 145 0 37 0;
#X connect 146 0 37 0;
#X connect 147 0 37 0;
#X connect 149 0 150 0;
#X connect 150 0 151 0;
#X connect 151 0 137 0;
#X connect 151 0 148 0;
#X connect 152 0 137 0;
#X connect 152 0 148 0;
#X connect 153 0 154 0;
#X connect 154 0 160 0;
#X connect 155 0 156 0;
#X connect 156 0 159 0;
#X connect 157 0 155 0;
#X connect 158 0 89 0;
#X connect 159 0 161 0;
#X connect 160 0 142 0;
#X connect 160 0 140 0;
#X connect 161 0 158 0;
