#N canvas -18 159 1362 691 10;
#X obj 40 69 loadbang;
#X msg 44 114 0;
#X obj 52 90 del 15;
#X text 107 105 seems to need;
#X obj 665 116 r page-ready;
#X msg 660 182 FX;
#X obj 324 386 *~ 1;
#X obj 442 389 *~ 1;
#X obj 334 58 inlet~;
#X obj 444 416 outlet~;
#X obj 332 419 outlet~;
#X obj 32 141 s fx13-\$1-knob1;
#X obj 332 97 s~ fx13-\$1-in;
#X obj 390 135 FX-13 \$1;
#X obj 657 212 s p\$1s5;
#X obj 665 145 sel \$1;
#X obj 325 357 r~ fx13-\$1-outL;
#X obj 457 357 r~ fx13-\$1-outR;
#X obj 339 166 map-knob \$1 1 fx13-\$1-knob1;
#X obj 340 190 map-knob \$1 2 fx13-\$1-knob2;
#X obj 339 208 map-knob \$1 3 fx13-\$1-knob3;
#X obj 336 237 map-knob \$1 4 fx13-\$1-knob4;
#X connect 0 0 2 0;
#X connect 1 0 11 0;
#X connect 2 0 1 0;
#X connect 4 0 15 0;
#X connect 5 0 14 0;
#X connect 6 0 10 0;
#X connect 7 0 9 0;
#X connect 8 0 12 0;
#X connect 15 0 5 0;
#X connect 16 0 6 0;
#X connect 17 0 7 0;
