#N canvas 0 0 1370 699 10;
#X obj 243 818 throw~ outL;
#X obj 346 823 throw~ outR;
#X obj 90 638 pack 0 0 0, f 11;
#X obj 90 664 route 1 2 3 4 5 6 7 8, f 81;
#X obj 1630 151 r knob4;
#X obj 1629 228 i;
#X obj 1629 304 s screenLine4;
#X msg 1629 277 4: Decay Time \$1 ms;
#X obj 1630 184 * 2000;
#X obj 1629 251 change -1;
#X obj 1331 345 send~ f;
#X obj 1331 280 sig~;
#X obj 1330 311 lop~ 5;
#X obj 1331 209 / 100;
#X obj 1331 231 mtof;
#X obj 1331 253 / 8.1785;
#X obj 1331 182 * 2400;
#X obj 1237 444 loadbang;
#X obj 1206 285 change -1;
#X obj 1206 259 i;
#X obj 1630 206 + 10;
#N canvas 4 50 450 278 (subpatch) 0;
#X array seqvel 33 float 3;
#A 0 119.647 119.647 119.647 119.647 119.647 119.647 119.647 119.647
29.4105 29.4105 29.4105 29.4105 29.4105 29.4105 29.4105 29.4105 29.4105
29.4105 0 77.8867 0 103.312 23.3164 106.164 43.7803 19.4717 66.6006
108.521 36.4629 14.0146 101.079 125.636 2;
#X coords 0 128 33 0 200 140 1 0 0;
#X restore 756 286 graph;
#X obj 647 178 r notes;
#X obj 189 49 r notes;
#X obj 563 223 tgl 15 0 empty empty empty 17 7 0 10 -262144 -1 -1 0
1;
#X msg 620 332 0;
#N canvas 48 155 1208 666 states 0;
#X obj 224 239 f;
#X obj 224 186 sel 1;
#X obj 131 97 r aux;
#X floatatom 131 211 5 0 0 0 - - -, f 5;
#X obj 131 242 sel 1;
#X obj 131 301 v state;
#X obj 131 268 bng 15 250 50 0 empty empty empty 17 7 0 10 -262144
-1 -1;
#X obj 209 146 t f f;
#X obj 224 265 sel 1;
#X obj 634 387 send screenLine5;
#X obj 752 257 s led;
#X obj 596 244 s led;
#X text 537 82 Controls LED & Screen Infomation:;
#X obj 224 211 del 500;
#X text 104 74 Controls State With Aux Button;
#X text 95 10 uses the aux button to control states;
#X msg 752 232 1;
#X msg 224 299 1;
#X obj 117 503 s state;
#X obj 214 505 s state;
#X msg 210 460 0;
#X obj 224 326 s state;
#X obj 587 130 r state;
#X obj 402 198 r state;
#X obj 402 220 v state;
#X obj 411 77 loadbang;
#X msg 411 99 0;
#X obj 131 415 sel 0 1 2, f 27;
#X text 528 11 states are: 0 = play mode \, 1 = punch in \, 2 = play
w latch, f 70;
#X obj 919 252 s led;
#X obj 587 172 sel 0 1 2;
#X msg 119 468 2;
#X obj 284 501 s state;
#X msg 286 466 0;
#X msg 596 220 0;
#X msg 919 227 2;
#X obj 409 129 s state;
#X msg 530 301 Aux: Play Mode;
#X msg 714 293 Aux: Punch Mode;
#X msg 894 303 Aux: Play Mode Latch;
#X connect 0 0 8 0;
#X connect 1 0 13 0;
#X connect 2 0 3 0;
#X connect 2 0 7 0;
#X connect 3 0 4 0;
#X connect 4 0 6 0;
#X connect 5 0 27 0;
#X connect 6 0 5 0;
#X connect 7 0 1 0;
#X connect 7 1 0 1;
#X connect 8 0 17 0;
#X connect 13 0 0 0;
#X connect 16 0 10 0;
#X connect 17 0 21 0;
#X connect 20 0 19 0;
#X connect 22 0 30 0;
#X connect 23 0 24 0;
#X connect 25 0 26 0;
#X connect 26 0 36 0;
#X connect 27 0 31 0;
#X connect 27 1 20 0;
#X connect 27 2 33 0;
#X connect 30 0 34 0;
#X connect 30 0 37 0;
#X connect 30 1 16 0;
#X connect 30 1 38 0;
#X connect 30 2 35 0;
#X connect 30 2 39 0;
#X connect 31 0 18 0;
#X connect 33 0 32 0;
#X connect 34 0 11 0;
#X connect 35 0 29 0;
#X connect 37 0 9 0;
#X connect 38 0 9 0;
#X connect 39 0 9 0;
#X restore 796 44 pd states;
#X obj 563 74 r state;
#X obj 620 361 s state;
#X msg 563 148 0;
#X msg 599 149 1;
#X floatatom 692 332 5 0 0 0 - - -, f 5;
#X obj 684 382 s len;
#X obj 563 105 sel 0 1 2;
#X msg 633 143 0;
#X msg 1023 789 \; seq write seq.txt \;;
#X msg 852 728 \; seq read seq.txt \;;
#X obj 803 667 loadbang;
#X obj 1284 792 tabwrite seq;
#X msg 1351 742 32;
#X obj 1359 666 r len;
#X obj 1360 692 t f b;
#X obj 814 697 t b b;
#X msg 740 756 32;
#X obj 739 810 s len;
#X floatatom 1293 706 5 0 0 0 - - -, f 5;
#X obj 739 783 tabread seq;
#X obj 999 649 r state;
#X obj 999 677 t f b;
#X obj 1017 712 f;
#X obj 1017 735 == 1;
#X obj 1022 759 sel 1;
#X text 1063 708 when done recording;
#X obj 404 614 noteout 2;
#X obj 325 574 makenote 100 100;
#X obj 1605 333 s decay;
#X obj 434 537 r decay;
#X obj 1511 194 sig~;
#X obj 1511 216 lop~ 5;
#X obj 1443 268 i;
#X obj 1443 290 change -1;
#X obj 1443 240 * 100;
#X msg 1443 317 3: Tone \$1;
#X text 528 11 states are: 0 = play mode \, 1 = punch in \, 2 = play
w latch, f 70;
#N canvas 33 50 919 857 seqpuncher 0;
#X obj 242 626 tabwrite seq;
#X obj 244 211 tgl 15 0 empty empty empty 17 7 0 10 -262144 -1 -1 0
1;
#X obj 351 334 spigot 0;
#X obj 401 264 t f b;
#X obj 444 566 sel 1;
#X obj 321 169 t f f;
#X obj 371 138 stripnote;
#X obj 444 627 outlet;
#X obj 371 107 inlet;
#X obj 220 103 inlet;
#X text 544 263 writes notes to sequence;
#X text 508 577 bang at end, f 12;
#X obj 654 136 inlet;
#X obj 556 421 - 1;
#X text 647 104 len;
#X obj 674 625 outlet;
#X text 732 624 len, f 4;
#X obj 671 589 + 1;
#X obj 399 480 counter-up 32;
#X obj 444 540 == 31;
#X obj 332 402 - 0;
#X obj 163 395 * 127;
#X obj 138 523 f;
#X obj 338 443 t b f b;
#X obj 124 624 tabwrite seqvel;
#X obj 187 782 outlet;
#X obj 188 731 swap;
#X obj 188 753 pack;
#X obj 163 340 r knob1;
#X obj 36 462 spigot;
#X obj 61 281 r state;
#X obj 61 318 == 1;
#X obj 163 366 f;
#X msg 26 555 \; screenLine1 1: Note Vel \$1 \;;
#X obj 41 360 t b f;
#X obj 34 490 i;
#X obj 418 739 send screenLine5;
#X obj 391 628 + 1;
#X msg 386 686 Aux: Punching \$1;
#X connect 1 0 3 0;
#X connect 2 0 20 0;
#X connect 3 0 2 1;
#X connect 3 1 18 1;
#X connect 4 0 7 0;
#X connect 5 0 2 0;
#X connect 6 0 5 0;
#X connect 8 0 6 0;
#X connect 9 0 1 0;
#X connect 12 0 13 0;
#X connect 12 0 18 2;
#X connect 13 0 19 1;
#X connect 17 0 15 0;
#X connect 18 0 0 1;
#X connect 18 0 17 0;
#X connect 18 0 19 0;
#X connect 18 0 24 1;
#X connect 18 0 37 0;
#X connect 19 0 4 0;
#X connect 20 0 23 0;
#X connect 21 0 22 1;
#X connect 21 0 29 0;
#X connect 22 0 24 0;
#X connect 22 0 26 0;
#X connect 23 0 22 0;
#X connect 23 1 0 0;
#X connect 23 1 26 1;
#X connect 23 2 18 0;
#X connect 26 0 27 0;
#X connect 26 1 27 1;
#X connect 27 0 25 0;
#X connect 28 0 32 0;
#X connect 29 0 35 0;
#X connect 30 0 31 0;
#X connect 31 0 34 0;
#X connect 32 0 21 0;
#X connect 34 0 32 0;
#X connect 34 1 29 1;
#X connect 35 0 33 0;
#X connect 37 0 38 0;
#X connect 38 0 36 0;
#X restore 612 263 pd seqpuncher;
#X text 953 598 seq saving and recalling;
#X text 763 85 up to 32 notes long \, len is stashed as last entry
;
#X text 1247 634 stash length as last entry;
#X msg 1237 473 \; screenLine1 1: Tune \; screenLine2 2: Tone \; screenLine3
3: Sequence Speed \; screenLine4 4: Decay \; screenLine5 Aux: Hold
to Punch \;;
#X obj 1443 153 r knob3, f 8;
#X obj 1443 351 s screenLine3;
#X obj 1511 239 s~ tone;
#X obj 1331 155 r knob2;
#X msg 1206 311 2: Tune \$1 cents;
#X obj 1206 339 s screenLine2;
#X text 453 574 send the seq out on midi ch 2;
#X obj 1016 270 master-metronome;
#X obj 1016 196 tgl 15 0 empty empty empty 17 7 0 10 -262144 -1 -1
1 1;
#X obj 1016 129 loadbang;
#X msg 1016 161 1;
#X obj 1144 123 r knob1;
#X obj 1125 211 * 250;
#X obj 1125 237 + 10;
#X obj 316 778 *~ 0.25;
#N canvas 9 50 881 531 display-tempo 0;
#X obj 117 52 inlet;
#X obj 346 43 inlet;
#X obj 317 129 i;
#X obj 130 148 i;
#X msg 479 631 \; screenLine1 1: Tempo \$1 BPM \;;
#X msg 167 638 \; screenLine1 1: Tempo \$1 BPM MIDI \;;
#X obj 191 460 spigot;
#X obj 428 450 spigot;
#X obj 474 122 r state;
#X obj 481 182 sel 1;
#X msg 419 248 0;
#X msg 501 247 1;
#X obj 516 214 t b b;
#X obj 567 331 s get-bpm;
#X connect 0 0 3 0;
#X connect 1 0 2 0;
#X connect 2 0 7 0;
#X connect 3 0 6 0;
#X connect 6 0 5 0;
#X connect 7 0 4 0;
#X connect 8 0 9 0;
#X connect 9 0 10 0;
#X connect 9 1 12 0;
#X connect 10 0 7 1;
#X connect 10 0 6 1;
#X connect 11 0 6 1;
#X connect 11 0 7 1;
#X connect 12 0 13 0;
#X connect 12 1 11 0;
#X restore 1016 308 pd display-tempo;
#X obj 1639 390 r state;
#X obj 1639 412 == 1;
#X obj 1600 459 spigot;
#X obj 1639 434 ==;
#N canvas 4 50 450 278 (subpatch) 0;
#X array seq 33 float 3;
#A 0 72 76 77 79 79 77 76 72 81 84 77 81 79 76 77 74 72 76 64 60 63
65 72 72 66 66 66 66 62 62 62 62 8;
#X coords 0 128 33 0 200 140 1 0 0;
#X restore 756 127 graph;
#X obj 90 703 voice;
#X obj 583 705 voice;
#X obj 301 704 voice;
#X obj 231 704 voice;
#X obj 372 705 voice;
#X obj 160 704 voice;
#X obj 442 706 voice;
#X obj 513 704 voice;
#X msg 837 785 \; seqvel read seqvel.txt \;;
#X msg 1011 835 \; seqvel write seqvel.txt \;;
#X obj 90 611 poly 8 1, f 11;
#X obj 340 536 unpack;
#X obj 64 258 pack 0 0 0, f 11;
#X obj 64 231 poly 4 1, f 11;
#X obj 64 284 route 1 2 3 4, f 25;
#X obj 22 378 polyplay;
#X obj 98 373 polyplay;
#X obj 233 382 polyplay;
#X obj 309 377 polyplay;
#X connect 2 0 3 0;
#X connect 3 0 90 0;
#X connect 3 1 95 0;
#X connect 3 2 93 0;
#X connect 3 3 92 0;
#X connect 3 4 94 0;
#X connect 3 5 96 0;
#X connect 3 6 97 0;
#X connect 3 7 91 0;
#X connect 4 0 8 0;
#X connect 5 0 9 0;
#X connect 7 0 6 0;
#X connect 8 0 20 0;
#X connect 9 0 7 0;
#X connect 11 0 12 0;
#X connect 12 0 10 0;
#X connect 13 0 14 0;
#X connect 14 0 15 0;
#X connect 15 0 11 0;
#X connect 16 0 13 0;
#X connect 16 0 19 0;
#X connect 17 0 68 0;
#X connect 18 0 73 0;
#X connect 19 0 18 0;
#X connect 20 0 5 0;
#X connect 20 0 55 0;
#X connect 22 0 64 1;
#X connect 23 0 103 0;
#X connect 24 0 64 0;
#X connect 25 0 28 0;
#X connect 27 0 33 0;
#X connect 29 0 24 0;
#X connect 30 0 24 0;
#X connect 31 0 32 0;
#X connect 33 0 29 0;
#X connect 33 1 30 0;
#X connect 33 2 34 0;
#X connect 34 0 24 0;
#X connect 37 0 42 0;
#X connect 39 0 38 1;
#X connect 40 0 41 0;
#X connect 40 0 45 0;
#X connect 41 0 38 0;
#X connect 41 1 39 0;
#X connect 42 0 43 0;
#X connect 42 1 36 0;
#X connect 42 1 98 0;
#X connect 43 0 46 0;
#X connect 46 0 44 0;
#X connect 47 0 48 0;
#X connect 48 0 49 1;
#X connect 48 1 49 0;
#X connect 49 0 50 0;
#X connect 50 0 51 0;
#X connect 51 0 35 0;
#X connect 51 0 99 0;
#X connect 54 0 53 0;
#X connect 54 1 53 1;
#X connect 56 0 54 2;
#X connect 57 0 58 0;
#X connect 58 0 71 0;
#X connect 59 0 60 0;
#X connect 60 0 62 0;
#X connect 61 0 59 0;
#X connect 62 0 70 0;
#X connect 64 0 100 0;
#X connect 64 0 101 0;
#X connect 64 1 25 0;
#X connect 64 2 31 0;
#X connect 69 0 57 0;
#X connect 69 0 61 0;
#X connect 72 0 16 0;
#X connect 73 0 74 0;
#X connect 76 0 84 0;
#X connect 76 1 84 1;
#X connect 77 0 76 0;
#X connect 78 0 79 0;
#X connect 79 0 77 0;
#X connect 80 0 81 0;
#X connect 81 0 82 0;
#X connect 82 0 76 1;
#X connect 83 0 0 0;
#X connect 83 0 1 0;
#X connect 85 0 86 0;
#X connect 86 0 88 0;
#X connect 88 0 87 1;
#X connect 90 0 83 0;
#X connect 91 0 83 0;
#X connect 92 0 83 0;
#X connect 93 0 83 0;
#X connect 94 0 83 0;
#X connect 95 0 83 0;
#X connect 96 0 83 0;
#X connect 97 0 83 0;
#X connect 100 0 2 0;
#X connect 100 1 2 1;
#X connect 100 2 2 2;
#X connect 101 0 54 0;
#X connect 101 1 54 1;
#X connect 102 0 104 0;
#X connect 103 0 102 0;
#X connect 103 1 102 1;
#X connect 103 2 102 2;
#X connect 104 0 105 0;
#X connect 104 1 106 0;
#X connect 104 2 107 0;
#X connect 104 3 108 0;
#X connect 105 0 101 0;
#X connect 105 0 100 0;
#X connect 106 0 101 0;
#X connect 106 0 100 0;
#X connect 107 0 101 0;
#X connect 107 0 100 0;
#X connect 108 0 101 0;
#X connect 108 0 100 0;
