#N canvas 0 50 1366 725 10;
#X floatatom 245 267 5 0 0 0 - - -, f 5;
#N canvas 179 66 1126 699 seqplayer 1;
#X floatatom 130 231 5 0 0 0 - - -, f 5;
#X obj 367 708 tabread seq;
#X floatatom 368 732 5 0 0 0 - - -, f 5;
#X floatatom 366 664 5 0 0 0 - - -, f 5;
#X obj 165 768 delay;
#X obj 180 442 tgl 15 0 empty empty empty 17 7 0 10 -262144 -1 -1 1
1;
#X msg 179 393 1;
#X obj 220 445 bng 15 250 50 0 empty empty empty 17 7 0 10 -262144
-1 -1;
#X obj 283 584 ==;
#X obj 252 520 t b f;
#X obj 185 724 spigot 0;
#X obj 137 -9 stripnote;
#X obj 130 191 spigot;
#X obj 39 128 tgl 15 0 empty empty empty 17 7 0 10 -262144 -1 -1 1
1;
#X obj 236 488 counter-up 16;
#X obj 283 562 == 15;
#X obj 453 791 + 60;
#X obj 437 857 pack 0 100;
#X obj 141 -63 inlet;
#X obj 39 73 inlet;
#X obj 341 74 inlet;
#X obj 365 418 - 1;
#X obj 436 888 outlet;
#X obj 680 73 inlet;
#X text 36 39 enable;
#X text 141 -85 note;
#X text 328 47 length;
#X text 689 41 speed;
#X obj 255 15 unpack;
#X obj 299 181 tgl 15 0 empty empty empty 17 7 0 10 -262144 -1 -1 0
1;
#X obj 299 214 ==;
#X obj 294 626 spigot 1;
#X obj 680 252 moses 10;
#X obj 287 712 tgl 15 0 empty empty empty 17 7 0 10 -262144 -1 -1 0
1;
#N canvas 785 320 450 297 switch 0;
#X obj 145 49 inlet;
#X obj 147 184 outlet;
#X obj 266 178 outlet;
#X obj 320 50 inlet;
#X obj 281 84 ==;
#X obj 150 128 spigot 1;
#X obj 258 124 spigot 0;
#X obj 230 49 inlet;
#X connect 0 0 5 0;
#X connect 3 0 4 0;
#X connect 3 0 6 1;
#X connect 4 0 5 1;
#X connect 5 0 1 0;
#X connect 6 0 2 0;
#X connect 7 0 6 0;
#X restore 149 289 pd switch;
#N canvas 232 119 450 297 switch 0;
#X obj 145 49 inlet;
#X obj 147 184 outlet;
#X obj 266 178 outlet;
#X obj 320 50 inlet;
#X obj 249 81 ==;
#X obj 150 128 spigot 1;
#X obj 258 124 spigot 0;
#X connect 0 0 5 0;
#X connect 0 0 6 0;
#X connect 3 0 4 0;
#X connect 3 0 6 1;
#X connect 4 0 5 1;
#X connect 5 0 1 0;
#X connect 6 0 2 0;
#X restore 67 553 pd switch;
#X obj 164 359 t b b b f b;
#X obj 224 309 t f b;
#X msg 120 511 0;
#X msg 157 513 1;
#X obj 204 335 f;
#X obj 242 273 tgl 15 0 empty empty empty 17 7 0 10 -262144 -1 -1 0
1;
#X obj 143 257 t a a;
#X obj 204 134 f;
#X obj 274 78 sel 0;
#X obj 303 100 bang;
#X msg 304 123 1;
#X obj 143 -40 t a a;
#X obj 260 44 swap;
#X obj 259 128 f;
#X obj 229 105 t b b;
#X obj 227 158 ==;
#X obj 225 182 sel 1;
#X msg 225 204 0;
#X obj 452 816 - 60;
#X obj 370 758 moses 1;
#X text 440 757 filter out notes that are 0;
#X obj 504 710 tabread seqvel;
#X obj 365 684 t f f;
#X obj 192 231 r \$0-is-playing;
#X obj 240 804 s \$0-is-playing;
#X obj 435 356 - 60;
#X obj 441 406 int;
#X obj 438 437 nbx 5 14 -1e+037 1e+037 0 0 empty empty empty 0 -8 0
10 -262144 -1 -1 2 256;
#X obj 499 378 % 6;
#X obj 518 419 nbx 5 14 -1e+037 1e+037 0 0 empty empty empty 0 -8 0
10 -262144 -1 -1 2 256;
#X obj 440 378 / 6;
#X obj 572 445 route 0 1 2 3 4 5;
#X obj 677 569 + 60;
#X msg 580 501 -12;
#X obj 609 489 -5;
#X obj 662 482 0;
#X obj 706 499 5;
#X obj 742 503 7;
#X obj 813 498 12;
#X obj 416 484 route 0 1 2 3;
#X obj 428 606 * 50;
#X obj 707 615 nbx 5 14 -1e+037 1e+037 0 0 empty empty empty 0 -8 0
10 -262144 -1 -1 60 256;
#X obj 425 637 nbx 5 14 -1e+037 1e+037 0 0 empty empty empty 0 -8 0
10 -262144 -1 -1 100.671 256;
#X msg 385 506 3;
#X msg 421 530 2;
#X obj 481 546 1;
#X obj 532 546 0.5;
#X text 477 351 map notes to:;
#X text 638 420 offset;
#X text 432 465 speed;
#X connect 0 0 42 0;
#X connect 1 0 2 0;
#X connect 2 0 55 0;
#X connect 3 0 58 0;
#X connect 4 0 35 0;
#X connect 5 0 10 1;
#X connect 5 0 33 0;
#X connect 6 0 5 0;
#X connect 7 0 14 0;
#X connect 8 0 31 0;
#X connect 9 0 10 0;
#X connect 9 1 3 0;
#X connect 9 1 15 0;
#X connect 10 0 4 0;
#X connect 11 0 12 0;
#X connect 11 0 43 1;
#X connect 12 0 0 0;
#X connect 13 0 12 1;
#X connect 14 0 9 0;
#X connect 15 0 8 0;
#X connect 16 0 54 0;
#X connect 17 0 22 0;
#X connect 18 0 47 0;
#X connect 19 0 13 0;
#X connect 20 0 14 2;
#X connect 20 0 21 0;
#X connect 21 0 15 1;
#X connect 23 0 32 0;
#X connect 28 0 48 0;
#X connect 28 1 48 1;
#X connect 29 0 30 0;
#X connect 30 0 31 1;
#X connect 31 0 10 1;
#X connect 31 0 33 0;
#X connect 32 1 76 1;
#X connect 33 0 60 0;
#X connect 34 0 36 0;
#X connect 34 1 37 0;
#X connect 35 0 7 0;
#X connect 35 1 40 0;
#X connect 36 0 7 0;
#X connect 36 1 6 0;
#X connect 36 2 14 1;
#X connect 36 3 61 0;
#X connect 36 4 38 0;
#X connect 37 0 40 1;
#X connect 37 1 39 0;
#X connect 38 0 35 1;
#X connect 39 0 35 1;
#X connect 40 0 36 0;
#X connect 42 0 34 0;
#X connect 42 1 34 1;
#X connect 43 0 51 0;
#X connect 44 0 50 0;
#X connect 44 1 45 0;
#X connect 45 0 46 0;
#X connect 46 0 29 0;
#X connect 47 0 11 0;
#X connect 47 1 28 0;
#X connect 48 0 44 0;
#X connect 48 1 49 1;
#X connect 49 0 51 1;
#X connect 50 0 43 0;
#X connect 50 1 49 0;
#X connect 51 0 52 0;
#X connect 52 0 53 0;
#X connect 53 0 29 0;
#X connect 54 0 17 0;
#X connect 55 1 16 0;
#X connect 57 0 17 1;
#X connect 58 0 1 0;
#X connect 58 1 57 0;
#X connect 59 0 34 2;
#X connect 59 0 41 0;
#X connect 61 0 64 0;
#X connect 61 0 66 0;
#X connect 62 0 63 0;
#X connect 63 0 75 0;
#X connect 64 0 65 0;
#X connect 65 0 67 0;
#X connect 66 0 62 0;
#X connect 67 0 69 0;
#X connect 67 1 70 0;
#X connect 67 2 71 0;
#X connect 67 3 72 0;
#X connect 67 4 73 0;
#X connect 67 5 74 0;
#X connect 68 0 16 1;
#X connect 68 0 77 0;
#X connect 69 0 68 0;
#X connect 70 0 68 0;
#X connect 71 0 68 0;
#X connect 72 0 68 0;
#X connect 73 0 68 0;
#X connect 74 0 68 0;
#X connect 75 0 79 0;
#X connect 75 1 80 0;
#X connect 75 2 81 0;
#X connect 75 3 82 0;
#X connect 76 0 4 1;
#X connect 76 0 78 0;
#X connect 79 0 76 0;
#X connect 80 0 76 0;
#X connect 81 0 76 0;
#X connect 82 0 76 0;
#X restore 83 293 pd seqplayer;
#X obj 64 227 tgl 15 0 empty empty empty 17 7 0 10 -262144 -1 -1 1
1;
#X obj 74 69 r state;
#X msg 59 124 1;
#X msg 105 125 0;
#X obj 174 228 r len;
#N canvas 126 240 634 688 latch 0;
#X obj 43 405 latch-notes;
#X obj 263 232 tgl 15 0 empty empty empty 17 7 0 10 -262144 -1 -1 0
1;
#X obj 173 298 spigot 1;
#X obj 43 298 spigot 0;
#X obj 263 258 == 0;
#X obj 309 312 bng 15 250 50 0 empty empty empty 17 7 0 10 -262144
-1 -1;
#X obj 263 134 inlet;
#X obj 43 626 outlet;
#X obj 43 106 inlet;
#X text 44 53 incoming notes get sent through latch if enabled \, or
directly to output if disabled;
#X text 311 135 enable;
#X obj 264 161 t f b, f 7;
#X connect 0 0 7 0;
#X connect 1 0 4 0;
#X connect 1 0 3 1;
#X connect 2 0 7 0;
#X connect 3 0 0 0;
#X connect 4 0 2 1;
#X connect 5 0 0 1;
#X connect 6 0 11 0;
#X connect 8 0 3 0;
#X connect 8 0 2 0;
#X connect 11 0 1 0;
#X connect 11 1 5 0;
#X restore 139 196 pd latch;
#X obj 74 91 sel 0 1 2;
#X msg 149 124 1;
#X obj 228 58 r state;
#X msg 259 114 0;
#X obj 228 80 sel 0 1 2;
#X msg 303 113 1;
#X msg 213 113 0;
#X obj 199 165 tgl 15 0 empty empty empty 17 7 0 10 -262144 -1 -1 0
1;
#X obj 249 204 expr 1000/($f1/60);
#X obj 248 236 / 4;
#X obj 250 176 r bpm;
#X obj 183 37 inlet;
#X obj 126 393 outlet;
#X connect 0 0 1 3;
#X connect 1 0 20 0;
#X connect 2 0 1 0;
#X connect 3 0 8 0;
#X connect 4 0 2 0;
#X connect 5 0 2 0;
#X connect 6 0 1 2;
#X connect 7 0 1 1;
#X connect 8 0 4 0;
#X connect 8 1 5 0;
#X connect 8 2 9 0;
#X connect 9 0 2 0;
#X connect 10 0 12 0;
#X connect 11 0 15 0;
#X connect 12 0 14 0;
#X connect 12 1 11 0;
#X connect 12 2 13 0;
#X connect 13 0 15 0;
#X connect 14 0 15 0;
#X connect 15 0 7 1;
#X connect 16 0 17 0;
#X connect 17 0 0 0;
#X connect 18 0 16 0;
#X connect 19 0 7 0;
