#N canvas 5 50 1009 667 10;
#X obj 102 261 timer;
#X obj 112 314 nbx 5 14 -1e+37 1e+37 0 0 empty empty empty 0 -8 0 10
-262144 -1 -1 446.984 256;
#X obj 132 63 bng 15 250 50 0 empty empty empty 17 7 0 10 -262144 -1
-1;
#X obj 254 285 + 1;
#N canvas 0 50 450 250 (subpatch) 0;
#X array tap-\$0 8 float 3;
#A 0 454.24 420.862 486.168 476.009 415.057 446.984 445.533 429.569
;
#X coords 0 1000 8 0 200 140 1 0 0;
#X restore 299 45 graph;
#X obj 114 96 t b b;
#X obj 153 401 tabwrite tap-\$0;
#X obj 227 318 % 8;
#X obj 214 287 f 0;
#X obj 200 253 bng 15 250 50 0 empty empty empty 17 7 0 10 -262144
-1 -1;
#X obj 102 338 sel 0;
#X obj 227 354 nbx 5 14 -1e+37 1e+37 0 0 empty empty empty 0 -8 0 10
-262144 -1 -1 6 256;
#X obj 126 365 t b f;
#X obj 631 290 until;
#X obj 641 309 f 0;
#X obj 676 310 + 1;
#X obj 637 333 tabread tap-\$0;
#X obj 651 364 +;
#X obj 656 387 f 0;
#X obj 661 226 t b b;
#X msg 707 266 0;
#X obj 653 202 bng 15 250 50 0 empty empty empty 17 7 0 10 -262144
-1 -1;
#X obj 657 408 nbx 5 14 -1e+37 1e+37 0 0 empty empty empty 0 -8 0 10
-262144 -1 -1 3574.42 256;
#X obj 648 542 nbx 5 14 -1e+37 1e+37 0 0 empty empty empty 0 -8 0 10
-262144 -1 -1 134 256;
#X obj 232 169 bng 15 250 50 0 empty empty empty 17 7 0 10 -262144
-1 -1;
#X msg 213 216 0, f 1;
#X obj 128 202 spigot 0;
#X msg 164 156 1, f 1;
#X obj 373 230 nbx 5 14 -1e+37 1e+37 0 0 empty empty empty 0 -8 0 10
-262144 -1 -1 30 256;
#X obj 640 174 sel 1;
#X obj 658 143 > 3;
#X obj 668 112 t f f;
#X obj 696 147 min 8;
#X obj 630 248 f 1;
#X obj 709 175 max 1;
#X obj 664 502 int;
#X obj 669 463 expr 60*1000/$f1;
#X obj 668 440 / 1;
#X obj 273 216 tgl 15 0 empty empty tapping 17 7 0 10 -262144 -1 -1
0 1;
#X obj 576 558 outlet;
#X obj 200 128 delay 3500;
#X text 506 140 start calculating after 4 measurements;
#X obj 140 21 inlet;
#X obj 361 408 outlet;
#X obj 347 304 change -1;
#X obj 607 270 t b f;
#X connect 0 0 1 0;
#X connect 1 0 10 0;
#X connect 2 0 5 0;
#X connect 3 0 8 1;
#X connect 5 0 0 0;
#X connect 5 0 27 0;
#X connect 5 1 26 0;
#X connect 5 1 40 0;
#X connect 7 0 11 0;
#X connect 8 0 7 0;
#X connect 8 0 3 0;
#X connect 8 0 28 0;
#X connect 9 0 8 0;
#X connect 10 1 12 0;
#X connect 11 0 6 1;
#X connect 12 0 9 0;
#X connect 12 1 6 0;
#X connect 13 0 14 0;
#X connect 14 0 15 0;
#X connect 14 0 16 0;
#X connect 15 0 14 1;
#X connect 16 0 17 0;
#X connect 17 0 18 0;
#X connect 18 0 17 1;
#X connect 18 0 22 0;
#X connect 19 0 33 0;
#X connect 19 1 20 0;
#X connect 20 0 14 1;
#X connect 20 0 17 1;
#X connect 21 0 19 0;
#X connect 22 0 37 0;
#X connect 24 0 25 0;
#X connect 25 0 8 1;
#X connect 25 0 26 1;
#X connect 25 0 38 0;
#X connect 26 0 0 1;
#X connect 27 0 26 1;
#X connect 27 0 38 0;
#X connect 28 0 31 0;
#X connect 29 0 21 0;
#X connect 30 0 29 0;
#X connect 31 0 30 0;
#X connect 31 1 32 0;
#X connect 32 0 34 0;
#X connect 33 0 45 0;
#X connect 34 0 33 1;
#X connect 34 0 37 1;
#X connect 35 0 23 0;
#X connect 35 0 39 0;
#X connect 36 0 35 1;
#X connect 37 0 36 0;
#X connect 38 0 44 0;
#X connect 40 0 24 0;
#X connect 42 0 2 0;
#X connect 44 0 43 0;
#X connect 45 0 35 0;
#X connect 45 1 13 0;
