#N canvas -8 -8 1360 725 10;
#X obj 304 186 r notesIn-\$1;
#X obj 304 491 s notesOut-\$1;
#X obj 23 9 r loaddefs-\$1;
#X msg 23 76 loaddefinitions \$1;
#X obj 181 9 r loadbang-\$1;
#X obj 181 77 print loading definiton for \$1;
#X obj 23 41 symbol;
#X obj 25 186 inlet~ inL-\$1;
#X obj 135 186 inlet~ inR-\$1;
#X obj 27 491 outlet~ outL-\$1;
#X obj 136 491 outlet~ outR-\$1;
#X obj 424 185 r auxIn-\$1;
#X obj 423 208 r expIn-\$1;
#X obj 423 233 r fsIn-\$1;
#X obj 22 112 KontrolModule \$1 S-sampletwig;
#X obj 184 35 print loaded:sampletwig into \$1, f 35;
#X obj 584 191 samp/samp_voice \$1;
#X obj 784 170 r samp_lopass-\$1;
#X obj 1039 261 r samp_hipass-\$1;
#X obj 711 418 dac~;
#X obj 806 305 lop~ 22000;
#X obj 644 298 lop~ 22000;
#X obj 796 330 hip~ 0;
#X obj 643 320 hip~ 0;
#X obj 1018 337 * 8000;
#X obj 788 214 t f f;
#X obj 797 235 *;
#X obj 797 260 * 24000;
#X connect 0 0 1 0;
#X connect 2 0 6 0;
#X connect 2 0 5 0;
#X connect 3 0 14 0;
#X connect 4 0 15 0;
#X connect 6 0 3 0;
#X connect 7 0 9 0;
#X connect 8 0 10 0;
#X connect 16 0 21 0;
#X connect 16 1 20 0;
#X connect 17 0 25 0;
#X connect 18 0 24 0;
#X connect 20 0 22 0;
#X connect 21 0 23 0;
#X connect 22 0 10 0;
#X connect 22 0 19 1;
#X connect 23 0 9 0;
#X connect 23 0 19 0;
#X connect 24 0 22 1;
#X connect 24 0 23 1;
#X connect 25 0 26 0;
#X connect 25 1 26 1;
#X connect 26 0 27 0;
#X connect 27 0 21 1;
#X connect 27 0 20 1;
