#N canvas 0 50 1356 729 10;
#N canvas 0 50 450 250 (subpatch) 0;
#X array \$0-sample 882000 float 2;
#X coords 0 1 882000 -1 200 140 1 0 0;
#X restore 255 519 graph;
#X obj 767 617 outlet~;
#X obj 616 477 tabread4~ \$0-sample;
#X obj 82 186 soundfiler;
#X obj 634 151 max 100;
#X obj 648 169 / 44100;
#X obj 539 297 nbx 5 14 -1e+037 1e+037 0 0 empty empty freq 0 -8 0
10 -262144 -1 -1 0 256;
#X obj 537 214 expr 1/$f1;
#X obj 85 102 list;
#X obj 111 75 f \$0;
#X msg 77 150 read -resize \$1 \$2-sample;
#X obj 84 207 s \$0-samplesize;
#X obj 789 487 *~;
#X obj 793 174 bng 15 250 50 0 empty empty empty 17 7 0 10 -262144
-1 -1;
#X obj 890 255 * 1000;
#X obj 202 205 print;
#X obj 1104 247 hsl 128 15 0 1 0 0 empty empty pitch -2 -8 0 10 -262144
-1 -1 0 1;
#X obj 543 272 * 1;
#X obj 536 252 f 1;
#X obj 554 233 t b f;
#X floatatom 1030 218 5 0 0 0 - - -, f 5;
#X obj 115 46 loadbang;
#X msg 729 8 \$2 \$1;
#X obj 742 24 route 0;
#X msg 775 47 \$2, f 4;
#X obj 765 99 bng 15 250 50 0 empty empty empty 17 7 0 10 -262144 -1
-1;
#X msg 663 308 0;
#X obj 663 283 del 3;
#X obj 765 598 *~;
#X obj 870 587 outlet~;
#X obj 866 541 *~;
#X obj 799 101 bng 15 250 50 0 empty empty empty 17 7 0 10 -262144
-1 -1;
#X obj 759 70 sel \$1 \$2;
#X msg 801 120 1;
#X msg 837 124 0;
#X obj 839 103 bng 15 250 50 0 empty empty empty 17 7 0 10 -262144
-1 -1;
#X obj 981 139 s \$1-sel;
#X msg 997 276 2: Pitch \$1;
#X msg 977 505 4: Vol \$1;
#X obj 869 512 siglop~ 1;
#X obj 768 576 *~;
#X obj 953 19 change -1;
#X obj 1088 39 r knob-page-sel;
#X obj 1069 64 f 1;
#X obj 1053 115 s disable-all-in;
#X obj 1070 85 s knob-page-sel;
#X msg 996 105 1;
#X obj 965 46 sel 1;
#X text 1079 11 if page selected disable val updates update vals then
re-enable;
#X obj 969 69 t b b b b;
#X msg 1177 165 0;
#X obj 1124 64 nbx 5 14 -1e+037 1e+037 0 0 empty empty empty 0 -8 0
10 -262144 -1 -1 0 256;
#X obj 1176 188 s sampparam_off;
#X obj 707 -26 inlet;
#X obj 616 -22 inlet;
#X obj 619 5 route \$1 \$2;
#X obj 667 67 sel 0;
#X obj 435 20 f \$1;
#X obj 435 40 - 60;
#X obj 396 44 list;
#X obj 381 7 t a b;
#X msg 374 66 1: S\$2 - \$1;
#X obj 330 107 f 0;
#X obj 622 133 r \$0-slen;
#X obj 631 409 r \$0-offset;
#X obj 618 342 r \$0-dir;
#X obj 619 363 == -1;
#X obj 551 384 *~ 1;
#X obj 557 411 +~ 0;
#N canvas 0 101 1360 512 sample_bounds 0;
#X floatatom 221 206 10 0 0 2 sample_size #0-samplesize -, f 10;
#X msg 225 95 2: End \$1;
#X obj 89 138 nbx 5 14 -1e+037 1e+037 0 0 empty empty empty 0 -8 0
10 -262144 -1 -1 0 256;
#X obj 228 144 nbx 5 14 -1e+037 1e+037 0 0 empty empty empty 0 -8 0
10 -262144 -1 -1 0 256;
#X obj 114 199 -;
#X obj 157 118 t b f;
#X obj 120 263 nbx 5 14 -1e+037 1e+037 0 0 empty empty empty 0 -8 0
10 -262144 -1 -1 0 256;
#X obj 121 281 * 44100;
#X obj 123 314 nbx 5 14 -1e+037 1e+037 0 0 empty empty samplen 0 -8
0 10 -262144 -1 -1 0 256;
#X obj 223 230 t b f;
#X obj 97 354 s \$0-slen;
#X obj 139 245 f 1;
#X obj 173 186 min 0;
#X obj 214 267 f 0;
#X obj 200 327 nbx 5 14 -1e+037 1e+037 0 0 empty empty offset 0 -8
0 10 -262144 -1 -1 0 256;
#X obj 222 292 * 44100;
#X obj 299 343 nbx 5 14 -1e+037 1e+037 0 0 empty empty dir 0 -8 0 10
-262144 -1 -1 0 256;
#X obj 119 218 abs;
#X obj 306 276 * 2;
#X obj 302 298 - 1;
#X obj 313 237 <;
#X obj 348 306 nbx 5 14 -1e+037 1e+037 0 0 empty empty empty 0 -8 0
10 -262144 -1 -1 0 256;
#X obj 174 343 s \$0-offset;
#X obj 271 356 s \$0-dir;
#X obj 74 28 f \$1;
#X obj 74 48 - 60;
#X obj 35 52 list;
#X obj 20 15 t a b;
#X msg 76 77 1: S\$2 Start \$1;
#X obj 72 100 samp_param \$1 \$4 1 0;
#X obj 213 120 samp_param \$1 \$4 2 1;
#X connect 0 0 9 0;
#X connect 1 0 30 0;
#X connect 2 0 4 0;
#X connect 2 0 12 0;
#X connect 2 0 20 0;
#X connect 3 0 5 0;
#X connect 4 0 17 0;
#X connect 5 0 2 0;
#X connect 5 1 4 1;
#X connect 5 1 12 1;
#X connect 5 1 20 1;
#X connect 6 0 7 0;
#X connect 7 0 8 0;
#X connect 8 0 10 0;
#X connect 9 0 11 0;
#X connect 9 0 13 0;
#X connect 9 1 7 1;
#X connect 9 1 15 1;
#X connect 11 0 6 0;
#X connect 12 0 13 0;
#X connect 13 0 15 0;
#X connect 14 0 22 0;
#X connect 15 0 14 0;
#X connect 16 0 23 0;
#X connect 17 0 11 0;
#X connect 18 0 19 0;
#X connect 19 0 16 0;
#X connect 20 0 18 0;
#X connect 20 0 21 0;
#X connect 24 0 25 0;
#X connect 25 0 26 1;
#X connect 26 0 28 0;
#X connect 27 0 26 0;
#X connect 27 1 24 0;
#X connect 28 0 29 0;
#X connect 29 0 2 0;
#X connect 29 0 27 0;
#X connect 30 0 1 0;
#X connect 30 0 3 0;
#X restore 32 403 pd sample_bounds;
#X obj 557 358 *~ 1;
#N canvas 0 50 1366 725 loopstyle 0;
#X obj 127 165 int;
#X msg 82 248 gate;
#X msg 123 91 3: \$1;
#X msg 136 217 trigger;
#X msg 213 187 loop;
#X msg 274 179 pingpong;
#X obj 332 417 list;
#X msg 368 171 randcut;
#X msg 445 172 randpp;
#X obj 933 241 nbx 1 14 -1e+037 1e+037 0 0 empty empty empty 0 -8 0
10 -262144 -1 -1 0 256;
#X obj 958 243 nbx 1 14 -1e+037 1e+037 0 0 empty empty empty 0 -8 0
10 -262144 -1 -1 0 256;
#X obj 982 243 nbx 1 14 -1e+037 1e+037 0 0 empty empty empty 0 -8 0
10 -262144 -1 -1 0 256;
#X obj 1007 245 nbx 1 14 -1e+037 1e+037 0 0 empty empty empty 0 -8
0 10 -262144 -1 -1 0 256;
#X obj 1034 244 nbx 1 14 -1e+037 1e+037 0 0 empty empty empty 0 -8
0 10 -262144 -1 -1 0 256;
#X obj 1057 245 nbx 1 14 -1e+037 1e+037 0 0 empty empty empty 0 -8
0 10 -262144 -1 -1 0 256;
#X text 719 59 normal phasor;
#X text 718 36 gate (not trigger);
#X text 718 50 loop;
#X text 718 103 latch;
#X text 718 69 pingpong;
#X text 718 80 randcut;
#X text 719 91 randpp;
#X msg 703 39 1 0 0 1 0 0 0, f 1;
#X obj 903 268 s \$0-gate;
#X obj 927 289 s \$0-loop;
#X obj 993 266 s \$0-pp;
#X obj 1105 291 s \$0-latch;
#X obj 1010 287 s \$0-randcut;
#X obj 943 310 s \$0-normal;
#X obj 1062 267 s \$0-randpp;
#X obj 926 199 unpack 0 0 0 0 0 0 0;
#X obj 1079 246 nbx 1 14 -1e+037 1e+037 0 0 empty empty empty 0 -8
0 10 -262144 -1 -1 0 256;
#X msg 529 366 1 0 1 0 0 0 0, f 1;
#X msg 552 366 0 0 1 0 0 0 0, f 1;
#X msg 572 365 1 1 1 0 0 0 0, f 1;
#X msg 616 367 1 1 0 0 1 0 0, f 1;
#X msg 668 363 1 1 1 0 0 0 1, f 1;
#X msg 595 366 1 1 0 1 0 0 0, f 1;
#X msg 711 364 1 1 0 0 1 0 1, f 1;
#X msg 692 366 1 1 0 1 0 0 1, f 1;
#X msg 737 361 1 1 0 0 0 1 1, f 1;
#X msg 639 365 1 1 0 0 0 1 0, f 1;
#X msg 510 173 lp_latch;
#X msg 596 172 pp_latch;
#X msg 678 195 rc_latch;
#X msg 745 231 rpp_latch;
#X obj 397 53 sel 0 1 2 3 4 5 6 7 8 9;
#X obj 128 145 * 9.1;
#X obj 116 118 samp_param \$1 \$4 3 1;
#X connect 0 0 46 0;
#X connect 1 0 6 0;
#X connect 1 0 32 0;
#X connect 2 0 48 0;
#X connect 3 0 6 0;
#X connect 3 0 33 0;
#X connect 4 0 6 0;
#X connect 4 0 34 0;
#X connect 5 0 6 0;
#X connect 5 0 37 0;
#X connect 6 0 2 0;
#X connect 7 0 6 0;
#X connect 7 0 35 0;
#X connect 8 0 41 0;
#X connect 8 0 6 0;
#X connect 9 0 23 0;
#X connect 10 0 24 0;
#X connect 11 0 28 0;
#X connect 12 0 25 0;
#X connect 13 0 27 0;
#X connect 14 0 29 0;
#X connect 22 0 30 0;
#X connect 30 0 9 0;
#X connect 30 1 10 0;
#X connect 30 2 11 0;
#X connect 30 3 12 0;
#X connect 30 4 13 0;
#X connect 30 5 14 0;
#X connect 30 6 31 0;
#X connect 31 0 26 0;
#X connect 32 0 30 0;
#X connect 33 0 30 0;
#X connect 34 0 30 0;
#X connect 35 0 30 0;
#X connect 36 0 30 0;
#X connect 37 0 30 0;
#X connect 38 0 30 0;
#X connect 39 0 30 0;
#X connect 40 0 30 0;
#X connect 41 0 30 0;
#X connect 42 0 6 0;
#X connect 42 0 36 0;
#X connect 43 0 6 0;
#X connect 43 0 39 0;
#X connect 44 0 6 0;
#X connect 44 0 38 0;
#X connect 45 0 6 0;
#X connect 45 0 40 0;
#X connect 46 0 1 0;
#X connect 46 1 3 0;
#X connect 46 2 4 0;
#X connect 46 3 5 0;
#X connect 46 4 7 0;
#X connect 46 5 8 0;
#X connect 46 6 42 0;
#X connect 46 7 43 0;
#X connect 46 8 44 0;
#X connect 46 9 45 0;
#X connect 47 0 0 0;
#X connect 48 0 47 0;
#X restore 41 440 pd loopstyle;
#N canvas 0 50 1366 725 panning 0;
#X msg 371 61 3: Pan \$1;
#X obj 375 107 hsl 128 15 0 1 0 0 empty empty empty -2 -8 0 10 -262144
-1 -1 0 1;
#X obj 323 155 nbx 5 14 -1e+037 1e+037 0 0 empty empty empty 0 -8 0
10 -262144 -1 -1 0 256;
#X obj 392 158 nbx 5 14 -1e+037 1e+037 0 0 empty empty empty 0 -8 0
10 -262144 -1 -1 0 256;
#X obj 331 109 - 1;
#X obj 330 130 abs;
#X obj 403 221 siglop~ 0.5;
#X obj 316 230 siglop~ 0.5;
#X obj 282 286 outlet~;
#X obj 354 276 outlet~;
#X obj 370 81 samp_param \$1 \$3 3 0.5;
#X connect 0 0 10 0;
#X connect 1 0 4 0;
#X connect 1 0 3 0;
#X connect 2 0 7 0;
#X connect 3 0 6 0;
#X connect 4 0 5 0;
#X connect 5 0 2 0;
#X connect 6 0 9 0;
#X connect 7 0 8 0;
#X connect 10 0 1 0;
#X connect 10 0 0 0;
#X restore 856 536 pd panning;
#X obj 837 171 bng 15 250 50 0 empty empty empty 17 7 0 10 -262144
-1 -1;
#X obj 323 166 t b a;
#X obj 956 553 * 1.2;
#X obj 543 164 nbx 5 14 -1e+037 1e+037 0 0 empty empty empty 0 -8 0
10 -262144 -1 -1 0 256;
#X obj 332 214 list;
#X obj 538 315 siglop~ 1;
#X obj 539 336 phasor~;
#X obj 602 386 siglop~ 44100;
#X obj 548 439 *~;
#X obj 632 432 siglop~ 0;
#X obj 533 466 +~;
#X obj 314 130 ../soundshare/soundshare_select;
#N canvas 0 50 450 250 (subpatch) 0;
#X array \$0-pitchtable 122 float 3;
#A 0 -24 -24 -23 -23 -22 -22 -21 -21 -20 -20 -19 -19 -18 -18 -17 -17
-16 -16 -15 -15 -14 -14 -13 -13 -12 -12 -11.5 -11 -11 -10.5 -10 -10
-9.5 -9 -9 -8.5 -8 -8 -7.5 -7 -7 -6.5 -6 -6 -5.5 -5 -5 -4.5 -4 -4 -3.5
-3 -3 -2.5 -2 -2 -1.5 -1 -1 -0.5 0 0 0.5 1 1 1.5 2 2 2.5 3 3 3.5 4
4 4.5 5 5 5.5 6 6 6.5 7 7 7.5 8 8 8.5 9 9 9.5 10 10 10.5 11 11 11.5
12 12 13 13 14 14 15 15 16 16 17 17 18 18 19 19 20 20 21 21 22 22 23
23 24 24;
#X coords 0 24 122 -24 200 140 1 0 0;
#X restore 0 479 graph;
#X obj 1079 342 * 122;
#X obj 1138 422 nbx 5 14 -1e+037 1e+037 0 0 empty empty empty 0 -8
0 10 -262144 -1 -1 0 256;
#X msg 1139 381 set;
#X obj 1125 404 tabread4 \$0-pitchtable;
#X obj 1066 396 nbx 5 14 -1e+037 1e+037 0 0 empty empty empty 0 -8
0 10 -262144 -1 -1 0 256;
#X obj 1129 476 tabread2 \$0-pitchtable;
#X obj 1142 515 nbx 5 14 -1e+037 1e+037 0 0 empty empty empty 0 -8
0 10 -262144 -1 -1 0 256;
#X obj 1150 544 mtof;
#X obj 1155 564 nbx 5 14 -1e+037 1e+037 0 0 empty empty empty 0 -8
0 10 -262144 -1 -1 0 256;
#X obj 1166 585 / 8.175;
#X obj 1170 609 nbx 5 14 -1e+037 1e+037 0 0 empty empty empty 0 -8
0 10 -262144 -1 -1 0 256;
#X obj 976 175 * 1;
#N canvas 471 99 1360 725 gate_latch 0;
#X obj 118 268 sel 0;
#X obj 174 58 r \$0-latch;
#X obj 120 212 spigot 1;
#X obj 109 323 outlet;
#X obj 202 325 outlet;
#X text 128 340 on;
#X text 205 366 off;
#X obj 177 181 == 0;
#X obj 96 30 inlet;
#X obj 277 172 spigot 0;
#X obj 283 215 sel 0;
#X obj 310 299 tgl 15 0 empty empty empty 17 7 0 10 -262144 -1 -1 0
1;
#X obj 323 249 bng 15 250 50 0 empty empty empty 17 7 0 10 -262144
-1 -1;
#X obj 288 85 inlet;
#X obj 229 255 sel 0;
#X obj 206 233 change 0;
#X obj 432 224 loadbang;
#X obj 441 297 \$1;
#X obj 341 416 tabwrite latch_array;
#X obj 558 323 nbx 5 14 -1e+037 1e+037 0 0 empty empty empty 0 -8 0
10 -262144 -1 -1 -60 256;
#X obj 526 242 bng 15 250 50 0 empty empty empty 17 7 0 10 -262144
-1 -1;
#X obj 441 317 - 60;
#X obj 321 443 s latchbang;
#X obj 286 413 bng 15 250 50 0 empty empty empty 17 7 0 10 -262144
-1 -1;
#X obj 293 362 t b f;
#X msg 377 320 0;
#X obj 293 130 bng 15 250 50 0 empty empty empty 17 7 0 10 -262144
-1 -1;
#X obj 349 386 nbx 5 14 -1e+037 1e+037 0 0 empty empty empty 0 -8 0
10 -262144 -1 -1 0 256;
#X obj 385 353 bng 15 250 50 0 empty empty empty 17 7 0 10 -262144
-1 -1;
#X obj 358 279 sel 0;
#X connect 0 0 4 0;
#X connect 0 1 3 0;
#X connect 1 0 7 0;
#X connect 1 0 9 1;
#X connect 1 0 15 0;
#X connect 1 0 26 0;
#X connect 1 0 29 0;
#X connect 2 0 0 0;
#X connect 7 0 2 1;
#X connect 8 0 2 0;
#X connect 8 0 9 0;
#X connect 9 0 10 0;
#X connect 10 1 12 0;
#X connect 11 0 0 0;
#X connect 11 0 24 0;
#X connect 12 0 11 0;
#X connect 13 0 2 0;
#X connect 14 0 11 0;
#X connect 15 0 14 0;
#X connect 16 0 17 0;
#X connect 17 0 21 0;
#X connect 20 0 17 0;
#X connect 21 0 18 1;
#X connect 21 0 19 0;
#X connect 23 0 22 0;
#X connect 24 0 23 0;
#X connect 24 1 18 0;
#X connect 24 1 27 0;
#X connect 25 0 18 0;
#X connect 25 0 28 0;
#X connect 29 0 25 0;
#X restore 555 56 pd gate_latch;
#X obj 560 89 bng 15 250 50 0 empty empty empty 17 7 0 10 -262144 -1
-1;
#X obj 607 89 bng 15 250 50 0 empty empty empty 17 7 0 10 -262144 -1
-1;
#X obj 505 19 route \$1 \$2;
#X obj 658 33 route \$1 \$2;
#N canvas 0 50 1366 725 pp_gen 0;
#X obj 149 155 / 2;
#X obj 181 247 *~ 2;
#X obj 190 265 -~ 1;
#X obj 196 290 abs~;
#X obj 204 314 -~ 1;
#X obj 178 339 abs~;
#X obj 201 124 r \$0-pp;
#X obj 173 370 *~ 0;
#X obj 230 146 != 1;
#X obj 151 187 siglop~ 0.5;
#X obj 170 222 phasor~;
#X obj 146 63 inlet;
#X obj 182 446 outlet~;
#X obj 429 101 inlet;
#X text 218 66 freq;
#X text 482 85 restart;
#X connect 0 0 9 0;
#X connect 1 0 2 0;
#X connect 2 0 3 0;
#X connect 3 0 4 0;
#X connect 4 0 5 0;
#X connect 5 0 7 0;
#X connect 6 0 8 0;
#X connect 6 0 7 1;
#X connect 7 0 12 0;
#X connect 9 0 10 0;
#X connect 10 0 1 0;
#X connect 11 0 0 0;
#X connect 13 0 10 1;
#X restore 421 340 pd pp_gen;
#N canvas 0 50 1366 725 env 0;
#X obj 396 443 vline~;
#X obj 409 68 bng 15 250 50 0 empty empty empty 17 7 0 10 -262144 -1
-1;
#X obj 386 208 f 1000;
#X obj 384 230 / 1;
#X obj 487 208 abs;
#X obj 382 270 - 25;
#X obj 445 163 spigot 1;
#X obj 493 137 r \$0-gate;
#X obj 390 295 spigot 1;
#X obj 471 294 spigot 0;
#X obj 479 256 r \$0-loop;
#X obj 437 270 != 1;
#X obj 439 116 v \$0-env;
#X msg 441 140 0 \$1;
#X obj 509 68 bng 15 250 50 0 empty empty empty 17 7 0 10 -262144 -1
-1;
#X obj 527 355 t b f;
#X obj 395 248 r \$0-env;
#X obj 526 377 v \$0-env;
#X obj 528 403 list;
#X msg 528 425 0 2 \, 1 \$1 2 \, 0 \$1 \$2;
#X obj 781 76 * 1;
#X obj 365 540 outlet~;
#X obj 380 29 inlet;
#X obj 510 33 inlet;
#X obj 774 29 inlet;
#X obj 679 30 inlet;
#X obj 626 103 * 1;
#X msg 457 231 1e+007;
#X connect 0 0 21 0;
#X connect 1 0 2 0;
#X connect 1 0 27 0;
#X connect 2 0 3 0;
#X connect 3 0 5 0;
#X connect 4 0 3 1;
#X connect 5 0 8 0;
#X connect 6 0 0 0;
#X connect 7 0 6 1;
#X connect 8 0 15 0;
#X connect 9 0 15 0;
#X connect 10 0 9 1;
#X connect 10 0 11 0;
#X connect 11 0 8 1;
#X connect 12 0 13 0;
#X connect 13 0 6 0;
#X connect 14 0 12 0;
#X connect 15 0 17 0;
#X connect 15 1 18 1;
#X connect 16 0 5 1;
#X connect 17 0 18 0;
#X connect 18 0 19 0;
#X connect 19 0 0 0;
#X connect 20 0 4 0;
#X connect 22 0 1 0;
#X connect 23 0 14 0;
#X connect 24 0 20 0;
#X connect 25 0 26 0;
#X connect 26 0 2 1;
#X connect 27 0 9 0;
#X restore 858 336 pd env;
#N canvas 0 50 1366 725 envparam 0;
#X msg 108 92 4: Env \$1;
#X obj 170 235;
#X obj 105 167 t f f;
#X obj 126 65 hsl 128 15 0 1 0 0 empty empty empty -2 -8 0 10 -262144
-1 -1 0 1;
#X obj 112 196 *;
#X obj 115 227 nbx 5 14 -1e+037 1e+037 0 0 empty empty empty 0 -8 0
10 -262144 -1 -1 0 256;
#X obj 101 143 * 1.4;
#X obj 81 280 s \$0-env;
#X obj 229 279 nbx 5 14 -1e+037 1e+037 0 0 empty empty empty 0 -8 0
10 -262144 -1 -1 0 256;
#X obj 202 231 v \$0-env;
#X obj 109 116 samp_param \$1 \$4 4 0.02;
#X obj 119 253 * 3000;
#X connect 0 0 10 0;
#X connect 2 0 4 0;
#X connect 2 1 4 1;
#X connect 3 0 6 0;
#X connect 4 0 5 0;
#X connect 5 0 11 0;
#X connect 6 0 2 0;
#X connect 10 0 0 0;
#X connect 10 0 6 0;
#X connect 11 0 7 0;
#X connect 11 0 8 0;
#X connect 11 0 9 0;
#X restore 164 439 pd envparam;
#X obj 714 338 randcut_mod;
#X obj 770 286 r \$0-slen;
#X obj 763 312 r \$0-randcut;
#X obj 594 263 r \$0-normal;
#X obj 762 431 *~;
#X obj 847 381 randpp_mod;
#X obj 939 365 r \$0-randpp;
#N canvas 0 229 1366 725 loadsamp 0;
#X obj 159 103 t b b b b b;
#X msg 207 194 rewind;
#X obj 335 303 textfile;
#X obj 115 44 inlet;
#X obj 126 419 outlet;
#X obj 185 44 loadbang;
#X obj 177 71 del 300;
#X obj 340 146 \$1;
#X msg 268 196 read samp_\$1.txt;
#X obj 180 388 textfile;
#X msg 207 262 clear;
#X obj 147 198 t b a b;
#X obj 148 248 \$1;
#X msg 141 273 write samp_\$1.txt;
#X obj 183 311;
#X msg 183 331 set \$1;
#X obj 24 175 spigot 0;
#X msg 92 121 1;
#X obj 313 504 print loadsamp;
#X obj 279 60 bng 15 250 50 0 empty empty empty 17 7 0 10 -262144 -1
-1;
#X msg 346 261 bang;
#X connect 0 1 20 0;
#X connect 0 2 1 0;
#X connect 0 4 7 0;
#X connect 1 0 2 0;
#X connect 2 0 4 0;
#X connect 2 0 18 0;
#X connect 3 0 16 0;
#X connect 5 0 6 0;
#X connect 6 0 0 0;
#X connect 6 0 17 0;
#X connect 7 0 8 0;
#X connect 8 0 2 0;
#X connect 8 0 18 0;
#X connect 10 0 9 0;
#X connect 11 0 12 0;
#X connect 11 1 15 0;
#X connect 11 2 10 0;
#X connect 12 0 13 0;
#X connect 13 0 9 0;
#X connect 14 0 15 0;
#X connect 15 0 9 0;
#X connect 16 0 4 0;
#X connect 16 0 11 0;
#X connect 17 0 16 1;
#X connect 19 0 0 0;
#X connect 20 0 2 0;
#X restore 244 259 pd loadsamp;
#X obj 715 264 r \$0-env;
#X obj 347 267 bng 15 250 50 0 empty empty empty 17 7 0 10 -262144
-1 -1;
#X obj 932 526 samp_param \$1 \$3 4 0.8;
#X obj 1005 308 samp_param \$1 \$3 2 0.33333;
#X obj 327 87 samp_param_noload \$1 \$3 1 0;
#N canvas 5 135 1366 725 loadsamp2 0;
#X obj 159 103 t b b b b b;
#X msg 207 194 rewind;
#X obj 335 303 textfile;
#X obj 115 44 inlet;
#X obj 112 521 outlet;
#X obj 189 10 loadbang;
#X obj 177 71 del 300;
#X obj 340 146 \$1;
#X obj 180 388 textfile;
#X msg 207 262 clear;
#X obj 147 168 t b a b;
#X obj 148 248 \$1;
#X msg 209 339 set \$1;
#X obj 3 125 spigot 0;
#X msg 92 121 1;
#X obj 279 60 bng 15 250 50 0 empty empty empty 17 7 0 10 -262144 -1
-1;
#X msg 346 261 bang;
#X msg 141 273 write sampname_\$1.txt;
#X msg 267 196 read sampname_\$1.txt;
#X obj 313 504 print loadsamp_\$1;
#X obj 233 315 list;
#X obj 149 219 del 300;
#X obj 403 83 \$1;
#X obj 308 28 t b b;
#X obj 425 119 + 300;
#X obj 472 50 - 60;
#X obj 450 90 * 25;
#X obj 461 160 nbx 5 14 -1e+037 1e+037 0 0 empty empty empty 0 -8 0
10 -262144 -1 -1 -1200 256;
#X connect 0 1 16 0;
#X connect 0 2 1 0;
#X connect 0 4 7 0;
#X connect 1 0 2 0;
#X connect 2 0 4 0;
#X connect 2 0 19 0;
#X connect 3 0 13 0;
#X connect 5 0 23 0;
#X connect 6 0 0 0;
#X connect 6 0 14 0;
#X connect 7 0 18 0;
#X connect 9 0 8 0;
#X connect 10 0 21 0;
#X connect 10 1 20 0;
#X connect 10 2 9 0;
#X connect 11 0 17 0;
#X connect 12 0 8 0;
#X connect 12 0 19 0;
#X connect 13 0 4 0;
#X connect 13 0 19 0;
#X connect 13 0 10 0;
#X connect 14 0 13 1;
#X connect 15 0 0 0;
#X connect 16 0 2 0;
#X connect 17 0 8 0;
#X connect 17 0 19 0;
#X connect 18 0 2 0;
#X connect 18 0 19 0;
#X connect 20 0 12 0;
#X connect 21 0 11 0;
#X connect 22 0 25 0;
#X connect 23 0 6 0;
#X connect 23 1 22 0;
#X connect 24 0 27 0;
#X connect 25 0 26 0;
#X connect 26 0 24 0;
#X connect 27 0 6 1;
#X restore 410 246 pd loadsamp2;
#X obj 289 6 f \$1;
#X obj 295 21 - 60;
#X obj 200 -8 loadbang;
#X obj 254 35 list;
#X msg 233 65 1: S\$1 - none;
#X obj 287 -18 bng 15 250 50 0 empty empty empty 17 7 0 10 -262144
-1 -1;
#X obj 18 240 nbx 10 14 -1e+037 1e+037 0 0 empty empty empty 0 -8 0
10 -262144 -1 -1 0 256;
#X obj 152 352 s \$0-samplesize;
#X obj 151 249 spigot 0;
#X obj 149 328 nbx 10 14 -1e+037 1e+037 0 0 empty empty empty 0 -8
0 10 -262144 -1 -1 0 256;
#X obj 152 304 loadsample \$0-sample 882000;
#X obj 327 192 del 400;
#X connect 2 0 12 0;
#X connect 3 0 11 0;
#X connect 3 0 126 0;
#X connect 4 0 5 0;
#X connect 4 0 80 0;
#X connect 5 0 7 0;
#X connect 5 0 14 0;
#X connect 6 0 78 0;
#X connect 6 0 103 0;
#X connect 7 0 18 0;
#X connect 8 0 10 0;
#X connect 9 0 8 1;
#X connect 10 0 3 0;
#X connect 10 0 15 0;
#X connect 12 0 40 0;
#X connect 13 0 27 0;
#X connect 13 0 104 0;
#X connect 14 0 104 2;
#X connect 16 0 86 0;
#X connect 17 0 6 0;
#X connect 18 0 17 0;
#X connect 19 0 18 0;
#X connect 19 1 17 1;
#X connect 21 0 9 0;
#X connect 22 0 23 0;
#X connect 23 1 24 0;
#X connect 24 0 32 0;
#X connect 25 0 33 0;
#X connect 26 0 79 1;
#X connect 26 0 103 1;
#X connect 27 0 26 0;
#X connect 28 0 1 0;
#X connect 30 0 29 0;
#X connect 31 0 33 0;
#X connect 32 0 25 0;
#X connect 32 1 31 0;
#X connect 32 2 35 0;
#X connect 33 0 41 0;
#X connect 34 0 41 0;
#X connect 34 0 36 0;
#X connect 35 0 34 0;
#X connect 37 0 117 0;
#X connect 38 0 116 0;
#X connect 39 0 40 1;
#X connect 40 0 28 0;
#X connect 40 0 30 0;
#X connect 41 0 47 0;
#X connect 42 0 43 1;
#X connect 42 0 51 0;
#X connect 43 0 45 0;
#X connect 46 0 36 0;
#X connect 47 0 49 0;
#X connect 49 0 43 0;
#X connect 49 1 46 0;
#X connect 49 2 44 0;
#X connect 49 3 50 0;
#X connect 50 0 52 0;
#X connect 53 0 22 0;
#X connect 53 0 55 0;
#X connect 53 0 102 0;
#X connect 54 0 55 0;
#X connect 54 0 101 0;
#X connect 55 0 56 0;
#X connect 57 0 58 0;
#X connect 58 0 59 1;
#X connect 59 0 61 0;
#X connect 60 0 59 0;
#X connect 60 1 57 0;
#X connect 61 0 118 0;
#X connect 62 0 84 0;
#X connect 63 0 4 0;
#X connect 63 0 76 0;
#X connect 64 0 82 0;
#X connect 65 0 66 0;
#X connect 65 0 67 1;
#X connect 66 0 68 1;
#X connect 67 0 68 0;
#X connect 68 0 81 0;
#X connect 70 0 67 0;
#X connect 72 0 28 1;
#X connect 72 1 30 1;
#X connect 73 0 104 1;
#X connect 74 0 131 0;
#X connect 74 1 77 1;
#X connect 75 0 38 0;
#X connect 75 0 39 0;
#X connect 77 0 115 0;
#X connect 77 0 113 0;
#X connect 78 0 79 0;
#X connect 79 0 70 0;
#X connect 80 0 81 1;
#X connect 81 0 83 0;
#X connect 82 0 83 1;
#X connect 83 0 2 0;
#X connect 84 0 74 0;
#X connect 84 1 119 0;
#X connect 86 0 89 0;
#X connect 86 0 90 0;
#X connect 86 0 91 0;
#X connect 89 0 87 0;
#X connect 91 0 92 0;
#X connect 92 0 93 0;
#X connect 92 0 37 0;
#X connect 93 0 94 0;
#X connect 94 0 95 0;
#X connect 95 0 96 0;
#X connect 96 0 97 0;
#X connect 97 0 19 0;
#X connect 97 0 20 0;
#X connect 97 0 104 3;
#X connect 97 0 106 0;
#X connect 97 0 111 0;
#X connect 98 0 99 0;
#X connect 98 1 100 0;
#X connect 99 0 13 0;
#X connect 100 0 73 0;
#X connect 101 0 98 0;
#X connect 102 0 98 1;
#X connect 103 0 67 0;
#X connect 104 0 110 1;
#X connect 106 0 83 0;
#X connect 106 1 110 0;
#X connect 107 0 106 1;
#X connect 107 0 111 1;
#X connect 108 0 106 3;
#X connect 109 0 70 1;
#X connect 110 0 12 1;
#X connect 111 0 68 0;
#X connect 112 0 111 2;
#X connect 113 0 128 0;
#X connect 113 0 130 0;
#X connect 114 0 106 2;
#X connect 116 0 75 0;
#X connect 117 0 86 0;
#X connect 118 0 62 0;
#X connect 119 0 60 0;
#X connect 120 0 121 0;
#X connect 121 0 123 0;
#X connect 122 0 120 1;
#X connect 123 0 124 0;
#X connect 124 0 118 0;
#X connect 125 0 120 0;
#X connect 128 0 8 0;
#X connect 129 0 127 0;
#X connect 130 0 129 0;
#X connect 131 0 77 0;
