#N canvas 304 0 1360 725 10;
#X declare -path ./util/;
#X declare -path patchmenu;
#X obj 294 546 throw~ outL;
#X obj 395 550 throw~ outR;
#X obj 319 24 r notes;
#X obj 13 422 loadbang;
#X text 11 400 screen lines;
#X obj 386 348 *~ 0.3;
#X msg 13 445 \; screenLine1 1: Tune \; screenLine2 2: Vibrato Rate
\; screenLine3 3: Voicing \; screenLine4 4: Chord \; screenLine5 Aux:
Wave \;;
#X obj 505 127 pack 0 0 0, f 11;
#X obj 488 148 route 1 2 3 4, f 19;
#X obj 461 193 unpack 0 0;
#X obj 455 214 nbx 3 14 -1e+037 1e+037 0 0 empty empty empty 0 -8 0
10 -262144 -1 -1 0 256;
#X obj 498 211 nbx 3 14 -1e+037 1e+037 0 0 empty empty empty 0 -8 0
10 -262144 -1 -1 0 256;
#X obj 515 104 poly 4, f 11;
#X obj 551 195 unpack 0 0;
#X obj 545 216 nbx 3 14 -1e+037 1e+037 0 0 empty empty empty 0 -8 0
10 -262144 -1 -1 0 256;
#X obj 610 223 nbx 3 14 -1e+037 1e+037 0 0 empty empty empty 0 -8 0
10 -262144 -1 -1 0 256;
#X obj 463 251 unpack 0 0;
#X obj 457 272 nbx 3 14 -1e+037 1e+037 0 0 empty empty empty 0 -8 0
10 -262144 -1 -1 0 256;
#X obj 500 269 nbx 3 14 -1e+037 1e+037 0 0 empty empty empty 0 -8 0
10 -262144 -1 -1 0 256;
#X obj 553 253 unpack 0 0;
#X obj 547 274 nbx 3 14 -1e+037 1e+037 0 0 empty empty empty 0 -8 0
10 -262144 -1 -1 0 256;
#X obj 612 281 nbx 3 14 -1e+037 1e+037 0 0 empty empty empty 0 -8 0
10 -262144 -1 -1 0 256;
#X obj 467 350 *~ 0.3;
#X obj 540 398 r arp_mix;
#X obj 425 469 *~ 1;
#X obj 464 474 *~ 0;
#X obj 547 419 - 1;
#X obj 547 440 abs;
#X obj 1101 329 declare -path ./util/;
#X obj 1100 350 declare -path patchmenu;
#X obj 1100 531 patchmenu;
#X obj 1132 444 s enableSubMenu;
#X obj 1100 372 loadbang;
#X msg 1100 444 0;
#X obj 1100 421 t b b;
#X obj 1025 329 bng 15 250 50 0 empty empty empty 17 7 0 10 -262144
-1 -1;
#X msg 1022 497 1;
#X obj 1058 470 delay 3000;
#X obj 1100 396 versioncheck 2;
#X obj 510 79 arp/arp 3;
#X obj 329 91 zchord/zchord 1 2;
#X obj 472 233 arpvoice;
#X obj 562 235 arpvoice;
#X obj 474 291 arpvoice;
#X obj 564 293 arpvoice;
#X obj 76 -32 r~ inL;
#X obj 134 -31 r~ inR;
#N canvas 6 50 690 470 fft-analysis 0;
#X obj 275 314 *~;
#X obj 257 348 *~;
#X obj 218 348 *~;
#X obj 105 163 *~;
#X obj 66 156 *~;
#X obj 66 182 +~;
#X obj 216 104 *~;
#X obj 253 104 inlet~;
#X obj 216 130 rfft~;
#X obj 42 371 *~;
#X floatatom 458 208 0 0 0 0 - - -;
#X obj 334 177 *~;
#X obj 66 104 *~;
#X obj 103 104 inlet~;
#X obj 45 65 tabreceive~ hanning;
#X obj 66 130 rfft~;
#X obj 218 374 rifft~;
#X obj 42 397 outlet~;
#X obj 297 177 *~;
#X obj 297 203 +~;
#X obj 307 314 sig~ 0.001;
#X text 122 214 modulus;
#X obj 66 208 sqrt~;
#X obj 275 288 *~;
#X obj 457 58 r squelch;
#X obj 329 418 block~ 1024 4;
#X obj 297 229 rsqrt~;
#X obj 341 203 sig~ 1e-020;
#X obj 297 255 clip~;
#X obj 458 130 t f f;
#X obj 458 156 *;
#X obj 458 182 * 0.01;
#X obj 456 94 max 1;
#X obj 559 58 loadbang;
#X obj 458 234 max 0;
#X connect 0 0 1 1;
#X connect 0 0 2 1;
#X connect 1 0 16 1;
#X connect 2 0 16 0;
#X connect 3 0 5 1;
#X connect 4 0 5 0;
#X connect 5 0 22 0;
#X connect 6 0 8 0;
#X connect 7 0 6 1;
#X connect 8 0 18 0;
#X connect 8 0 18 1;
#X connect 8 0 2 0;
#X connect 8 1 11 0;
#X connect 8 1 11 1;
#X connect 8 1 1 0;
#X connect 9 0 17 0;
#X connect 10 0 34 0;
#X connect 11 0 19 1;
#X connect 12 0 15 0;
#X connect 13 0 12 1;
#X connect 14 0 12 0;
#X connect 14 0 6 0;
#X connect 14 0 9 0;
#X connect 15 0 4 0;
#X connect 15 0 4 1;
#X connect 15 1 3 0;
#X connect 15 1 3 1;
#X connect 16 0 9 1;
#X connect 18 0 19 0;
#X connect 19 0 26 0;
#X connect 20 0 0 1;
#X connect 22 0 23 0;
#X connect 23 0 0 0;
#X connect 24 0 32 0;
#X connect 26 0 28 0;
#X connect 27 0 26 0;
#X connect 28 0 23 1;
#X connect 29 0 30 0;
#X connect 29 0 30 1;
#X connect 30 0 31 0;
#X connect 31 0 10 0;
#X connect 32 0 29 0;
#X connect 33 0 32 0;
#X connect 34 0 28 2;
#X restore 190 134 pd fft-analysis;
#X obj 248 379 r wetdry;
#X text 292 276 vocoder processes microphone input against up to 4
tone voices, f 26;
#X obj 109 51 lop~ 500;
#N canvas 6 50 612 483 crossfade 0;
#X obj 33 48 inlet~;
#X obj 211 67 inlet;
#X obj 39 327 outlet~;
#X obj 49 194 expr cos($f1 * 3.14159 / 2);
#X obj 244 194 expr sin($f1 * 3.14159 / 2);
#X obj 211 143 clip 0 1;
#N canvas 7 50 594 632 pan_core 0;
#X obj 21 106 inlet~;
#X obj 226 126 inlet;
#X obj 59 259 *~;
#X obj 123 303 outlet~;
#X obj 189 258 *~;
#X obj 205 234 line~;
#X obj 75 234 line~;
#X obj 96 127 inlet;
#X obj 179 104 inlet~;
#X text 223 350 comment;
#X obj 75 195 pack f 5;
#X obj 205 195 pack f 5;
#X text 202 346 Hans-Christoph Steiner \, 2004;
#X text 202 332 Adapted from [pan_core~];
#X connect 0 0 2 0;
#X connect 1 0 11 0;
#X connect 2 0 3 0;
#X connect 4 0 3 0;
#X connect 5 0 4 1;
#X connect 6 0 2 1;
#X connect 7 0 10 0;
#X connect 8 0 4 0;
#X connect 10 0 6 0;
#X connect 11 0 5 0;
#X restore 39 266 pd pan_core;
#X text 165 300 Adapted from [equal_power_pan~] \, Hans-Christoph Steiner
\, 2004;
#X text 320 312 comment;
#X obj 128 46 inlet~;
#X connect 0 0 6 0;
#X connect 1 0 5 0;
#X connect 3 0 6 1;
#X connect 4 0 6 3;
#X connect 5 0 3 0;
#X connect 5 0 4 0;
#X connect 6 0 2 0;
#X connect 9 0 6 2;
#X restore 170 447 pd crossfade;
#N canvas 46 50 723 534 hanning-window 0;
#X obj 122 273 phasor~;
#X obj 122 311 cos~;
#X obj 31 436 tabwrite~ hanning;
#X obj 40 336 -~;
#X obj 37 290 sig~ 1;
#X msg 50 240 0;
#X text 188 18 CALCULATE HANNING;
#X text 188 36 WINDOW TABLE;
#N canvas 0 50 450 300 (subpatch) 0;
#X array hanning 1024 float 0;
#X coords 0 1 1023 -1 400 300 1;
#X restore 342 235 graph;
#X obj 123 227 sig~;
#X text 156 173 sample rate / window size;
#X msg 31 191 bang;
#X obj 88 357 sig~ 0.5;
#X obj 66 399 *~;
#X obj 124 106 samplerate~;
#X obj 33 31 r window-size;
#X obj 123 175 /;
#X msg 262 106 \; hanning resize \$1;
#X obj 31 70 t b f f;
#X connect 0 0 1 0;
#X connect 1 0 3 1;
#X connect 3 0 13 0;
#X connect 4 0 3 0;
#X connect 5 0 0 1;
#X connect 9 0 0 0;
#X connect 11 0 2 0;
#X connect 11 0 5 0;
#X connect 12 0 13 1;
#X connect 13 0 2 0;
#X connect 14 0 16 0;
#X connect 15 0 18 0;
#X connect 16 0 9 0;
#X connect 18 0 14 0;
#X connect 18 0 11 0;
#X connect 18 1 16 1;
#X connect 18 2 17 0;
#X restore 99 181 pd hanning-window;
#X obj 511 -13 loadbang;
#X msg 511 9 \; window-size 1024 \;;
#X msg 1100 560 \; screenLine1 ZChord \; screenLine2 Tweak \; screenLine3
Arp \; screenLine4 Vocoder \; screenLine5 <-- Home \;;
#X floatatom 996 119 5 0 0 0 - - -, f 5;
#X obj 996 146 s squelch;
#X obj 996 89 * 50;
#X obj 996 61 *;
#X obj 996 35 t f f;
#X obj 924 58 * 100;
#X obj 924 80 i;
#X obj 924 102 change -1;
#X obj 661 413 * 100;
#X obj 661 435 i;
#X obj 633 466 change -1;
#X obj 705 476 s wetdry;
#X obj 913 546 change -1;
#X obj 913 497 * 100;
#X obj 913 519 i;
#X obj 861 467 - 1;
#X obj 861 494 abs;
#X obj 861 521 s rdry;
#X obj 936 408 s rwet;
#X obj 936 376 * 0.5;
#X obj 757 46 screensave 4;
#X obj 760 74 s p4s1;
#X obj 935 198 screensave 4;
#X msg 757 23 1: -;
#X obj 756 -4 r p4k1;
#X obj 996 13 r p4k2;
#X obj 953 251 s p4s2;
#X obj 705 377 r p4k3;
#X obj 637 607 s p4s3;
#X obj 913 329 r p4k4;
#X obj 641 545 screensave 4;
#X obj 926 599 screensave 4;
#X msg 623 520 3: Wet / Dry \$1;
#X msg 927 171 2: Squelch \$1 %;
#X obj 864 395 nbx 5 14 -1e+037 1e+037 0 0 empty empty empty 0 -8 0
10 -262144 -1 -1 0.505263 256;
#X msg 871 571 4: Reverb \$1;
#X obj 918 633 s p4s4;
#X connect 2 0 40 0;
#X connect 3 0 6 0;
#X connect 5 0 24 0;
#X connect 7 0 8 0;
#X connect 8 0 9 0;
#X connect 8 1 13 0;
#X connect 8 2 16 0;
#X connect 8 3 19 0;
#X connect 9 0 10 0;
#X connect 9 1 11 0;
#X connect 10 0 41 0;
#X connect 11 0 41 1;
#X connect 12 0 7 0;
#X connect 12 1 7 1;
#X connect 12 2 7 2;
#X connect 13 0 14 0;
#X connect 13 1 15 0;
#X connect 14 0 42 0;
#X connect 15 0 42 1;
#X connect 16 0 17 0;
#X connect 16 1 18 0;
#X connect 17 0 43 0;
#X connect 18 0 43 1;
#X connect 19 0 20 0;
#X connect 19 1 21 0;
#X connect 20 0 44 0;
#X connect 21 0 44 1;
#X connect 22 0 25 0;
#X connect 23 0 25 1;
#X connect 23 0 26 0;
#X connect 24 0 47 1;
#X connect 25 0 47 1;
#X connect 26 0 27 0;
#X connect 27 0 24 1;
#X connect 30 0 55 0;
#X connect 32 0 38 0;
#X connect 33 0 30 0;
#X connect 34 0 33 0;
#X connect 34 0 37 0;
#X connect 34 1 31 0;
#X connect 35 0 34 0;
#X connect 36 0 30 0;
#X connect 38 0 34 0;
#X connect 39 0 12 0;
#X connect 40 0 5 0;
#X connect 40 1 39 0;
#X connect 41 0 22 0;
#X connect 42 0 22 0;
#X connect 43 0 22 0;
#X connect 44 0 22 0;
#X connect 45 0 50 0;
#X connect 46 0 50 0;
#X connect 47 0 51 1;
#X connect 48 0 51 2;
#X connect 50 0 47 0;
#X connect 50 0 51 0;
#X connect 51 0 0 0;
#X connect 51 0 1 0;
#X connect 53 0 54 0;
#X connect 56 0 57 0;
#X connect 58 0 56 0;
#X connect 59 0 58 0;
#X connect 60 0 59 0;
#X connect 60 1 59 1;
#X connect 61 0 62 0;
#X connect 62 0 63 0;
#X connect 63 0 89 0;
#X connect 64 0 65 0;
#X connect 65 0 66 0;
#X connect 66 0 88 0;
#X connect 68 0 91 0;
#X connect 69 0 70 0;
#X connect 70 0 68 0;
#X connect 71 0 72 0;
#X connect 72 0 73 0;
#X connect 75 0 74 0;
#X connect 75 0 71 0;
#X connect 76 0 77 0;
#X connect 78 0 82 0;
#X connect 79 0 76 0;
#X connect 80 0 79 0;
#X connect 81 0 60 0;
#X connect 81 0 61 0;
#X connect 83 0 64 0;
#X connect 83 0 67 0;
#X connect 85 0 69 0;
#X connect 85 0 75 0;
#X connect 85 0 90 0;
#X connect 86 0 84 0;
#X connect 87 0 92 0;
#X connect 88 0 86 0;
#X connect 89 0 78 0;
#X connect 91 0 87 0;
