#N canvas 0 50 450 300 10;
#X obj 134 66 tgl 15 0 empty empty empty 17 7 0 10 -262144 -1 -1 0
1;
#X obj 91 116 spigot 0;
#X msg 164 74 0;
#X obj 127 27 inlet;
#X obj 91 153 outlet;
#X obj 59 74 r sync;
#X connect 0 0 1 1;
#X connect 1 0 2 0;
#X connect 1 0 4 0;
#X connect 2 0 0 0;
#X connect 3 0 0 0;
#X connect 5 0 1 0;
