#N canvas 1346 168 1356 713 10;
#N canvas 0 50 450 250 (subpatch) 0;
#X array \$0-sample 533023 float 2;
#X coords 0 1 533023 -1 200 140 1;
#X restore 20 246 graph;
#X obj 661 630 outlet~;
#X obj 611 496 tabread4~ \$0-sample;
#X obj 82 186 soundfiler;
#X obj 637 137 max 100;
#X obj 648 169 / 44100;
#X obj 597 297 nbx 5 14 -1e+037 1e+037 0 0 empty empty freq 0 -8 0
10 -262144 -1 -1 0.277047 256;
#X obj 595 214 expr 1/$f1;
#X obj 85 102 list;
#X obj 176 100 f \$0;
#X msg 77 150 read -resize \$1 \$2-sample;
#X obj 84 222 s \$0-samplesize;
#X obj 776 470 vline~;
#X obj 730 498 *~;
#X obj 763 172 bng 15 250 50 0 empty empty empty 17 7 0 10 -262144
-1 -1;
#X obj 770 314 f 1000;
#X obj 714 216 * 1000;
#X obj 202 205 print;
#X obj 1104 247 hsl 128 15 0 1 0 0 empty empty pitch -2 -8 0 10 -262144
-1 -1 0 1;
#X obj 768 336 / 1;
#X obj 600 276 * 1;
#X obj 594 252 f 1;
#X obj 612 233 t b f;
#X obj 871 314 abs;
#X floatatom 972 362 5 0 0 0 - - -, f 5;
#X obj 189 50 loadbang;
#X msg 729 8 \$2 \$1;
#X obj 742 24 route 0;
#X msg 775 47 \$2, f 4;
#X obj 765 99 bng 15 250 50 0 empty empty empty 17 7 0 10 -262144 -1
-1;
#X obj 766 376 - 25;
#X msg 710 285 0;
#X obj 710 265 del 3;
#X msg 766 430 0 2 \, 1 2 2 \, 0 25 \$1;
#X obj 672 603 *~;
#X obj 758 624 outlet~;
#X obj 753 600 *~;
#X obj 799 101 bng 15 250 50 0 empty empty empty 17 7 0 10 -262144
-1 -1;
#X obj 759 70 sel \$1 \$2;
#X msg 801 120 1;
#X msg 837 124 0;
#X obj 839 103 bng 15 250 50 0 empty empty empty 17 7 0 10 -262144
-1 -1;
#X obj 981 139 s \$1-sel;
#X msg 997 276 2: Pitch \$1;
#X msg 836 485 4: Vol \$1;
#X obj 775 533 siglop~ 1;
#X obj 697 554 *~;
#X obj 953 19 change -1;
#X obj 1088 39 r knob-page-sel;
#X obj 1069 64 f 1;
#X obj 1053 115 s disable-all-in;
#X obj 1070 85 s knob-page-sel;
#X msg 996 105 1;
#X obj 965 46 sel 1;
#X text 1004 23 if page selected disable val updates update vals then
re-enable;
#X obj 969 69 t b b b b;
#X msg 1177 165 0;
#X obj 1124 64 nbx 5 14 -1e+037 1e+037 0 0 empty empty empty 0 -8 0
10 -262144 -1 -1 1 256;
#X obj 1176 188 s sampparam_off;
#X obj 707 -26 inlet;
#X obj 616 -22 inlet;
#X obj 619 5 route \$1 \$2;
#X obj 667 67 sel 0;
#X obj 435 20 f \$1;
#X obj 435 40 - 60;
#X obj 396 44 list;
#X obj 381 7 t a b;
#X msg 398 75 1: S\$2 - \$1;
#X obj 398 151 f 0;
#X obj 398 95 samp_param \$1 \$3 1 0;
#X obj 631 112 r \$0-slen;
#X obj 659 435 r \$0-offset;
#X obj 676 342 r \$0-dir;
#X obj 677 363 == -1;
#X obj 619 373 *~ 1;
#X obj 621 392 +~ 0;
#N canvas 63 64 1360 512 sample_bounds 0;
#X floatatom 221 206 10 0 0 2 sample_size #0-samplesize -, f 10;
#X msg 225 95 2: End \$1;
#X obj 89 138 nbx 5 14 -1e+037 1e+037 0 0 empty empty empty 0 -8 0
10 -262144 -1 -1 0.263685 256;
#X obj 228 144 nbx 5 14 -1e+037 1e+037 0 0 empty empty empty 0 -8 0
10 -262144 -1 -1 0.421896 256;
#X obj 114 199 -;
#X obj 157 118 t b f;
#X obj 120 263 nbx 5 14 -1e+037 1e+037 0 0 empty empty empty 0 -8 0
10 -262144 -1 -1 0.158211 256;
#X obj 121 281 * 44100;
#X obj 123 314 nbx 5 14 -1e+037 1e+037 0 0 empty empty samplen 0 -8
0 10 -262144 -1 -1 84330.2 256;
#X obj 223 230 t b f;
#X obj 97 354 s \$0-slen;
#X obj 139 245 f 1;
#X obj 173 186 min 0;
#X obj 214 267 f 0;
#X obj 200 327 nbx 5 14 -1e+037 1e+037 0 0 empty empty offset 0 -8
0 10 -262144 -1 -1 140550 256;
#X obj 222 292 * 44100;
#X obj 299 343 nbx 5 14 -1e+037 1e+037 0 0 empty empty dir 0 -8 0 10
-262144 -1 -1 1 256;
#X obj 119 218 abs;
#X obj 306 276 * 2;
#X obj 302 298 - 1;
#X obj 313 237 <;
#X obj 348 306 nbx 5 14 -1e+037 1e+037 0 0 empty empty empty 0 -8 0
10 -262144 -1 -1 1 256;
#X obj 174 343 s \$0-offset;
#X obj 271 356 s \$0-dir;
#X obj 74 28 f \$1;
#X obj 74 48 - 60;
#X obj 35 52 list;
#X obj 20 15 t a b;
#X msg 76 77 1: S\$2 Start \$1;
#X obj 72 100 samp_param \$1 \$4 1 0;
#X obj 213 120 samp_param \$1 \$4 2 1;
#X connect 0 0 9 0;
#X connect 1 0 30 0;
#X connect 2 0 4 0;
#X connect 2 0 12 0;
#X connect 2 0 20 0;
#X connect 3 0 5 0;
#X connect 4 0 17 0;
#X connect 5 0 2 0;
#X connect 5 1 4 1;
#X connect 5 1 12 1;
#X connect 5 1 20 1;
#X connect 6 0 7 0;
#X connect 7 0 8 0;
#X connect 8 0 10 0;
#X connect 9 0 11 0;
#X connect 9 0 13 0;
#X connect 9 1 7 1;
#X connect 9 1 15 1;
#X connect 11 0 6 0;
#X connect 12 0 13 0;
#X connect 13 0 15 0;
#X connect 14 0 22 0;
#X connect 15 0 14 0;
#X connect 16 0 23 0;
#X connect 17 0 11 0;
#X connect 18 0 19 0;
#X connect 19 0 16 0;
#X connect 20 0 18 0;
#X connect 20 0 21 0;
#X connect 24 0 25 0;
#X connect 25 0 26 1;
#X connect 26 0 28 0;
#X connect 27 0 26 0;
#X connect 27 1 24 0;
#X connect 28 0 29 0;
#X connect 29 0 2 0;
#X connect 29 0 27 0;
#X connect 30 0 1 0;
#X connect 30 0 3 0;
#X restore 32 403 pd sample_bounds;
#X obj 829 269 spigot 1;
#X obj 877 243 r \$0-gate;
#X obj 774 401 spigot 1;
#X obj 855 400 spigot 0;
#X obj 863 362 r \$0-loop;
#X obj 821 376 != 1;
#X msg 841 337 100000;
#X obj 477 296 / 2;
#X obj 484 377 *~ 2;
#X obj 493 395 -~ 1;
#X obj 499 420 abs~;
#X obj 507 444 -~ 1;
#X obj 481 469 abs~;
#X obj 504 254 r \$0-pp;
#X obj 620 354 *~ 1;
#X obj 476 500 *~ 0;
#X obj 528 289 != 1;
#N canvas 237 93 1356 714 loopstyle 0;
#X obj 127 165 int;
#X msg 87 213 gate;
#X msg 123 91 3: \$1;
#X msg 132 228 trigger;
#X msg 211 224 loop;
#X msg 267 201 pingpong;
#X msg 129 285 0;
#X msg 87 287 1;
#X obj 62 382 s \$0-gate;
#X msg 230 279 0;
#X msg 184 286 1;
#X obj 180 398 s \$0-loop;
#X obj 313 238 list;
#X msg 329 269 0;
#X msg 287 271 1;
#X obj 253 378 s \$0-pp;
#X obj 116 118 samp_param \$1 \$4 3 1;
#X obj 128 145 * 6;
#X obj 258 104 sel 0 1 2 3 4 5;
#X msg 363 203 loop_latch;
#X msg 438 201 pingpong_latch;
#X obj 364 384 s \$0-latch;
#X msg 442 282 0;
#X msg 400 284 1;
#X connect 0 0 18 0;
#X connect 1 0 7 0;
#X connect 1 0 9 0;
#X connect 1 0 12 0;
#X connect 1 0 13 0;
#X connect 1 0 22 0;
#X connect 2 0 16 0;
#X connect 3 0 6 0;
#X connect 3 0 9 0;
#X connect 3 0 12 0;
#X connect 3 0 13 0;
#X connect 3 0 22 0;
#X connect 4 0 7 0;
#X connect 4 0 10 0;
#X connect 4 0 12 0;
#X connect 4 0 13 0;
#X connect 4 0 22 0;
#X connect 5 0 7 0;
#X connect 5 0 10 0;
#X connect 5 0 12 0;
#X connect 5 0 14 0;
#X connect 5 0 22 0;
#X connect 6 0 8 0;
#X connect 7 0 8 0;
#X connect 9 0 11 0;
#X connect 10 0 11 0;
#X connect 12 0 2 0;
#X connect 13 0 15 0;
#X connect 14 0 15 0;
#X connect 16 0 17 0;
#X connect 17 0 0 0;
#X connect 18 0 1 0;
#X connect 18 1 3 0;
#X connect 18 2 4 0;
#X connect 18 3 5 0;
#X connect 18 4 19 0;
#X connect 18 5 20 0;
#X connect 18 6 20 0;
#X connect 19 0 12 0;
#X connect 19 0 13 0;
#X connect 19 0 10 0;
#X connect 19 0 23 0;
#X connect 20 0 12 0;
#X connect 20 0 14 0;
#X connect 20 0 10 0;
#X connect 20 0 23 0;
#X connect 22 0 21 0;
#X connect 23 0 21 0;
#X restore 41 440 pd loopstyle;
#X msg 255 431 4: Env \$1;
#X obj 317 574;
#X obj 252 506 t f f;
#X obj 254 391 hsl 128 15 0 1 0 0 empty empty empty -2 -8 0 10 -262144
-1 -1 0 1;
#X obj 259 535 *;
#X obj 262 566 nbx 5 14 -1e+037 1e+037 0 0 empty empty empty 0 -8 0
10 -262144 -1 -1 0.000787145 256;
#X obj 248 482 * 1.4;
#X obj 266 592 * 1000;
#X obj 228 619 s \$0-env;
#X obj 376 618 nbx 5 14 -1e+037 1e+037 0 0 empty empty empty 0 -8 0
10 -262144 -1 -1 0.787145 256;
#N canvas 0 50 1366 725 panning 0;
#X msg 371 61 3: Pan \$1;
#X obj 375 107 hsl 128 15 0 1 0 0 empty empty empty -2 -8 0 10 -262144
-1 -1 0 1;
#X obj 323 155 nbx 5 14 -1e+037 1e+037 0 0 empty empty empty 0 -8 0
10 -262144 -1 -1 1 256;
#X obj 392 158 nbx 5 14 -1e+037 1e+037 0 0 empty empty empty 0 -8 0
10 -262144 -1 -1 0 256;
#X obj 331 109 - 1;
#X obj 330 130 abs;
#X obj 403 221 siglop~ 0.5;
#X obj 316 230 siglop~ 0.5;
#X obj 282 286 outlet~;
#X obj 354 276 outlet~;
#X obj 370 81 samp_param \$1 \$3 3 0.5;
#X connect 0 0 10 0;
#X connect 1 0 4 0;
#X connect 1 0 3 0;
#X connect 2 0 7 0;
#X connect 3 0 6 0;
#X connect 4 0 5 0;
#X connect 5 0 2 0;
#X connect 6 0 9 0;
#X connect 7 0 8 0;
#X connect 10 0 1 0;
#X connect 10 0 0 0;
#X restore 762 557 pd panning;
#X obj 184 587 v \$0-env;
#X obj 823 222 v \$0-env;
#X msg 825 246 0 \$1;
#X obj 799 178 bng 15 250 50 0 empty empty empty 17 7 0 10 -262144
-1 -1;
#X obj 964 447 t b f;
#X obj 779 354 r \$0-env;
#X obj 963 469 v \$0-env;
#X obj 965 503 list;
#X msg 934 576 0 2 \, 1 \$1 2 \, 0 \$1 \$2;
#X msg 980 416 1100;
#X obj 340 265 del 50;
#X obj 323 166 t b a;
#X obj 865 548 * 1.2;
#X obj 719 403 bng 15 250 50 0 empty empty empty 17 7 0 10 -262144
-1 -1;
#X obj 1039 523 nbx 5 14 -1e+037 1e+037 0 0 empty empty empty 0 -8
0 10 -262144 -1 -1 0.787145 256;
#X obj 1055 503 nbx 5 14 -1e+037 1e+037 0 0 empty empty empty 0 -8
0 10 -262144 -1 -1 100000 256;
#X obj 569 149 nbx 5 14 -1e+037 1e+037 0 0 empty empty empty 0 -8 0
10 -262144 -1 -1 84330.2 256;
#X obj 273 138 list;
#X obj 791 506 samp_param \$1 \$3 4 0.8;
#X obj 1005 308 samp_param \$1 \$3 2 0.33333;
#X obj 256 455 samp_param \$1 \$4 4 0.02;
#X obj 454 317 siglop~ 0.5;
#X obj 473 352 phasor~;
#X obj 596 315 siglop~ 1;
#X obj 597 336 phasor~;
#X obj 667 374 siglop~ 44100;
#X obj 608 417 *~;
#X obj 660 458 siglop~ 0;
#X obj 609 469 +~;
#X obj 349 207 ../soundshare/soundshare_select;
#N canvas 0 50 450 250 (subpatch) 0;
#X array \$0-pitchtable 122 float 3;
#A 0 -24 -24 -23 -23 -22 -22 -21 -21 -20 -20 -19 -19 -18 -18 -17 -17
-16 -16 -15 -15 -14 -14 -13 -13 -12 -12 -11.5 -11 -11 -10.5 -10 -10
-9.5 -9 -9 -8.5 -8 -8 -7.5 -7 -7 -6.5 -6 -6 -5.5 -5 -5 -4.5 -4 -4 -3.5
-3 -3 -2.5 -2 -2 -1.5 -1 -1 -0.5 0 0 0.5 1 1 1.5 2 2 2.5 3 3 3.5 4
4 4.5 5 5 5.5 6 6 6.5 7 7 7.5 8 8 8.5 9 9 9.5 10 10 10.5 11 11 11.5
12 12 13 13 14 14 15 15 16 16 17 17 18 18 19 19 20 20 21 21 22 22 23
23 24 24;
#X coords 0 24 122 -24 200 140 1 0 0;
#X restore 0 479 graph;
#X obj 1079 342 * 122;
#X obj 1138 422 nbx 5 14 -1e+037 1e+037 0 0 empty empty empty 0 -8
0 10 -262144 -1 -1 -10.9983 256;
#X msg 1139 381 set;
#X obj 1125 404 tabread4 \$0-pitchtable;
#X obj 1066 396 nbx 5 14 -1e+037 1e+037 0 0 empty empty empty 0 -8
0 10 -262144 -1 -1 27.0225 256;
#X obj 1129 476 tabread2 \$0-pitchtable;
#X obj 1142 515 nbx 5 14 -1e+037 1e+037 0 0 empty empty empty 0 -8
0 10 -262144 -1 -1 -11 256;
#X obj 1150 544 mtof;
#X obj 1155 564 nbx 5 14 -1e+037 1e+037 0 0 empty empty empty 0 -8
0 10 -262144 -1 -1 4.33098 256;
#X obj 1166 585 / 8.175;
#X obj 1170 609 nbx 5 14 -1e+037 1e+037 0 0 empty empty empty 0 -8
0 10 -262144 -1 -1 0.529783 256;
#X obj 946 294 * 1;
#N canvas -238 463 1360 725 gate_latch 0;
#X obj 118 268 sel 0;
#X obj 183 116 r \$0-latch;
#X obj 120 212 spigot 1;
#X obj 109 323 outlet;
#X obj 202 325 outlet;
#X text 128 340 on;
#X text 205 366 off;
#X obj 177 181 == 0;
#X obj 120 86 inlet;
#X obj 277 172 spigot 0;
#X obj 283 215 sel 0;
#X obj 310 299 tgl 15 0 empty empty empty 17 7 0 10 -262144 -1 -1 0
1;
#X obj 323 249 bng 15 250 50 0 empty empty empty 17 7 0 10 -262144
-1 -1;
#X obj 288 85 inlet;
#X obj 229 255 sel 0;
#X obj 206 233 change 0;
#X connect 0 0 4 0;
#X connect 0 1 3 0;
#X connect 1 0 7 0;
#X connect 1 0 9 1;
#X connect 1 0 15 0;
#X connect 2 0 0 0;
#X connect 7 0 2 1;
#X connect 8 0 2 0;
#X connect 8 0 9 0;
#X connect 9 0 10 0;
#X connect 10 1 12 0;
#X connect 11 0 0 0;
#X connect 12 0 11 0;
#X connect 13 0 2 0;
#X connect 14 0 11 0;
#X connect 15 0 14 0;
#X restore 555 56 pd gate_latch;
#X obj 560 89 bng 15 250 50 0 empty empty empty 17 7 0 10 -262144 -1
-1;
#X obj 607 89 bng 15 250 50 0 empty empty empty 17 7 0 10 -262144 -1
-1;
#X obj 505 19 route \$1 \$2;
#X obj 658 33 route \$1 \$2;
#X connect 2 0 13 0;
#X connect 3 0 11 0;
#X connect 4 0 5 0;
#X connect 4 0 131 0;
#X connect 5 0 7 0;
#X connect 5 0 16 0;
#X connect 6 0 84 0;
#X connect 6 0 129 0;
#X connect 7 0 21 0;
#X connect 8 0 10 0;
#X connect 9 0 8 1;
#X connect 10 0 3 0;
#X connect 10 0 17 0;
#X connect 12 0 13 1;
#X connect 13 0 46 0;
#X connect 14 0 15 0;
#X connect 14 0 32 0;
#X connect 14 0 83 0;
#X connect 15 0 19 0;
#X connect 16 0 15 1;
#X connect 18 0 137 0;
#X connect 19 0 30 0;
#X connect 20 0 6 0;
#X connect 21 0 20 0;
#X connect 22 0 21 0;
#X connect 22 1 20 1;
#X connect 23 0 19 1;
#X connect 25 0 9 0;
#X connect 26 0 27 0;
#X connect 27 1 28 0;
#X connect 28 0 38 0;
#X connect 29 0 39 0;
#X connect 30 0 79 0;
#X connect 31 0 128 1;
#X connect 31 0 130 1;
#X connect 32 0 31 0;
#X connect 34 0 1 0;
#X connect 36 0 35 0;
#X connect 37 0 39 0;
#X connect 38 0 29 0;
#X connect 38 1 37 0;
#X connect 38 2 41 0;
#X connect 39 0 47 0;
#X connect 40 0 47 0;
#X connect 40 0 42 0;
#X connect 41 0 40 0;
#X connect 43 0 125 0;
#X connect 44 0 124 0;
#X connect 45 0 46 1;
#X connect 46 0 34 0;
#X connect 46 0 36 0;
#X connect 47 0 53 0;
#X connect 48 0 49 1;
#X connect 48 0 57 0;
#X connect 49 0 51 0;
#X connect 52 0 42 0;
#X connect 53 0 55 0;
#X connect 55 0 49 0;
#X connect 55 1 52 0;
#X connect 55 2 50 0;
#X connect 55 3 56 0;
#X connect 56 0 58 0;
#X connect 59 0 26 0;
#X connect 59 0 61 0;
#X connect 59 0 153 0;
#X connect 60 0 61 0;
#X connect 60 0 152 0;
#X connect 61 0 62 0;
#X connect 63 0 64 0;
#X connect 64 0 65 1;
#X connect 65 0 67 0;
#X connect 66 0 65 0;
#X connect 66 1 63 0;
#X connect 67 0 69 0;
#X connect 68 0 135 0;
#X connect 69 0 68 0;
#X connect 70 0 4 0;
#X connect 70 0 122 0;
#X connect 71 0 133 0;
#X connect 72 0 73 0;
#X connect 72 0 74 1;
#X connect 73 0 75 1;
#X connect 74 0 75 0;
#X connect 75 0 132 0;
#X connect 77 0 12 0;
#X connect 78 0 77 1;
#X connect 79 0 33 0;
#X connect 79 0 110 0;
#X connect 80 0 33 0;
#X connect 80 0 110 0;
#X connect 81 0 80 1;
#X connect 81 0 82 0;
#X connect 82 0 79 1;
#X connect 83 0 80 0;
#X connect 84 0 127 0;
#X connect 85 0 86 0;
#X connect 86 0 87 0;
#X connect 87 0 88 0;
#X connect 88 0 89 0;
#X connect 89 0 92 0;
#X connect 90 0 93 0;
#X connect 90 0 92 1;
#X connect 91 0 74 0;
#X connect 92 0 74 0;
#X connect 93 0 91 1;
#X connect 95 0 126 0;
#X connect 97 0 99 0;
#X connect 97 1 99 1;
#X connect 98 0 101 0;
#X connect 99 0 100 0;
#X connect 100 0 102 0;
#X connect 101 0 97 0;
#X connect 102 0 103 0;
#X connect 102 0 104 0;
#X connect 102 0 106 0;
#X connect 105 0 34 1;
#X connect 105 1 36 1;
#X connect 107 0 108 0;
#X connect 108 0 77 0;
#X connect 109 0 107 0;
#X connect 110 0 112 0;
#X connect 110 1 113 1;
#X connect 110 1 121 0;
#X connect 111 0 30 1;
#X connect 112 0 113 0;
#X connect 112 0 120 0;
#X connect 113 0 114 0;
#X connect 114 0 12 0;
#X connect 115 0 110 0;
#X connect 116 0 123 0;
#X connect 117 0 116 0;
#X connect 117 1 123 1;
#X connect 118 0 44 0;
#X connect 118 0 45 0;
#X connect 123 0 8 0;
#X connect 124 0 118 0;
#X connect 125 0 137 0;
#X connect 126 0 95 0;
#X connect 126 0 101 0;
#X connect 127 0 128 0;
#X connect 128 0 85 0;
#X connect 129 0 130 0;
#X connect 130 0 91 0;
#X connect 131 0 132 1;
#X connect 132 0 134 0;
#X connect 133 0 134 1;
#X connect 134 0 2 0;
#X connect 135 0 117 0;
#X connect 135 1 66 0;
#X connect 137 0 140 0;
#X connect 137 0 141 0;
#X connect 137 0 142 0;
#X connect 140 0 138 0;
#X connect 142 0 143 0;
#X connect 143 0 144 0;
#X connect 143 0 43 0;
#X connect 144 0 145 0;
#X connect 145 0 146 0;
#X connect 146 0 147 0;
#X connect 147 0 148 0;
#X connect 148 0 22 0;
#X connect 148 0 23 0;
#X connect 148 0 24 0;
#X connect 149 0 150 0;
#X connect 149 1 151 0;
#X connect 150 0 14 0;
#X connect 151 0 109 0;
#X connect 152 0 149 0;
#X connect 153 0 149 1;
