#N canvas -8 -8 1366 725 10;
#X declare -path ./otto/;
#X declare -path ./util/;
#X declare -path ./aptone/;
#X declare -path patchmenu;
#X obj 551 258 declare -path ./otto/;
#X obj 550 239 declare -path ./util/;
#X obj 550 220 declare -path ./aptone/;
#X obj 86 113 declare -path patchmenu;
#X obj 86 294 patchmenu;
#X obj 118 207 s enableSubMenu;
#X obj 86 135 loadbang;
#X msg 86 207 0;
#X obj 86 184 t b b;
#X obj 52 114 bng 15 250 50 0 empty empty empty 17 7 0 10 -262144 -1
-1;
#X msg 44 265 1;
#X obj 44 233 delay 3000;
#X obj 86 159 versioncheck 2;
#X obj 463 197 drums 1;
#X msg 86 323 \; screenLine1 Drums \; screenLine2 Synth \; screenLine3
Sequencer \; screenLine4 Effects \; screenLine5 <-- Home \;;
#X text 640 406 Send to Multi-FX;
#X obj 285 322 throw~ outL;
#X obj 397 313 throw~ outR;
#X obj 318 180 seq_arp/arp 3;
#X obj 318 158 spigot 1;
#X obj 374 129 r midiInGate;
#X obj 303 130 r notes;
#X obj 318 204 aptone/aptone 2;
#X obj 342 263 FX-13/fxwrapper 4;
#X connect 4 0 14 0;
#X connect 6 0 12 0;
#X connect 7 0 4 0;
#X connect 8 0 7 0;
#X connect 8 0 11 0;
#X connect 8 1 5 0;
#X connect 9 0 8 0;
#X connect 10 0 4 0;
#X connect 12 0 8 0;
#X connect 13 0 23 0;
#X connect 18 0 22 0;
#X connect 19 0 18 0;
#X connect 20 0 19 1;
#X connect 21 0 19 0;
#X connect 22 0 23 0;
#X connect 23 0 16 0;
#X connect 23 0 17 0;
