#N canvas 16 68 1362 691 10;
#X declare -path ./util/;
#X declare -path patchmenu;
#X obj 87 92 declare -path ./util/;
#X obj 86 113 declare -path patchmenu;
#X obj 86 294 patchmenu;
#X obj 118 207 s enableSubMenu;
#X obj 86 135 loadbang;
#X msg 86 207 0;
#X obj 86 184 t b b;
#X obj 52 114 bng 15 250 50 0 empty empty empty 17 7 0 10 -262144 -1
-1;
#X msg 44 265 1;
#X obj 44 233 delay 3000;
#X obj 86 159 versioncheck 2;
#X msg 86 323 \; screenLine1 Drums \; screenLine2 Synth \; screenLine3
Sequencer \; screenLine4 Effects \; screenLine5 <-- Home \;;
#X obj 308 351 throw~ outL;
#X obj 452 350 throw~ outR;
#X obj 390 191 seq_arp/arp 3;
#X obj 390 166 spigot 1;
#X obj 448 132 r midiInGate;
#X obj 377 133 r notes;
#X obj 391 221 aptone/aptone 2;
#X obj 325 278 FX-13/fxwrapper 4;
#X obj 281 218 otto/drums 1;
#X text 262 383 each subpatch argument sets which page to use;
#X text 262 383 each subpatch argument sets which page to use;
#X text 506 191 syncs to master_metronome in otto/drums;
#X obj 352 310 quickmute;
#X text 443 314 mute output during slow operations;
#X connect 2 0 11 0;
#X connect 4 0 10 0;
#X connect 5 0 2 0;
#X connect 6 0 5 0;
#X connect 6 0 9 0;
#X connect 6 1 3 0;
#X connect 7 0 6 0;
#X connect 8 0 2 0;
#X connect 10 0 6 0;
#X connect 14 0 18 0;
#X connect 15 0 14 0;
#X connect 16 0 15 1;
#X connect 17 0 15 0;
#X connect 18 0 19 0;
#X connect 19 0 24 0;
#X connect 19 1 24 1;
#X connect 20 0 19 0;
#X connect 24 0 12 0;
#X connect 24 1 13 0;
