#N canvas 5 80 1362 691 10;
#X declare -path ./otto/;
#X declare -path ./arp/;
#X declare -path ./util/;
#X declare -path ./aptone/;
#X declare -path patchmenu;
#N canvas 0 50 1276 691 audioIO 0;
#X restore 489 45 pd audioIO;
#N canvas 0 50 1366 725 MIDI 0;
#X obj 449 195 spigot 1;
#X obj 523 143 r midiInGate;
#X obj 1285 204 spigot 1;
#X obj 1373 160 r midiInGate;
#X obj 1285 153 ctlin 64 1;
#X obj 1285 301 s fs;
#X obj 1285 234 >= 64;
#X obj 1285 266 change;
#X obj 1478 214 spigot 1;
#X obj 1566 170 r midiInGate;
#X obj 1478 244 t f b;
#X obj 1478 282 / 127;
#X obj 1478 175 change;
#X obj 1478 148 ctlin 26 1;
#X obj 1530 277 s expOverride;
#X obj 1478 304 s exp;
#X obj 509 318 s notes_raw;
#X obj 281 300 r keybd_notes;
#X obj 383 260 r notes_seq;
#X obj 416 312 spigot 1;
#X obj 454 334 s notes_arp_in;
#X obj 450 362 r notes_arp_out;
#X obj 493 405 spigot 0;
#X obj 327 375 spigot 1;
#X obj 609 177 r arp_on;
#X obj 633 367 == 0;
#X obj 618 387 nbx 5 14 -1e+037 1e+037 0 0 empty empty empty 0 -8 0
10 -262144 -1 -1 0 256;
#X obj 452 112 r notes;
#X obj 633 549 s notes_internal;
#X obj 713 369 until;
#X obj 730 314 t b b;
#X msg 729 346 128;
#X msg 723 442 \$1 0;
#X obj 746 422 + 1;
#X msg 763 362 0;
#X obj 732 398 int;
#X obj 672 149 bng 15 250 50 0 empty empty empty 17 7 0 10 -262144
-1 -1;
#X obj 637 227 t b f;
#X text 739 281 zero everything to be safe;
#X connect 0 0 16 0;
#X connect 0 0 19 0;
#X connect 1 0 0 1;
#X connect 2 0 6 0;
#X connect 3 0 2 1;
#X connect 4 0 2 0;
#X connect 6 0 7 0;
#X connect 7 0 5 0;
#X connect 8 0 10 0;
#X connect 9 0 8 1;
#X connect 10 0 11 0;
#X connect 10 1 14 0;
#X connect 11 0 15 0;
#X connect 12 0 8 0;
#X connect 13 0 12 0;
#X connect 17 0 19 0;
#X connect 17 0 16 0;
#X connect 18 0 19 0;
#X connect 19 0 20 0;
#X connect 19 0 23 0;
#X connect 21 0 22 0;
#X connect 22 0 28 0;
#X connect 23 0 28 0;
#X connect 24 0 37 0;
#X connect 25 0 26 0;
#X connect 26 0 23 1;
#X connect 27 0 0 0;
#X connect 29 0 35 0;
#X connect 30 0 31 0;
#X connect 30 1 34 0;
#X connect 31 0 29 0;
#X connect 32 0 28 0;
#X connect 33 0 35 1;
#X connect 34 0 35 1;
#X connect 35 0 33 0;
#X connect 35 0 32 0;
#X connect 36 0 30 0;
#X connect 37 0 30 0;
#X connect 37 1 25 0;
#X connect 37 1 22 1;
#X restore 490 72 pd MIDI;
#X obj 551 258 declare -path ./otto/;
#X obj 555 277 declare -path ./arp/;
#X obj 581 52 arp;
#X obj 550 239 declare -path ./util/;
#X obj 550 220 declare -path ./aptone/;
#X obj 86 113 declare -path patchmenu;
#X obj 86 294 patchmenu;
#X obj 118 207 s enableSubMenu;
#X obj 86 135 loadbang;
#X msg 86 207 0;
#X obj 86 184 t b b;
#X obj 52 114 bng 15 250 50 0 empty empty empty 17 7 0 10 -262144 -1
-1;
#X msg 44 265 1;
#X obj 44 233 delay 3000;
#X obj 86 159 versioncheck 2;
#X obj 543 69 drums 1;
#N canvas 0 50 1362 691 aptone 0;
#X obj 64 94 pack 0 0 0, f 11;
#X obj 47 115 route 1 2 3 4 5 6 7 8, f 81;
#X obj 41 457 loadbang;
#X obj 813 151 i 0, f 5;
#X obj 883 151 + 1;
#X floatatom 813 221 5 0 0 0 - - -, f 5;
#X obj 835 112 sel 1;
#X obj 813 242 s led;
#X text 506 344 smooth knobs 1-3 \, send param updates to screen;
#X text 45 428 screen lines;
#X obj 813 199 + 2;
#X obj 813 13 loadbang;
#X text 914 148 the aux button changes waveform;
#X text 24 19 basic polyphonic patch with 8 voices;
#X text 299 98 aircraft carrier;
#X obj 79 317 bng 15 250 50 0 empty empty empty 17 7 0 10 -262144 -1
-1;
#X obj 356 321 +~;
#X obj 629 111 read_filter;
#X obj 56 180 voice;
#N canvas 0 50 1356 691 mod 0;
#X obj 197 223 textfile;
#X msg 164 191 bang;
#X msg 201 191 rewind;
#X obj 251 252 list split;
#X obj 227 128 nbx 5 14 -1e+037 1e+037 0 0 empty empty empty 0 -8 0
10 -262144 -1 -1 0 256;
#X obj 217 154 t b b b f;
#X obj 169 267 list length;
#X obj 170 291 nbx 5 14 -1e+037 1e+037 0 0 empty empty empty 0 -8 0
10 -262144 -1 -1 217 256;
#X obj 170 115 * 1;
#X obj 318 128 int;
#X obj 161 457 list;
#X msg 254 192 read mod.txt;
#X msg 146 549 3: Mod \$1;
#X obj 248 539 s mod_speed;
#X obj 398 409 s tremolo_depth;
#X obj 307 488 s vibrato_depth;
#X obj 291 70 loadbang;
#X msg 288 95 0;
#X obj 531 131 nbx 5 14 -1e+037 1e+037 0 0 empty empty empty 0 -8 0
10 -262144 -1 -1 0 256;
#X obj 301 220 * 7;
#X obj 278 280 list split 7;
#X obj 169 311 / 7;
#X obj 318 301 unpack s 0 0 0 0 0 0;
#X obj 418 361 s chorus_rate;
#X obj 506 367 s chorus_depth;
#X obj 622 370 s chorus_mix;
#X obj 583 167 nbx 5 14 -1e+037 1e+037 0 0 empty empty empty 0 -8 0
10 -262144 -1 -1 0 256;
#X obj 604 132 nbx 5 14 -1e+037 1e+037 0 0 empty empty empty 0 -8 0
10 -262144 -1 -1 0 256;
#X obj 151 59 inlet;
#X obj 200 606 outlet;
#X connect 0 0 3 0;
#X connect 0 0 6 0;
#X connect 1 0 0 0;
#X connect 2 0 0 0;
#X connect 3 1 20 0;
#X connect 4 0 5 0;
#X connect 5 0 1 0;
#X connect 5 1 2 0;
#X connect 5 2 11 0;
#X connect 5 3 19 0;
#X connect 6 0 7 0;
#X connect 7 0 21 0;
#X connect 8 0 9 0;
#X connect 9 0 4 0;
#X connect 10 0 12 0;
#X connect 11 0 0 0;
#X connect 12 0 29 0;
#X connect 16 0 17 0;
#X connect 17 0 4 0;
#X connect 18 0 23 0;
#X connect 19 0 3 1;
#X connect 20 0 22 0;
#X connect 21 0 8 1;
#X connect 22 0 10 0;
#X connect 22 1 13 0;
#X connect 22 2 15 0;
#X connect 22 3 14 0;
#X connect 22 4 23 0;
#X connect 22 5 24 0;
#X connect 22 6 25 0;
#X connect 26 0 24 0;
#X connect 27 0 25 0;
#X connect 28 0 8 0;
#X restore 942 587 pd mod;
#X obj 807 472 s filt_q;
#X obj 706 485 s filt_cutoff;
#X obj 691 378 nbx 5 14 -1e+037 1e+037 0 0 empty empty empty 0 -8 0
10 -262144 -1 -1 0 256;
#X obj 791 406 nbx 5 14 -1e+037 1e+037 0 0 empty empty empty 0 -8 0
10 -262144 -1 -1 0 256;
#X obj 376 296 freeverb~;
#X obj 451 235 delread~ delayline 800;
#X obj 400 260 *~ 0.5;
#X obj 353 286 +~;
#X obj 899 429 loadbang;
#X msg 880 458 2;
#N canvas 0 146 1356 721 effects 0;
#X obj 209 158 textfile;
#X msg 266 126 read effect.txt;
#X msg 176 126 bang;
#X msg 213 126 rewind;
#X obj 263 187 list split;
#X obj 239 63 nbx 5 14 -1e+037 1e+037 0 0 empty empty empty 0 -8 0
10 -262144 -1 -1 0 256;
#X obj 314 155 * 4;
#X obj 286 215 list split 4;
#X obj 229 89 t b b b f;
#X obj 181 202 list length;
#X obj 182 226 nbx 5 14 -1e+037 1e+037 0 0 empty empty empty 0 -8 0
10 -262144 -1 -1 88 256;
#X obj 181 247 / 4;
#X obj 182 50 * 1;
#X obj 414 438 s delaylen;
#X obj 330 461 s delgain;
#X obj 261 474 s revmix;
#X obj 253 274 unpack s 0 0 0;
#X obj 330 63 int;
#X obj 441 298 print;
#X msg 145 441 4: FX \$1;
#X obj 360 308 nbx 5 14 -1e+037 1e+037 0 0 empty empty empty 0 -8 0
10 -262144 -1 -1 500 256;
#X obj 173 392 list;
#X obj 470 28 loadbang;
#X msg 467 53 0;
#X obj 131 26 inlet;
#X obj 172 491 outlet;
#X connect 0 0 4 0;
#X connect 0 0 9 0;
#X connect 1 0 0 0;
#X connect 2 0 0 0;
#X connect 3 0 0 0;
#X connect 4 1 7 0;
#X connect 5 0 8 0;
#X connect 6 0 4 1;
#X connect 7 0 16 0;
#X connect 7 0 18 0;
#X connect 8 0 2 0;
#X connect 8 1 3 0;
#X connect 8 2 1 0;
#X connect 8 3 6 0;
#X connect 9 0 10 0;
#X connect 10 0 11 0;
#X connect 11 0 12 1;
#X connect 12 0 17 0;
#X connect 16 0 18 0;
#X connect 16 0 21 0;
#X connect 16 1 15 0;
#X connect 16 2 14 0;
#X connect 16 3 13 0;
#X connect 16 3 20 0;
#X connect 17 0 5 0;
#X connect 19 0 25 0;
#X connect 21 0 19 0;
#X connect 22 0 23 0;
#X connect 23 0 5 0;
#X connect 24 0 12 0;
#X restore 744 582 pd effects;
#X obj 465 190 r delaylen;
#X obj 580 215 r delgain;
#X obj 432 318 *~ 0;
#X obj 578 281 r revmix;
#X obj 470 216 nbx 5 14 -1e+037 1e+037 0 0 empty empty empty 0 -8 0
10 -262144 -1 -1 500 256;
#X obj 300 248 *~ 0.35;
#X msg 734 445 8;
#X msg 869 316 Aux: Octave -2;
#X msg 977 259 Aux: Octave -1;
#X msg 1068 306 Aux: Octave 0;
#X msg 1086 229 Aux: Octave +1;
#X obj 1047 496 s tranpose;
#X msg 1003 428 -24;
#X msg 1046 429 -12;
#X msg 1106 423 0;
#X msg 1136 445 12;
#N canvas 0 50 1356 691 env 0;
#X obj 177 180 textfile;
#X msg 144 148 bang;
#X msg 181 148 rewind;
#X obj 231 209 list split;
#X obj 207 85 nbx 5 14 -1e+037 1e+037 0 0 empty empty empty 0 -8 0
10 -262144 -1 -1 0 256;
#X obj 197 111 t b b b f;
#X obj 149 224 list length;
#X obj 150 248 nbx 5 14 -1e+037 1e+037 0 0 empty empty empty 0 -8 0
10 -262144 -1 -1 120 256;
#X obj 150 72 * 1;
#X obj 298 85 int;
#X obj 141 414 list;
#X msg 234 148 read env.txt;
#X obj 229 496 s attack;
#X obj 298 483 s decay;
#X obj 318 443 s sustain;
#X obj 386 407 s envfilt;
#X msg 126 506 2: Env \$1;
#X obj 465 323 s filt_q;
#X obj 458 368 s filt_cutoff;
#X obj 221 298 unpack s 0 0 0 0 0 0 0;
#X obj 149 269 / 8;
#X obj 254 237 list split 8;
#X obj 282 177 * 8;
#X obj 341 460 s release;
#X obj 267 34 loadbang;
#X msg 264 59 0;
#X obj 112 37 inlet;
#X obj 179 583 outlet;
#X connect 0 0 3 0;
#X connect 0 0 6 0;
#X connect 1 0 0 0;
#X connect 2 0 0 0;
#X connect 3 1 21 0;
#X connect 4 0 5 0;
#X connect 5 0 1 0;
#X connect 5 1 2 0;
#X connect 5 2 11 0;
#X connect 5 3 22 0;
#X connect 6 0 7 0;
#X connect 7 0 20 0;
#X connect 8 0 9 0;
#X connect 9 0 4 0;
#X connect 10 0 16 0;
#X connect 11 0 0 0;
#X connect 16 0 27 0;
#X connect 19 0 10 0;
#X connect 19 1 12 0;
#X connect 19 2 13 0;
#X connect 19 3 14 0;
#X connect 19 4 23 0;
#X connect 19 5 15 0;
#X connect 19 6 18 0;
#X connect 19 7 17 0;
#X connect 20 0 8 1;
#X connect 21 0 19 0;
#X connect 22 0 3 1;
#X connect 24 0 25 0;
#X connect 25 0 4 0;
#X connect 26 0 8 0;
#X restore 839 588 pd env;
#X obj 71 72 poly 8, f 11;
#X obj 110 358 delwrite~ chorusline 250;
#X obj 369 356 delwrite~ delayline 2000;
#X obj 403 480 +~ 8;
#X obj 405 427 osc~ 0.5;
#X obj 126 181 voice;
#X obj 197 181 voice;
#X obj 265 186 voice;
#X obj 350 159 voice;
#X obj 420 160 voice;
#X obj 438 165 voice;
#X obj 491 160 voice;
#X obj 421 531 r chorus_mix;
#X obj 483 422 r chorus_depth;
#X obj 447 392 r chorus_rate;
#X obj 406 454 *~ 0;
#X obj 400 554 *~ 0;
#X obj 484 451 * 2;
#X obj 479 473 + 2;
#X obj 870 203 sel 3 4 0 1 2, f 60;
#X msg 1184 251 Aux: Octave +2;
#X msg 1188 426 24;
#X obj 813 177 % 5;
#X obj 398 507 vd~ chorusline;
#X obj 58 44 r notes_internal;
#X obj 213 379 throw~ mixL;
#X obj 324 379 throw~ mixR;
#X obj 771 554 r p2k4;
#X obj 851 562 r p2k2;
#X obj 944 556 r p2k3;
#X obj 588 565 s knob1_apt;
#X obj 595 587 r screenLine1_apt;
#X obj 584 545 r p2k1;
#X obj 603 610 s p2s1;
#X obj 825 610 s p2s2;
#X obj 937 611 s p2s3;
#X obj 985 361 s p2s5;
#X obj 835 50 r p2a;
#X obj 730 608 s p2s4;
#X obj 962 35 r page-ready;
#X obj 970 68 sel 2;
#X obj 875 183 f;
#X connect 0 0 1 0;
#X connect 1 0 15 0;
#X connect 1 0 18 0;
#X connect 1 1 53 0;
#X connect 1 2 54 0;
#X connect 1 3 55 0;
#X connect 1 4 56 0;
#X connect 1 5 57 0;
#X connect 1 6 58 0;
#X connect 1 7 59 0;
#X connect 3 0 4 0;
#X connect 3 0 70 0;
#X connect 4 0 3 1;
#X connect 5 0 7 0;
#X connect 6 0 3 0;
#X connect 10 0 5 0;
#X connect 11 0 3 0;
#X connect 16 0 73 0;
#X connect 16 0 74 0;
#X connect 18 0 36 0;
#X connect 19 0 83 0;
#X connect 22 0 21 0;
#X connect 23 0 20 0;
#X connect 24 0 33 0;
#X connect 25 0 26 0;
#X connect 26 0 27 1;
#X connect 27 0 24 0;
#X connect 27 0 16 0;
#X connect 27 0 50 0;
#X connect 28 0 29 0;
#X connect 28 0 37 0;
#X connect 29 0 20 0;
#X connect 30 0 86 0;
#X connect 31 0 25 0;
#X connect 31 0 35 0;
#X connect 32 0 26 1;
#X connect 33 0 16 1;
#X connect 34 0 33 1;
#X connect 36 0 27 0;
#X connect 36 0 49 0;
#X connect 37 0 21 0;
#X connect 38 0 84 0;
#X connect 39 0 84 0;
#X connect 40 0 84 0;
#X connect 41 0 84 0;
#X connect 43 0 42 0;
#X connect 44 0 42 0;
#X connect 45 0 42 0;
#X connect 46 0 42 0;
#X connect 47 0 82 0;
#X connect 48 0 0 0;
#X connect 48 1 0 1;
#X connect 48 2 0 2;
#X connect 51 0 71 0;
#X connect 52 0 63 0;
#X connect 53 0 36 0;
#X connect 54 0 36 0;
#X connect 55 0 36 0;
#X connect 56 0 36 0;
#X connect 57 0 36 0;
#X connect 58 0 36 0;
#X connect 59 0 36 0;
#X connect 60 0 64 1;
#X connect 61 0 63 1;
#X connect 61 0 65 0;
#X connect 62 0 52 0;
#X connect 63 0 51 0;
#X connect 64 0 27 0;
#X connect 65 0 66 0;
#X connect 66 0 51 1;
#X connect 67 0 38 0;
#X connect 67 0 43 0;
#X connect 67 1 39 0;
#X connect 67 1 44 0;
#X connect 67 2 40 0;
#X connect 67 2 45 0;
#X connect 67 3 41 0;
#X connect 67 3 46 0;
#X connect 67 4 68 0;
#X connect 67 4 69 0;
#X connect 68 0 84 0;
#X connect 69 0 42 0;
#X connect 70 0 10 0;
#X connect 70 0 89 0;
#X connect 71 0 64 0;
#X connect 72 0 48 0;
#X connect 75 0 30 0;
#X connect 76 0 47 0;
#X connect 77 0 19 0;
#X connect 79 0 81 0;
#X connect 80 0 78 0;
#X connect 85 0 6 0;
#X connect 87 0 88 0;
#X connect 88 0 89 0;
#X connect 89 0 67 0;
#X restore 534 145 pd aptone 1;
#X msg 86 323 \; screenLine1 Drums \; screenLine2 Synth \; screenLine3
Sequencer \; screenLine4 Effects \; screenLine5 <-- Home \;;
#N canvas 0 50 1366 725 seq_arp 0;
#X obj 562 158 vsl 15 96 0 1 0 0 arp_type empty empty 0 -9 0 10 -262144
-1 -1 0 1;
#X obj 741 201 tgl 15 0 arp_on empty empty 17 7 0 10 -262144 -1 -1
0 1;
#X text 608 129 ARP;
#X symbolatom 548 266 14 0 0 0 - print_arp print_arp, f 14;
#X obj 644 358 sequencer_mother;
#X obj 575 303 r print_arp;
#X obj 577 325 s p3s2;
#X obj 550 124 r p3k2;
#X obj 669 106 r p3k3;
#X obj 683 170 > 0.5;
#X obj 664 197 sel 0 1;
#X obj 708 273 s p3s3;
#X msg 686 242 Arp Off;
#X msg 742 237 Arp On;
#X symbolatom 17 361 24 0 0 0 - printSeq -, f 24;
#X obj 105 341 bng 15 250 50 0 mseq_rec empty rec 17 7 0 10 -262144
-1 -1;
#X obj 20 342 bng 15 250 50 0 mseq_play empty play/stop 17 7 0 10 -262144
-1 -1;
#X obj 418 97 hradio 15 1 0 8 seq_bars empty bars 0 -8 0 10 -262144
-1 -1 1;
#X text 36 310 sequencer;
#X obj 115 250 f;
#X obj 115 197 sel 1;
#X floatatom 51 193 5 0 0 0 - - -, f 5;
#X obj 52 233 sel 1;
#X obj 102 136 t f f;
#X obj 115 276 sel 1;
#X obj 115 222 del 500;
#X obj 85 80 r p3a;
#X obj 220 258 s p3s5;
#X obj 370 46 r p3k1;
#X obj 369 88 i;
#X obj 370 68 * 16.4;
#X obj 360 140 s p3s1;
#X msg 360 120 Bars \$1;
#X obj 360 102 + 1;
#X obj 205 82 loadbang;
#X obj 198 177 r screenLineSeq;
#X msg 203 147 Sequencer: Stopped;
#X obj 206 103 del 15;
#X msg 769 154 ...;
#X obj 768 118 r p3k4;
#X obj 774 185 s p3s4;
#X obj 218 217 screensave 3;
#X connect 5 0 6 0;
#X connect 7 0 0 0;
#X connect 8 0 9 0;
#X connect 9 0 1 0;
#X connect 9 0 10 0;
#X connect 10 0 12 0;
#X connect 10 1 13 0;
#X connect 12 0 11 0;
#X connect 13 0 11 0;
#X connect 19 0 24 0;
#X connect 20 0 25 0;
#X connect 21 0 22 0;
#X connect 22 0 16 0;
#X connect 23 0 20 0;
#X connect 23 1 19 1;
#X connect 24 0 15 0;
#X connect 25 0 19 0;
#X connect 26 0 21 0;
#X connect 26 0 23 0;
#X connect 28 0 30 0;
#X connect 29 0 33 0;
#X connect 30 0 29 0;
#X connect 32 0 31 0;
#X connect 33 0 32 0;
#X connect 33 0 17 0;
#X connect 34 0 37 0;
#X connect 35 0 41 0;
#X connect 36 0 41 0;
#X connect 37 0 36 0;
#X connect 38 0 40 0;
#X connect 39 0 38 0;
#X connect 41 0 27 0;
#X restore 486 115 pd seq_arp;
#X obj 817 43 FX-13 4;
#X obj 765 74 map-knob 4 1 fx13-4-knob1;
#X obj 767 98 map-knob 4 2 fx13-4-knob2;
#X obj 766 118 map-knob 4 3 fx13-4-knob3;
#X obj 764 146 map-knob 4 4 fx13-4-knob4;
#X text 640 406 Send to Multi-FX;
#X obj 307 482 throw~ outL;
#X obj 456 492 throw~ outR;
#X obj 329 353 catch~ mixL;
#X obj 526 352 catch~ mixR;
#X obj 359 437 *~ 1;
#X obj 448 440 *~ 1;
#X obj 415 386 s~ fx13-4-in;
#X obj 357 412 r~ fx13-4-outL;
#X obj 463 409 r~ fx13-4-outR;
#X obj 1008 112 r page-ready;
#X obj 1008 141 sel 4;
#X msg 1003 178 FX;
#X obj 1000 208 s p4s5;
#X obj 784 205 loadbang;
#X msg 788 250 0;
#X obj 776 277 s fx13-4-knob1;
#X obj 796 226 del 15;
#X text 851 241 seems to need;
#X connect 8 0 19 0;
#X connect 10 0 16 0;
#X connect 11 0 8 0;
#X connect 12 0 11 0;
#X connect 12 0 15 0;
#X connect 12 1 9 0;
#X connect 13 0 12 0;
#X connect 14 0 8 0;
#X connect 16 0 12 0;
#X connect 29 0 33 0;
#X connect 30 0 33 0;
#X connect 31 0 27 0;
#X connect 32 0 28 0;
#X connect 34 0 31 0;
#X connect 35 0 32 0;
#X connect 36 0 37 0;
#X connect 37 0 38 0;
#X connect 38 0 39 0;
#X connect 40 0 43 0;
#X connect 41 0 42 0;
#X connect 43 0 41 0;
