#N canvas 0 50 1276 694 10;
#X obj 562 348 nbx 5 14 -1e+037 1e+037 0 0 empty empty empty 0 -8 0
10 -262144 -1 -1 430 256;
#N canvas 0 50 450 250 (subpatch) 0;
#X array kick 14975 float 2;
#X coords 0 1 14975 -1 200 140 1 0 0;
#X restore 1047 517 graph;
#X obj 762 352 soundfiler;
#X obj 629 104 openpanel;
#X obj 629 88 bng 15 250 50 0 empty empty empty 17 7 0 10 -262144 -1
-1;
#X msg 603 130 read -resize \$1 kick, f 21;
#X obj 87 418 tabplay~ kick;
#X obj 608 228 float;
#X obj 578 283 + 1;
#X obj 563 309 nbx 5 14 -1e+037 1e+037 0 0 empty empty empty 0 -8 0
10 -262144 -1 -1 430 256;
#N canvas 0 50 450 250 (subpatch) 0;
#X array hat 2451 float 2;
#X coords 0 1 2451 -1 200 140 1 0 0;
#X restore 1039 313 graph;
#N canvas 0 50 450 250 (subpatch) 0;
#X array perc 47647 float 2;
#X coords 0 1 47647 -1 200 140 1 0 0;
#X restore 735 477 graph;
#X obj 800 103 openpanel;
#X obj 800 87 bng 15 250 50 0 empty empty empty 17 7 0 10 -262144 -1
-1;
#X msg 801 127 read -resize \$1 hat;
#X obj 966 97 openpanel;
#X obj 966 81 bng 15 250 50 0 empty empty empty 17 7 0 10 -262144 -1
-1;
#X msg 967 121 read -resize \$1 snare;
#X obj 214 421 tabplay~ snare;
#X obj 329 401 tabplay~ hat;
#N canvas 0 50 450 250 (subpatch) 0;
#X array arp_notes 3 float 3;
#A 0 10.3714 6.36429 1.02143;
#X coords 0 0 3 11 200 140 1 0 0;
#X restore 1088 14 graph;
#X obj 590 185 r sixteenths;
#X obj 185 627 throw~ outL;
#X obj 301 622 throw~ outR;
#X obj 293 575 *~ 0.7;
#X obj 546 378 s step;
#X obj 643 347 sel 0;
#X obj 638 392 s newbar;
#X obj 75 279 seq_txt;
#X msg 76 222 symbol kick.txt;
#X obj 81 362 bng 15 250 50 0 empty empty empty 17 7 0 10 -262144 -1
-1;
#X obj 207 363 bng 15 250 50 0 empty empty empty 17 7 0 10 -262144
-1 -1;
#X obj 346 373 bng 15 250 50 0 empty empty empty 17 7 0 10 -262144
-1 -1;
#X msg 202 223 symbol snare.txt;
#X msg 341 233 symbol hat.txt;
#X obj 146 173 loadbang;
#X obj 209 303 route x;
#X obj 213 335 sel 1;
#X obj 85 333 sel 1;
#X obj 351 345 sel 1;
#X obj 76 301 route x;
#X obj 301 318 route x;
#X obj 62 65 r style;
#X msg 52 104 symbol \$1/kick.txt;
#X obj 274 56 r style;
#X obj 431 62 r style;
#X msg 264 95 symbol \$1/snare.txt;
#X msg 421 101 symbol \$1/hat.txt;
#X obj 201 280 seq_txt;
#X obj 340 290 seq_txt;
#X obj 650 280 r reset;
#X msg 613 272 0;
#N canvas 0 50 450 250 (subpatch) 0;
#X array snare 35735 float 2;
#X coords 0 1 35735 -1 200 140 1 0 0;
#X restore 1055 176 graph;
#X obj 920 160 openpanel;
#X obj 920 144 bng 15 250 50 0 empty empty empty 17 7 0 10 -262144
-1 -1;
#X msg 926 244 read -resize \$1 perc;
#X obj 468 259 bng 15 250 50 0 empty empty empty 17 7 0 10 -262144
-1 -1;
#X obj 424 440 tabplay~ perc;
#X obj 469 373 bng 15 250 50 0 empty empty empty 17 7 0 10 -262144
-1 -1;
#X obj 474 345 sel 1;
#X obj 424 318 route x;
#X obj 463 290 seq_txt;
#X obj 462 168 r style;
#X msg 452 207 symbol \$1/perc.txt;
#X msg 876 396 write -wave kick.wav kick;
#X msg 874 349 write -wave hat.wav hat;
#X msg 875 373 write -wave snare.wav snare;
#X msg 883 423 write -wave perc.wav perc;
#X obj 702 19 loadbang;
#X obj 706 45 t b b b b;
#X msg 645 56;
#X msg 723 195 read -resize hat.wav hat;
#X msg 724 219 read -resize snare.wav snare;
#X msg 725 242 read -resize kick.wav kick;
#X msg 732 270 read -resize perc.wav perc;
#X obj 816 31 bng 15 250 50 0 empty empty empty 17 7 0 10 -262144 -1
-1;
#X connect 0 0 25 0;
#X connect 3 0 5 0;
#X connect 4 0 3 0;
#X connect 5 0 2 0;
#X connect 6 0 24 0;
#X connect 7 0 8 0;
#X connect 8 0 9 0;
#X connect 9 0 0 0;
#X connect 9 0 7 1;
#X connect 12 0 14 0;
#X connect 13 0 12 0;
#X connect 14 0 2 0;
#X connect 15 0 17 0;
#X connect 16 0 15 0;
#X connect 17 0 2 0;
#X connect 18 0 24 0;
#X connect 19 0 24 0;
#X connect 21 0 7 0;
#X connect 24 0 22 0;
#X connect 24 0 23 0;
#X connect 26 0 27 0;
#X connect 28 0 40 0;
#X connect 29 0 28 0;
#X connect 30 0 6 0;
#X connect 31 0 18 0;
#X connect 32 0 19 0;
#X connect 33 0 48 0;
#X connect 34 0 49 0;
#X connect 35 0 29 0;
#X connect 35 0 33 0;
#X connect 35 0 34 0;
#X connect 36 1 37 0;
#X connect 37 0 31 0;
#X connect 38 0 30 0;
#X connect 39 0 32 0;
#X connect 40 1 38 0;
#X connect 41 1 39 0;
#X connect 42 0 43 0;
#X connect 43 0 28 0;
#X connect 44 0 46 0;
#X connect 45 0 47 0;
#X connect 46 0 48 0;
#X connect 47 0 49 0;
#X connect 48 0 36 0;
#X connect 49 0 41 0;
#X connect 50 0 51 0;
#X connect 51 0 7 1;
#X connect 53 0 55 0;
#X connect 54 0 53 0;
#X connect 55 0 2 0;
#X connect 56 0 57 0;
#X connect 57 0 24 0;
#X connect 58 0 57 0;
#X connect 59 0 58 0;
#X connect 60 1 59 0;
#X connect 61 0 60 0;
#X connect 62 0 63 0;
#X connect 63 0 61 0;
#X connect 64 0 2 0;
#X connect 65 0 2 0;
#X connect 66 0 2 0;
#X connect 67 0 2 0;
#X connect 68 0 69 0;
#X connect 69 0 71 0;
#X connect 69 1 72 0;
#X connect 69 2 73 0;
#X connect 69 3 74 0;
#X connect 71 0 2 0;
#X connect 72 0 2 0;
#X connect 73 0 2 0;
#X connect 74 0 2 0;
#X connect 75 0 69 0;
