#N canvas 232 50 1356 562 10;
#X obj 579 2 r notes;
#X obj 170 270 unpack 0 0;
#X obj 162 333 pack 0 0 0;
#N canvas 0 50 450 278 (subpatch) 0;
#X array notes-from-poly 8 float 2;
#X coords 0 127 8 0 200 140 1 0 0;
#X restore 886 85 graph;
#X obj 162 414 unpack;
#N canvas 0 50 450 278 (subpatch) 0;
#X array notes-squashed 8 float 3;
#A 0 0 0 0 0 0 0 0 0;
#X coords 0 127 8 0 200 140 1 0 0;
#X restore 885 267 graph;
#N canvas 0 50 450 278 (subpatch) 0;
#X array notes-increasing 8 float 3;
#A 0 0 0 0 0 0 0 0 0;
#X coords 0 127 8 0 200 140 1 0 0;
#X restore 888 643 graph;
#X obj 190 524 s reorder;
#N canvas 133 50 826 699 array-sort 0;
#X obj 263 111 until;
#X obj 263 153 f;
#X obj 296 154 + 1, f 4;
#X msg 321 91 0, f 2;
#X obj 296 21 bng 15 250 50 0 empty empty empty 17 7 0 10 -262144 -1
-1;
#X obj 312 267 f;
#X obj 264 232 t f b;
#X obj 262 182 t f f;
#X obj 249 452 f;
#X floatatom 240 515 5 0 0 0 - - -, f 5;
#X obj 306 399 sel 1;
#X obj 214 485 f;
#X obj 173 537 f;
#X obj 213 553 t b b;
#X obj 323 560 t b f;
#X obj 250 580 f;
#X obj 343 -90 until;
#X obj 344 -46 f;
#X obj 376 -47 + 1, f 4;
#X msg 401 -110 0, f 2;
#X obj 345 -139 t b b;
#X obj 329 -11 t b f;
#X obj 214 -206 r reorder;
#X obj 252 48 t b b b b;
#X msg 314 585 0, f 2;
#X msg 357 89 0;
#X obj 217 333 expr if ($f1 > $f2 \, $f1 \, $f2) \; if ($f1 > $f2 \,
1 \, 0);
#X msg 344 -115 8, f 2;
#X msg 263 83 8, f 2;
#X obj 170 -206 bng 15 250 50 0 empty empty empty 17 7 0 10 -262144
-1 -1;
#X obj 264 210 tabread notes-squashed;
#X obj 314 621 tabwrite notes-squashed;
#X obj 139 648 tabwrite notes-decreasing;
#X text 419 137 sort array a into b. a gets clobbered in the process
probably a much better way to do this ...;
#X obj 204 -173 t b b b;
#X connect 0 0 1 0;
#X connect 1 0 2 0;
#X connect 1 0 7 0;
#X connect 2 0 1 1;
#X connect 3 0 1 1;
#X connect 4 0 23 0;
#X connect 5 0 26 1;
#X connect 6 0 26 0;
#X connect 6 1 5 0;
#X connect 7 0 30 0;
#X connect 7 1 8 1;
#X connect 8 0 11 1;
#X connect 9 0 14 0;
#X connect 10 0 8 0;
#X connect 11 0 9 0;
#X connect 11 0 13 0;
#X connect 12 0 32 0;
#X connect 13 0 12 0;
#X connect 13 1 15 0;
#X connect 14 0 24 0;
#X connect 14 1 31 1;
#X connect 15 0 32 1;
#X connect 16 0 17 0;
#X connect 17 0 18 0;
#X connect 17 0 21 0;
#X connect 18 0 17 1;
#X connect 19 0 17 1;
#X connect 20 0 27 0;
#X connect 20 1 19 0;
#X connect 21 0 4 0;
#X connect 21 1 15 1;
#X connect 22 0 34 0;
#X connect 23 0 11 0;
#X connect 23 1 28 0;
#X connect 23 2 3 0;
#X connect 23 3 25 0;
#X connect 24 0 31 0;
#X connect 25 0 5 1;
#X connect 26 0 5 1;
#X connect 26 0 12 1;
#X connect 26 1 10 0;
#X connect 27 0 16 0;
#X connect 28 0 0 0;
#X connect 29 0 34 0;
#X connect 30 0 6 0;
#X connect 34 2 20 0;
#X restore 767 501 pd array-sort;
#X text 1127 148 array1 is raw data from poly (notes with 0 velocity
are given 0 pitch);
#X text 1102 522 here are the notes sorted...;
#X floatatom 669 563 5 0 0 0 - - -, f 5;
#N canvas 0 50 450 278 (subpatch) 0;
#X array notes-decreasing 8 float 2;
#X coords 0 127 8 0 200 140 1 0 0;
#X restore 886 460 graph;
#N canvas 167 50 726 699 increasing 0;
#X obj 156 260 until;
#X obj 157 304 f;
#X obj 189 303 + 1, f 4;
#X msg 214 240 0, f 2;
#X obj 155 236 f 0;
#X obj 156 357 - 0;
#X obj 157 408 abs;
#X obj 157 326 t f f;
#X obj 266 471 f;
#X obj 156 469 t f b;
#X obj 320 197 r num-down;
#X obj 156 379 + 1;
#X obj 416 331 until;
#X obj 416 373 f;
#X obj 449 374 + 1, f 4;
#X msg 474 311 0, f 2;
#X obj 416 276 t b b;
#X obj 424 398 t b f;
#X msg 415 423 0, f 2;
#X msg 416 303 8, f 2;
#X obj 155 197 t b b b;
#X obj 156 437 tabread notes-decreasing;
#X obj 152 508 tabwrite notes-increasing;
#X obj 413 448 tabwrite notes-increasing;
#X obj 153 67 inlet;
#X connect 0 0 1 0;
#X connect 1 0 2 0;
#X connect 1 0 7 0;
#X connect 2 0 1 1;
#X connect 3 0 1 1;
#X connect 4 0 0 0;
#X connect 5 0 11 0;
#X connect 6 0 21 0;
#X connect 7 0 5 0;
#X connect 7 1 8 1;
#X connect 8 0 22 1;
#X connect 9 0 22 0;
#X connect 9 1 8 0;
#X connect 10 0 4 1;
#X connect 10 0 5 1;
#X connect 11 0 6 0;
#X connect 12 0 13 0;
#X connect 13 0 14 0;
#X connect 13 0 17 0;
#X connect 14 0 13 1;
#X connect 15 0 13 1;
#X connect 16 0 19 0;
#X connect 16 1 15 0;
#X connect 17 0 18 0;
#X connect 17 1 23 1;
#X connect 18 0 23 0;
#X connect 19 0 12 0;
#X connect 20 0 4 0;
#X connect 20 1 3 0;
#X connect 20 2 16 0;
#X connect 21 0 9 0;
#X connect 24 0 20 0;
#X restore 781 599 pd increasing;
#X obj 669 589 s num-down;
#X obj 162 298 poly 8 1, f 10;
#X obj 123 524 s others;
#N canvas 9 50 588 574 format_for_array 0;
#X obj 111 44 inlet;
#X obj 102 128 f;
#X obj 144 151 sel 0;
#X msg 121 188 0;
#X obj 167 181 t b b;
#X obj 137 126 f;
#X obj 79 268 t f b;
#X obj 75 336 pack 0 0;
#X obj 85 75 unpack 0 0 0;
#X obj 41 132 t b f;
#X obj 117 304 f;
#X obj 78 389 outlet;
#X obj 133 274 - 1;
#X text 169 280 array index starts at 0 \, poly index starts at 1;
#X text 223 150 if the velocity is > 0 \, outputs note number. If =
0 \, it outputs 0 for note number;
#X connect 0 0 8 0;
#X connect 1 0 6 0;
#X connect 2 0 3 0;
#X connect 2 1 4 0;
#X connect 3 0 6 0;
#X connect 4 0 1 0;
#X connect 5 0 2 0;
#X connect 6 0 7 0;
#X connect 6 1 10 0;
#X connect 7 0 11 0;
#X connect 8 0 9 0;
#X connect 8 1 1 1;
#X connect 8 2 5 1;
#X connect 9 0 5 0;
#X connect 9 1 12 0;
#X connect 10 0 7 1;
#X connect 12 0 10 1;
#X restore 162 362 pd format_for_array;
#N canvas 7 50 1000 647 array-copy 0;
#X obj 228 194 until;
#X obj 228 236 f;
#X obj 261 237 + 1, f 4;
#X msg 286 174 0, f 2;
#X obj 227 98 bng 15 250 50 0 empty empty empty 17 7 0 10 -262144 -1
-1;
#X obj 406 272 until;
#X obj 406 314 f;
#X obj 439 315 + 1, f 4;
#X msg 464 252 0, f 2;
#X obj 406 217 t b b;
#X obj 414 339 t b f;
#X msg 405 364 0, f 2;
#X obj 227 121 t b b b;
#X msg 228 166 8, f 2;
#X msg 406 244 8, f 2;
#X text 324 97 this removes 0 elements (or actually just moves the
following elements over 1 place);
#X text 508 296 first zero out the destination array;
#X obj 228 258 t f f;
#X obj 227 75 r copy;
#X obj 408 385 tabwrite notes-squashed;
#X obj 229 297 tabread notes-from-poly;
#X obj 247 410 tabwrite notes-squashed;
#X connect 0 0 1 0;
#X connect 1 0 2 0;
#X connect 1 0 17 0;
#X connect 2 0 1 1;
#X connect 3 0 1 1;
#X connect 4 0 12 0;
#X connect 5 0 6 0;
#X connect 6 0 7 0;
#X connect 6 0 10 0;
#X connect 7 0 6 1;
#X connect 8 0 6 1;
#X connect 9 0 14 0;
#X connect 9 1 8 0;
#X connect 10 0 11 0;
#X connect 10 1 19 1;
#X connect 11 0 19 0;
#X connect 12 0 13 0;
#X connect 12 1 3 0;
#X connect 12 2 9 0;
#X connect 13 0 0 0;
#X connect 14 0 5 0;
#X connect 17 0 20 0;
#X connect 17 1 21 1;
#X connect 18 0 4 0;
#X connect 20 0 21 0;
#X restore 764 325 pd array-copy;
#X obj 265 524 s copy;
#X obj 123 614 loadbang;
#X text 1099 685 then increasing;
#X obj 397 524 tabwrite notes-from-poly;
#N canvas 0 50 1276 630 arp 0;
#X msg 964 355 1;
#X text 28 13 Controls Arpeggiation;
#X text 515 96 Sets the Pattern;
#X obj 36 170 master-metronome;
#X obj 36 135 tgl 15 0 empty empty empty 17 7 0 10 -262144 -1 -1 1
1;
#X obj 36 68 loadbang;
#X msg 36 100 1;
#X obj 145 84 r knob1;
#X obj 145 132 + 10;
#X obj 294 232 i;
#X obj 294 254 change -1;
#X obj 36 232 i;
#X obj 36 254 change -1;
#X msg 294 278 \; screenLine1 1: Tempo \$1 BPM \;;
#X msg 22 357 \; screenLine1 1: Tempo \$1 BPM MIDI \;;
#X obj 846 102 sig~;
#X obj 846 124 lop~ 5;
#X obj 846 80 r knob3;
#X obj 846 146 s~ knob3-smooth;
#X obj 779 176 i;
#X obj 779 198 change -1;
#X obj 778 148 * 100;
#X obj 779 259 s screenLine3;
#X msg 780 225 3: Tone \$1;
#X obj 1030 105 * 2000;
#X obj 1030 127 + 20;
#X obj 1138 176 s decay;
#X obj 145 106 * 170;
#X obj 379 206 bng 15 250 50 0 empty empty empty 17 7 0 10 -262144
-1 -1;
#X obj 382 231 s reset;
#X obj 1034 43 loadbang;
#X floatatom 89 -2 5 0 0 0 - - -, f 5;
#X msg 991 53 0.38;
#X connect 3 0 11 0;
#X connect 3 1 9 0;
#X connect 4 0 3 0;
#X connect 5 0 6 0;
#X connect 6 0 4 0;
#X connect 7 0 27 0;
#X connect 8 0 3 1;
#X connect 9 0 10 0;
#X connect 10 0 13 0;
#X connect 11 0 12 0;
#X connect 12 0 14 0;
#X connect 15 0 16 0;
#X connect 16 0 18 0;
#X connect 17 0 15 0;
#X connect 17 0 21 0;
#X connect 19 0 20 0;
#X connect 20 0 23 0;
#X connect 21 0 19 0;
#X connect 23 0 22 0;
#X connect 24 0 25 0;
#X connect 25 0 26 0;
#X connect 27 0 8 0;
#X connect 28 0 29 0;
#X connect 30 0 32 0;
#X connect 32 0 24 0;
#X restore 646 140 pd arp;
#X text 1112 322 array squash pulls out 0 notes. this array gets clobbered
by the sorting function so it always looks blank;
#X obj 162 443 t b b b b f, f 34;
#N canvas 1383 80 533 527 countnotes 0;
#X obj 104 289 > 0;
#X obj 104 316 sel 1;
#X obj 158 352 + 1, f 4;
#X obj 110 353 f 0;
#X obj 141 130 until;
#X obj 142 174 f;
#X obj 174 173 + 1, f 4;
#X msg 319 198 0, f 2;
#X msg 142 105 8, f 2;
#X obj 143 35 r countem;
#X obj 89 395 f 0;
#X obj 89 458 outlet;
#X obj 83 200 t f f;
#X obj 36 244 sel 7;
#X obj 30 313 bng 15 250 50 0 empty empty empty 17 7 0 10 -262144 -1
-1;
#X obj 201 422 print;
#X obj 106 234 tabread notes-from-poly;
#X obj 143 81 t b b;
#X connect 0 0 1 0;
#X connect 1 0 3 0;
#X connect 2 0 3 1;
#X connect 2 0 10 1;
#X connect 3 0 2 0;
#X connect 4 0 5 0;
#X connect 5 0 6 0;
#X connect 5 0 12 0;
#X connect 6 0 5 1;
#X connect 7 0 5 1;
#X connect 7 0 3 1;
#X connect 7 0 10 1;
#X connect 8 0 4 0;
#X connect 9 0 17 0;
#X connect 10 0 11 0;
#X connect 12 0 13 0;
#X connect 12 1 16 0;
#X connect 13 0 10 0;
#X connect 14 0 10 0;
#X connect 16 0 0 0;
#X connect 17 0 8 0;
#X connect 17 1 7 0;
#X restore 669 537 pd countnotes;
#X obj 779 569 r others;
#X obj 319 524 s countem;
#X obj 121 157 sel 1;
#X obj 121 113 r fs;
#X obj 170 127 r aux;
#N canvas 288 50 886 691 latch 0;
#X obj 43 371 latch-notes;
#X obj 263 200 bng 15 250 50 0 empty empty empty 17 7 0 10 -262144
-1 -1;
#X obj 263 232 tgl 15 0 empty empty empty 17 7 0 10 -262144 -1 -1 0
1;
#X obj 173 298 spigot 1;
#X obj 43 298 spigot 0;
#X obj 263 258 == 0;
#X obj 309 312 bng 15 250 50 0 empty empty empty 17 7 0 10 -262144
-1 -1;
#X obj 263 160 t b b, f 7;
#X obj 263 368 sel 0 1;
#X obj 263 134 inlet;
#X obj 43 626 outlet;
#X obj 43 106 inlet;
#X text 311 135 bang enable / disables latch;
#X text 44 53 incoming notes get sent through latch if enabled \, or
directly to output if disabled;
#X msg 286 458 \; screenLine5 Aux / FS: Latch OFF \;;
#X msg 263 579 \; screenLine5 Aux / FS: Latch ON \;;
#X text 323 367 Update Screen & LED;
#X msg 273 545 \; led 2;
#X msg 299 418 \; led 0;
#X connect 0 0 10 0;
#X connect 1 0 2 0;
#X connect 2 0 5 0;
#X connect 2 0 4 1;
#X connect 3 0 10 0;
#X connect 4 0 0 0;
#X connect 5 0 3 1;
#X connect 5 0 8 0;
#X connect 6 0 0 1;
#X connect 7 0 1 0;
#X connect 7 1 6 0;
#X connect 8 0 15 0;
#X connect 8 0 17 0;
#X connect 8 1 14 0;
#X connect 8 1 18 0;
#X connect 9 0 7 0;
#X connect 11 0 4 0;
#X connect 11 0 3 0;
#X restore 162 239 pd latch;
#X msg 123 645 \; screenLine1 1: Tempo \; screenLine2 2: Pattern \;
screenLine3 3: Tone \; screenLine4 4: Decay \; screenLine5 Aux / FS:
Latch OFF \;;
#X obj 593 117 drums;
#N canvas 0 410 1276 651 bass 0;
#X obj 262 601 throw~ outL;
#X obj 344 603 throw~ outR;
#X obj 283 356 nbx 5 14 -1e+037 1e+037 0 0 empty empty empty 0 -8 0
10 -262144 -1 -1 0 256;
#X obj 227 392 > 0;
#X obj 274 518 voice;
#X obj 240 431 sel 0;
#X msg 237 460 0 0;
#X msg 290 466 \$1 100;
#X obj 282 572 +~;
#X obj 281 386 sel 0;
#X obj 362 428 nbx 5 14 -1e+037 1e+037 0 0 empty empty empty 0 -8 0
10 -262144 -1 -1 76 256;
#X obj 590 39 r num-down;
#X obj 491 88 nbx 5 14 -1e+037 1e+037 0 0 empty empty empty 0 -8 0
10 -262144 -1 -1 0 256;
#X obj 319 92 nbx 5 14 -1e+037 1e+037 0 0 empty empty empty 0 -8 0
10 -262144 -1 -1 0 256;
#X obj 476 241 nbx 5 14 -1e+037 1e+037 0 0 empty empty empty 0 -8 0
10 -262144 -1 -1 0 256;
#X obj 481 206 mod;
#X obj 345 157 /;
#X obj 329 208 nbx 5 14 -1e+037 1e+037 0 0 empty empty empty 0 -8 0
10 -262144 -1 -1 0 256;
#X obj 405 170 expr floor($f1);
#X obj 353 289 * 12;
#X obj 383 116 t f f;
#X obj 407 267 tabread notes-increasing;
#X obj 391 324 +;
#X obj 416 414 bng 15 250 50 0 empty empty empty 17 7 0 10 -262144
-1 -1;
#X obj 303 422 - 24;
#X obj 334 231 min 1;
#X obj 333 256 max -1;
#X obj 169 120 route x;
#X msg 200 31 symbol bass.txt;
#X obj 146 30 loadbang;
#X obj 41 57 r style;
#X msg 31 94 symbol \$1/bass.txt;
#X obj 171 82 seq_txt;
#X obj 200 184 s newbar;
#X obj 241 144 sel 0;
#X obj 830 252 nbx 5 14 -1e+037 1e+037 0 0 empty empty empty 0 -8 0
10 -262144 -1 -1 1 256;
#X obj 696 238 route x;
#X obj 698 200 seq_txt;
#X msg 687 134 symbol chord.txt;
#X obj 797 344 bng 15 250 50 0 empty empty empty 17 7 0 10 -262144
-1 -1;
#X obj 713 443 until 0;
#X obj 729 402 float;
#X obj 692 551 tabread notes-increasing;
#X obj 708 617 nbx 5 14 -1e+037 1e+037 0 0 empty empty empty 0 -8 0
10 -262144 -1 -1 79 256;
#X obj 782 370 t b b;
#X msg 866 480 0;
#X obj 707 482 float;
#X obj 729 504 + 1;
#X obj 769 533 nbx 5 14 -1e+037 1e+037 0 0 empty empty empty 0 -8 0
10 -262144 -1 -1 1 256;
#X obj 921 596 print;
#N canvas 583 134 545 542 chord 0;
#X text 312 391 final gain adjustment;
#X obj 166 237 route 1 2 3 4 5 6, f 34;
#X obj 395 273 voice;
#X obj 240 273 voice;
#X obj 137 273 voice;
#X obj 291 273 voice;
#X obj 343 273 voice;
#X obj 190 273 voice;
#X obj 147 143 poly 6;
#X obj 154 190 pack 0 0 0;
#X obj 151 27 inlet;
#X msg 94 108 \$1 100;
#X obj 243 46;
#X obj 234 82 bng 15 250 50 0 empty empty empty 17 7 0 10 -262144 -1
-1;
#X obj 151 230 bng 15 250 50 0 empty empty empty 17 7 0 10 -262144
-1 -1;
#X obj 162 83 t f f;
#X msg 159 113 \$1 0;
#X obj 225 468 throw~ outL;
#X obj 307 470 throw~ outR;
#X obj 320 391;
#X obj 259 392 *~ 0.15;
#X connect 1 0 4 0;
#X connect 1 0 14 0;
#X connect 1 1 7 0;
#X connect 1 2 3 0;
#X connect 1 3 5 0;
#X connect 1 4 6 0;
#X connect 1 5 2 0;
#X connect 2 0 20 0;
#X connect 3 0 20 0;
#X connect 4 0 20 0;
#X connect 5 0 20 0;
#X connect 6 0 20 0;
#X connect 7 0 20 0;
#X connect 8 0 9 0;
#X connect 8 1 9 1;
#X connect 8 2 9 2;
#X connect 9 0 1 0;
#X connect 10 0 13 0;
#X connect 10 0 15 0;
#X connect 11 0 8 0;
#X connect 15 0 16 0;
#X connect 15 1 11 0;
#X connect 16 0 8 0;
#X connect 20 0 17 0;
#X connect 20 0 18 0;
#X restore 720 646 pd chord;
#X obj 827 49 r style;
#X msg 814 86 symbol \$1/chord.txt;
#X obj 703 102 loadbang;
#X obj 763 593 + 0;
#X obj 912 325 * 12;
#X obj 813 154 nbx 5 14 -1e+037 1e+037 0 0 empty empty empty 0 -8 0
10 -262144 -1 -1 3 256;
#X obj 825 304 t b f;
#X obj 279 546 *~ 0.35;
#X obj 258 230 int;
#X obj 284 205 + 50;
#X obj 246 256 - 50;
#X connect 2 0 3 0;
#X connect 2 0 9 0;
#X connect 3 0 5 0;
#X connect 4 0 58 0;
#X connect 5 0 6 0;
#X connect 6 0 4 0;
#X connect 7 0 4 0;
#X connect 8 0 1 0;
#X connect 8 0 0 0;
#X connect 9 1 10 0;
#X connect 9 1 24 0;
#X connect 11 0 12 0;
#X connect 11 0 41 1;
#X connect 12 0 15 1;
#X connect 12 0 16 1;
#X connect 13 0 20 0;
#X connect 14 0 21 0;
#X connect 15 0 14 0;
#X connect 16 0 18 0;
#X connect 16 0 60 0;
#X connect 17 0 25 0;
#X connect 19 0 22 1;
#X connect 20 0 15 0;
#X connect 20 1 16 0;
#X connect 21 0 22 0;
#X connect 22 0 23 0;
#X connect 22 0 2 0;
#X connect 24 0 7 0;
#X connect 25 0 26 0;
#X connect 26 0 19 0;
#X connect 27 1 13 0;
#X connect 28 0 32 0;
#X connect 29 0 28 0;
#X connect 30 0 31 0;
#X connect 31 0 32 0;
#X connect 32 0 27 0;
#X connect 32 1 34 0;
#X connect 34 0 33 0;
#X connect 35 0 57 0;
#X connect 36 1 35 0;
#X connect 37 0 36 0;
#X connect 37 1 56 0;
#X connect 38 0 37 0;
#X connect 39 0 44 0;
#X connect 40 0 46 0;
#X connect 41 0 40 0;
#X connect 42 0 43 0;
#X connect 42 0 54 0;
#X connect 43 0 50 0;
#X connect 44 0 41 0;
#X connect 44 1 45 0;
#X connect 45 0 46 1;
#X connect 46 0 42 0;
#X connect 46 0 47 0;
#X connect 47 0 46 1;
#X connect 47 0 48 0;
#X connect 51 0 52 0;
#X connect 52 0 37 0;
#X connect 53 0 38 0;
#X connect 54 0 43 0;
#X connect 55 0 54 1;
#X connect 57 0 39 0;
#X connect 57 1 55 0;
#X connect 58 0 8 0;
#X connect 59 0 61 0;
#X connect 60 0 59 0;
#X connect 61 0 17 0;
#X restore 592 146 pd bass;
#X obj 559 255 s style;
#X obj 577 193 nbx 5 14 -1e+037 1e+037 0 0 empty empty empty 0 -8 0
10 -262144 -1 -1 0 256;
#X obj 373 253 unpack 0 0;
#X obj 409 310 float;
#X obj 353 302 t f b;
#X obj 366 338 list append;
#X obj 376 368 list trim;
#X obj 367 283 moses 72;
#X obj 739 129 r knob4;
#X obj 780 216 + 72;
#X obj 752 159 - 0.5;
#X obj 718 247 nbx 5 14 -1e+037 1e+037 0 0 empty empty empty 0 -8 0
10 -262144 -1 -1 72 256;
#X obj 785 258 int;
#X obj 769 303 change -1;
#N canvas 0 50 1366 725 lead 0;
#X obj 98 -3 inlet;
#X obj 166 237 route 1 2 3 4 5 6, f 34;
#X obj 147 143 poly 6;
#X obj 154 190 pack 0 0 0;
#X obj 91 432 throw~ outL;
#X obj 147 415 throw~ outR;
#X obj 95 324 leadvoice;
#X obj 248 335 leadvoice;
#X obj 145 339 leadvoice;
#X obj 198 320 leadvoice;
#X obj 342 336 leadvoice;
#X obj 392 351 leadvoice;
#X obj 140 392 *~ 0.135;
#X connect 0 0 2 0;
#X connect 1 0 6 0;
#X connect 1 1 8 0;
#X connect 1 2 9 0;
#X connect 1 3 7 0;
#X connect 1 4 10 0;
#X connect 1 5 11 0;
#X connect 2 0 3 0;
#X connect 2 1 3 1;
#X connect 2 2 3 2;
#X connect 3 0 1 0;
#X connect 6 0 12 0;
#X connect 7 0 12 0;
#X connect 8 0 12 0;
#X connect 9 0 12 0;
#X connect 10 0 12 0;
#X connect 11 0 12 0;
#X connect 12 0 4 0;
#X connect 12 0 5 0;
#X restore 589 37 pd lead;
#X obj 587 330 r knob2;
#X obj 587 374 i;
#X floatatom 587 418 5 0 0 0 - - -, f 5;
#X obj 585 397 change -1;
#X obj 568 458 s style;
#X msg 537 481 \; screenLine2 2: Style \$1 \;;
#X obj 586 353 * 29;
#X obj 402 61 moses 1;
#X obj 478 112 bng 15 250 50 0 empty empty empty 17 7 0 10 -262144
-1 -1;
#X obj 422 104 bng 15 250 50 0 empty empty empty 17 7 0 10 -262144
-1 -1;
#X obj 353 159 float;
#X obj 327 217 list trim;
#X obj 323 133 t f b;
#X obj 316 188 list prepend;
#X obj 470 166 float;
#X obj 444 224 list trim;
#X obj 440 140 t f b;
#X obj 433 195 list prepend;
#X obj 310 266 print;
#X obj 488 52 t l l;
#X msg 499 96 \$1;
#X msg 410 16 \$2;
#X obj 775 191 * 144;
#X msg 687 413 \; screenLine4 4: Split Note \$1 \;;
#X connect 0 0 50 0;
#X connect 0 0 70 0;
#X connect 1 0 15 0;
#X connect 1 1 15 1;
#X connect 2 0 17 0;
#X connect 4 0 25 0;
#X connect 4 1 22 1;
#X connect 11 0 14 0;
#X connect 15 0 2 0;
#X connect 15 1 2 1;
#X connect 15 2 2 2;
#X connect 17 0 4 0;
#X connect 20 0 33 0;
#X connect 25 0 16 0;
#X connect 25 1 7 0;
#X connect 25 2 19 0;
#X connect 25 3 28 0;
#X connect 25 4 22 0;
#X connect 26 0 11 0;
#X connect 27 0 13 0;
#X connect 29 0 32 1;
#X connect 30 0 29 0;
#X connect 31 0 29 0;
#X connect 32 0 1 0;
#X connect 37 0 36 0;
#X connect 38 0 43 0;
#X connect 38 1 39 1;
#X connect 39 0 41 1;
#X connect 40 0 41 0;
#X connect 40 1 39 0;
#X connect 41 0 42 0;
#X connect 42 0 32 0;
#X connect 43 0 40 0;
#X connect 44 0 46 0;
#X connect 45 0 48 0;
#X connect 46 0 73 0;
#X connect 47 0 43 1;
#X connect 47 0 74 0;
#X connect 48 0 49 0;
#X connect 49 0 47 0;
#X connect 51 0 57 0;
#X connect 52 0 54 0;
#X connect 53 0 55 0;
#X connect 53 0 56 0;
#X connect 54 0 53 0;
#X connect 57 0 52 0;
#X connect 58 0 60 0;
#X connect 58 0 63 0;
#X connect 58 1 59 0;
#X connect 58 1 67 0;
#X connect 61 0 64 1;
#X connect 62 0 32 0;
#X connect 62 0 69 0;
#X connect 63 0 64 0;
#X connect 63 1 61 0;
#X connect 64 0 62 0;
#X connect 65 0 68 1;
#X connect 66 0 38 0;
#X connect 67 0 68 0;
#X connect 67 1 65 0;
#X connect 68 0 66 0;
#X connect 70 0 72 0;
#X connect 70 1 71 0;
#X connect 71 0 65 1;
#X connect 71 0 61 1;
#X connect 72 0 58 0;
#X connect 73 0 45 0;
