#N canvas 0 50 1366 725 10;
#X obj 838 448 bng 15 250 50 0 empty empty empty 17 7 0 10 -262144
-1 -1;
#X obj 862 508 qlist;
#X obj 921 413 bng 15 250 50 0 empty empty empty 17 7 0 10 -262144
-1 -1;
#X msg 921 452 rewind;
#X obj 958 555 bng 15 250 50 0 empty empty empty 17 7 0 10 -262144
-1 -1;
#X obj 1068 461 timer;
#X floatatom 1181 584 10 0 0 0 - - -, f 10;
#X obj 1108 335 unpack;
#X obj 1045 584 pack s 0 s 0 0;
#X msg 1030 511 add;
#X obj 1045 623 route list;
#X msg 1114 495 symbol notes_seq_smp;
#X obj 1068 379 t b b b b f;
#X obj 1132 252 spigot 0;
#X obj 1215 166 r recenable_smp;
#X obj 1215 222 tgl 15 0 empty empty empty 17 7 0 10 -262144 -1 -1
0 1;
#X msg 980 466 clear;
#X obj 1265 329 f;
#X obj 1363 333 + 1;
#X obj 1222 302 bng 15 250 50 0 empty empty empty 17 7 0 10 -262144
-1 -1;
#X floatatom 1265 373 5 0 0 0 - - -, f 5;
#X obj 1283 264 sel 1;
#X msg 1283 289 0;
#X obj 1265 408 sel 0;
#X obj 1168 379 t f b;
#X obj 1047 223 bng 15 250 50 0 empty empty empty 17 7 0 10 -262144
-1 -1;
#X msg 1047 248 0 0;
#X floatatom 123 387 5 0 0 0 - - -, f 5;
#X obj 123 418 sel 1;
#X obj 123 477 v state;
#X obj 123 444 bng 15 250 50 0 empty empty empty 17 7 0 10 -262144
-1 -1;
#X obj 98 584 sel 0 1 2 3, f 54;
#X obj 123 775 s start_smp;
#X obj 123 666 t b b;
#X msg 155 701 1;
#X obj 155 723 v state;
#X obj 201 680 t b b;
#X obj 248 699 v state;
#X obj 216 743 s stop_smp;
#X obj 842 306 r start_smp;
#X obj 921 375 r stop_smp;
#X msg 248 677 0;
#X msg 299 507 2;
#X obj 216 561 s recenable_smp;
#X obj 299 672 t b b;
#X obj 342 700 v state;
#X obj 310 745 s stop_smp;
#X msg 342 678 0;
#X obj 463 695 v state;
#X obj 399 665 t b b b;
#X msg 463 673 1;
#X obj 427 720 s end_seq_smp;
#X obj 1027 158 r end_seq_smp;
#X obj 1322 492 v state;
#X msg 1322 470 3;
#X obj 1304 556 s record_smp;
#X msg 1215 193 1;
#X obj 1278 199 r start_smp;
#X obj 1346 197 r stop_smp;
#X msg 1300 233 0;
#X obj 216 469 t b b b;
#X obj 239 534 s stop_smp;
#X obj 404 748 s start_smp;
#X obj 332 87 r start_smp;
#X obj 480 90 r stop_smp;
#X obj 635 88 r recenable_smp;
#X obj 789 87 r record_smp;
#X obj 580 246 send screenLineSeq;
#X obj 558 672 r notes_seq_smp;
#X obj 585 741 bag;
#X msg 599 713 flush;
#X obj 585 765 pack 0 0;
#X obj 583 793 s zero_notes_smp;
#X obj 680 669 r stop_smp;
#X obj 524 149 s led_smp;
#X msg 524 124 0;
#X obj 385 142 s led_smp;
#X obj 864 148 s led_smp;
#X obj 694 147 s led_smp;
#X msg 694 122 6;
#X msg 332 173 Sequencer: Playing;
#X msg 480 175 Sequencer: Stopped;
#X msg 635 173 Sequencer: Enabled;
#X msg 784 172 Sequencer: Recording;
#X text 95 10 uses the backspace button to start_smp / stop_smp / record_smp
a sequence.;
#X msg 385 118 3;
#X msg 864 123 1;
#X text 528 11 states are: 0 = stopped \, 1 = playing \, 2 = rec enabled
\, 3 = recording, f 70;
#X text 317 66 Controls LED & Screen Infomation:;
#X text -16 221 Controls State With Aux Button;
#X text 1016 138 Record Notes To List. First note starts recording.
;
#X text 534 653 Kills notes left on by sequence.;
#N canvas 7 50 1006 691 midi-control 0;
#X obj 95 121 midirealtimein;
#X obj 95 177 sel 248 250 251 252, f 22;
#X obj 260 272 v state;
#X obj 260 239 bng 15 250 50 0 empty empty empty 17 7 0 10 -262144
-1 -1;
#X obj 260 355 t b b;
#X obj 292 412 v state;
#X obj 260 456 s stop_smp;
#X msg 292 390 0;
#X obj 369 364 t b b;
#X obj 401 421 v state;
#X obj 369 466 s stop_smp;
#X msg 401 399 0;
#X obj 541 417 v state;
#X obj 482 368 t b b b;
#X msg 541 395 1;
#X obj 505 442 s end_seq_smp;
#X obj 482 470 s start_smp;
#X obj 260 309 sel 1 2 3, f 37;
#X obj 69 276 v state;
#X obj 69 243 bng 15 250 50 0 empty empty empty 17 7 0 10 -262144 -1
-1;
#X obj 69 313 sel 0 1 2 3, f 12;
#X text 78 509 states are: 0 = stopped \, 1 = playing \, 2 = rec enabled
\, 3 = recording, f 70;
#X obj 69 460 s start_smp;
#X obj 69 351 t b b;
#X msg 101 386 1;
#X obj 101 408 v state;
#X text 262 143 MIDI 248 = clock \; 250 = start_smp \; 251 = continue
\; 252 = stop_smp, f 18;
#X text 23 15 This subpatch handles MIDI commands for starting/stopping
sequencer., f 69;
#X connect 0 0 1 0;
#X connect 1 1 19 0;
#X connect 1 2 19 0;
#X connect 1 3 3 0;
#X connect 2 0 17 0;
#X connect 3 0 2 0;
#X connect 4 0 6 0;
#X connect 4 1 7 0;
#X connect 7 0 5 0;
#X connect 8 0 10 0;
#X connect 8 1 11 0;
#X connect 11 0 9 0;
#X connect 13 0 16 0;
#X connect 13 1 15 0;
#X connect 13 2 14 0;
#X connect 14 0 12 0;
#X connect 17 0 4 0;
#X connect 17 1 8 0;
#X connect 17 2 13 0;
#X connect 18 0 20 0;
#X connect 19 0 18 0;
#X connect 20 0 23 0;
#X connect 23 0 22 0;
#X connect 23 1 24 0;
#X connect 24 0 25 0;
#X restore 113 164 pd midi-control;
#X obj 930 635 t b b;
#X msg 930 679 \; led_smp 7;
#X obj 993 705 v state;
#X obj 993 729 sel 0 1 2 3, f 33;
#X msg 993 756 \; led_smp 0;
#X msg 1050 755 \; led_smp 3;
#X msg 1107 756 \; led_smp 6;
#X msg 1164 756 \; led_smp 1;
#X obj 993 681 delay 100;
#X text 893 795 Flashes LED at loop & sets color after sequence stop_smp
;
#X obj 1266 446 t b b b;
#X msg 1266 569 1;
#X obj 836 345 spigot 0;
#X obj 1267 602 s something-recorded_smp;
#X obj 921 304 r something-recorded_smp;
#X text 865 278 avoid playing 0 len seq;
#X obj 716 403 r tempo_smp;
#X msg 715 434 tempo_smp \$1;
#X obj 1012 192 t b b;
#X obj 525 378 loadbang;
#X obj 523 415 t b b;
#X msg 509 472 1;
#X obj 509 494 s something-recorded_smp;
#X msg 702 305 write ./sequence.txt;
#X msg 553 440 read ./sequence.txt;
#N canvas 4 50 450 300 midi-out 0;
#X obj 99 100 r notes_seq_smp;
#X obj 114 172 noteout 1;
#X obj 114 132 unpack;
#X obj 195 104 r zero_notes_smp;
#X text 120 22 send the sequence out ch 1;
#X connect 0 0 2 0;
#X connect 2 0 1 0;
#X connect 2 1 1 1;
#X connect 3 0 2 0;
#X restore 112 128 pd midi-out;
#X obj 758 674 r quitting;
#X obj 433 265 keyfilter 8;
#X obj 424 346 s backspace;
#X obj 646 531 r notes_seq_smp;
#X obj 707 546 r zero_notes_smp;
#X obj 773 636 r led_smp;
#X obj 187 378 r mseq_play;
#X obj 351 393 r mseq_rec;
#X obj 299 529 v state;
#X obj 330 455 bng 15 250 50 0 empty empty empty 17 7 0 10 -262144
-1 -1;
#X obj 476 310 spigot 1;
#X obj 540 285 r edit_mode;
#X obj 409 464 r step;
#X obj 446 493 nbx 5 14 -1e+037 1e+037 0 0 empty empty empty 0 -8 0
10 -262144 -1 -1 19259 256;
#X obj 421 508 % 16;
#X obj 423 530 sel 0;
#X obj 470 568 s sync;
#X obj 836 216 bng 15 250 50 0 empty empty empty 17 7 0 10 -262144
-1 -1;
#X obj 461 122 bng 15 250 50 0 empty empty empty 17 7 0 10 -262144
-1 -1;
#X obj 871 217 bng 15 250 50 0 empty empty empty 17 7 0 10 -262144
-1 -1;
#X obj 536 574 bng 15 250 50 0 empty empty empty 17 7 0 10 -262144
-1 -1;
#X obj 307 414 r delete;
#X obj 273 156 r tempo;
#X msg 274 202 60;
#X obj 275 179 t b n;
#X obj 277 221 /;
#X obj 267 244 nbx 5 14 -1e+037 1e+037 0 0 empty empty empty 0 -8 0
10 -262144 -1 -1 0.75 256;
#X obj 326 330 * 1;
#X obj 285 314 int;
#X obj 300 367 delay 1000;
#X obj 163 549 bng 15 250 50 0 empty empty empty 17 7 0 10 -262144
-1 -1;
#X obj 1311 524 bng 15 250 50 0 empty empty empty 17 7 0 10 -262144
-1 -1;
#X obj 358 348 nbx 5 14 -1e+037 1e+037 0 0 empty empty empty 0 -8 0
10 -262144 -1 -1 3000 256;
#X obj 396 246 bng 15 250 50 0 empty empty empty 17 7 0 10 -262144
-1 -1;
#X obj 258 343 nbx 5 14 -1e+037 1e+037 0 0 empty empty empty 0 -8 0
10 -262144 -1 -1 3000 256;
#X obj 343 282 t b f;
#X obj 307 290 bng 15 250 50 0 empty empty empty 17 7 0 10 -262144
-1 -1;
#X obj 640 569 s notes_seq;
#X obj 1132 166 r notes_raw;
#X obj 753 740;
#X obj 798 720 until;
#X obj 833 684 t b b;
#X msg 814 697 128;
#X msg 754 794 \$1 0;
#X obj 831 773 + 1;
#X obj 855 665 bng 15 250 50 0 empty empty empty 17 7 0 10 -262144
-1 -1;
#X msg 848 713 0;
#X obj 817 749 int;
#X obj 876 732 nbx 5 14 -1e+037 1e+037 0 0 empty empty empty 0 -8 0
10 -262144 -1 -1 0 256;
#X obj 831 387 t b b;
#X obj 271 270 * 1000;
#X obj 381 219 r seq_beats;
#X obj 372 261 max 1;
#X connect 0 0 1 0;
#X connect 1 1 4 0;
#X connect 2 0 3 0;
#X connect 3 0 1 0;
#X connect 4 0 93 0;
#X connect 4 0 168 0;
#X connect 5 0 6 0;
#X connect 5 0 8 1;
#X connect 7 0 12 0;
#X connect 7 1 24 0;
#X connect 8 0 10 0;
#X connect 9 0 8 0;
#X connect 10 0 1 0;
#X connect 11 0 8 2;
#X connect 12 0 5 0;
#X connect 12 1 9 0;
#X connect 12 2 5 1;
#X connect 12 3 11 0;
#X connect 12 4 8 3;
#X connect 13 0 7 0;
#X connect 14 0 56 0;
#X connect 15 0 13 1;
#X connect 15 0 21 0;
#X connect 16 0 1 0;
#X connect 17 0 18 0;
#X connect 17 0 20 0;
#X connect 18 0 17 1;
#X connect 19 0 17 0;
#X connect 20 0 23 0;
#X connect 21 0 22 0;
#X connect 22 0 17 1;
#X connect 23 0 5 0;
#X connect 23 0 16 0;
#X connect 23 0 103 0;
#X connect 24 0 8 4;
#X connect 24 1 19 0;
#X connect 25 0 26 0;
#X connect 26 0 7 0;
#X connect 27 0 28 0;
#X connect 28 0 30 0;
#X connect 29 0 31 0;
#X connect 30 0 29 0;
#X connect 31 0 33 0;
#X connect 31 1 36 0;
#X connect 31 2 44 0;
#X connect 31 3 49 0;
#X connect 33 0 32 0;
#X connect 33 1 34 0;
#X connect 34 0 35 0;
#X connect 36 0 38 0;
#X connect 36 1 41 0;
#X connect 39 0 105 0;
#X connect 40 0 2 0;
#X connect 41 0 37 0;
#X connect 42 0 127 0;
#X connect 44 0 46 0;
#X connect 44 1 47 0;
#X connect 47 0 45 0;
#X connect 49 0 62 0;
#X connect 49 1 51 0;
#X connect 49 2 50 0;
#X connect 50 0 48 0;
#X connect 52 0 111 0;
#X connect 54 0 53 0;
#X connect 56 0 15 0;
#X connect 57 0 59 0;
#X connect 58 0 59 0;
#X connect 59 0 15 0;
#X connect 60 0 43 0;
#X connect 60 1 61 0;
#X connect 60 2 42 0;
#X connect 63 0 80 0;
#X connect 63 0 85 0;
#X connect 64 0 81 0;
#X connect 64 0 75 0;
#X connect 64 0 137 0;
#X connect 65 0 82 0;
#X connect 65 0 79 0;
#X connect 66 0 83 0;
#X connect 66 0 86 0;
#X connect 68 0 69 0;
#X connect 69 0 71 0;
#X connect 70 0 69 0;
#X connect 71 0 72 0;
#X connect 73 0 70 0;
#X connect 73 0 164 0;
#X connect 75 0 74 0;
#X connect 79 0 78 0;
#X connect 80 0 67 0;
#X connect 81 0 67 0;
#X connect 82 0 67 0;
#X connect 83 0 67 0;
#X connect 83 0 138 0;
#X connect 85 0 76 0;
#X connect 86 0 77 0;
#X connect 93 0 94 0;
#X connect 93 1 101 0;
#X connect 95 0 96 0;
#X connect 96 0 97 0;
#X connect 96 1 98 0;
#X connect 96 2 99 0;
#X connect 96 3 100 0;
#X connect 101 0 95 0;
#X connect 103 0 104 0;
#X connect 103 1 55 0;
#X connect 103 1 150 0;
#X connect 103 2 54 0;
#X connect 104 0 106 0;
#X connect 105 0 168 0;
#X connect 107 0 105 1;
#X connect 109 0 110 0;
#X connect 110 0 1 0;
#X connect 111 0 116 0;
#X connect 111 1 25 0;
#X connect 113 0 114 0;
#X connect 113 1 117 0;
#X connect 114 0 115 0;
#X connect 117 0 1 0;
#X connect 119 0 70 0;
#X connect 120 0 129 0;
#X connect 122 0 156 0;
#X connect 123 0 156 0;
#X connect 125 0 30 0;
#X connect 126 0 128 0;
#X connect 128 0 60 0;
#X connect 129 0 121 0;
#X connect 130 0 129 1;
#X connect 131 0 132 0;
#X connect 132 0 133 0;
#X connect 133 0 134 0;
#X connect 134 0 135 0;
#X connect 134 0 139 0;
#X connect 138 0 148 0;
#X connect 140 0 128 0;
#X connect 141 0 143 0;
#X connect 142 0 144 0;
#X connect 143 0 142 0;
#X connect 143 1 144 1;
#X connect 144 0 145 0;
#X connect 145 0 169 0;
#X connect 146 0 148 1;
#X connect 146 0 151 0;
#X connect 147 0 146 0;
#X connect 147 0 153 0;
#X connect 148 0 30 0;
#X connect 154 0 155 0;
#X connect 154 1 146 1;
#X connect 155 0 147 0;
#X connect 157 0 13 0;
#X connect 159 0 166 0;
#X connect 160 0 161 0;
#X connect 160 1 165 0;
#X connect 161 0 159 0;
#X connect 162 0 72 0;
#X connect 163 0 166 1;
#X connect 164 0 160 0;
#X connect 165 0 166 1;
#X connect 166 0 163 0;
#X connect 166 0 162 0;
#X connect 166 0 167 0;
#X connect 168 0 0 0;
#X connect 168 1 164 0;
#X connect 169 0 147 0;
#X connect 169 0 147 1;
#X connect 170 0 152 0;
#X connect 170 0 171 0;
#X connect 171 0 154 0;
