#N canvas 188 64 1364 641 10;
#X obj 404 291 r knob2;
#X obj 401 362 i;
#X obj 401 438 s screenLine2;
#X obj 42 532 loadbang;
#X obj 401 385 change -1;
#X text 24 19 basic polyphonic patch with 8 voices;
#X obj 38 62 r knob1;
#X obj 408 323 * 100;
#X obj 212 128 r notes;
#X msg 215 152 \$2;
#X obj 215 180 sel 0;
#X obj 279 189 bng 15 250 50 0 empty empty empty 17 7 0 10 -262144
-1 -1;
#X obj 216 471 throw~ outL;
#X obj 306 474 throw~ outR;
#X obj 640 355 s screenLine5;
#X msg 42 556 \; screenLine1 1: Play file \; screenLine2 2: Play Volume
\; screenLine3 3: Rec File \; screenLine4 4: Rec Vol \; screenLine5
Aux: Wave \;;
#X msg 401 412 2: Play Vol \$1;
#X obj 352 334 sig~ 1;
#X obj 352 359 lop~ 5;
#X obj 292 429 *~;
#X obj 91 17;
#X obj 45 227 soundshare/soundshare_play~;
#X msg 273 210 start;
#X obj 241 299 s screenLine1;
#X msg 241 275 1: Play File \$1;
#X obj 275 248 list;
#X obj 1056 43 r knob4;
#X obj 1048 121 i;
#X obj 1048 197 s screenLine4;
#X obj 1048 144 change -1;
#X obj 1049 77 * 100;
#X obj 901 265 catch~ inL;
#X obj 822 246 catch~ inR;
#X obj 934 160 sig~ 1;
#X obj 895 307 *~;
#X obj 934 185 lop~ 5;
#X obj 799 357 throw~ outL;
#X obj 889 360 throw~ outR;
#X msg 1047 172 4: Rec vol \$1;
#X obj 735 171 r aux;
#X obj 662 173 r fs;
#X msg 547 277 3: Rec file \$1;
#X obj 546 321 s screenLine3;
#X obj 550 244 list;
#X obj 543 465 osc~ 220;
#X obj 551 223 soundshare/soundshare_rec~ rec;
#X connect 0 0 7 0;
#X connect 0 0 17 0;
#X connect 1 0 4 0;
#X connect 3 0 15 0;
#X connect 4 0 16 0;
#X connect 6 0 21 0;
#X connect 7 0 1 0;
#X connect 8 0 9 0;
#X connect 9 0 10 0;
#X connect 10 1 11 0;
#X connect 11 0 22 0;
#X connect 16 0 2 0;
#X connect 17 0 18 0;
#X connect 18 0 19 1;
#X connect 19 0 13 0;
#X connect 19 0 12 0;
#X connect 21 0 19 0;
#X connect 21 1 25 0;
#X connect 22 0 21 0;
#X connect 24 0 23 0;
#X connect 25 0 24 0;
#X connect 26 0 30 0;
#X connect 26 0 33 0;
#X connect 27 0 29 0;
#X connect 29 0 38 0;
#X connect 30 0 27 0;
#X connect 31 0 34 0;
#X connect 32 0 34 0;
#X connect 33 0 35 0;
#X connect 34 0 37 0;
#X connect 34 0 36 0;
#X connect 34 0 45 0;
#X connect 35 0 34 1;
#X connect 38 0 28 0;
#X connect 39 0 45 1;
#X connect 40 0 45 1;
#X connect 41 0 42 0;
#X connect 43 0 41 0;
#X connect 44 0 45 0;
#X connect 45 0 43 0;
#X connect 45 1 14 0;
