#N canvas -8 -8 1366 725 10;
#X obj 270 77 stripnote;
#X obj 270 164 % 24;
#X obj 270 138 abs;
#X text 328 198 second argument (key number);
#X obj 269 114 expr if ($f1 > 59 \, $f1 - 60 \, $f1 - 12);
#X obj 270 305 tgl 15 0 empty empty empty 17 7 0 10 -262144 -1 -1 0
1;
#X obj 198 392 spigot;
#X obj 198 497 counter-up 16;
#X obj 252 394 sel 1;
#X obj 256 366 t f f;
#X obj 273 456 i;
#X msg 308 265 0;
#X obj 101 388 sel 1;
#X obj 249 332 t f f;
#X text 338 299 loop the sound the presc;
#X obj 331 353 i;
#X obj 331 378 sel 1;
#X obj 273 606 makenote 100 200;
#X obj 273 581 + 60;
#X obj 273 556 f \$1;
#X obj 270 190 sel \$1;
#X obj 273 640 pack;
#X obj 291 669 spigot 0;
#X obj 270 45 r pb-\$2-notes-in;
#X obj 273 698 s pb-\$2-notes-out;
#X obj 436 607 r pb-\$2-notes-enable;
#X obj 273 527 b;
#X obj 331 400 s pb-\$2-i-am-playing;
#X obj 367 320 r pb-\$2-are-you-playing;
#X obj 308 229 r pb-\$2-cancel;
#X obj 77 469 s pb-\$2-start-metro;
#X obj 9 61 r pb-\$2-ticks;
#X obj 300 424 r pb-\$2-div-local;
#X obj 376 565 r pb-\$2-note-len-local;
#X obj 364 499 r pb-\$2-vel-local;
#X obj 235 424 t b b b;
#X obj 328 537 f 100;
#X obj 332 466 nbx 5 14 -1e+037 1e+037 0 0 empty empty empty 0 -8 0
10 -262144 -1 -1 0 256;
#N canvas 0 50 450 250 (subpatch) 0;
#X array offset-\$1-\$2 24 float 2;
#X coords 0 24 24 0 200 140 1 0 0;
#X restore 771 237 graph;
#N canvas 0 50 450 250 (subpatch) 0;
#X array playing-\$1-\$2 24 float 2;
#X coords 0 1 24 -1 200 140 1;
#X restore 578 22 graph;
#X obj 576 254 i 0;
#X obj 601 173 r \$2-pattern;
#X obj 205 542 nbx 5 14 -1e+037 1e+037 0 0 empty empty empty 0 -8 0
10 -262144 -1 -1 0 256;
#X obj 557 463 tabwrite offset-\$1-\$2;
#N canvas 0 50 450 250 (subpatch) 0;
#X array div-\$1-\$2 24 float 2;
#X coords 0 16 24 0 200 140 1 0 0;
#X restore 819 49 graph;
#X obj 572 574 tabwrite playing-\$1-\$2;
#X obj 568 493 tabwrite div-\$1-\$2;
#X obj 783 502 change -1;
#X obj 807 524 nbx 5 14 -1e+037 1e+037 0 0 empty empty empty 0 -8 0
10 -262144 -1 -1 0 256;
#X obj 794 620 tabread offset-\$1-\$2;
#X obj 752 668 tabread div-\$1-\$2;
#X obj 878 602 tabread playing-\$1-\$2;
#X obj 1012 639 nbx 5 14 -1e+037 1e+037 0 0 empty empty empty 0 -8
0 10 -262144 -1 -1 0 256;
#X obj 691 251 t f f;
#X obj 869 529;
#X obj 884 562 t f f;
#X obj 775 427 change -1;
#X obj 338 97 spigot 1;
#X obj 445 32 r pb-\$2-notegate;
#X obj 245 65 bng 15 250 50 0 empty empty empty 17 7 0 10 -262144 -1
-1;
#X obj 1015 380 s playing-\$1-\$2;
#X obj 1196 147 * 100;
#X obj 1133 37 bng 15 250 50 0 empty empty empty 17 7 0 10 -262144
-1 -1;
#X obj 1194 167 + \$1;
#X obj 1198 127 \$2;
#X obj 1135 380 s offset-\$1-\$2;
#X obj 1218 389 s div-\$1-\$2;
#X msg 1106 190 write playing_\$1.txt;
#X msg 1189 211 write offset_\$1.txt;
#X msg 1236 233 write div_\$1.txt;
#X obj 1138 14 loadbang;
#X obj 1189 55 r quitting;
#X obj 1198 93 bng 15 250 50 0 empty empty empty 17 7 0 10 -262144
-1 -1;
#X obj 1074 232 * 100;
#X obj 1072 252 + \$1;
#X obj 1076 212 \$2;
#X msg 984 275 read playing_\$1.txt;
#X msg 1067 296 read offset_\$1.txt;
#X msg 1114 317 read div_\$1.txt;
#X connect 0 0 57 0;
#X connect 1 0 20 0;
#X connect 2 0 1 0;
#X connect 4 0 2 0;
#X connect 5 0 13 0;
#X connect 5 0 15 1;
#X connect 5 0 45 0;
#X connect 6 0 7 0;
#X connect 7 0 42 0;
#X connect 7 1 26 0;
#X connect 8 0 35 0;
#X connect 9 0 6 1;
#X connect 9 1 8 0;
#X connect 10 0 7 2;
#X connect 10 0 46 0;
#X connect 11 0 5 0;
#X connect 12 0 30 0;
#X connect 13 0 12 0;
#X connect 13 1 9 0;
#X connect 15 0 16 0;
#X connect 16 0 27 0;
#X connect 17 0 21 0;
#X connect 17 1 21 1;
#X connect 18 0 17 0;
#X connect 19 0 18 0;
#X connect 20 0 5 0;
#X connect 21 0 24 0;
#X connect 23 0 0 0;
#X connect 23 0 59 0;
#X connect 25 0 22 1;
#X connect 26 0 19 0;
#X connect 28 0 15 0;
#X connect 29 0 11 0;
#X connect 31 0 6 0;
#X connect 32 0 10 1;
#X connect 32 0 37 0;
#X connect 33 0 17 2;
#X connect 34 0 36 1;
#X connect 35 0 7 1;
#X connect 35 1 10 0;
#X connect 35 2 36 0;
#X connect 36 0 17 1;
#X connect 41 0 40 1;
#X connect 41 0 53 0;
#X connect 42 0 43 0;
#X connect 47 0 48 0;
#X connect 48 0 55 0;
#X connect 49 0 7 3;
#X connect 50 0 10 1;
#X connect 51 0 5 0;
#X connect 51 0 52 0;
#X connect 53 0 47 0;
#X connect 53 1 45 1;
#X connect 53 1 46 1;
#X connect 53 1 43 1;
#X connect 53 1 56 0;
#X connect 55 0 49 0;
#X connect 55 1 51 0;
#X connect 56 0 50 0;
#X connect 57 0 4 0;
#X connect 58 0 57 1;
#X connect 61 0 63 0;
#X connect 62 0 75 0;
#X connect 63 0 67 0;
#X connect 63 0 68 0;
#X connect 63 0 69 0;
#X connect 64 0 61 0;
#X connect 67 0 60 0;
#X connect 68 0 65 0;
#X connect 69 0 66 0;
#X connect 70 0 62 0;
#X connect 71 0 72 0;
#X connect 72 0 64 0;
#X connect 73 0 74 0;
#X connect 74 0 76 0;
#X connect 74 0 77 0;
#X connect 74 0 78 0;
#X connect 75 0 73 0;
#X connect 76 0 60 0;
#X connect 77 0 65 0;
#X connect 78 0 66 0;
