#N canvas 475 96 1366 725 12;
#X obj 156 262 pack 0 50;
#X obj 96 185 pack 0 50;
#X obj 29 298 inlet~;
#X obj 96 211 line~;
#X obj 156 288 line~;
#X obj 99 306 *~;
#X obj 31 443 +~;
#X obj 26 495 outlet~;
#X obj 285 165 r pitch+;
#X obj 188 111 r interval+;
#X obj 101 136 expr $f1 * $f2 + $f3;
#X obj 481 137 r dropoff+;
#X obj 297 63 expr ($i1% 10000) * 0.0002 - 1;
#X obj 297 37 + \$1;
#X obj 376 165 expr exp(-$f1*$f1*$f2);
#X obj 96 159 mtof;
#X text 64 8 our local phase =;
#X text 61 26 overall phase + our;
#X text 60 45 relative phase;
#X text 57 64 (modulo 10000);
#X text 59 81 normalized from -1 to 1;
#X text 349 36 \$1: relative phase;
#X text 9 110 pitch is center pitch;
#X text 16 125 + interval*phase;
#X text 373 194 amplitude is Gaussian \, with;
#X text 321 215 peak width controlled by "dropoff";
#X obj 131 344 *~ 0.25;
#X obj 294 263 nbx 10 14 -1e+037 1e+037 0 0 empty empty empty 0 -8
0 10 -262144 -1 -1 28.22 256;
#X obj 295 285 nearest_note;
#X obj 300 313 nbx 5 14 -1e+037 1e+037 0 0 empty empty empty 0 -8 0
10 -262144 -1 -1 0 256;
#X obj 97 237 lop~ 2;
#X obj 726 341 r shepchord_on;
#X obj 623 451 spigot 0;
#X obj 513 452 spigot 1;
#X obj 696 397 == 0;
#X obj 626 379 > 0;
#X obj 221 197 r lopf;
#X obj 496 489 nbx 5 14 -1e+037 1e+037 0 0 empty empty empty 0 -8 0
10 -262144 -1 -1 28.22 256;
#X obj 679 44 r phase;
#X text 760 23 stagger these phase updates so we dont drop out;
#X obj 77 269 osc~;
#X obj 318 427 > 0;
#X obj 220 436 sig~ 1;
#X obj 186 476 lop~ 10;
#X obj 122 431 *~;
#X connect 0 0 4 0;
#X connect 1 0 3 0;
#X connect 2 0 6 0;
#X connect 3 0 30 0;
#X connect 4 0 5 1;
#X connect 5 0 26 0;
#X connect 6 0 7 0;
#X connect 8 0 10 2;
#X connect 9 0 10 1;
#X connect 10 0 27 0;
#X connect 11 0 14 1;
#X connect 12 0 10 0;
#X connect 12 0 14 0;
#X connect 13 0 12 0;
#X connect 14 0 0 0;
#X connect 15 0 1 0;
#X connect 26 0 44 0;
#X connect 27 0 28 0;
#X connect 27 0 33 0;
#X connect 28 0 29 0;
#X connect 29 0 32 0;
#X connect 30 0 40 0;
#X connect 31 0 34 0;
#X connect 31 0 35 0;
#X connect 32 0 15 0;
#X connect 32 0 37 0;
#X connect 33 0 15 0;
#X connect 33 0 37 0;
#X connect 34 0 33 1;
#X connect 35 0 32 1;
#X connect 36 0 30 1;
#X connect 37 0 41 0;
#X connect 38 0 13 0;
#X connect 40 0 5 0;
#X connect 41 0 42 0;
#X connect 42 0 43 0;
#X connect 43 0 44 1;
#X connect 44 0 6 1;
