#N canvas -51 66 1360 610 12;
#X floatatom 169 520 0 0 0 0 - - -;
#X floatatom 169 446 0 0 0 0 - - -;
#X text 462 208 START;
#X floatatom 190 303 0 0 0 0 - - -;
#X obj 190 280 r incr;
#X obj 168 255 metro 50;
#X floatatom 168 373 5 0 0 0 - - -, f 5;
#X obj 164 400 s phase;
#X obj 168 350 +;
#X obj 169 469 s dropoff+;
#X obj 169 622 s interval+;
#X floatatom 169 599 0 0 0 0 - - -;
#X obj 169 543 s pitch+;
#X obj 169 423 r dropoff;
#X obj 169 497 r pitch;
#X obj 169 576 r interval;
#X obj 168 212 r metro;
#X obj 228 345 f;
#X obj 228 368 mod 10000;
#X obj 168 327 f;
#X obj 168 235 tgl 15 0 empty empty empty 0 -6 0 8 -262144 -1 -1 1
1;
#X text 27 7 SHEPARD TONE;
#X text 339 804 updated for Pd version 0.37;
#X text 25 31 This patch is a bank of 20 sinusoids \, arranged so that
their frequencies sweep upward or downward in parallel \, and their
amplitudes fade in and out so that each one is quiet when it wraps
around from one end to the other. The overall "phase" computed here
is added to each voice's relative phase (its creation argument). The
"incr" parameter controlls how fast the phase changes \, "dropoff"
the slope at which the amplitudes fall off at the ends \, "pitch" the
center pitch of the cluster \, "interval" the number of (tenths of
halftones) between successive voices \, and "rev" and "revtime" the
reverberator at bottom.;
#X obj 50 778 outlet~;
#X obj 159 779 outlet~;
#X obj 351 243 loadbang;
#X obj 311 447 r p\$1k1;
#X obj 339 553 i;
#X obj 325 492 - 0.5;
#X obj 327 523 * 30;
#X obj 334 615 s p\$1s1;
#X msg 342 569 1: vel \$1;
#X obj 397 433 r p\$1k2;
#X obj 517 446 r p\$1k3;
#X obj 608 430 r p\$1k4;
#X msg 442 565 2: dropoff \$1;
#X msg 575 573 3: pitch \$1;
#X msg 714 572 4: interval \$1;
#X obj 440 496 * 20;
#X obj 439 536 + 1;
#X obj 534 524 + 20;
#X obj 696 531 i;
#X obj 676 502 + 10;
#X obj 673 479 * 240;
#X obj 441 603 s p\$1s2;
#X obj 605 625 s p\$1s3;
#X obj 703 601 s p\$1s4;
#X obj 784 120 inlet;
#X obj 752 194 pack 0 0 0, f 11;
#X obj 681 285 s note1;
#X obj 753 287 s note2;
#X obj 827 284 s note3;
#X obj 885 290 s note4;
#X obj 969 96 inlet;
#X obj 977 161 sel 1;
#X obj 992 204 i 0;
#X obj 1001 240 + 1;
#X obj 1017 278 % 2;
#X obj 1025 316 s shepchord_on;
#X obj 1066 238 nbx 5 14 -1e+037 1e+037 0 0 empty empty empty 0 -8
0 10 -262144 -1 -1 0 256;
#X obj 709 551 / 10;
#X obj 535 487 * 80;
#X obj 1056 482 screensave \$1;
#X obj 1043 373 sel 0 1;
#X obj 959 408 loadbang;
#X obj 1064 508 s p\$1s5;
#X msg 1025 442 Normal Mode;
#X msg 1127 435 Harmonic Mode;
#X obj 755 233 route 1 2 3 4 5 6 7 8;
#X obj 12 212 shepvoice 0;
#X obj 813 400 r p\$2k1;
#X obj 928 489 - 1;
#X obj 929 510 abs;
#X obj 930 579 nbx 5 14 -1e+037 1e+037 0 0 empty empty empty 0 -8 0
10 -262144 -1 -1 0 256;
#X obj 931 529 * 20;
#X obj 925 610 s lopf;
#X msg 816 494 1: Glide \$1;
#X obj 761 656 s p\$2s1;
#X msg 1030 569;
#X obj 901 677 s p\$2s3;
#X obj 961 671 s p\$2s4;
#X obj 1002 681 s p\$2s5;
#X obj 671 323 s note5;
#X obj 817 323 s note7;
#X obj 900 326 s note8;
#X obj 743 329 s note6;
#X obj 941 555 + 0.1;
#X obj 1227 693 s p\$2s2;
#X msg 386 281 \; dropoff 1 \; pitch 20 \; interval 10 \; metro 1 \;
rev 84 \; revtime 87 \; incr -15 \;;
#X floatatom 83 708 0 0 0 0 - - -;
#X obj 83 685 r rev;
#X obj 138 685 r revtime;
#X floatatom 138 708 0 0 0 0 - - -;
#X obj 68 734 rev2~;
#X obj 11 235 shepvoice 500;
#X obj 11 259 shepvoice 1000;
#X obj 12 281 shepvoice 1500;
#X obj 12 304 shepvoice 2000;
#X obj 12 327 shepvoice 2500;
#X obj 12 350 shepvoice 3000;
#X obj 12 373 shepvoice 3500;
#X obj 12 396 shepvoice 4000;
#X obj 12 419 shepvoice 4500;
#X obj 12 442 shepvoice 5000;
#X obj 12 465 shepvoice 5500;
#X obj 12 488 shepvoice 6000;
#X obj 12 511 shepvoice 6500;
#X obj 12 534 shepvoice 7000;
#X obj 12 557 shepvoice 7500;
#X obj 12 580 shepvoice 8000;
#X obj 12 603 shepvoice 8500;
#X obj 12 626 shepvoice 9000;
#X obj 12 649 shepvoice 9500;
#X obj 26 678 hip~ 30;
#X obj 758 154 poly 8, f 11;
#X connect 0 0 12 0;
#X connect 1 0 9 0;
#X connect 3 0 19 1;
#X connect 4 0 3 0;
#X connect 5 0 19 0;
#X connect 6 0 7 0;
#X connect 8 0 17 0;
#X connect 8 0 6 0;
#X connect 11 0 10 0;
#X connect 13 0 1 0;
#X connect 14 0 0 0;
#X connect 15 0 11 0;
#X connect 16 0 20 0;
#X connect 17 0 18 0;
#X connect 18 0 8 1;
#X connect 19 0 8 0;
#X connect 20 0 5 0;
#X connect 26 0 89 0;
#X connect 27 0 29 0;
#X connect 28 0 19 1;
#X connect 28 0 32 0;
#X connect 29 0 30 0;
#X connect 30 0 28 0;
#X connect 32 0 31 0;
#X connect 33 0 39 0;
#X connect 34 0 62 0;
#X connect 35 0 44 0;
#X connect 36 0 45 0;
#X connect 37 0 46 0;
#X connect 38 0 47 0;
#X connect 39 0 40 0;
#X connect 40 0 36 0;
#X connect 40 0 1 0;
#X connect 41 0 37 0;
#X connect 41 0 0 0;
#X connect 42 0 11 0;
#X connect 42 0 61 0;
#X connect 43 0 42 0;
#X connect 44 0 43 0;
#X connect 48 0 115 0;
#X connect 49 0 69 0;
#X connect 54 0 55 0;
#X connect 55 0 56 0;
#X connect 56 0 57 0;
#X connect 57 0 58 0;
#X connect 58 0 56 1;
#X connect 58 0 60 0;
#X connect 58 0 59 0;
#X connect 58 0 64 0;
#X connect 61 0 38 0;
#X connect 62 0 41 0;
#X connect 63 0 66 0;
#X connect 64 0 67 0;
#X connect 64 1 68 0;
#X connect 65 0 67 0;
#X connect 67 0 63 0;
#X connect 68 0 63 0;
#X connect 69 0 50 0;
#X connect 69 1 51 0;
#X connect 69 2 52 0;
#X connect 69 3 53 0;
#X connect 69 4 83 0;
#X connect 69 5 86 0;
#X connect 69 6 84 0;
#X connect 69 7 85 0;
#X connect 70 0 95 0;
#X connect 71 0 72 0;
#X connect 71 0 77 0;
#X connect 71 0 79 0;
#X connect 72 0 73 0;
#X connect 73 0 75 0;
#X connect 74 0 76 0;
#X connect 75 0 87 0;
#X connect 77 0 78 0;
#X connect 79 0 82 0;
#X connect 79 0 81 0;
#X connect 79 0 80 0;
#X connect 79 0 88 0;
#X connect 87 0 74 0;
#X connect 90 0 94 1;
#X connect 91 0 90 0;
#X connect 92 0 93 0;
#X connect 93 0 94 2;
#X connect 94 0 24 0;
#X connect 94 1 25 0;
#X connect 95 0 96 0;
#X connect 96 0 97 0;
#X connect 97 0 98 0;
#X connect 98 0 99 0;
#X connect 99 0 100 0;
#X connect 100 0 101 0;
#X connect 101 0 102 0;
#X connect 102 0 103 0;
#X connect 103 0 104 0;
#X connect 104 0 105 0;
#X connect 105 0 106 0;
#X connect 106 0 107 0;
#X connect 107 0 108 0;
#X connect 108 0 109 0;
#X connect 109 0 110 0;
#X connect 110 0 111 0;
#X connect 111 0 112 0;
#X connect 112 0 113 0;
#X connect 113 0 114 0;
#X connect 114 0 24 0;
#X connect 114 0 25 0;
#X connect 114 0 94 0;
#X connect 115 0 49 0;
#X connect 115 1 49 1;
#X connect 115 2 49 2;
