#N canvas 80 50 1360 725 10;
#N canvas 0 50 450 250 (subpatch) 0;
#X array array-\$0 529200 float 2;
#X coords 0 1 529200 -1 200 140 1;
#X restore 226 21 graph;
#X obj 73 106 bng 15 250 50 0 empty empty start 17 7 0 10 -262144 -1
-1;
#X obj 364 184 bng 15 250 50 0 empty empty empty 17 7 0 10 -262144
-1 -1;
#X obj 176 260 delay 1000;
#X obj 137 199 timer;
#X obj 156 109 bng 15 250 50 0 empty empty stop 17 7 0 10 -262144 -1
-1;
#X obj 151 264 nbx 5 14 -1e+037 1e+037 0 0 empty empty empty 0 -8 0
10 -262144 -1 -1 1478.82 256;
#X msg 146 149 stop;
#X obj 231 176 t b f;
#X obj 71 49 inlet~;
#X obj 204 602 outlet~;
#X obj 21 222 tabwrite~ array-\$0;
#X obj 766 221 f;
#X obj 766 168 sel 1;
#X floatatom 663 193 5 0 0 0 - - -, f 5;
#X obj 663 224 sel 1;
#X obj 663 250 bng 15 250 50 0 empty empty empty 17 7 0 10 -262144
-1 -1;
#X obj 751 128 t f f;
#X obj 766 247 sel 1;
#X obj 818 221 bng 15 250 50 0 empty empty empty 17 7 0 10 -262144
-1 -1;
#X obj 766 193 del 500;
#X obj 663 79 inlet;
#X text 860 293 current state;
#X obj 683 319 nbx 5 14 -1e+037 1e+037 0 0 empty empty empty 0 -8 0
10 -262144 -1 -1 2 256;
#X obj 639 360 int 0;
#X obj 735 370 int 0;
#X msg 584 490 1;
#X msg 618 486 2;
#X text 900 318 0=idle \, 1=recording \, 2=playing \, 3 stopped;
#X obj 612 415 sel 0 1 2 3;
#X obj 764 425 sel 0 1 2 3;
#X msg 649 487 3;
#X msg 683 495 2;
#X msg 848 491 0;
#X msg 452 449 stop;
#X obj 783 313 bng 15 250 50 0 empty empty empty 17 7 0 10 -262144
-1 -1;
#X obj 98 300 delay 12000;
#X msg 109 278 stop;
#X obj 810 603 outlet;
#X msg 815 550 looper idle;
#X msg 477 542 looper recording;
#X msg 600 544 looper playing;
#X msg 697 539 looper stopped;
#X obj 351 255 tabplay~ array-\$0;
#X obj 500 115 vlin;
#X obj 325 476 vline~;
#X obj 251 494 *~;
#X obj 267 292 delay 998;
#X obj 236 338 bng 15 250 50 0 empty empty empty 17 7 0 10 -262144
-1 -1;
#X obj 291 257 - 10;
#X msg 324 440 0 10 \, 1 10 10;
#X connect 1 0 4 0;
#X connect 1 0 11 0;
#X connect 1 0 36 0;
#X connect 2 0 3 0;
#X connect 2 0 43 0;
#X connect 2 0 47 0;
#X connect 3 0 2 0;
#X connect 4 0 6 0;
#X connect 5 0 4 1;
#X connect 5 0 7 0;
#X connect 5 0 37 0;
#X connect 6 0 8 0;
#X connect 7 0 11 0;
#X connect 8 0 2 0;
#X connect 8 1 3 1;
#X connect 8 1 49 0;
#X connect 9 0 11 0;
#X connect 12 0 18 0;
#X connect 13 0 20 0;
#X connect 14 0 15 0;
#X connect 15 0 16 0;
#X connect 16 0 24 0;
#X connect 17 0 13 0;
#X connect 17 1 12 1;
#X connect 18 0 35 0;
#X connect 20 0 12 0;
#X connect 20 0 19 0;
#X connect 21 0 14 0;
#X connect 21 0 17 0;
#X connect 23 0 24 1;
#X connect 23 0 25 1;
#X connect 24 0 29 0;
#X connect 25 0 30 0;
#X connect 26 0 23 0;
#X connect 26 0 40 0;
#X connect 27 0 23 0;
#X connect 27 0 41 0;
#X connect 29 0 26 0;
#X connect 29 0 1 0;
#X connect 29 1 27 0;
#X connect 29 1 5 0;
#X connect 29 2 31 0;
#X connect 29 3 32 0;
#X connect 30 2 33 0;
#X connect 30 3 33 0;
#X connect 31 0 23 0;
#X connect 31 0 34 0;
#X connect 31 0 42 0;
#X connect 32 0 23 0;
#X connect 32 0 2 0;
#X connect 32 0 41 0;
#X connect 33 0 23 0;
#X connect 33 0 39 0;
#X connect 33 0 34 0;
#X connect 34 0 3 0;
#X connect 34 0 43 0;
#X connect 35 0 25 0;
#X connect 36 0 16 0;
#X connect 37 0 36 0;
#X connect 39 0 38 0;
#X connect 40 0 38 0;
#X connect 41 0 38 0;
#X connect 42 0 38 0;
#X connect 43 0 46 0;
#X connect 45 0 46 1;
#X connect 46 0 10 0;
#X connect 47 0 50 0;
#X connect 47 0 48 0;
#X connect 49 0 47 1;
#X connect 50 0 45 0;
