#N canvas 9 13 1362 658 10;
#X obj 505 484 nbx 5 14 -1e+037 1e+037 0 0 empty empty empty 0 -8 0
10 -262144 -1 -1 542 256;
#N canvas 0 50 450 250 (subpatch) 0;
#X array kick 14975 float 2;
#X coords 0 1 14975 -1 200 140 1 0 0;
#X restore 1097 189 graph;
#X obj 950 285 soundfiler;
#X obj 629 104 openpanel;
#X obj 629 88 bng 15 250 50 0 empty empty empty 17 7 0 10 -262144 -1
-1;
#X msg 603 130 read -resize \$1 kick, f 21;
#X obj 78 307 tabplay~ kick;
#X obj 510 408 float;
#X obj 519 439 + 1;
#X obj 504 465 nbx 5 14 -1e+037 1e+037 0 0 empty empty empty 0 -8 0
10 -262144 -1 -1 542 256;
#N canvas 0 50 450 250 (subpatch) 0;
#X array hat 2451 float 2;
#X coords 0 1 2451 -1 200 140 1 0 0;
#X restore 1122 215 graph;
#N canvas 0 50 450 250 (subpatch) 0;
#X array perc 47647 float 2;
#X coords 0 1 47647 -1 200 140 1 0 0;
#X restore 1141 241 graph;
#X obj 800 103 openpanel;
#X obj 800 87 bng 15 250 50 0 empty empty empty 17 7 0 10 -262144 -1
-1;
#X msg 780 128 read -resize \$1 hat;
#X obj 966 97 openpanel;
#X obj 966 81 bng 15 250 50 0 empty empty empty 17 7 0 10 -262144 -1
-1;
#X msg 949 125 read -resize \$1 snare;
#X obj 205 310 tabplay~ snare;
#X obj 329 300 tabplay~ hat;
#X obj 495 381 r sixteenths;
#X obj 506 503 s step;
#X obj 79 203 seq_txt;
#X msg 73 173 symbol kick.txt;
#X obj 85 286 bng 15 250 50 0 empty empty empty 17 7 0 10 -262144 -1
-1;
#X obj 211 287 bng 15 250 50 0 empty empty empty 17 7 0 10 -262144
-1 -1;
#X obj 346 272 bng 15 250 50 0 empty empty empty 17 7 0 10 -262144
-1 -1;
#X msg 199 174 symbol snare.txt;
#X msg 347 174 symbol hat.txt;
#X obj 143 124 loadbang;
#X obj 213 227 route x;
#X obj 217 259 sel 1;
#X obj 89 257 sel 1;
#X obj 351 244 sel 1;
#X obj 80 225 route x;
#X obj 356 224 route x;
#X obj 59 46 r style;
#X msg 52 104 symbol \$1/kick.txt;
#X obj 274 44 r style;
#X obj 428 56 r style;
#X msg 259 105 symbol \$1/snare.txt;
#X msg 411 114 symbol \$1/hat.txt;
#X obj 205 204 seq_txt;
#X obj 345 198 seq_txt;
#X obj 562 411 r reset;
#X msg 558 444 0;
#N canvas 0 50 450 250 (subpatch) 0;
#X array snare 35735 float 2;
#X coords 0 1 35735 -1 200 140 1 0 0;
#X restore 1075 166 graph;
#X obj 920 160 openpanel;
#X obj 920 144 bng 15 250 50 0 empty empty empty 17 7 0 10 -262144
-1 -1;
#X msg 907 192 read -resize \$1 perc;
#X obj 430 321 tabplay~ perc;
#X obj 462 286 bng 15 250 50 0 empty empty empty 17 7 0 10 -262144
-1 -1;
#X obj 498 288 sel 1;
#X obj 454 257 route x;
#X obj 456 232 seq_txt;
#X obj 473 149 r style;
#X msg 452 207 symbol \$1/perc.txt;
#X obj 702 19 loadbang;
#X obj 706 45 t b b b b;
#X msg 723 195 read -resize hat.wav hat;
#X msg 724 219 read -resize snare.wav snare;
#X msg 725 242 read -resize kick.wav kick;
#X msg 732 270 read -resize perc.wav perc;
#X obj 816 31 bng 15 250 50 0 empty empty empty 17 7 0 10 -262144 -1
-1;
#X obj 1128 653 master-metronome;
#X obj 1134 619 tgl 15 0 empty empty empty 17 7 0 10 -262144 -1 -1
1 1;
#X obj 1128 551 loadbang;
#X msg 1128 583 1;
#X obj 651 543 bng 15 250 50 0 empty empty empty 17 7 0 10 -262144
-1 -1;
#X obj 654 568 s reset;
#X obj 1237 567 r tempo;
#X obj 982 525 r style_raw;
#X obj 986 546 int;
#X obj 995 660 s style;
#X obj 718 538 int;
#X obj 717 515 r tempo_raw;
#X obj 719 561 s tempo;
#X obj 349 351 r drum_volume;
#X obj 339 368 t f f;
#X obj 333 392 *;
#X obj 564 41 loadbang;
#X obj 564 90 s tempo;
#X msg 562 64 80;
#X obj 251 361 *~ 0;
#X msg 791 322 read -resize ./drums/\$1/hat.wav hat;
#X floatatom 673 343 5 0 0 0 - - -, f 5;
#X obj 844 527 int;
#X obj 841 504 r drumset_raw;
#X obj 846 661 s drumset;
#X obj 607 223 r drumset;
#X obj 608 251 change -1;
#X msg 809 353 read -resize ./drums/\$1/snare.wav snare;
#X msg 810 387 read -resize ./drums/\$1/kick.wav kick;
#X msg 812 421 read -resize ./drums/\$1/perc.wav perc;
#X obj 335 324 *~ 0.75;
#X obj 13 523 vsl 15 96 0 29 0 0 style_raw empty empty 0 -9 0 10 -262144
-1 -1 0 1;
#X obj 105 623 nbx 3 14 -1e+037 1e+037 0 0 empty tempo empty 0 -8 0
10 -262144 -1 -1 80 256;
#X obj 34 594 nbx 2 14 -1e+037 1e+037 0 0 empty style empty 0 -8 0
10 -262144 -1 -1 0 256;
#X text 30 608 style;
#X obj 152 507 vsl 15 96 0 9 0 0 drumset_raw empty empty 0 -9 0 10
-262144 -1 -1 0 1;
#X obj 106 520 vsl 15 96 10 160 0 0 tempo_raw empty empty 0 -9 0 10
-262144 -1 -1 0 1;
#X obj 6 483 * 29.1;
#X msg 32 623 Style: \$1;
#X obj 91 465 * 150, f 6;
#X msg 105 671 Tempo: \$1;
#X msg 219 640 Kit: \$1;
#X obj 164 470 * 9.05;
#X obj 164 447 r p\$1k3;
#X obj 204 695 s p\$1s3;
#X obj 317 674 s p\$1s4;
#X obj 374 607 r p\$1k4;
#X obj 404 672 s drum_volume;
#X msg 321 649 Vol: \$1;
#X obj 211 562 loadbang;
#X msg 142 646 120;
#X msg 246 597 0;
#X floatatom 528 592 5 0 0 0 - - -, f 5;
#X obj 528 570 r page-ready;
#X obj 557 632 sel \$1;
#X obj 508 691 s p\$1s5;
#X obj 602 650 bng 15 250 50 0 empty empty empty 17 7 0 10 -262144
-1 -1;
#X obj 514 622 bng 15 250 50 0 empty empty empty 17 7 0 10 -262144
-1 -1;
#X msg 548 658 Drums;
#X obj 105 491 + 10;
#X obj 870 580 bng 15 250 50 0 empty empty empty 17 7 0 10 -262144
-1 -1;
#X obj 870 620 int;
#X obj 855 554 change -1;
#X obj 889 593 delay 250;
#X obj 204 651 screensave \$1;
#X obj 253 414 outlet~;
#X obj 317 582 r drumset;
#X obj 95 437 r p\$1k1;
#X obj 106 695 s p\$1s1;
#X obj 10 691 s p\$1s2;
#X obj 11 443 r p\$1k2;
#X text 70 21 stagger style reads to help performance on slow disk
access;
#X obj 64 67 pipe 25;
#X obj 264 71 pipe 50;
#X obj 408 84 pipe 75;
#X obj 470 173 pipe 100;
#X obj 1003 593 bng 15 250 50 0 empty empty empty 17 7 0 10 -262144
-1 -1;
#X obj 1003 633 int;
#X obj 988 567 change -1;
#X obj 1021 606 delay 100;
#X obj 557 299 s quickmute;
#X obj 254 385 *~ 1;
#X obj 639 304 pipe 50;
#X msg 566 268 250;
#X obj 19 647 screensave \$1;
#X connect 0 0 21 0;
#X connect 3 0 5 0;
#X connect 4 0 3 0;
#X connect 5 0 2 0;
#X connect 6 0 83 0;
#X connect 7 0 8 0;
#X connect 8 0 9 0;
#X connect 9 0 0 0;
#X connect 9 0 7 1;
#X connect 12 0 14 0;
#X connect 13 0 12 0;
#X connect 14 0 2 0;
#X connect 15 0 17 0;
#X connect 16 0 15 0;
#X connect 17 0 2 0;
#X connect 18 0 83 0;
#X connect 19 0 94 0;
#X connect 20 0 7 0;
#X connect 22 0 34 0;
#X connect 23 0 22 0;
#X connect 24 0 6 0;
#X connect 25 0 18 0;
#X connect 26 0 19 0;
#X connect 27 0 42 0;
#X connect 28 0 43 0;
#X connect 29 0 23 0;
#X connect 29 0 27 0;
#X connect 29 0 28 0;
#X connect 30 1 31 0;
#X connect 31 0 25 0;
#X connect 32 0 24 0;
#X connect 33 0 26 0;
#X connect 34 1 32 0;
#X connect 35 1 33 0;
#X connect 36 0 136 0;
#X connect 37 0 22 0;
#X connect 38 0 137 0;
#X connect 39 0 138 0;
#X connect 40 0 42 0;
#X connect 41 0 43 0;
#X connect 42 0 30 0;
#X connect 43 0 35 0;
#X connect 44 0 45 0;
#X connect 45 0 7 1;
#X connect 47 0 49 0;
#X connect 48 0 47 0;
#X connect 49 0 2 0;
#X connect 50 0 83 0;
#X connect 51 0 50 0;
#X connect 52 0 51 0;
#X connect 53 1 52 0;
#X connect 54 0 53 0;
#X connect 55 0 139 0;
#X connect 56 0 54 0;
#X connect 57 0 58 0;
#X connect 58 0 59 0;
#X connect 58 1 60 0;
#X connect 58 2 61 0;
#X connect 58 3 62 0;
#X connect 59 0 2 0;
#X connect 60 0 2 0;
#X connect 61 0 2 0;
#X connect 62 0 2 0;
#X connect 63 0 58 0;
#X connect 65 0 64 0;
#X connect 66 0 67 0;
#X connect 67 0 65 0;
#X connect 68 0 69 0;
#X connect 70 0 64 1;
#X connect 71 0 72 0;
#X connect 72 0 142 0;
#X connect 74 0 76 0;
#X connect 75 0 74 0;
#X connect 77 0 78 0;
#X connect 78 0 79 0;
#X connect 78 1 79 1;
#X connect 79 0 83 1;
#X connect 80 0 82 0;
#X connect 82 0 81 0;
#X connect 83 0 145 0;
#X connect 84 0 2 0;
#X connect 85 0 84 0;
#X connect 85 0 91 0;
#X connect 85 0 92 0;
#X connect 85 0 93 0;
#X connect 86 0 126 0;
#X connect 87 0 86 0;
#X connect 89 0 90 0;
#X connect 90 0 146 0;
#X connect 90 0 147 0;
#X connect 91 0 2 0;
#X connect 92 0 2 0;
#X connect 93 0 2 0;
#X connect 94 0 83 0;
#X connect 96 0 104 0;
#X connect 97 0 102 0;
#X connect 101 0 95 0;
#X connect 102 0 148 0;
#X connect 103 0 123 0;
#X connect 104 0 132 0;
#X connect 105 0 128 0;
#X connect 106 0 99 0;
#X connect 107 0 106 0;
#X connect 110 0 111 0;
#X connect 110 0 112 0;
#X connect 112 0 109 0;
#X connect 113 0 114 0;
#X connect 113 0 115 0;
#X connect 114 0 104 0;
#X connect 115 0 102 0;
#X connect 115 0 105 0;
#X connect 115 0 112 0;
#X connect 115 0 111 0;
#X connect 116 0 118 0;
#X connect 117 0 116 0;
#X connect 118 0 122 0;
#X connect 118 0 120 0;
#X connect 121 0 122 0;
#X connect 122 0 119 0;
#X connect 123 0 100 0;
#X connect 124 0 127 0;
#X connect 125 0 88 0;
#X connect 126 0 124 0;
#X connect 126 0 125 1;
#X connect 127 0 125 0;
#X connect 128 0 108 0;
#X connect 130 0 105 0;
#X connect 131 0 103 0;
#X connect 134 0 101 0;
#X connect 136 0 37 0;
#X connect 137 0 40 0;
#X connect 138 0 41 0;
#X connect 139 0 56 0;
#X connect 140 0 143 0;
#X connect 141 0 73 0;
#X connect 142 0 140 0;
#X connect 142 0 141 1;
#X connect 143 0 141 0;
#X connect 145 0 129 0;
#X connect 146 0 85 0;
#X connect 147 0 144 0;
#X connect 148 0 133 0;
