#N canvas 374 104 894 726 10;
#X obj 35 494 r grain-size-label;
#X obj 171 494 r grain-spread-label;
#X obj 321 495 r grain-density-label;
#X obj 479 496 r grain-dw-label;
#X obj 31 406 s grain-size;
#X obj 174 403 s grain-spread;
#X obj 307 404 s grain-density;
#X obj 472 407 s grain-dw;
#X obj 411 224 tgl 15 0 empty empty empty 17 7 0 10 -262144 -1 -1 0
1;
#X obj 411 244 s grain-freeze;
#X obj 403 196 sel 1;
#X obj 29 282 r~ grain-outL;
#X obj 140 285 r~ grain-outR;
#X obj 117 185 s~ grain-inL;
#X obj 283 192 s~ grain-inR;
#X obj 29 382 r p\$1k1;
#X obj 167 372 r p\$1k2;
#X obj 299 373 r p\$1k3;
#X obj 465 376 r p\$1k4;
#X obj 36 516 s p\$1s1;
#X obj 170 515 s p\$1s2;
#X obj 319 516 s p\$1s3;
#X obj 477 517 s p\$1s4;
#X obj 403 174 r p\$1a;
#X obj 72 61 inlet~;
#X obj 261 61 inlet~;
#X obj 28 344 outlet~;
#X obj 159 338 outlet~;
#X obj 521 36 GranularFreeze \$1;
#X obj 651 342 loadbang;
#X msg 582 347 0;
#X connect 0 0 19 0;
#X connect 1 0 20 0;
#X connect 2 0 21 0;
#X connect 3 0 22 0;
#X connect 8 0 9 0;
#X connect 10 0 8 0;
#X connect 11 0 26 0;
#X connect 12 0 27 0;
#X connect 15 0 4 0;
#X connect 16 0 5 0;
#X connect 17 0 6 0;
#X connect 18 0 7 0;
#X connect 23 0 10 0;
#X connect 24 0 13 0;
#X connect 25 0 14 0;
#X connect 29 0 30 0;
#X connect 30 0 7 0;
