#N canvas 742 126 894 726 10;
#X obj 117 107 blsaw;
#X obj 189 160 *~;
#X obj 206 102 vline~;
#X obj 206 124 *~;
#X obj 109 31 loadbang;
#X msg 109 53 56;
#X obj 109 75 mtof;
#X obj 201 23 tgl 15 0 empty empty empty 17 7 0 10 -262144 -1 -1 0
1;
#X obj 29 304 throw~ outL;
#X obj 138 303 throw~ outR;
#X obj 29 382 r knob1;
#X obj 35 516 s screenLine1;
#X obj 170 515 s screenLine2;
#X floatatom 44 35 5 0 0 0 - - -, f 5;
#X obj 299 372 r knob3;
#X obj 167 372 r knob2;
#X obj 319 516 s screenLine3;
#X obj 35 494 r grain-size-label;
#X obj 171 494 r grain-spread-label;
#X obj 321 495 r grain-density-label;
#X obj 477 517 s screenLine4;
#X obj 479 496 r grain-dw-label;
#X obj 31 406 s grain-size;
#X obj 174 403 s grain-spread;
#X obj 307 404 s grain-density;
#X obj 472 407 s grain-dw;
#X obj 411 224 tgl 15 0 empty empty empty 17 7 0 10 -262144 -1 -1 1
1;
#X obj 411 244 s grain-freeze;
#X obj 403 174 r aux;
#X obj 403 196 sel 1;
#X obj 465 376 r knob4;
#X obj 29 282 r~ grain-outL;
#X obj 139 281 r~ grain-outR;
#X obj 190 190 s~ grain-inL;
#X obj 283 192 s~ grain-inR;
#X obj 203 58 metro 250;
#X msg 207 80 1 5 \, 0 0 125;
#X obj 521 36 GranularFreeze;
#X connect 0 0 1 0;
#X connect 1 0 33 0;
#X connect 1 0 34 0;
#X connect 2 0 3 0;
#X connect 2 0 3 1;
#X connect 3 0 1 1;
#X connect 4 0 5 0;
#X connect 5 0 6 0;
#X connect 6 0 0 0;
#X connect 7 0 35 0;
#X connect 10 0 22 0;
#X connect 13 0 6 0;
#X connect 14 0 24 0;
#X connect 15 0 23 0;
#X connect 17 0 11 0;
#X connect 18 0 12 0;
#X connect 19 0 16 0;
#X connect 21 0 20 0;
#X connect 26 0 27 0;
#X connect 28 0 29 0;
#X connect 29 0 26 0;
#X connect 30 0 25 0;
#X connect 31 0 8 0;
#X connect 32 0 9 0;
#X connect 35 0 36 0;
#X connect 36 0 2 0;
