#N canvas -8 -8 1366 725 10;
#X obj 213 336 throw~ outL;
#X obj 324 336 throw~ outR;
#X obj 56 75 r notes;
#X obj 56 128 pack 0 0 0, f 11;
#X obj 56 154 route 1 2 3 4 5 6 7 8, f 81;
#X obj 604 495 r knob2;
#X obj 797 490 r knob3;
#X obj 983 487 r knob4;
#X obj 542 591 i;
#X obj 764 550 i;
#X obj 764 525 * 100;
#X obj 957 580 i;
#X obj 542 667 s screenLine2;
#X obj 764 626 s screenLine3;
#X obj 957 656 s screenLine4;
#X obj 42 532 loadbang;
#X obj 860 161 r aux;
#X obj 838 263 i 0, f 5;
#X obj 908 263 + 1;
#X floatatom 838 333 5 0 0 0 - - -, f 5;
#X obj 860 224 sel 1;
#X obj 838 354 s led;
#X text 531 456 smooth knobs 1-3 \, send param updates to screen;
#X text 40 510 screen lines;
#X obj 542 614 change -1;
#X obj 764 573 change -1;
#X obj 957 603 change -1;
#X obj 734 320 s waveform;
#X obj 838 289 % 4;
#X obj 838 311 + 2;
#X obj 838 125 loadbang;
#X text 939 260 the aux button changes waveform;
#X msg 42 555 \; screenLine1 1: Tune \; screenLine2 2: Vibrato Rate
\; screenLine3 3: Vibrato Depth \; screenLine4 4: Decay \; screenLine5
Aux: Wave \;;
#X obj 898 336 sel 0 1 2 3, f 60;
#X obj 1002 398 s screenLine5;
#X obj 898 454 s screenLine5;
#X obj 1093 444 s screenLine5;
#X obj 1210 392 s screenLine5;
#X text 24 19 basic polyphonic patch with 8 voices;
#X obj 935 159 r fs;
#X text 405 132 aircraft carrier;
#X obj 341 591 change -1;
#X obj 404 488 r knob1;
#X obj 341 641 s screenLine1;
#X obj 340 564 i;
#X obj 436 569 s attack;
#X msg 341 617 1: Attack \$1;
#X obj 627 606 s decay;
#X obj 839 574 s sustain;
#X obj 344 533 * 100;
#X obj 549 552 * 100;
#X msg 770 600 3: Sustain \$1;
#X msg 542 641 2: Decay \$1;
#X msg 957 630 4: Folding \$1;
#X obj 958 536 * 100;
#X msg 1002 372 Aux: Tanh Folder;
#X msg 1093 418 Aux: Resonant Saw Folder;
#X obj 56 180 voice;
#X obj 79 317 bng 15 250 50 0 empty empty empty 17 7 0 10 -262144 -1
-1;
#X obj 1082 566 s folding;
#X obj 290 253 lop~ 10000;
#X obj 230 233 *~ 0.3;
#X obj 765 376 loadbang;
#X obj 126 181 voice;
#X obj 197 181 voice;
#X obj 265 186 voice;
#X obj 319 196 voice;
#X obj 388 196 voice;
#X obj 307 290 +~;
#X obj 58 104 poly 6, f 11;
#X msg 898 428 Aux: Sine Folder;
#X msg 1124 364 Aux: Static Sine;
#X connect 2 0 69 0;
#X connect 3 0 4 0;
#X connect 4 0 57 0;
#X connect 4 0 58 0;
#X connect 4 1 63 0;
#X connect 4 2 64 0;
#X connect 4 3 65 0;
#X connect 4 4 66 0;
#X connect 4 5 67 0;
#X connect 5 0 50 0;
#X connect 5 0 47 0;
#X connect 6 0 10 0;
#X connect 6 0 48 0;
#X connect 7 0 54 0;
#X connect 7 0 59 0;
#X connect 8 0 24 0;
#X connect 9 0 25 0;
#X connect 10 0 9 0;
#X connect 11 0 26 0;
#X connect 15 0 32 0;
#X connect 16 0 20 0;
#X connect 17 0 18 0;
#X connect 17 0 28 0;
#X connect 18 0 17 1;
#X connect 19 0 21 0;
#X connect 20 0 17 0;
#X connect 24 0 52 0;
#X connect 25 0 51 0;
#X connect 26 0 53 0;
#X connect 28 0 29 0;
#X connect 28 0 27 0;
#X connect 28 0 33 0;
#X connect 29 0 19 0;
#X connect 30 0 17 0;
#X connect 33 0 70 0;
#X connect 33 1 55 0;
#X connect 33 2 56 0;
#X connect 33 3 71 0;
#X connect 39 0 20 0;
#X connect 41 0 46 0;
#X connect 42 0 45 0;
#X connect 42 0 49 0;
#X connect 44 0 41 0;
#X connect 46 0 43 0;
#X connect 49 0 44 0;
#X connect 50 0 8 0;
#X connect 51 0 13 0;
#X connect 52 0 12 0;
#X connect 53 0 14 0;
#X connect 54 0 11 0;
#X connect 55 0 34 0;
#X connect 56 0 36 0;
#X connect 57 0 61 0;
#X connect 61 0 60 0;
#X connect 61 0 68 0;
#X connect 63 0 61 0;
#X connect 64 0 61 0;
#X connect 65 0 61 0;
#X connect 66 0 61 0;
#X connect 67 0 61 0;
#X connect 68 0 1 0;
#X connect 68 0 0 0;
#X connect 69 0 3 0;
#X connect 69 1 3 1;
#X connect 69 2 3 2;
#X connect 70 0 35 0;
#X connect 71 0 37 0;
