#N canvas 10 50 1276 599 10;
#X text 352 43 note messages;
#X obj 369 93 inlet;
#X obj 317 864 outlet~;
#X text 25 10 synth voice with waveform change;
#X obj 177 507 r waveform;
#X msg 245 629 0;
#X msg 293 711 1;
#X msg 411 710 1;
#X msg 154 715 1;
#X obj 154 613 sel 0 1 2 3;
#X msg 528 717 1;
#X text 166 487 change waveform;
#X obj 150 560 delay 2;
#X obj 164 587 f;
#X obj 179 531 t b a b;
#X obj 132 743 smoothswitch;
#X obj 266 749 smoothswitch;
#X obj 390 742 smoothswitch;
#X obj 501 746 smoothswitch;
#X obj 376 136 unpack 0 0;
#X obj 378 162 mtof;
#X obj 417 441 *~;
#X obj 367 217 sig~;
#X obj 387 357 osc~;
#X obj 718 33 > 1;
#X obj 687 156 sel 1;
#X obj 717 58 sel 0;
#X obj 742 202 nbx 4 14 5 1000 1 0 empty empty attack 0 -8 0 10 -262144
-1 -1 785.156 256;
#X obj 760 296 f;
#X obj 818 228 nbx 4 14 10 10000 1 1 empty empty decay 0 -8 0 10 -262144
-1 -1 2578.13 256;
#X msg 760 319 0 \$1;
#X msg 738 264 1 \$1;
#X obj 760 350 line~;
#X obj 713 237 float;
#X obj 655 401 nbx 4 14 1 1000 1 0 empty empty folding 0 -8 0 10 -262144
-1 -1 20 256;
#X obj 484 358 expr~ $v1*(1-$v2);
#X obj 466 277 expr~ sin(2*3.14159*$v1);
#X obj 479 210 +~;
#X obj 662 491 *~;
#X obj 475 181 phasor~;
#X obj 955 228 nbx 4 14 0.01 1 1 1 empty empty sustain 0 -8 0 10 -262144
-1 -1 0.757813 256;
#X obj 850 159 delay 100;
#X msg 851 342 \$1 \$2;
#X obj 850 295 list;
#X obj 856 267 float;
#X obj 724 123 r attack;
#X obj 821 114 r decay;
#X obj 949 183 r sustain;
#X obj 644 320 r folding;
#X obj 654 349 * 20;
#X obj 211 586 nbx 5 14 -1e+037 1e+037 0 0 empty empty empty 0 -8 0
10 -262144 -1 -1 2 256;
#X obj 401 257 nbx 5 14 -1e+037 1e+037 0 0 empty empty empty 0 -8 0
10 -262144 -1 -1 0 256;
#X obj 315 835 +~;
#X msg 884 82 stop;
#X obj 182 371 loadbang;
#X msg 110 486 1;
#X msg 591 385 10;
#X obj 673 623 *~ 0.5;
#X obj 794 696 *~;
#X obj 795 424;
#X obj 782 451 sig~;
#X obj 746 585 *~;
#X obj 781 489 lop~ 0.5;
#X obj 365 558 expr~ 0.8*tanh(1.2*$v1);
#X obj 730 144 * 1500;
#X obj 822 195 * 3000;
#X obj 558 194 *~;
#X obj 500 248 expr~ ($v1);
#X obj 334 188 / 2;
#X obj 680 443 lop~ 25;
#X obj 751 639 expr~ .8*sin(1*$v1);
#X obj 267 500 expr~ .8*sin(1*$v1);
#X connect 1 0 19 0;
#X connect 4 0 14 0;
#X connect 5 0 15 1;
#X connect 5 0 16 1;
#X connect 5 0 17 1;
#X connect 5 0 18 1;
#X connect 6 0 16 1;
#X connect 7 0 17 1;
#X connect 8 0 15 1;
#X connect 9 0 8 0;
#X connect 9 1 6 0;
#X connect 9 2 7 0;
#X connect 9 3 10 0;
#X connect 10 0 18 1;
#X connect 12 0 13 0;
#X connect 13 0 9 0;
#X connect 13 0 50 0;
#X connect 14 0 12 0;
#X connect 14 1 13 1;
#X connect 14 2 5 0;
#X connect 15 0 52 0;
#X connect 16 0 52 0;
#X connect 17 0 52 0;
#X connect 18 0 52 0;
#X connect 19 0 20 0;
#X connect 19 1 24 0;
#X connect 20 0 68 0;
#X connect 21 0 57 0;
#X connect 21 0 63 0;
#X connect 21 0 71 0;
#X connect 22 0 23 0;
#X connect 22 0 39 0;
#X connect 23 0 21 0;
#X connect 23 0 61 0;
#X connect 24 0 25 0;
#X connect 24 0 26 0;
#X connect 25 0 33 0;
#X connect 25 0 41 0;
#X connect 26 0 28 0;
#X connect 26 0 53 0;
#X connect 27 0 33 1;
#X connect 27 0 41 1;
#X connect 28 0 30 0;
#X connect 29 0 28 1;
#X connect 29 0 43 1;
#X connect 30 0 32 0;
#X connect 31 0 32 0;
#X connect 32 0 69 0;
#X connect 33 0 31 0;
#X connect 34 0 60 0;
#X connect 35 0 17 0;
#X connect 36 0 35 0;
#X connect 37 0 35 1;
#X connect 37 0 66 0;
#X connect 38 0 21 1;
#X connect 38 0 66 1;
#X connect 39 0 37 0;
#X connect 40 0 44 1;
#X connect 41 0 44 0;
#X connect 42 0 32 0;
#X connect 43 0 42 0;
#X connect 44 0 43 0;
#X connect 45 0 64 0;
#X connect 46 0 65 0;
#X connect 47 0 40 0;
#X connect 48 0 49 0;
#X connect 49 0 34 0;
#X connect 52 0 2 0;
#X connect 53 0 41 0;
#X connect 54 0 55 0;
#X connect 54 0 56 0;
#X connect 55 0 14 0;
#X connect 56 0 34 0;
#X connect 58 0 18 0;
#X connect 60 0 62 0;
#X connect 61 0 70 0;
#X connect 62 0 61 1;
#X connect 62 0 38 1;
#X connect 63 0 16 0;
#X connect 64 0 27 0;
#X connect 65 0 29 0;
#X connect 66 0 67 0;
#X connect 67 0 36 0;
#X connect 68 0 22 0;
#X connect 69 0 38 0;
#X connect 69 0 58 1;
#X connect 70 0 58 0;
#X connect 71 0 15 0;
