#N canvas -8 -8 1920 997 10;
#X obj 172 101 folder_list;
#X msg 173 66 symbol ../*;
#X obj 183 126 list;
#X msg 156 184 symbol \$1/*.wav;
#X obj 599 194 folder_list;
#X obj 656 329 + 1;
#X obj 643 290 f 0;
#X obj 593 230 t a b;
#X msg 724 203 0;
#X obj 656 352 nbx 5 14 -1e+037 1e+037 0 0 empty empty empty 0 -8 0
10 -262144 -1 -1 61 256;
#X obj 351 366 + 1;
#X obj 338 327 f 0;
#X msg 399 294 0;
#X obj 351 389 nbx 5 14 -1e+037 1e+037 0 0 empty empty empty 0 -8 0
10 -262144 -1 -1 3 256;
#X obj 593 368 f 0;
#X obj 599 147 t b a b;
#X obj 530 416 >= 24;
#X obj 500 449 sel 1;
#X obj 234 6 bng 15 250 50 0 empty empty empty 17 7 0 10 -262144 -1
-1;
#X obj 393 554 list;
#X obj 180 155 t a a;
#X obj 400 667 print folder;
#X obj 649 421 print num;
#X obj 416 717 list append;
#X obj 435 758 list;
#X obj 596 554 bng 15 250 50 0 empty empty empty 17 7 0 10 -262144
-1 -1;
#X obj 403 908 print list;
#X obj 235 27 t b b b;
#X obj 407 806 list;
#X obj 492 784 s \$0-dirlist;
#X obj 682 785 f 0;
#X obj 611 827 s \$0-dirlen;
#X obj 850 211 r knob1;
#X obj 1228 645 s screenLine1;
#X obj 948 303 bng 15 250 50 0 empty empty empty 17 7 0 10 -262144
-1 -1;
#X obj 956 334 list;
#X obj 901 285 * 1;
#X obj 897 330 int;
#X obj 904 361 change;
#X obj 933 377 t b f;
#X obj 1037 384 list split 1;
#X obj 1026 354 list split 0;
#X msg 1007 406 \$1;
#X obj 1151 420 s2l /;
#X obj 1214 477 list length;
#X obj 1163 450 t a a;
#X obj 1226 499 - 1;
#X obj 1176 531 list split;
#X obj 996 196 r \$0-dirlen;
#X obj 993 261 r \$0-dirlist;
#X obj 470 82 loadbang;
#X msg 1219 572 1: Dir \$1;
#X connect 0 0 2 0;
#X connect 1 0 0 0;
#X connect 2 0 20 0;
#X connect 3 0 15 0;
#X connect 4 0 7 0;
#X connect 5 0 6 1;
#X connect 5 0 9 0;
#X connect 6 0 5 0;
#X connect 7 1 6 0;
#X connect 8 0 6 1;
#X connect 8 0 14 1;
#X connect 9 0 14 1;
#X connect 10 0 11 1;
#X connect 10 0 13 0;
#X connect 11 0 10 0;
#X connect 12 0 11 1;
#X connect 12 0 25 0;
#X connect 13 0 30 1;
#X connect 14 0 16 0;
#X connect 14 0 22 0;
#X connect 15 0 14 0;
#X connect 15 1 4 0;
#X connect 15 2 8 0;
#X connect 16 0 17 0;
#X connect 17 0 11 0;
#X connect 17 0 19 0;
#X connect 18 0 27 0;
#X connect 19 0 21 0;
#X connect 19 0 23 0;
#X connect 20 0 3 0;
#X connect 20 1 19 1;
#X connect 23 0 24 0;
#X connect 24 0 23 1;
#X connect 24 0 28 1;
#X connect 25 0 23 1;
#X connect 27 0 28 0;
#X connect 27 0 30 0;
#X connect 27 1 1 0;
#X connect 27 2 12 0;
#X connect 28 0 26 0;
#X connect 28 0 29 0;
#X connect 30 0 31 0;
#X connect 32 0 36 0;
#X connect 34 0 35 0;
#X connect 35 0 41 0;
#X connect 36 0 37 0;
#X connect 37 0 38 0;
#X connect 38 0 39 0;
#X connect 39 0 35 0;
#X connect 39 1 41 1;
#X connect 40 0 42 0;
#X connect 40 0 43 0;
#X connect 41 1 40 0;
#X connect 43 0 45 0;
#X connect 44 0 46 0;
#X connect 45 0 47 0;
#X connect 45 1 44 0;
#X connect 46 0 47 1;
#X connect 47 1 51 0;
#X connect 48 0 36 1;
#X connect 49 0 35 1;
#X connect 50 0 18 0;
#X connect 51 0 33 0;
