#N canvas 0 50 1370 655 10;
#X obj 172 101 folder_list;
#X msg 173 66 symbol ../*;
#X obj 183 126 list;
#X msg 156 184 symbol \$1/*.wav;
#X obj 599 194 folder_list;
#X obj 656 329 + 1;
#X obj 643 290 f 0;
#X obj 593 230 t a b;
#X msg 724 203 0;
#X obj 656 352 nbx 5 14 -1e+037 1e+037 0 0 empty empty empty 0 -8 0
10 -262144 -1 -1 24 256;
#X obj 351 366 + 1;
#X obj 338 327 f 0;
#X msg 399 294 0;
#X obj 351 389 nbx 5 14 -1e+037 1e+037 0 0 empty empty empty 0 -8 0
10 -262144 -1 -1 3 256;
#X obj 593 368 f 0;
#X obj 599 147 t b a b;
#X obj 530 416 >= 24;
#X obj 500 449 sel 1;
#X obj 234 6 bng 15 250 50 0 empty empty empty 17 7 0 10 -262144 -1
-1;
#X obj 393 554 list;
#X obj 180 155 t a a;
#X obj 400 667 print folder;
#X obj 649 421 print num;
#X obj 416 717 list append;
#X obj 435 758 list;
#X obj 596 554 bng 15 250 50 0 empty empty empty 17 7 0 10 -262144
-1 -1;
#X obj 403 908 print list;
#X obj 235 27 t b b b;
#X obj 407 806 list;
#X obj 492 784 s \$0-dirlist;
#X obj 682 785 f 0;
#X obj 611 827 s \$0-dirlen;
#X obj 850 211 r knob1;
#X obj 1228 645 s screenLine1;
#X obj 948 303 bng 15 250 50 0 empty empty empty 17 7 0 10 -262144
-1 -1;
#X obj 956 334 list;
#X obj 901 285 * 1;
#X obj 897 330 int;
#X obj 904 361 change;
#X obj 933 367 t b f;
#X obj 1037 384 list split 1;
#X obj 1026 354 list split 0;
#X obj 1151 420 s2l /;
#X obj 1214 477 list length;
#X obj 1163 450 t a a;
#X obj 1226 499 - 1;
#X obj 1176 531 list split;
#X obj 996 196 r \$0-dirlen;
#X obj 993 261 r \$0-dirlist;
#X obj 470 82 loadbang;
#X msg 1219 572 1: Dir \$1;
#N canvas -184 39 1370 716 sampler 0;
#X obj 31 87 bng 15 250 50 0 empty empty empty 17 7 0 10 -262144 -1
-1;
#X obj 431 87 bng 15 250 50 0 empty empty empty 17 7 0 10 -262144 -1
-1;
#X obj 228 86 bng 15 250 50 0 empty empty empty 17 7 0 10 -262144 -1
-1;
#X obj 623 89 bng 15 250 50 0 empty empty empty 17 7 0 10 -262144 -1
-1;
#X obj 821 88 bng 15 250 50 0 empty empty empty 17 7 0 10 -262144 -1
-1;
#X obj 1007 85 bng 15 250 50 0 empty empty empty 17 7 0 10 -262144
-1 -1;
#X obj 430 137 bng 15 250 50 0 empty empty empty 17 7 0 10 -262144
-1 -1;
#X obj 227 135 bng 15 250 50 0 empty empty empty 17 7 0 10 -262144
-1 -1;
#X obj 623 137 bng 15 250 50 0 empty empty empty 17 7 0 10 -262144
-1 -1;
#X obj 819 134 bng 15 250 50 0 empty empty empty 17 7 0 10 -262144
-1 -1;
#X obj 1009 133 bng 15 250 50 0 empty empty empty 17 7 0 10 -262144
-1 -1;
#X obj 432 185 bng 15 250 50 0 empty empty empty 17 7 0 10 -262144
-1 -1;
#X obj 227 188 bng 15 250 50 0 empty empty empty 17 7 0 10 -262144
-1 -1;
#X obj 623 186 bng 15 250 50 0 empty empty empty 17 7 0 10 -262144
-1 -1;
#X obj 819 187 bng 15 250 50 0 empty empty empty 17 7 0 10 -262144
-1 -1;
#X obj 1012 185 bng 15 250 50 0 empty empty empty 17 7 0 10 -262144
-1 -1;
#X obj 31 135 bng 15 250 50 0 empty empty empty 17 7 0 10 -262144 -1
-1;
#X obj 31 185 bng 15 250 50 0 empty empty empty 17 7 0 10 -262144 -1
-1;
#X obj 433 235 bng 15 250 50 0 empty empty empty 17 7 0 10 -262144
-1 -1;
#X obj 228 236 bng 15 250 50 0 empty empty empty 17 7 0 10 -262144
-1 -1;
#X obj 624 237 bng 15 250 50 0 empty empty empty 17 7 0 10 -262144
-1 -1;
#X obj 822 236 bng 15 250 50 0 empty empty empty 17 7 0 10 -262144
-1 -1;
#X obj 1012 239 bng 15 250 50 0 empty empty empty 17 7 0 10 -262144
-1 -1;
#X obj 31 234 bng 15 250 50 0 empty empty empty 17 7 0 10 -262144 -1
-1;
#X text 31 41 Sampler Manager;
#X text 294 10 -Each subpatch represents a key on the organelle. -Pass
the sound file name as an argument to sampler-voice \, this replaces
\$1 inside sampler-voice. -The sound files must be in the folder with
this patch.;
#X obj 39 518 sequencer2;
#X obj 531 668 throw~ outL;
#X obj 414 663 throw~ outR;
#X obj 360 466 catch~ samp_voice_out;
#X obj 38 345 loadbang;
#X obj 1230 465 i;
#X obj 1230 436 * 100;
#X obj 1230 409 moses 0.98;
#X msg 1304 456 bang;
#X obj 1230 487 change -1;
#X obj 954 375 r knob2;
#X msg 1304 477 2: Decay Off;
#X obj 1031 485 i;
#X obj 1030 465 + 1;
#X obj 782 522 bang;
#X obj 805 600 - 0.5;
#X obj 805 622 * 200;
#X obj 805 650 i;
#X obj 736 609 - 0.5;
#X obj 736 631 * 200;
#X obj 736 659 i;
#X obj 736 687 abs;
#X obj 773 450 detent 0.075;
#X obj 806 486 s knob1-detent;
#X msg 38 385 \; screenLine1 1: Sample Speed % \; screenLine2 2: Decay
\; screenLine3 3: Delay Time \; screenLine4 4: Feedback \; screenLine5
Aux: Sequencer \;;
#X obj 286 338 send;
#X obj 772 389 nbx 5 14 -1e+037 1e+037 0 0 empty empty empty 0 -8 0
10 -262144 -1 -1 0 256;
#X obj 1230 386 r knob3;
#X obj 1230 543 s screenLine3;
#X msg 1231 522 3: Decay \$1 %;
#X msg 805 678 \; screenLine2 2: Samp Speed +\$1 % \;;
#X msg 782 548 \; screenLine2 2: Samp Speed ORIG \;;
#X msg 523 538 \; screenLine2 2: Samp Speed -\$1 % \;;
#X obj 1007 108 sampler-voice 6.wav 5;
#X obj 1101 438 s samp-decay;
#X obj 31 110 sampler-voice 1.wav 0;
#X obj 228 110 sampler-voice 2.wav 1;
#X obj 431 110 sampler-voice 3.wav 2;
#X obj 623 109 sampler-voice 4.wav 3;
#X obj 821 109 sampler-voice 5.wav 4;
#X obj 31 158 sampler-voice 7.wav 6;
#X obj 227 157 sampler-voice 8.wav 7;
#X obj 430 159 sampler-voice 9.wav 8;
#X obj 623 160 sampler-voice 10.wav 9;
#X obj 819 158 sampler-voice 11.wav 10;
#X obj 1009 157 sampler-voice 12.wav 11;
#X obj 31 208 sampler-voice 13.wav 12;
#X obj 227 209 sampler-voice 14.wav 13;
#X obj 432 208 sampler-voice 15.wav 14;
#X obj 623 209 sampler-voice 16.wav 15;
#X obj 819 210 sampler-voice 17.wav 16;
#X obj 1012 211 sampler-voice 18.wav 17;
#X obj 31 260 sampler-voice 19.wav 18;
#X obj 228 259 sampler-voice 20.wav 19;
#X obj 433 262 sampler-voice 21.wav 20;
#X obj 624 260 sampler-voice 22.wav 21;
#X obj 822 260 sampler-voice 23.wav 22;
#X obj 1012 262 sampler-voice 24.wav 23;
#X connect 0 0 61 0;
#X connect 1 0 63 0;
#X connect 2 0 62 0;
#X connect 3 0 64 0;
#X connect 4 0 65 0;
#X connect 5 0 59 0;
#X connect 6 0 68 0;
#X connect 7 0 67 0;
#X connect 8 0 69 0;
#X connect 9 0 70 0;
#X connect 10 0 71 0;
#X connect 11 0 74 0;
#X connect 12 0 73 0;
#X connect 13 0 75 0;
#X connect 14 0 76 0;
#X connect 15 0 77 0;
#X connect 16 0 66 0;
#X connect 17 0 72 0;
#X connect 18 0 80 0;
#X connect 19 0 79 0;
#X connect 20 0 81 0;
#X connect 21 0 82 0;
#X connect 22 0 83 0;
#X connect 23 0 78 0;
#X connect 29 0 28 0;
#X connect 29 0 27 0;
#X connect 30 0 50 0;
#X connect 31 0 35 0;
#X connect 32 0 31 0;
#X connect 33 0 32 0;
#X connect 33 1 34 0;
#X connect 34 0 37 0;
#X connect 35 0 55 0;
#X connect 36 0 48 0;
#X connect 37 0 54 0;
#X connect 39 0 38 0;
#X connect 40 0 57 0;
#X connect 41 0 42 0;
#X connect 42 0 43 0;
#X connect 43 0 56 0;
#X connect 44 0 45 0;
#X connect 45 0 46 0;
#X connect 46 0 47 0;
#X connect 47 0 58 0;
#X connect 48 0 44 0;
#X connect 48 0 49 0;
#X connect 48 1 40 0;
#X connect 48 1 49 0;
#X connect 48 2 41 0;
#X connect 48 2 49 0;
#X connect 52 0 48 0;
#X connect 53 0 33 0;
#X connect 53 0 60 0;
#X connect 55 0 54 0;
#X restore 851 96 pd sampler;
#X obj 1029 644 folder_list;
#X obj 909 785 print fl;
#X msg 1024 608 symbol \$1/*.wav;
#X obj 1045 431 t b a;
#X obj 1067 515 list;
#X obj 1043 481 delay 150;
#X obj 1054 572 list;
#X obj 1052 554 del 300;
#X obj 1099 881 s;
#X obj 1025 723 t a b;
#X obj 1050 534 t b a b;
#X msg 1114 682 0;
#X obj 1105 703 nbx 5 14 -1e+037 1e+037 0 0 empty empty empty 0 -8
0 10 -262144 -1 -1 0 256;
#X obj 1070 759 f 0;
#X obj 1113 791 + 1;
#X msg 1116 848 symbol \$1-file;
#X connect 0 0 2 0;
#X connect 1 0 0 0;
#X connect 2 0 20 0;
#X connect 3 0 15 0;
#X connect 4 0 7 0;
#X connect 5 0 6 1;
#X connect 5 0 9 0;
#X connect 6 0 5 0;
#X connect 7 1 6 0;
#X connect 8 0 6 1;
#X connect 8 0 14 1;
#X connect 9 0 14 1;
#X connect 10 0 11 1;
#X connect 10 0 13 0;
#X connect 11 0 10 0;
#X connect 12 0 11 1;
#X connect 12 0 25 0;
#X connect 13 0 30 1;
#X connect 14 0 16 0;
#X connect 14 0 22 0;
#X connect 15 0 14 0;
#X connect 15 1 4 0;
#X connect 15 2 8 0;
#X connect 16 0 17 0;
#X connect 17 0 11 0;
#X connect 17 0 19 0;
#X connect 18 0 27 0;
#X connect 19 0 21 0;
#X connect 19 0 23 0;
#X connect 20 0 3 0;
#X connect 20 1 19 1;
#X connect 23 0 24 0;
#X connect 24 0 23 1;
#X connect 24 0 28 1;
#X connect 25 0 23 1;
#X connect 27 0 28 0;
#X connect 27 0 30 0;
#X connect 27 1 1 0;
#X connect 27 2 12 0;
#X connect 28 0 26 0;
#X connect 28 0 29 0;
#X connect 30 0 31 0;
#X connect 32 0 36 0;
#X connect 34 0 35 0;
#X connect 35 0 41 0;
#X connect 36 0 37 0;
#X connect 37 0 38 0;
#X connect 38 0 39 0;
#X connect 39 0 35 0;
#X connect 39 1 41 1;
#X connect 40 0 42 0;
#X connect 40 0 55 0;
#X connect 41 1 40 0;
#X connect 42 0 44 0;
#X connect 43 0 45 0;
#X connect 44 0 46 0;
#X connect 44 1 43 0;
#X connect 45 0 46 1;
#X connect 46 1 50 0;
#X connect 47 0 36 1;
#X connect 48 0 35 1;
#X connect 49 0 18 0;
#X connect 50 0 33 0;
#X connect 52 0 53 0;
#X connect 52 0 61 0;
#X connect 54 0 52 0;
#X connect 55 0 57 0;
#X connect 55 1 56 1;
#X connect 56 0 62 0;
#X connect 57 0 56 0;
#X connect 58 0 54 0;
#X connect 59 0 58 0;
#X connect 61 0 60 0;
#X connect 61 1 65 0;
#X connect 62 0 59 0;
#X connect 62 1 58 1;
#X connect 62 2 63 0;
#X connect 63 0 64 0;
#X connect 64 0 65 1;
#X connect 65 0 66 0;
#X connect 65 0 67 0;
#X connect 66 0 64 0;
#X connect 67 0 60 1;
