#N canvas 0 50 1356 691 10;
#X declare -path ./util/;
#X declare -path patchmenu;
#X obj 294 546 throw~ outL;
#X obj 395 550 throw~ outR;
#X obj 128 71 r notes;
#X obj 13 422 loadbang;
#X text 11 400 screen lines;
#X text 21 30 basic polyphonic patch with 8 voices;
#X obj 195 395 *~ 0.3;
#X msg 13 445 \; screenLine1 1: Tune \; screenLine2 2: Vibrato Rate
\; screenLine3 3: Voicing \; screenLine4 4: Chord \; screenLine5 Aux:
Wave \;;
#X obj 527 137 pack 0 0 0, f 11;
#X obj 510 158 route 1 2 3 4, f 19;
#X obj 483 203 unpack 0 0;
#X obj 477 224 nbx 3 14 -1e+037 1e+037 0 0 empty empty empty 0 -8 0
10 -262144 -1 -1 64 256;
#X obj 520 221 nbx 3 14 -1e+037 1e+037 0 0 empty empty empty 0 -8 0
10 -262144 -1 -1 0 256;
#X obj 537 114 poly 4, f 11;
#X obj 573 205 unpack 0 0;
#X obj 567 226 nbx 3 14 -1e+037 1e+037 0 0 empty empty empty 0 -8 0
10 -262144 -1 -1 65 256;
#X obj 610 223 nbx 3 14 -1e+037 1e+037 0 0 empty empty empty 0 -8 0
10 -262144 -1 -1 0 256;
#X obj 485 261 unpack 0 0;
#X obj 479 282 nbx 3 14 -1e+037 1e+037 0 0 empty empty empty 0 -8 0
10 -262144 -1 -1 69 256;
#X obj 522 279 nbx 3 14 -1e+037 1e+037 0 0 empty empty empty 0 -8 0
10 -262144 -1 -1 0 256;
#X obj 575 263 unpack 0 0;
#X obj 569 284 nbx 3 14 -1e+037 1e+037 0 0 empty empty empty 0 -8 0
10 -262144 -1 -1 64 256;
#X obj 612 281 nbx 3 14 -1e+037 1e+037 0 0 empty empty empty 0 -8 0
10 -262144 -1 -1 0 256;
#X obj 276 397 *~ 0.3;
#X obj 375 358 r arp_mix;
#X obj 275 449 *~ 1;
#X obj 346 431 *~ 0;
#X obj 382 379 - 1;
#X obj 382 400 abs;
#X obj 829 142 declare -path ./util/;
#X obj 828 163 declare -path patchmenu;
#X obj 828 344 patchmenu;
#X obj 860 257 s enableSubMenu;
#X obj 828 185 loadbang;
#X msg 828 257 0;
#X obj 828 234 t b b;
#X obj 794 164 bng 15 250 50 0 empty empty empty 17 7 0 10 -262144
-1 -1;
#X msg 786 315 1;
#X obj 786 283 delay 3000;
#X obj 828 209 versioncheck 2;
#X msg 828 373 \; screenLine1 ZChord \; screenLine2 Arp \; screenLine3
Seq/Arp \; screenLine4 Effects \; screenLine5 <-- Home \;;
#X obj 532 89 arp/arp 3;
#X obj 330 490 FX-13/fxwrapper 4;
#X obj 138 138 zchord/zchord 1 2;
#X obj 494 243 arpvoice;
#X obj 584 245 arpvoice;
#X obj 496 301 arpvoice;
#X obj 586 303 arpvoice;
#X connect 2 0 43 0;
#X connect 3 0 7 0;
#X connect 6 0 25 0;
#X connect 8 0 9 0;
#X connect 9 0 10 0;
#X connect 9 1 14 0;
#X connect 9 2 17 0;
#X connect 9 3 20 0;
#X connect 10 0 11 0;
#X connect 10 1 12 0;
#X connect 11 0 44 0;
#X connect 12 0 44 1;
#X connect 13 0 8 0;
#X connect 13 1 8 1;
#X connect 13 2 8 2;
#X connect 14 0 15 0;
#X connect 14 1 16 0;
#X connect 15 0 45 0;
#X connect 16 0 45 1;
#X connect 17 0 18 0;
#X connect 17 1 19 0;
#X connect 18 0 46 0;
#X connect 19 0 46 1;
#X connect 20 0 21 0;
#X connect 20 1 22 0;
#X connect 21 0 47 0;
#X connect 22 0 47 1;
#X connect 23 0 26 0;
#X connect 24 0 26 1;
#X connect 24 0 27 0;
#X connect 25 0 42 0;
#X connect 26 0 42 0;
#X connect 27 0 28 0;
#X connect 28 0 25 1;
#X connect 31 0 40 0;
#X connect 33 0 39 0;
#X connect 34 0 31 0;
#X connect 35 0 34 0;
#X connect 35 0 38 0;
#X connect 35 1 32 0;
#X connect 36 0 35 0;
#X connect 37 0 31 0;
#X connect 39 0 35 0;
#X connect 41 0 13 0;
#X connect 42 0 0 0;
#X connect 42 1 1 0;
#X connect 43 0 6 0;
#X connect 43 1 41 0;
#X connect 44 0 23 0;
#X connect 45 0 23 0;
#X connect 46 0 23 0;
#X connect 47 0 23 0;
